<?xml version="1.0" encoding="UTF-8" standalone="no"?><!-- Generator: Gravit.io --><svg xmlns="http://www.w3.org/2000/svg" xmlns:xlink="http://www.w3.org/1999/xlink" style="isolation:isolate" viewBox="0 0 1000 1000" width="1000pt" height="1000pt"><defs><clipPath id="_clipPath_qG3DrA9253HnBC4HCxOzwP4hoCVEq5gj"><rect width="1000" height="1000"/></clipPath></defs><g clip-path="url(#_clipPath_qG3DrA9253HnBC4HCxOzwP4hoCVEq5gj)"><g clip-path="url(#_clipPath_XtUfHdnJzHLKSacLgxnvvNQvjGnKPmDu)"><text transform="matrix(1.156,0,0,1,19.688,880.89)" style="font-family:'Chicle';font-weight:400;font-size:180px;font-style:normal;letter-spacing:-2;fill:#668fff;stroke:none;">baby shampoo</text></g><defs><clipPath id="_clipPath_XtUfHdnJzHLKSacLgxnvvNQvjGnKPmDu"><rect x="0" y="0" width="865" height="350" transform="matrix(1.156,0,0,1,0,650)"/></clipPath></defs><path d=" M 375.388 25 C 340.188 25 306.5 51.612 305.075 52.738 C 299.683 57.052 298.81 64.921 303.125 70.313 C 307.44 75.704 315.308 76.577 320.7 72.262 C 328.412 66.063 353.375 50 375.388 50 C 407.713 50 434.512 72.075 434.763 72.262 L 437.112 74.213 L 437.112 100 L 562.112 100 L 562.112 75 L 575.388 75 C 582.291 75 587.887 69.404 587.887 62.5 C 587.887 55.596 582.291 50 575.388 50 L 447.263 50 C 437.4 42.825 409.325 25 375.388 25 Z  M 425 125 C 418.125 125 412.5 130.625 412.5 137.5 L 412.5 175 L 587.5 175 L 587.5 137.5 C 587.5 130.596 581.904 125 575 125 L 425 125 Z  M 400 200 C 338 200 287.5 250.5 287.5 312.5 L 287.5 587.5 C 287.5 621.975 315.525 650 350 650 L 650 650 C 684.475 650 712.5 621.975 712.5 587.5 L 712.5 312.5 C 712.5 250.5 662.063 200 600 200 L 400 200 Z  M 400 225 L 600 225 C 648.25 225 687.5 264.25 687.5 312.5 L 687.5 375 L 536.325 375 C 537.013 370.95 537.5 366.8 537.5 362.5 C 537.5 321.137 503.863 287.5 462.5 287.5 C 421.137 287.5 387.5 321.137 387.5 362.5 C 387.5 366.8 388 370.95 388.675 375 L 312.5 375 L 312.5 312.5 C 312.5 264.25 351.75 225 400 225 Z  M 462.5 312.5 C 490.088 312.5 512.5 334.912 512.5 362.5 C 512.5 390.088 490.088 412.5 462.5 412.5 C 434.912 412.5 412.5 390.088 412.5 362.5 C 412.5 334.912 434.912 312.5 462.5 312.5 Z  M 575 450 C 595.718 450.007 612.507 466.807 612.5 487.525 C 612.493 508.243 595.693 525.032 574.975 525.025 C 554.257 525.018 537.468 508.218 537.475 487.5 C 537.482 466.782 554.282 449.993 575 450 Z  M 475 537.5 C 488.807 537.5 500 548.693 500 562.5 C 500 576.307 488.807 587.5 475 587.5 C 461.193 587.5 450 576.307 450 562.5 C 450 548.693 461.193 537.5 475 537.5 Z " fill="rgb(255,82,151)"/></g></svg>