<?xml version="1.0" encoding="UTF-8" standalone="no"?><!-- Generator: Gravit.io --><svg xmlns="http://www.w3.org/2000/svg" xmlns:xlink="http://www.w3.org/1999/xlink" style="isolation:isolate" viewBox="0 0 1000 1000" width="1000pt" height="1000pt"><defs><clipPath id="_clipPath_nHbOhv1wlhqIwIwEqXGQY6zIXwxkMSwt"><rect width="1000" height="1000"/></clipPath></defs><g clip-path="url(#_clipPath_nHbOhv1wlhqIwIwEqXGQY6zIXwxkMSwt)"><g clip-path="url(#_clipPath_f2PnltLZAV1YAKLXN2f38vSYYMy8Ehy0)"><text transform="matrix(1.156,0,0,1,38.855,880.89)" style="font-family:'Chicle';font-weight:400;font-size:180px;font-style:normal;fill:#ff5297;stroke:none;">baby monitor</text></g><defs><clipPath id="_clipPath_f2PnltLZAV1YAKLXN2f38vSYYMy8Ehy0"><rect x="0" y="0" width="865" height="350" transform="matrix(1.156,0,0,1,0,650)"/></clipPath></defs><path d=" M 358.597 25.057 C 358.049 25.159 357.501 25.312 357.004 25.452 C 351.076 26.791 346.912 32.122 347.05 38.198 L 347.05 161.68 C 331.372 170.539 318.766 180.748 310.405 195.125 C 299.597 213.709 296.066 236.804 296.066 269.217 C 296.066 511.096 317.275 581.886 321.953 595.435 C 326.389 608.283 329.779 620.417 340.677 630.078 C 351.574 639.74 366.806 643.78 391.66 646.011 C 427.106 649.197 470.277 650 498.407 650 C 499.745 650 499.108 649.745 500 649.605 C 500.892 649.745 500.293 650 501.593 650 C 529.672 650 572.843 649.197 608.34 646.011 C 633.194 643.78 648.426 639.74 659.323 630.078 C 670.221 620.43 673.662 608.321 678.047 595.435 C 682.572 582.319 703.934 513.275 703.934 269.217 C 703.934 235.861 699.804 211.912 688.792 193.137 C 684.165 185.409 678.241 178.536 671.279 172.82 L 676.046 160.074 C 682.827 141.363 672.859 120.651 654.149 113.883 L 628.657 104.324 L 628.249 103.916 C 609.538 97.148 588.826 107.102 582.058 125.826 C 581.902 126.083 581.765 126.351 581.65 126.629 L 578.871 135.386 C 556.464 130.606 530.463 127.419 500 127.419 C 444.39 127.419 403.807 136.635 372.541 149.329 L 372.541 38.198 C 372.672 34.532 371.215 30.986 368.545 28.47 C 365.875 25.954 362.25 24.71 358.597 25.057 Z  M 615.516 127.419 C 617.01 127.418 618.492 127.69 619.888 128.222 L 645.379 137.782 C 651.064 139.821 653.792 146.041 651.752 151.713 L 649.369 158.889 C 645.673 157.104 642.193 155.307 638.216 153.714 C 628.147 149.635 616.51 145.544 603.56 141.758 L 605.549 134.583 L 605.956 134.583 C 607.382 130.467 611.166 127.632 615.516 127.419 Z  M 500 152.911 C 531.317 152.911 556.961 156.646 578.871 161.68 C 581.839 164.202 585.798 165.226 589.616 164.459 C 604.401 168.448 617.402 172.68 628.657 177.205 C 634.724 179.652 639.618 182.176 644.181 184.776 C 646.08 188.714 649.815 191.404 654.149 191.952 C 659.17 196.081 663.657 200.364 666.894 205.883 C 674.364 218.578 678.442 237.952 678.442 269.217 C 678.442 511.784 657.539 576.214 653.741 587.074 C 649.165 600.457 646.922 607.136 642.601 610.959 C 638.267 614.796 628.759 618.887 605.944 620.927 C 572.894 623.858 532.069 624.457 504.385 624.508 L 503.977 624.508 C 501.64 623.813 499.151 623.813 496.814 624.508 L 495.615 624.508 C 467.88 624.457 427.055 623.871 394.056 620.927 C 371.241 618.887 361.733 614.809 357.412 610.959 C 353.078 607.136 350.835 600.457 346.247 587.074 C 342.678 576.66 321.558 509.592 321.558 269.217 C 321.558 238.793 325.382 220.477 332.71 207.871 C 340.027 195.278 351.536 186.713 372.146 177.205 C 401.462 163.669 440.655 152.911 500 152.911 Z  M 420.338 254.878 C 415.163 254.878 410.779 259.709 410.779 265.636 L 410.779 269.612 C 410.779 275.539 415.163 280.37 420.338 280.37 L 579.662 280.37 C 584.836 280.37 589.221 275.539 589.221 269.612 L 589.221 265.636 C 589.221 259.709 585.232 254.878 580.057 254.878 L 420.338 254.878 Z  M 420.338 305.862 C 415.163 305.862 410.779 310.692 410.779 316.619 L 410.779 320.596 C 410.779 326.523 415.163 331.353 420.338 331.353 L 579.662 331.353 C 584.836 331.353 589.221 326.523 589.221 320.596 L 589.221 316.619 C 589.221 310.692 585.232 305.862 580.057 305.862 L 420.338 305.862 Z  M 420.338 356.845 C 415.163 356.845 410.779 361.676 410.779 367.603 L 410.779 371.579 C 410.779 377.506 415.163 382.337 420.338 382.337 L 579.662 382.337 C 584.836 382.337 589.221 377.506 589.221 371.579 L 589.221 367.603 C 589.221 361.676 585.232 356.845 580.057 356.845 L 420.338 356.845 Z " fill="rgb(102,143,255)"/></g></svg>