<?xml version="1.0" encoding="UTF-8" standalone="no"?><!-- Generator: Gravit.io --><svg xmlns="http://www.w3.org/2000/svg" xmlns:xlink="http://www.w3.org/1999/xlink" style="isolation:isolate" viewBox="0 0 1000 1000" width="1000pt" height="1000pt"><defs><clipPath id="_clipPath_0EAwJIiQsUwMXH4tkIZmx5YJA9cJ8rVV"><rect width="1000" height="1000"/></clipPath></defs><g clip-path="url(#_clipPath_0EAwJIiQsUwMXH4tkIZmx5YJA9cJ8rVV)"><g clip-path="url(#_clipPath_4sPTpoTqlLXFfepwKLapCWnLt9BWeiOC)"><text transform="matrix(1.156,0,0,1,22.76,894.863)" style="font-family:'Chicle';font-weight:400;font-size:225px;font-style:normal;letter-spacing:-2;fill:#ff5297;stroke:none;">baby wipes</text></g><defs><clipPath id="_clipPath_4sPTpoTqlLXFfepwKLapCWnLt9BWeiOC"><rect x="0" y="0" width="865" height="350" transform="matrix(1.156,0,0,1,0,650)"/></clipPath></defs><path d=" M 781.749 594.395 L 781.731 594.492 C 778.288 612.124 762.895 624.885 744.93 625 L 255.07 625 C 237.072 624.875 221.663 612.067 218.251 594.395 L 175.551 387.504 L 150 387.504 L 193.723 599.345 C 199.51 628.678 225.171 649.867 255.07 650 L 744.93 650 C 774.81 649.867 800.461 628.704 806.268 599.394 L 850 387.504 L 824.449 387.504 L 781.749 594.395 Z  M 363.633 556.249 L 636.367 556.249 C 642.472 556.249 647.685 551.839 648.696 545.818 L 662.331 464.57 C 662.896 460.951 661.861 457.265 659.495 454.469 C 657.128 451.673 653.664 450.043 650.002 450.001 L 349.998 450.001 C 346.335 450.042 342.871 451.672 340.504 454.468 C 338.138 457.264 337.103 460.951 337.668 464.57 L 351.304 545.818 C 352.316 551.839 357.528 556.249 363.633 556.249 Z  M 635.228 475 L 625.789 531.25 L 374.211 531.25 L 364.772 475 L 635.228 475 Z  M 850 212.514 L 676.366 212.514 L 662.041 237.514 L 850 237.514 C 863.8 237.529 874.984 248.713 875 262.513 L 875.015 337.512 L 125 337.512 L 125 262.513 C 125.016 248.713 136.2 237.529 150 237.514 L 337.959 237.514 L 323.634 212.514 L 150 212.514 C 122.399 212.545 100.032 234.912 100 262.513 L 100 337.512 C 100.016 351.312 111.2 362.496 125 362.512 L 875 362.512 C 888.8 362.496 899.984 351.312 900 337.512 L 900 262.513 C 899.968 234.912 877.601 212.545 850 212.514 L 850 212.514 Z  M 388.262 275.011 L 350 275.011 C 343.097 275.011 337.501 280.607 337.501 287.51 C 337.501 294.413 343.097 300.009 350 300.009 L 650 300.009 C 656.903 300.009 662.499 294.413 662.499 287.51 C 662.499 280.607 656.903 275.011 650 275.011 L 611.738 275.011 L 692.096 134.784 C 694.132 131.232 694.299 126.909 692.544 123.211 C 690.788 119.512 687.333 116.908 683.295 116.239 L 636.95 108.556 L 655.526 44.893 C 657.204 39.672 655.914 33.951 652.157 29.956 C 648.919 26.475 644.203 24.767 639.486 25.366 C 615.32 25.766 602.899 40.493 592.895 52.36 C 583.136 63.932 577.001 70.478 564.401 70.478 C 556.479 70.478 550.653 63.578 542.001 52.214 C 531.949 39.016 518.206 20.92 493.716 25.821 C 477.737 29.01 467.627 41.448 458.706 52.425 C 449.575 63.657 443.469 70.478 435.666 70.478 C 423.074 70.475 416.943 63.929 407.193 52.36 C 397.201 40.508 384.805 25.805 360.705 25.366 C 354.949 24.457 349.19 26.984 345.962 31.835 C 343.664 35.666 343.123 40.3 344.476 44.557 L 363.08 108.55 L 316.705 116.239 C 312.667 116.908 309.211 119.512 307.456 123.21 C 305.701 126.909 305.868 131.232 307.904 134.784 L 388.262 275.011 Z  M 661.462 137.961 L 594.038 255.618 L 629.897 132.727 L 661.462 137.961 Z  M 388.077 68.473 C 398.218 80.502 410.837 95.473 435.663 95.477 C 455.929 95.477 468.225 80.347 478.106 68.189 C 484.973 59.742 491.458 51.765 498.611 50.337 C 506.903 48.671 511.908 53.966 522.11 67.359 C 531.649 79.886 543.521 95.476 564.401 95.476 C 589.236 95.476 601.861 80.505 612.005 68.473 C 616.169 62.907 621.17 58.02 626.831 53.987 L 562.372 274.898 L 550.411 274.908 L 552.753 265.542 C 554.426 258.844 550.353 252.057 543.655 250.384 C 536.957 248.71 530.171 252.783 528.497 259.481 L 524.635 274.929 L 512.5 274.939 L 512.5 237.513 C 512.5 230.609 506.904 225.013 500 225.013 C 493.096 225.013 487.5 230.609 487.5 237.513 L 487.5 274.96 L 475.375 274.97 L 471.503 259.481 C 469.829 252.783 463.043 248.71 456.345 250.384 C 449.647 252.057 445.574 258.844 447.247 265.542 L 449.61 274.992 L 437.503 275.002 L 373.248 53.978 C 378.912 58.012 383.915 62.902 388.077 68.473 L 388.077 68.473 Z  M 370.108 132.726 L 405.702 255.165 L 338.538 137.961 L 370.108 132.726 Z " fill-rule="evenodd" fill="rgb(102,143,255)"/></g></svg>