<?xml version="1.0" encoding="UTF-8" standalone="no"?><!-- Generator: Gravit.io --><svg xmlns="http://www.w3.org/2000/svg" xmlns:xlink="http://www.w3.org/1999/xlink" style="isolation:isolate" viewBox="0 0 1000 1000" width="1000pt" height="1000pt"><defs><clipPath id="_clipPath_JbfHV6yQwK3rs81VbQpLsceOTZ2XNfi6"><rect width="1000" height="1000"/></clipPath></defs><g clip-path="url(#_clipPath_JbfHV6yQwK3rs81VbQpLsceOTZ2XNfi6)"><path d=" M 750.594 144.491 C 723.016 104.671 680.654 77.538 632.95 69.14 C 597.884 62.849 562.551 66.865 530.162 80.516 C 521.997 72.218 513.03 64.589 503.26 57.763 C 463.552 30.017 414.409 19.273 366.744 27.917 C 318.696 36.483 276.939 63.385 249.1 103.402 C 221.262 143.42 210.688 192.004 219.254 239.918 C 227.954 288.1 257.934 341.1 299.424 381.653 C 329.136 410.696 361.525 429.701 392.709 437.063 C 391.103 440.944 390.3 445.093 390.166 449.51 C 389.899 463.027 396.992 475.073 408.368 480.159 C 410.911 481.363 415.06 482.702 420.682 482.702 C 422.288 482.702 423.894 482.568 425.634 482.3 C 426.035 497.959 430.719 518.57 448.118 536.237 C 472.879 561.399 465.384 576.121 453.74 588.167 C 448.654 593.52 448.788 601.952 454.007 607.038 C 459.361 612.133 467.805 612.014 473.012 606.77 C 491.616 587.631 505.669 556.581 467.257 517.5 C 453.74 503.714 451.866 486.984 452.535 476.277 C 466.588 477.348 474.886 471.058 478.366 467.578 C 486.263 459.681 489.073 447.77 485.995 436.393 C 495.23 446.565 505.134 454.997 515.306 461.823 C 512.495 464.901 510.353 468.515 508.747 472.53 C 503.795 485.111 506.338 498.896 515.172 507.596 C 517.715 510.005 522.667 514.02 530.563 515.626 C 525.611 530.482 522.8 551.361 532.838 573.98 C 547.293 606.235 535.248 617.343 520.124 624.571 C 513.432 627.783 510.621 635.813 513.833 642.371 C 516.109 647.189 520.927 650 525.879 650 C 527.753 650 529.76 649.599 531.634 648.662 C 555.725 637.152 579.682 612.927 557.331 562.871 C 549.434 545.338 553.583 529.01 557.732 519.106 C 563.354 521.649 568.44 522.452 572.722 522.452 C 578.21 522.452 582.493 520.979 585.036 519.909 C 596.278 514.689 603.505 502.644 603.238 489.26 C 603.104 485.914 602.568 482.568 601.632 479.489 C 634.69 473.199 669.22 453.659 700.94 422.608 C 742.43 382.055 772.41 329.055 780.976 280.873 C 789.14 232.958 778.433 184.509 750.594 144.491 L 750.594 144.491 Z  M 245.487 235.234 C 238.125 194.279 247.226 152.923 270.916 118.66 C 294.461 84.684 330.594 61.51 371.295 54.284 C 380.53 52.678 389.899 51.741 399.133 51.741 C 430.586 51.741 461.368 61.377 487.735 79.713 C 498.308 87.074 507.677 95.506 515.975 104.875 C 516.242 105.276 516.51 105.544 516.912 105.945 C 527.753 118.526 536.586 132.847 542.876 148.238 C 554.788 181.163 556.796 221.448 551.04 253.837 C 542.475 301.752 512.896 356.893 488.002 383.527 C 472.343 398.785 454.677 409.224 435.538 412.704 C 399.937 419.128 356.974 400.792 317.76 362.514 C 280.954 326.244 253.115 277.527 245.487 235.234 L 245.487 235.234 Z  M 459.093 448.707 C 458.023 449.777 453.874 450.714 445.576 447.502 C 440.891 445.628 435.404 446.565 431.656 450.045 C 424.964 456.068 420.682 456.603 419.343 455.934 C 418.005 455.398 416.8 452.989 416.8 450.045 C 416.8 447.502 418.005 443.888 422.957 441.881 L 425.366 440.676 C 430.442 440.546 435.499 440.009 440.49 439.07 C 443.702 438.535 446.914 437.732 450.126 436.795 L 450.795 436.795 C 456.149 436.929 458.424 439.873 459.495 442.282 C 460.565 445.093 460.164 447.636 459.093 448.707 L 459.093 448.707 Z  M 573.392 495.818 C 572.053 496.353 567.77 495.952 561.078 489.929 C 557.288 486.527 551.907 485.544 547.159 487.386 C 538.727 490.732 534.578 489.661 533.641 488.59 C 532.571 487.654 532.169 484.977 533.24 482.3 C 534.177 479.891 536.452 476.946 541.939 476.813 C 542.876 476.813 543.679 476.679 544.482 476.411 C 549.301 478.017 554.253 479.222 559.205 480.159 C 562.417 480.694 565.763 481.095 569.109 481.363 C 569.376 481.497 569.51 481.631 569.778 481.631 C 574.73 483.638 575.934 487.252 575.934 489.795 C 576.068 492.873 574.73 495.149 573.392 495.818 Z  M 754.074 276.322 C 746.445 318.615 718.74 367.466 681.667 403.603 C 642.452 441.881 599.624 460.217 564.023 453.792 C 535.917 448.707 513.833 429.166 498.71 410.429 C 502.323 407.217 505.937 403.737 509.283 399.989 C 525.879 383.126 540.735 361.577 552.914 336.014 C 577.674 283.549 587.445 223.456 578.745 175.274 C 576.202 161.221 572.187 147.837 566.7 134.988 C 562.209 123.168 556.227 111.968 548.899 101.663 C 574.195 92.695 601.364 90.42 628.265 95.238 C 669.22 102.599 704.955 125.486 728.645 159.615 C 752.334 193.744 761.435 235.368 754.074 276.322 L 754.074 276.322 Z  M 481.444 242.327 C 481.98 248.082 482.381 252.499 483.318 256.38 C 486.664 270.032 496.836 271.102 499.914 271.102 C 506.071 271.102 511.558 267.623 515.975 260.931 C 527.753 242.729 540.333 187.186 521.997 145.696 C 507.811 113.44 481.846 92.695 455.881 92.695 C 444.371 92.695 435.404 98.049 431.255 107.284 C 423.894 123.612 433.932 149.711 458.023 176.88 C 477.563 199.097 479.838 225.062 481.444 242.327 L 481.444 242.327 Z  M 455.747 119.329 C 470.603 119.329 487.735 134.587 497.371 156.403 C 504.598 172.597 505.268 192.138 503.394 208.867 C 499.513 193.074 492.285 175.408 477.697 158.946 C 459.762 138.736 455.212 124.147 455.212 119.195 C 455.48 119.329 455.613 119.329 455.747 119.329 L 455.747 119.329 Z  M 697.46 165.504 C 686.619 161.622 676.447 163.496 669.354 170.723 C 656.773 183.572 657.308 211.41 670.692 245.272 C 681.667 272.976 674.975 298.138 670.425 314.868 C 668.952 320.355 667.748 324.772 667.346 328.787 C 665.874 342.706 674.975 347.123 677.92 348.194 C 679.66 348.863 681.533 349.13 683.407 349.13 C 687.69 349.13 691.973 347.391 696.523 344.045 C 713.922 331.062 744.571 283.014 741.627 237.91 C 739.084 202.845 721.819 174.471 697.46 165.504 L 697.46 165.504 Z  M 702.546 291.178 C 704.286 275.118 703.617 255.979 695.452 235.501 C 685.548 210.34 686.218 195.082 687.958 190.532 C 688.091 190.532 688.225 190.665 688.359 190.665 C 702.278 195.751 713.253 215.961 714.859 239.784 C 715.93 257.451 710.041 276.055 702.546 291.178 Z " fill="rgb(102,143,255)"/><g clip-path="url(#_clipPath_J7HY1fYwqKGUVsE5nlYnFLUj5R13O5hp)"><text transform="matrix(1.156,0,0,1,135.592,894.863)" style="font-family:'Chicle';font-weight:400;font-size:225px;font-style:normal;fill:#ff5297;stroke:none;">balloons</text></g><defs><clipPath id="_clipPath_J7HY1fYwqKGUVsE5nlYnFLUj5R13O5hp"><rect x="0" y="0" width="865" height="350" transform="matrix(1.156,0,0,1,0,650)"/></clipPath></defs></g></svg>