<?xml version="1.0" encoding="UTF-8" standalone="no"?><!-- Generator: Gravit.io --><svg xmlns="http://www.w3.org/2000/svg" xmlns:xlink="http://www.w3.org/1999/xlink" style="isolation:isolate" viewBox="0 0 1000 1000" width="1000pt" height="1000pt"><defs><clipPath id="_clipPath_i1x7ypXSUTPwURr5UOk8wDwTnbMMjkO5"><rect width="1000" height="1000"/></clipPath></defs><g clip-path="url(#_clipPath_i1x7ypXSUTPwURr5UOk8wDwTnbMMjkO5)"><g clip-path="url(#_clipPath_soHwgCHvYCOAwWApw6MJVMPENnEUOUXM)"><text transform="matrix(1.156,0,0,1,153.801,894.863)" style="font-family:'Chicle';font-weight:400;font-size:225px;font-style:normal;fill:#ff5297;stroke:none;">baptism</text></g><defs><clipPath id="_clipPath_soHwgCHvYCOAwWApw6MJVMPENnEUOUXM"><rect x="0" y="0" width="865" height="350" transform="matrix(1.156,0,0,1,0,650)"/></clipPath></defs><path d=" M 359.176 25 C 273.607 25 203.519 80.372 203.519 147.974 C 203.463 151.999 206.123 155.744 210.538 157.801 C 214.967 159.813 220.373 159.813 224.802 157.801 C 229.217 155.744 231.877 151.988 231.82 147.974 C 231.82 92.602 289.088 47.359 359.176 47.359 C 422.472 47.359 475.084 84.307 484.763 132.256 C 464.103 114.525 434.627 103.256 401.628 103.256 C 338.941 103.256 288.423 143.167 288.423 192.692 C 288.366 196.717 291.027 200.462 295.442 202.519 C 299.871 204.531 305.276 204.531 309.706 202.519 C 314.121 200.462 316.781 196.706 316.724 192.692 C 316.724 155.006 353.926 125.615 401.628 125.615 C 449.33 125.615 486.532 155.006 486.532 192.692 C 474.645 185.616 459.999 181.513 444.08 181.513 C 405.222 181.513 373.327 206.711 373.327 237.41 C 373.27 241.435 375.931 245.18 380.346 247.237 C 384.775 249.249 390.18 249.249 394.609 247.237 C 399.024 245.18 401.685 241.424 401.628 237.41 C 401.628 218.887 420.634 203.872 444.08 203.872 C 467.526 203.872 486.532 218.887 486.532 237.41 L 486.532 270.949 L 514.833 270.949 L 514.833 239.154 C 514.89 238.595 514.89 237.98 514.833 237.41 C 514.833 218.887 533.84 203.872 557.285 203.872 C 580.731 203.872 599.737 218.887 599.737 237.41 C 599.68 241.435 602.341 245.18 606.756 247.237 C 611.185 249.249 616.59 249.249 621.02 247.237 C 625.435 245.18 628.095 241.424 628.038 237.41 C 628.038 206.711 596.143 181.513 557.285 181.513 C 541.366 181.513 526.72 185.616 514.833 192.692 C 514.833 155.006 552.035 125.615 599.737 125.615 C 647.439 125.615 684.641 155.006 684.641 192.692 C 684.584 196.717 687.245 200.462 691.66 202.519 C 696.089 204.531 701.494 204.531 705.923 202.519 C 710.338 200.462 712.999 196.706 712.942 192.692 C 712.942 143.167 662.424 103.256 599.737 103.256 C 566.738 103.256 537.276 114.525 516.602 132.256 C 526.281 84.296 578.893 47.359 642.189 47.359 C 712.277 47.359 769.545 92.602 769.545 147.974 C 769.488 151.999 772.148 155.744 776.563 157.801 C 780.992 159.813 786.398 159.813 790.827 157.801 C 795.242 155.744 797.903 151.988 797.846 147.974 C 797.846 80.372 727.758 25 642.189 25 C 579.445 25 525.276 54.827 500.683 97.32 C 476.145 54.782 421.92 25 359.176 25 Z  M 270.296 282.128 C 262.499 283 257.023 288.724 258.126 294.873 C 259.244 301.033 266.475 305.359 274.272 304.487 L 275.603 304.487 C 281.461 329.507 306.493 354.403 341.927 375.063 C 366.478 389.373 396.704 401.301 430.368 408.601 C 430.03 409.623 429.882 410.677 429.929 411.732 L 429.491 539.256 L 159.298 539.256 C 151.516 539.558 145.431 544.801 145.813 550.961 C 146.195 557.11 152.832 561.917 160.629 561.615 L 162.397 561.615 C 162.836 563.27 163.289 565.025 163.728 566.512 L 164.166 566.847 C 182.958 617.557 242.561 650 306.564 650 L 693.924 650 C 757.941 650 817.529 617.557 836.322 566.858 L 836.76 566.5 C 837.213 565.025 837.652 563.27 838.09 561.615 L 839.859 561.615 C 844.953 561.66 849.694 559.558 852.298 556.07 C 854.84 552.582 854.84 548.289 852.298 544.801 C 849.694 541.313 844.939 539.211 839.859 539.256 L 570.997 539.256 L 571.436 411.743 C 571.485 410.681 571.338 409.619 570.997 408.59 C 604.661 401.301 634.887 389.384 659.439 375.052 C 694.872 354.403 719.904 329.507 725.763 304.487 L 727.093 304.487 C 732.187 304.532 736.927 302.43 739.531 298.942 C 742.073 295.454 742.073 291.161 739.531 287.673 C 736.927 284.185 732.173 282.083 727.093 282.128 L 270.296 282.128 L 270.296 282.128 Z  M 307.88 304.487 L 693.485 304.487 C 687.513 320.295 671.551 339.769 642.189 356.896 C 606.105 377.891 555.955 393.923 500.683 393.923 C 445.41 393.923 395.26 377.891 359.176 356.885 C 329.828 339.781 313.852 320.295 307.88 304.487 Z  M 458.231 413.487 C 472.056 415.276 486.093 416.282 500.683 416.282 C 515.272 416.282 529.309 415.276 543.134 413.487 L 542.696 539.256 L 457.792 539.256 L 458.231 413.487 Z  M 191.576 561.615 L 808.912 561.615 C 793.318 601.917 745.503 627.641 693.924 627.641 L 306.578 627.641 C 254.999 627.641 207.184 601.928 191.59 561.615 L 191.576 561.615 Z  M 488.462 428 L 488.462 451.077 L 465.385 451.077 L 465.385 474.154 L 488.462 474.154 L 488.462 528 L 511.538 528 L 511.538 474.154 L 534.615 474.154 L 534.615 451.077 L 511.538 451.077 L 511.538 428 L 488.462 428 Z " fill-rule="evenodd" fill="rgb(102,143,255)"/></g></svg>