<?xml version="1.0" encoding="UTF-8" standalone="no"?><!-- Generator: Gravit.io --><svg xmlns="http://www.w3.org/2000/svg" xmlns:xlink="http://www.w3.org/1999/xlink" style="isolation:isolate" viewBox="0 0 1000 1000" width="1000pt" height="1000pt"><defs><clipPath id="_clipPath_gK5wXUjLnAVzVGzNwFlHXNNZByjTQBAr"><rect width="1000" height="1000"/></clipPath></defs><g clip-path="url(#_clipPath_gK5wXUjLnAVzVGzNwFlHXNNZByjTQBAr)"><g clip-path="url(#_clipPath_nOM4mAVtxtoTUHxKTWczYFq4VugtDWug)"><text transform="matrix(1.156,0,0,1,142.225,894.863)" style="font-family:'Chicle';font-weight:400;font-size:225px;font-style:normal;fill:#668fff;stroke:none;">bassinet</text></g><defs><clipPath id="_clipPath_nOM4mAVtxtoTUHxKTWczYFq4VugtDWug"><rect x="0" y="0" width="865" height="350" transform="matrix(1.156,0,0,1,0,650)"/></clipPath></defs><path d=" M 190.796 281.669 C 191.634 291.987 193.49 302.207 196.342 312.177 C 198.353 319.2 200.819 326.081 203.739 332.781 C 206.7 339.612 210.085 346.241 213.874 352.648 C 217.755 359.226 222.019 365.582 226.637 371.665 C 231.407 377.951 236.51 383.973 241.926 389.713 C 247.524 395.655 253.416 401.314 259.58 406.659 C 265.956 412.207 272.595 417.441 279.466 422.373 C 286.58 427.466 293.907 432.245 301.435 436.702 C 309.216 441.31 317.189 445.584 325.323 449.535 C 342.391 457.781 360.085 464.673 378.234 470.16 C 397.433 475.97 417.047 480.346 436.894 483.246 C 457.791 486.298 478.88 487.823 500 487.813 C 521.12 487.823 542.209 486.298 563.106 483.246 C 582.953 480.346 602.567 475.97 621.766 470.16 C 639.915 464.673 657.609 457.781 674.677 449.535 C 682.811 445.584 690.784 441.31 698.565 436.702 C 706.093 432.245 713.42 427.466 720.534 422.373 C 727.405 417.441 734.044 412.207 740.42 406.659 C 746.584 401.314 752.476 395.655 758.074 389.713 C 763.49 383.973 768.593 377.951 773.363 371.665 C 777.981 365.582 782.245 359.226 786.126 352.648 C 789.915 346.241 793.3 339.612 796.261 332.781 C 799.181 326.081 801.647 319.2 803.658 312.177 C 806.508 302.213 808.367 291.997 809.206 281.669 L 809.206 281.669 L 809.206 281.669 L 487.369 281.669 L 487.369 50.435 C 470.473 50.92 453.618 52.385 436.894 54.83 C 417.047 57.73 397.433 62.106 378.234 67.916 C 360.085 73.403 342.391 80.295 325.323 88.541 C 317.189 92.492 309.216 96.766 301.435 101.374 C 293.907 105.831 286.58 110.61 279.466 115.703 C 272.595 120.635 265.956 125.869 259.58 131.417 C 253.416 136.762 247.524 142.421 241.926 148.363 C 236.51 154.103 231.407 160.125 226.637 166.411 C 222.019 172.494 217.755 178.85 213.874 185.428 C 210.085 191.835 206.7 198.464 203.739 205.295 C 200.819 211.995 198.353 218.876 196.342 225.899 C 193.49 235.869 191.634 246.089 190.796 256.407 L 487.369 256.407 L 487.369 281.669 L 190.796 281.669 Z  M 282.741 623.727 L 717.259 623.727 C 722.837 623.727 727.365 628.255 727.365 633.832 L 727.365 639.895 C 727.365 645.472 722.837 650 717.259 650 L 282.741 650 C 277.163 650 272.635 645.472 272.635 639.895 L 272.635 633.832 C 272.635 628.255 277.163 623.727 282.741 623.727 L 282.741 623.727 L 282.741 623.727 Z  M 520.21 512.641 C 535.787 511.963 551.322 510.494 566.754 508.236 C 587.844 505.164 608.68 500.515 629.082 494.341 C 648.494 488.47 667.421 481.093 685.681 472.272 C 694.452 468.017 703.042 463.409 711.429 458.448 C 719.594 453.618 727.546 448.424 735.257 442.906 C 742.755 437.52 750.01 431.791 756.983 425.738 C 763.783 419.836 770.281 413.601 776.455 407.053 C 782.488 400.657 788.177 393.937 793.482 386.934 C 798.696 380.073 803.496 372.918 807.882 365.501 C 812.197 358.195 816.057 350.637 819.432 342.856 C 822.787 335.135 825.626 327.213 827.941 319.129 C 832.599 302.84 834.974 285.984 834.984 269.048 L 834.984 269.038 L 834.984 269.038 C 834.984 262.067 825.724 256.407 814.318 256.407 L 512.631 256.407 L 512.631 37.631 C 512.631 34.287 511.297 31.073 508.933 28.699 C 506.568 26.334 503.355 25 500.01 25 C 477.668 24.99 455.346 26.607 433.246 29.84 C 412.156 32.912 391.32 37.561 370.918 43.735 C 351.506 49.606 332.579 56.983 314.319 65.804 C 305.548 70.059 296.958 74.667 288.571 79.628 C 280.406 84.458 272.454 89.652 264.743 95.17 C 257.245 100.556 249.99 106.285 243.017 112.338 C 236.217 118.24 229.719 124.475 223.545 131.023 C 217.512 137.419 211.823 144.139 206.518 151.142 C 201.304 158.003 196.504 165.158 192.118 172.575 C 187.803 179.881 183.943 187.439 180.568 195.22 C 177.213 202.941 174.374 210.863 172.059 218.947 C 167.401 235.236 165.026 252.092 165.016 269.028 L 165.016 269.038 C 165.016 269.038 165.016 269.028 165.016 269.028 L 165.016 269.028 L 165.016 269.048 C 165.016 269.048 165.016 269.038 165.016 269.038 L 165.016 269.038 C 165.016 269.038 165.016 269.048 165.016 269.048 C 165.026 285.984 167.401 302.84 172.059 319.129 C 174.374 327.213 177.213 335.135 180.568 342.856 C 183.943 350.637 187.803 358.195 192.118 365.501 C 196.504 372.918 201.304 380.073 206.518 386.934 C 211.823 393.937 217.512 400.657 223.545 407.053 C 229.719 413.601 236.217 419.836 243.017 425.738 C 249.99 431.791 257.245 437.52 264.743 442.906 C 272.454 448.424 280.406 453.618 288.571 458.448 C 296.958 463.409 305.548 468.017 314.319 472.272 C 332.579 481.093 351.506 488.47 370.918 494.341 C 391.32 500.515 412.156 505.164 433.246 508.236 C 448.678 510.494 464.213 511.963 479.79 512.641 L 479.79 512.641 L 479.79 623.727 L 520.21 623.727 L 520.21 512.641 L 520.21 512.641 Z " fill-rule="evenodd" fill="rgb(255,82,151)"/></g></svg>