<?xml version="1.0" encoding="UTF-8" standalone="no"?><!-- Generator: Gravit.io --><svg xmlns="http://www.w3.org/2000/svg" xmlns:xlink="http://www.w3.org/1999/xlink" style="isolation:isolate" viewBox="0 0 1000 1000" width="1000pt" height="1000pt"><defs><clipPath id="_clipPath_j2knYp7BsZWe1vYYkmCRF0WVwk0AjZQJ"><rect width="1000" height="1000"/></clipPath></defs><g clip-path="url(#_clipPath_j2knYp7BsZWe1vYYkmCRF0WVwk0AjZQJ)"><path d=" M 307.692 25 C 281.394 25 259.615 46.779 259.615 73.077 L 259.615 529.808 C 259.615 556.106 281.394 577.885 307.692 577.885 L 355.769 577.885 L 355.769 650 L 427.885 601.923 L 500 650 L 500 477.981 C 496.666 479.861 493.135 481.368 489.471 482.476 C 484.26 493.665 474.804 502.316 463.197 506.514 C 458.106 508.153 452.774 508.917 447.428 508.774 C 440.745 508.774 433.966 507.933 427.885 505.024 C 421.723 507.688 415.052 508.969 408.341 508.774 C 402.992 508.966 397.652 508.2 392.572 506.514 C 380.973 502.293 371.517 493.65 366.274 482.476 C 362.619 481.366 359.096 479.859 355.769 477.981 L 355.769 529.808 L 307.692 529.808 L 307.692 73.077 L 692.308 73.077 L 692.308 529.808 L 572.115 529.808 C 563.444 529.706 555.381 534.255 550.986 541.731 C 546.667 549.23 546.667 558.462 550.986 565.962 C 555.409 573.462 563.486 577.981 572.115 577.885 L 692.308 577.885 C 718.606 577.885 740.385 556.106 740.385 529.808 L 740.385 73.077 C 740.385 46.779 718.606 25 692.308 25 L 307.692 25 Z  M 375.313 145.192 C 362.067 146.394 352.284 158.245 353.51 171.49 C 354.736 184.712 366.562 194.495 379.808 193.269 L 620.192 193.269 C 628.846 193.365 636.899 188.846 641.322 181.346 C 645.641 173.846 645.641 164.615 641.322 157.115 C 636.899 149.615 628.822 145.096 620.192 145.192 L 375.313 145.192 Z  M 375.313 241.346 C 362.067 242.548 352.284 254.399 353.51 267.644 C 354.736 280.865 366.562 290.649 379.808 289.423 L 548.077 289.423 C 556.731 289.519 564.784 285 569.207 277.5 C 573.525 270 573.525 260.769 569.207 253.269 C 564.784 245.769 556.707 241.25 548.077 241.346 L 375.313 241.346 Z  M 427.885 329.231 C 417.982 329.234 409.199 335.593 406.106 345 C 405.144 345.288 404.038 345.385 403.101 345.769 C 394.767 340.762 384.16 341.673 376.803 348.029 C 369.348 354.234 366.637 364.478 370.048 373.558 C 369.375 374.519 369.087 375.529 368.534 376.563 C 358.924 378.2 351.397 385.727 349.76 395.337 C 348.155 404.712 352.685 414.072 361.034 418.63 C 361.226 420.144 360.745 421.635 361.034 423.149 C 355.1 430.383 354.204 440.514 358.774 448.678 C 363.549 456.795 372.739 461.243 382.067 459.952 C 383.269 461.082 384.495 461.923 385.817 462.957 C 386.113 472.361 392.042 480.661 400.841 483.99 C 409.567 487.187 419.519 484.087 425.625 477.212 C 426.466 477.308 426.947 477.981 427.885 477.981 C 428.846 477.981 429.952 477.212 430.889 477.212 C 435.216 482.019 441.13 484.736 447.428 484.736 C 450.048 484.736 452.404 484.928 454.928 483.99 C 463.77 480.716 469.722 472.382 469.952 462.957 C 471.274 461.923 472.476 461.082 473.702 459.952 C 483.041 461.31 492.267 456.845 496.995 448.678 C 501.577 440.508 500.68 430.364 494.736 423.125 C 495.12 421.635 494.543 420.12 494.736 418.63 C 503.118 414.104 507.661 404.719 506.01 395.337 C 504.372 385.727 496.845 378.2 487.236 376.563 C 486.659 375.529 486.394 374.591 485.721 373.558 C 489.143 364.471 486.432 354.214 478.966 348.005 C 471.601 341.664 460.999 340.763 452.668 345.769 C 451.731 345.385 450.601 345.288 449.663 345.024 C 446.578 335.607 437.794 329.237 427.885 329.231 Z  M 427.885 371.298 C 449.207 371.298 466.202 388.293 466.202 409.615 C 466.202 430.937 449.207 447.933 427.885 447.933 C 417.705 447.991 407.925 443.972 400.726 436.774 C 393.528 429.575 389.509 419.795 389.567 409.615 C 389.567 388.293 406.562 371.298 427.885 371.298 Z " fill="rgb(102,143,255)"/><g clip-path="url(#_clipPath_HL4Vg0Rfxlkq7KVvHAg4D9cMpVkraoKz)"><text transform="matrix(1.156,0,0,1,333.306,804.723)" style="font-family:'Chicle';font-weight:400;font-size:180px;font-style:normal;fill:#ff5297;stroke:none;">birth </text><text transform="matrix(1.156,0,0,1,150.705,957.057)" style="font-family:'Chicle';font-weight:400;font-size:180px;font-style:normal;fill:#ff5297;stroke:none;">certificate</text></g><defs><clipPath id="_clipPath_HL4Vg0Rfxlkq7KVvHAg4D9cMpVkraoKz"><rect x="0" y="0" width="865" height="350" transform="matrix(1.156,0,0,1,0,650)"/></clipPath></defs></g></svg>