<?xml version="1.0" encoding="UTF-8" standalone="no"?><!-- Generator: Gravit.io --><svg xmlns="http://www.w3.org/2000/svg" xmlns:xlink="http://www.w3.org/1999/xlink" style="isolation:isolate" viewBox="0 0 1000 1000" width="1000pt" height="1000pt"><defs><clipPath id="_clipPath_GJEbkHjIvUhSLiyUjqv4dPvE9roOVjSA"><rect width="1000" height="1000"/></clipPath></defs><g clip-path="url(#_clipPath_GJEbkHjIvUhSLiyUjqv4dPvE9roOVjSA)"><g clip-path="url(#_clipPath_bW5UfuUOzXSOpdx95wlRo2ARuTnw0Oxs)"><text transform="matrix(1.156,0,0,1,44.942,894.863)" style="font-family:'Chicle';font-weight:400;font-size:225px;font-style:normal;fill:#668fff;stroke:none;">burp cloth</text></g><defs><clipPath id="_clipPath_bW5UfuUOzXSOpdx95wlRo2ARuTnw0Oxs"><rect x="0" y="0" width="865" height="350" transform="matrix(1.156,0,0,1,0,650)"/></clipPath></defs><path d=" M 709 110.034 L 709 564.966 C 709 611.898 658.379 650 596.027 650 L 403.973 650 C 341.621 650 291 611.898 291 564.966 L 291 110.034 C 291 63.102 341.621 25 403.973 25 L 596.027 25 C 658.379 25 709 63.102 709 110.034 Z  M 663.811 110.034 L 663.811 564.966 C 663.811 564.974 663.811 564.983 663.811 564.992 C 663.822 571.794 662.015 578.529 658.501 584.796 C 655.078 590.867 650.141 596.378 643.939 601.029 C 637.759 605.697 630.439 609.413 622.372 611.99 C 614.046 614.634 605.099 615.995 596.061 615.986 C 596.05 615.986 596.038 615.986 596.027 615.986 L 403.973 615.986 C 403.962 615.986 403.95 615.986 403.939 615.986 C 394.901 615.995 385.954 614.634 377.628 611.99 C 369.561 609.413 362.241 605.697 356.061 601.029 C 349.859 596.378 344.922 590.867 341.499 584.796 C 337.985 578.529 336.178 571.794 336.189 564.992 C 336.189 564.983 336.189 564.974 336.189 564.966 L 336.189 110.034 C 336.189 110.026 336.189 110.017 336.189 110.009 C 336.178 103.206 337.985 96.471 341.499 90.204 C 344.922 84.133 349.859 78.622 356.061 73.971 C 362.241 69.303 369.561 65.587 377.628 63.01 C 385.954 60.366 394.901 59.005 403.939 59.014 C 403.95 59.014 403.962 59.014 403.973 59.014 L 596.027 59.014 C 596.038 59.014 596.05 59.014 596.061 59.014 C 605.099 59.005 614.046 60.366 622.372 63.01 C 630.439 65.587 637.759 69.303 643.939 73.971 C 650.141 78.622 655.078 84.133 658.501 90.204 C 662.015 96.471 663.822 103.206 663.811 110.009 C 663.811 110.017 663.811 110.026 663.811 110.034 Z  M 371.031 257.326 C 361.285 231.075 360.759 197.602 380.282 187.222 C 399.805 176.841 421.004 174.449 432.379 159.977 C 443.754 145.505 437.807 114.627 460.619 106.485 C 483.431 98.343 484.778 124.435 516.124 133.397 C 547.471 142.359 543.679 96.895 596.461 117.117 C 649.244 137.339 637.469 169.479 624.701 184.896 C 611.933 200.313 574.433 207.819 571.63 227.091 C 568.827 246.364 625.55 268.534 602.304 290.883 C 579.059 313.233 538.886 314.014 512.229 298.193 C 485.573 282.372 486.567 272.79 456.724 265.632 C 426.881 258.475 380.777 283.577 371.031 257.326 Z  M 497.168 304.19 C 501.351 315.127 501.576 329.075 493.198 333.4 C 484.819 337.725 475.721 338.722 470.839 344.752 C 465.958 350.782 468.51 363.647 458.72 367.04 C 448.93 370.433 448.352 359.561 434.899 355.827 C 421.446 352.093 423.073 371.036 400.421 362.61 C 377.769 354.184 382.822 340.792 388.301 334.369 C 393.781 327.945 409.875 324.817 411.078 316.787 C 412.281 308.757 387.937 299.52 397.913 290.207 C 407.89 280.895 425.13 280.57 436.57 287.162 C 448.01 293.754 447.584 297.746 460.392 300.729 C 473.199 303.711 492.986 293.252 497.168 304.19 Z " fill-rule="evenodd" fill="rgb(255,82,151)"/></g></svg>