<?xml version="1.0" encoding="UTF-8" standalone="no"?><!-- Generator: Gravit.io --><svg xmlns="http://www.w3.org/2000/svg" xmlns:xlink="http://www.w3.org/1999/xlink" style="isolation:isolate" viewBox="0 0 1000 1000" width="1000pt" height="1000pt"><defs><clipPath id="_clipPath_MYtvjhbVEUYNWReJKtmOsyyCJsUQxJiu"><rect width="1000" height="1000"/></clipPath></defs><g clip-path="url(#_clipPath_MYtvjhbVEUYNWReJKtmOsyyCJsUQxJiu)"><g clip-path="url(#_clipPath_lTZuyrz0o2BW4m53aNzZcY6PXB3uQJCQ)"><text transform="matrix(1.156,0,0,1,161.922,894.863)" style="font-family:'Chicle';font-weight:400;font-size:225px;font-style:normal;fill:#668fff;stroke:none;">car seat</text></g><defs><clipPath id="_clipPath_lTZuyrz0o2BW4m53aNzZcY6PXB3uQJCQ"><rect x="0" y="0" width="865" height="350" transform="matrix(1.156,0,0,1,0,650)"/></clipPath></defs><path d=" M 491.085 450.113 C 491.085 431.455 506.421 416.329 525.338 416.329 C 544.255 416.329 559.591 431.455 559.591 450.113 C 559.591 468.771 544.255 483.896 525.338 483.896 C 506.421 483.896 491.085 468.771 491.085 450.113 L 491.085 450.113 L 491.085 450.113 Z  M 210.123 512.21 C 235.676 492.617 304.78 481.485 359.442 480.148 C 414.103 478.813 500.095 509.316 538.09 504.195 C 576.087 499.074 585.863 467.903 587.419 449.423 C 588.974 430.943 574.754 408.455 547.423 393.315 C 584.308 373.276 603.862 347.894 658.079 333.199 C 742.07 311.824 825.618 319.172 842.061 343.886 C 813.619 389.752 758.23 457.199 730.071 501.523 C 726.961 522.23 725.628 553.623 719.406 580.342 C 671.855 616.41 580.975 646.914 495.428 649.809 C 409.881 652.703 210.123 622.2 206.123 597.708 C 202.124 573.217 208.789 540.709 210.123 512.21 L 210.123 512.21 L 210.123 512.21 Z  M 521.031 377.853 C 551.433 349.542 622.443 309.641 675.479 297.603 C 728.514 285.566 783.325 293.145 839.245 305.628 C 810.398 244.995 784.213 196.399 744.714 155.829 C 705.214 115.258 629.321 98.762 570.295 91.629 C 535.678 133.315 502.614 169.65 494.403 217.354 C 486.192 265.057 487.302 367.822 521.031 377.853 L 521.031 377.853 Z  M 463.748 469.513 C 436.386 472.627 391.481 449.153 344.459 452.02 C 297.438 454.886 208.092 483.82 181.619 486.712 C 167.382 482.708 159.373 475.592 158.929 466.697 C 158.484 457.801 152.032 444.458 178.95 433.339 C 224.777 420.885 290.707 403.942 333.781 399.98 C 376.856 396.019 382.624 398.106 437.401 409.568 C 426.445 363.237 403.478 310.993 410.753 249.201 C 418.027 187.411 465.922 72.181 481.049 38.823 C 492.172 24.59 504.927 23.701 513.084 25.924 C 521.241 28.148 533.104 32.151 529.991 52.166 C 501.96 126.888 458.54 192.484 452.129 250.091 C 445.72 307.698 488.416 372.455 491.531 397.807 C 480.407 408.926 470.357 413.086 465.726 425.037 C 461.096 436.988 463.748 451.055 463.748 469.513 Z " fill-rule="evenodd" fill="rgb(255,82,151)"/></g></svg>