<?xml version="1.0" encoding="UTF-8" standalone="no"?><!-- Generator: Gravit.io --><svg xmlns="http://www.w3.org/2000/svg" xmlns:xlink="http://www.w3.org/1999/xlink" style="isolation:isolate" viewBox="0 0 1000 1000" width="1000pt" height="1000pt"><defs><clipPath id="_clipPath_VBkUFneEK7aqMCmwmECaOb67zKRJnbQH"><rect width="1000" height="1000"/></clipPath></defs><g clip-path="url(#_clipPath_VBkUFneEK7aqMCmwmECaOb67zKRJnbQH)"><path d=" M 595.694 539.729 C 581.47 544.548 566.233 547.161 550.39 547.161 L 344.986 547.161 L 344.986 547.161 C 348.593 556.276 350.576 566.208 350.576 576.6 L 350.576 578.971 C 350.576 623.194 314.672 659.098 270.449 659.098 L 119.181 659.098 C 74.958 659.098 39.055 623.194 39.055 578.971 L 39.055 576.6 C 39.055 532.377 74.958 496.473 119.181 496.473 L 215.567 496.473 C 195.036 471.942 182.671 440.347 182.671 405.887 L 182.671 379.027 C 182.671 301.055 245.974 237.753 323.945 237.753 L 323.945 237.753 L 550.39 237.753 C 621.578 237.753 680.538 290.519 690.259 359.04 L 737.678 564.896 C 747.696 608.388 726.856 650.372 691.168 658.593 L 691.168 658.593 C 655.48 666.813 618.372 638.178 608.353 594.686 L 595.694 539.729 Z  M 654.704 188.12 C 654.704 103.611 723.315 35 807.825 35 C 892.334 35 960.945 103.611 960.945 188.12 C 960.945 272.63 892.334 341.241 807.825 341.241 C 723.315 341.241 654.704 272.63 654.704 188.12 L 654.704 188.12 L 654.704 188.12 Z " fill-rule="evenodd" fill="rgb(102,143,255)"/><g clip-path="url(#_clipPath_A7OL1GyPmOhvatNFZo9xBizbwkkFdSuN)"><text transform="matrix(1.156,0,0,1,110.491,894.863)" style="font-family:'Chicle';font-weight:400;font-size:225px;font-style:normal;fill:#ff5297;stroke:none;">crawling</text></g><defs><clipPath id="_clipPath_A7OL1GyPmOhvatNFZo9xBizbwkkFdSuN"><rect x="0" y="0" width="865" height="350" transform="matrix(1.156,0,0,1,0,650)"/></clipPath></defs></g></svg>