<?xml version="1.0" encoding="UTF-8" standalone="no"?><!-- Generator: Gravit.io --><svg xmlns="http://www.w3.org/2000/svg" xmlns:xlink="http://www.w3.org/1999/xlink" style="isolation:isolate" viewBox="0 0 1000 1000" width="1000pt" height="1000pt"><defs><clipPath id="_clipPath_uYxASBhbkqJcGbObtHcN5r5qbnhUw3nT"><rect width="1000" height="1000"/></clipPath></defs><g clip-path="url(#_clipPath_uYxASBhbkqJcGbObtHcN5r5qbnhUw3nT)"><g clip-path="url(#_clipPath_Xqa3gHzLKYDI5ddoVpihJekaAuaMmstd)"><text transform="matrix(1.156,0,0,1,35.578,894.863)" style="font-family:'Chicle';font-weight:400;font-size:225px;font-style:normal;fill:#668fff;stroke:none;">diaper bag</text></g><defs><clipPath id="_clipPath_Xqa3gHzLKYDI5ddoVpihJekaAuaMmstd"><rect x="0" y="0" width="865" height="350" transform="matrix(1.156,0,0,1,0,650)"/></clipPath></defs><path d=" M 357.816 154.258 L 203.467 154.258 L 203.467 154.258 L 203.467 154.258 C 165.699 154.258 135.036 184.921 135.036 222.689 L 135.036 374.757 L 135.036 374.757 L 56.144 374.757 L 56.144 461.618 C 56.144 506.147 91.094 542.578 135.036 544.95 L 135.036 581.569 C 135.036 619.337 165.699 650 203.467 650 L 796.533 650 C 834.301 650 864.964 619.337 864.964 581.569 L 864.964 544.95 C 908.906 542.578 943.856 506.147 943.856 461.618 L 943.856 374.757 L 864.964 374.757 L 864.964 374.757 L 864.964 222.689 C 864.964 184.921 834.301 154.258 796.533 154.258 L 642.184 154.258 L 642.184 125.286 C 642.184 69.937 597.247 25 541.898 25 L 458.102 25 L 458.102 25 C 402.753 25 357.816 69.937 357.816 125.286 L 357.816 154.258 Z  M 373.023 154.258 L 626.977 154.258 L 626.977 125.289 C 626.977 125.289 626.977 125.274 626.977 125.274 C 626.992 113.914 624.711 102.661 620.286 92.184 C 616.013 82.086 609.808 72.901 602.038 65.146 C 594.282 57.375 585.097 51.171 575 46.898 C 564.522 42.473 553.27 40.192 541.91 40.207 C 541.91 40.207 541.895 40.207 541.895 40.207 L 458.105 40.207 L 458.105 40.207 C 458.105 40.207 458.09 40.207 458.09 40.207 C 446.731 40.192 435.478 42.473 425 46.898 C 414.903 51.171 405.718 57.375 397.962 65.146 C 390.192 72.901 383.987 82.086 379.714 92.184 C 375.289 102.661 373.008 113.914 373.023 125.274 C 373.023 125.274 373.023 125.289 373.023 125.289 L 373.023 154.258 Z  M 357.816 169.465 L 203.467 169.465 L 203.467 169.465 L 203.467 169.465 L 203.467 169.465 L 203.467 169.465 C 189.355 169.465 175.806 175.076 165.83 185.052 C 155.855 195.027 150.243 208.577 150.243 222.689 L 150.243 581.569 C 150.243 595.681 155.855 609.231 165.83 619.206 C 175.806 629.182 189.355 634.793 203.467 634.793 L 796.533 634.793 C 810.645 634.793 824.194 629.182 834.17 619.206 C 844.145 609.231 849.757 595.681 849.757 581.569 L 849.757 222.689 C 849.757 208.577 844.145 195.027 834.17 185.052 C 824.194 175.076 810.645 169.465 796.533 169.465 L 642.184 169.465 L 642.184 233.413 C 642.184 234.915 642.151 236.409 642.085 237.895 L 626.864 237.895 C 626.941 236.408 626.979 234.917 626.977 233.425 C 626.977 233.425 626.977 233.409 626.977 233.409 L 626.977 169.465 L 373.023 169.465 L 373.023 233.409 C 373.023 233.409 373.023 233.425 373.023 233.425 C 373.021 234.917 373.059 236.408 373.136 237.895 L 357.915 237.895 C 357.849 236.409 357.816 234.915 357.816 233.413 L 357.816 169.465 Z  M 370.56 374.757 L 287.105 374.757 L 287.105 458.212 L 287.105 458.212 L 287.105 458.212 L 287.105 461.618 C 287.105 507.678 324.5 545.073 370.56 545.073 L 629.44 545.073 C 675.5 545.073 712.895 507.678 712.895 461.618 L 712.895 458.212 L 712.895 458.212 L 712.895 374.757 L 629.44 374.757 L 629.44 374.757 L 370.56 374.757 L 370.56 374.757 L 370.56 374.757 L 370.56 374.757 L 370.56 374.757 Z " fill-rule="evenodd" fill="rgb(255,82,151)"/></g></svg>