<?xml version="1.0" encoding="UTF-8" standalone="no"?><!-- Generator: Gravit.io --><svg xmlns="http://www.w3.org/2000/svg" xmlns:xlink="http://www.w3.org/1999/xlink" style="isolation:isolate" viewBox="0 0 1000 1000" width="1000pt" height="1000pt"><defs><clipPath id="_clipPath_0AMRsmEqTPikK1QzB6EWTnIZHiPq2cZ8"><rect width="1000" height="1000"/></clipPath></defs><g clip-path="url(#_clipPath_0AMRsmEqTPikK1QzB6EWTnIZHiPq2cZ8)"><g clip-path="url(#_clipPath_mMrJdsAGF3h6q4A0HoPeHf0HW83B5A01)"><text transform="matrix(1.153,0,0,0.997,307.962,789.201)" style="font-family:'Chicle';font-weight:400;font-size:180px;font-style:normal;fill:#ff5297;stroke:none;">footie </text><text transform="matrix(1.153,0,0,0.997,206.88,930.293)" style="font-family:'Chicle';font-weight:400;font-size:180px;font-style:normal;fill:#ff5297;stroke:none;">pajamas</text></g><defs><clipPath id="_clipPath_mMrJdsAGF3h6q4A0HoPeHf0HW83B5A01"><rect x="0" y="0" width="865" height="391" transform="matrix(1.153,0,0,0.997,0,609)"/></clipPath></defs><path d=" M 558.775 546.706 C 556.179 527.418 552.02 512.188 547.665 490.402 C 535.733 430.756 527.09 417.098 498.733 416.155 C 470.351 417.098 461.734 430.756 449.801 490.402 C 446.04 509.221 442.412 523.148 439.824 539.024 L 439.824 558.736 C 439.889 559.402 439.889 560.08 439.824 560.747 L 439.824 578.568 C 439.818 594.784 426.935 603.782 416.71 608.917 L 364.595 626.043 C 349.403 631.055 337.291 621.958 332.905 602.226 C 332.863 602.226 332.863 602.226 332.905 602.226 C 328.544 582.491 336.63 566.066 350.714 562.566 Q 379.281 555.074 382.427 549.659 Q 385.574 544.244 385.165 535.009 C 385.105 534.681 385.073 534.345 385.082 534.005 C 369.898 470.31 362.082 374.936 360.711 317.51 C 358.987 244.843 367.63 194.731 367.63 180.89 C 367.63 167.048 349.718 163.304 325.278 164.468 C 296.087 165.858 220.496 180.709 191.877 186.498 C 185.297 187.817 178.64 184.511 175.689 178.453 C 173.548 174.067 171.067 168.907 168.822 164.283 C 165.349 157.136 168.169 148.528 175.167 144.794 C 311.387 72.19 435.232 47.601 435.232 47.601 C 445.467 103.131 481.526 106.823 496.54 106.63 L 500.9 106.63 C 515.94 106.823 552 103.131 562.209 47.601 C 562.209 47.601 686.079 72.19 822.274 144.794 C 829.298 148.528 832.092 157.136 828.619 164.283 C 826.399 168.907 823.892 174.067 821.751 178.453 C 818.827 184.511 812.169 187.817 805.562 186.498 C 776.971 180.709 701.354 165.858 672.162 164.468 C 647.722 163.304 629.836 167.048 629.836 180.89 C 629.836 194.731 638.479 244.843 636.756 317.51 C 635.404 374.101 627.777 467.544 613.017 531.205 C 613.476 532.413 613.664 533.766 613.434 535.009 Q 613.026 544.244 616.172 549.659 Q 619.319 555.074 647.886 562.566 C 661.97 566.066 670.055 582.491 665.695 602.226 C 665.736 602.226 665.736 602.226 665.695 602.226 C 661.309 621.958 649.196 631.055 634.004 626.043 L 581.889 608.917 C 571.664 603.782 558.781 594.784 558.775 578.568 L 558.775 560.747 C 558.71 560.08 558.71 559.402 558.775 558.736 L 558.775 546.706 Z  M 344.594 187.608 C 344.402 187.574 344.222 187.551 344.029 187.517 C 342.425 187.291 340.82 187.133 339.193 187.043 C 337.227 186.918 335.238 186.862 333.26 186.873 C 330.989 186.873 328.706 186.93 326.435 187.043 C 322.592 187.246 318.762 187.574 314.942 188.026 C 309.755 188.613 304.58 189.291 299.415 190.048 C 287.019 191.868 274.656 193.879 262.327 196.083 C 249.851 198.298 237.41 200.603 224.968 202.999 C 215.419 204.841 205.881 206.728 196.344 208.649 C 193.914 209.146 191.451 209.384 188.976 209.384 C 181.958 209.384 175.099 207.406 169.155 203.688 C 163.211 199.97 158.431 194.648 155.368 188.342 C 154.001 185.54 152.634 182.726 151.278 179.912 C 150.351 177.991 149.424 176.081 148.498 174.16 C 146.023 169.075 144.735 163.504 144.735 157.854 C 144.735 151.073 146.577 144.429 150.069 138.609 C 153.549 132.8 158.555 128.043 164.533 124.845 C 181.439 115.85 198.581 107.318 215.939 99.272 C 232.042 91.802 248.315 84.728 264.757 78.038 C 292.567 66.727 320.818 56.511 349.442 47.426 C 360.483 43.922 371.58 40.6 382.733 37.459 C 391.197 35.063 399.707 32.803 408.25 30.656 C 413.708 29.288 419.177 27.977 424.681 26.757 C 426.692 26.294 428.715 25.864 430.749 25.446 C 430.783 25.446 430.817 25.435 430.851 25.435 L 430.851 25.435 C 436.795 24.248 442.976 25.514 447.982 28.938 C 452.988 32.362 456.412 37.651 457.475 43.629 C 458.356 48.556 459.656 53.403 461.339 58.116 C 462.582 61.596 464.164 64.93 466.063 68.094 C 467.464 70.433 469.114 72.603 470.99 74.581 C 472.459 76.129 474.098 77.507 475.86 78.705 C 478.934 80.739 482.336 82.197 485.929 83.011 C 489.037 83.7 492.212 84.05 495.399 84.039 L 496.461 84.028 L 500.97 84.028 L 502.044 84.039 C 505.242 84.05 508.417 83.7 511.536 82.999 C 515.118 82.197 518.531 80.739 521.593 78.705 C 523.368 77.507 524.995 76.129 526.464 74.581 C 528.34 72.603 529.99 70.433 531.391 68.105 C 533.289 64.941 534.871 61.596 536.103 58.127 C 537.787 53.415 539.075 48.567 539.957 43.64 C 541.03 37.651 544.465 32.339 549.494 28.915 C 554.523 25.491 560.727 24.248 566.693 25.446 L 567.055 25.525 C 567.066 25.525 567.089 25.525 567.1 25.537 C 567.496 25.616 567.891 25.695 568.298 25.785 C 569.778 26.09 571.259 26.418 572.728 26.746 C 578.243 27.977 583.723 29.277 589.193 30.656 C 597.736 32.803 606.245 35.063 614.72 37.459 C 625.863 40.6 636.96 43.922 648 47.426 C 676.624 56.511 704.887 66.727 732.697 78.038 C 749.139 84.728 765.412 91.802 781.504 99.272 C 798.861 107.318 816.004 115.85 832.898 124.845 C 838.876 128.032 843.882 132.778 847.374 138.598 C 850.866 144.406 852.708 151.062 852.708 157.842 C 852.708 163.481 851.431 169.041 848.967 174.115 C 846.685 178.861 844.391 183.607 842.074 188.342 C 839.012 194.648 834.232 199.97 828.287 203.699 C 822.343 207.417 815.473 209.384 808.455 209.384 C 805.992 209.384 803.517 209.146 801.099 208.649 C 791.572 206.728 782.023 204.841 772.475 202.999 C 760.044 200.603 747.591 198.298 735.127 196.083 C 722.787 193.879 710.424 191.868 698.027 190.048 C 692.863 189.291 687.687 188.613 682.5 188.026 C 678.681 187.574 674.85 187.246 671.008 187.043 C 668.736 186.93 666.454 186.873 664.182 186.873 C 662.205 186.862 660.227 186.918 658.25 187.043 C 656.634 187.133 655.018 187.291 653.413 187.517 C 653.232 187.551 653.051 187.574 652.882 187.596 C 653.21 191.28 653.571 194.953 653.956 198.626 C 654.577 204.694 655.165 210.762 655.73 216.842 C 656.43 224.481 657.041 232.131 657.572 239.793 C 658.905 259.275 659.572 278.791 659.583 298.307 C 659.583 304.895 659.504 311.483 659.346 318.071 C 658.928 334.491 658.182 350.899 657.108 367.285 C 655.888 386.213 654.328 405.119 652.396 423.979 C 650.441 443.472 648.011 462.898 645.119 482.267 C 643.717 491.59 642.158 500.89 640.451 510.156 C 639.118 517.4 637.649 524.61 636.056 531.797 C 636.101 532.463 636.135 533.13 636.135 533.797 C 636.135 534.328 636.123 534.859 636.101 535.402 C 636.169 535.424 636.236 535.447 636.315 535.481 C 638.395 536.249 640.497 536.95 642.621 537.594 C 646.226 538.69 649.853 539.718 653.503 540.679 C 659.154 542.103 664.476 544.623 669.155 548.081 C 673.72 551.471 677.619 555.652 680.692 560.421 C 683.676 565.054 685.924 570.116 687.348 575.439 C 688.795 580.784 689.507 586.299 689.473 591.836 C 689.462 596.955 688.885 602.052 687.778 607.058 C 687.766 607.092 687.755 607.137 687.744 607.182 C 687.766 607.092 687.778 607.012 687.8 606.933 C 687.789 606.967 687.778 607.012 687.778 607.058 C 686.614 612.448 684.84 617.691 682.489 622.675 C 681.291 625.172 679.924 627.579 678.376 629.873 C 676.839 632.167 675.11 634.337 673.211 636.348 C 669.245 640.586 664.465 643.999 659.165 646.383 C 653.696 648.801 647.774 650.033 641.796 649.999 C 636.711 649.954 631.671 649.107 626.846 647.479 L 574.83 630.393 C 573.813 630.054 572.818 629.647 571.858 629.173 C 568.196 627.353 564.659 625.297 561.281 622.991 C 557.145 620.2 553.348 616.946 549.946 613.284 C 545.867 608.9 542.567 603.837 540.183 598.345 C 537.516 592.073 536.16 585.338 536.171 578.535 L 536.171 561.539 C 536.137 560.94 536.126 560.342 536.126 559.743 C 536.126 559.144 536.137 558.545 536.171 557.946 L 536.171 548.273 C 535.436 543.108 534.566 537.955 533.549 532.836 C 532.397 527.039 531.165 521.231 529.877 515.445 C 528.351 508.585 526.893 501.715 525.503 494.833 C 524.204 488.279 522.803 481.747 521.288 475.238 C 520.113 470.187 518.791 465.169 517.31 460.197 C 516.26 456.637 515.016 453.134 513.581 449.71 C 513.073 448.501 512.508 447.314 511.909 446.151 C 511.446 445.246 510.926 444.376 510.372 443.529 C 509.796 442.625 509.106 441.789 508.327 441.054 C 507.954 440.738 507.547 440.466 507.117 440.252 C 506.236 439.856 505.309 439.562 504.36 439.393 C 502.496 439.043 500.62 438.839 498.733 438.771 C 496.845 438.839 494.958 439.043 493.094 439.393 C 492.144 439.574 491.218 439.856 490.336 440.252 C 489.907 440.466 489.5 440.738 489.127 441.054 C 488.347 441.789 487.658 442.614 487.082 443.529 C 486.528 444.376 486.02 445.246 485.556 446.139 C 484.946 447.303 484.392 448.49 483.884 449.699 C 482.449 453.134 481.206 456.637 480.155 460.197 C 478.674 465.169 477.352 470.187 476.177 475.238 C 474.663 481.747 473.261 488.279 471.962 494.833 C 470.56 501.737 469.103 508.631 467.577 515.501 C 466.549 520.146 465.554 524.779 464.583 529.435 C 463.803 533.243 463.08 537.074 462.424 540.905 L 462.424 557.946 C 462.458 558.545 462.469 559.144 462.469 559.743 C 462.469 560.342 462.458 560.94 462.424 561.539 L 462.424 578.535 C 462.447 585.338 461.079 592.073 458.413 598.345 C 456.039 603.837 452.728 608.9 448.649 613.284 C 445.259 616.946 441.451 620.2 437.315 622.991 C 433.936 625.297 430.41 627.353 426.749 629.173 C 425.788 629.647 424.782 630.054 423.765 630.393 L 371.749 647.479 C 366.935 649.107 361.884 649.954 356.799 649.999 C 350.821 650.033 344.9 648.801 339.43 646.383 C 334.13 643.999 329.361 640.586 325.384 636.348 C 323.485 634.337 321.756 632.167 320.219 629.873 C 318.682 627.579 317.304 625.172 316.117 622.675 C 313.756 617.691 311.981 612.448 310.829 607.058 C 309.71 602.052 309.145 596.955 309.122 591.836 C 309.088 586.299 309.812 580.784 311.247 575.439 C 312.682 570.116 314.919 565.054 317.903 560.421 C 320.976 555.652 324.886 551.471 329.441 548.081 C 334.13 544.623 339.441 542.103 345.092 540.679 C 347.544 540.035 349.996 539.357 352.426 538.656 C 354.222 538.136 356.008 537.594 357.782 537.017 C 359.274 536.543 360.754 536.034 362.223 535.492 C 360.505 528.011 358.935 520.496 357.522 512.947 C 355.759 503.591 354.155 494.2 352.719 484.787 C 349.736 465.158 347.239 445.461 345.239 425.708 C 343.261 406.531 341.645 387.32 340.413 368.076 C 339.306 351.43 338.537 334.751 338.119 318.071 C 337.961 311.483 337.882 304.895 337.882 298.307 C 337.893 278.78 338.56 259.264 339.905 239.793 C 340.425 232.131 341.035 224.481 341.735 216.842 C 342.3 210.762 342.888 204.694 343.51 198.626 C 343.894 194.953 344.255 191.28 344.594 187.608 Z  M 577.093 220.931 C 576.352 218.633 574.369 216.956 571.98 216.607 L 525.309 209.829 L 504.422 167.526 C 502.285 163.202 495.176 163.202 493.021 167.526 L 472.153 209.829 L 425.481 216.607 C 423.085 216.953 421.094 218.629 420.344 220.931 C 419.594 223.229 420.221 225.755 421.959 227.435 L 455.735 260.372 L 447.761 306.84 C 447.367 309.224 448.334 311.659 450.298 313.071 C 452.25 314.494 454.841 314.679 456.975 313.548 L 498.731 291.611 L 540.461 313.548 C 541.38 314.026 542.402 314.273 543.437 314.266 C 544.753 314.266 546.044 313.872 547.163 313.077 C 549.116 311.645 550.097 309.235 549.7 306.846 L 541.727 260.366 L 575.503 227.435 C 577.232 225.749 577.849 223.224 577.093 220.931 Z " fill-rule="evenodd" fill="rgb(102,143,255)"/></g></svg>