<?xml version="1.0" encoding="UTF-8" standalone="no"?><!-- Generator: Gravit.io --><svg xmlns="http://www.w3.org/2000/svg" xmlns:xlink="http://www.w3.org/1999/xlink" style="isolation:isolate" viewBox="0 0 1000 1000" width="1000pt" height="1000pt"><defs><clipPath id="_clipPath_UfUr2OwxwbkOOgnZhmmIOSHHJ01xTAUp"><rect width="1000" height="1000"/></clipPath></defs><g clip-path="url(#_clipPath_UfUr2OwxwbkOOgnZhmmIOSHHJ01xTAUp)"><g clip-path="url(#_clipPath_ZxmJzthOPgTrMpbPs65xPIWE8J6XdeG1)"><text transform="matrix(1.156,0,0,1,74.465,894.863)" style="font-family:'Chicle';font-weight:400;font-size:225px;font-style:normal;fill:#668fff;stroke:none;">footprints</text></g><defs><clipPath id="_clipPath_ZxmJzthOPgTrMpbPs65xPIWE8J6XdeG1"><rect x="0" y="0" width="865" height="350" transform="matrix(1.156,0,0,1,0,650)"/></clipPath></defs><path d=" M 446.67 25.128 C 430.807 26.907 415.234 39.669 408.36 58.175 C 399.179 82.761 408.841 109.054 429.414 116.768 C 449.962 124.459 473.515 110.568 482.72 85.957 C 491.925 61.371 483.008 35.078 462.436 27.388 C 457.421 25.443 452.028 24.67 446.67 25.128 Z  M 352.05 40.894 C 340.033 41.375 331.116 55.074 331.765 70.936 C 332.414 86.798 342.292 99.2 354.309 98.743 C 366.326 98.262 375.987 84.563 375.314 68.701 C 374.665 52.839 364.066 40.438 352.05 40.894 Z  M 286.702 55.915 C 285.501 56.108 284.179 56.204 282.953 56.684 C 272.907 60.049 268.389 74.037 273.172 88.216 C 277.978 102.396 290.187 111.12 300.209 107.756 C 310.255 104.367 314.774 90.379 309.991 76.2 C 306.314 65.601 298.335 57.622 290.452 55.915 C 289.213 55.681 287.941 55.681 286.702 55.915 Z  M 236.376 87.471 C 233.725 87.552 231.141 88.322 228.878 89.707 C 219.865 95.162 217.991 109.63 225.105 121.263 C 232.243 132.895 245.389 137.966 254.425 132.534 C 263.414 127.079 265.289 112.634 258.151 100.978 C 252.815 92.254 244.163 87.087 236.376 87.471 Z  M 342.292 121.263 C 274.397 121.263 213.088 179.664 213.088 257.196 C 213.088 287.142 218.928 338.67 237.89 386.376 C 247.36 410.218 260.314 432.953 279.18 450.978 C 298.07 469.004 323.69 481.765 353.54 481.765 C 380.866 481.765 402.929 469.749 414.369 453.983 C 425.833 438.193 427.899 421.033 427.899 408.92 C 427.899 379.719 412.037 360.012 402.352 348.836 C 392.69 337.66 388.845 335.209 388.845 318.794 C 388.845 312.69 397.858 300.961 414.393 284.234 C 430.904 267.531 453.423 244.434 453.423 209.874 C 453.423 180.697 440.95 154.693 419.632 140.033 C 398.338 125.372 371.853 121.263 342.268 121.263 L 342.292 121.263 Z  M 198.091 135.538 C 195.866 136.016 193.799 137.049 192.083 138.543 C 185.041 144.551 186.435 157.048 194.318 166.325 C 202.201 175.626 214.314 178.342 221.355 172.334 C 228.397 166.325 227.003 153.828 219.12 144.551 C 213.184 137.581 204.844 134.217 198.091 135.538 Z  M 342.292 169.33 C 366.494 169.33 383.774 173.848 392.594 179.856 C 401.414 185.865 405.356 192.041 405.356 209.898 C 405.356 222.275 395.598 234.388 379.832 250.443 C 364.066 266.497 340.778 286.012 340.778 318.794 C 340.778 348.74 356.448 368.928 366.326 380.368 C 376.179 391.832 379.832 393.803 379.832 408.92 C 379.832 412.957 378.511 421.033 375.314 425.431 C 372.142 429.853 368.585 433.698 353.54 433.698 C 336.188 433.698 323.978 427.594 312.226 416.418 C 300.498 405.243 289.995 388.635 282.184 369.12 C 266.61 329.946 261.155 280.677 261.155 257.196 C 261.179 204.995 302.565 169.33 342.292 169.33 Z  M 545.808 193.363 C 542.982 193.797 540.216 194.555 537.564 195.622 C 516.992 203.313 508.075 229.606 517.28 254.192 C 526.485 278.802 550.038 292.694 570.586 284.979 C 591.159 277.288 600.821 250.995 591.616 226.409 C 583.637 204.899 564.314 191.2 545.808 193.363 Z  M 647.95 209.129 C 635.934 208.648 625.335 221.05 624.686 236.912 C 624.013 252.774 633.698 266.497 645.715 266.954 C 657.732 267.434 667.586 255.033 668.235 239.171 C 668.884 223.309 659.967 209.61 647.95 209.129 Z  M 709.548 224.15 C 701.665 225.832 693.686 233.836 690.009 244.434 C 685.226 258.614 689.745 272.602 699.791 275.99 C 709.813 279.355 722.022 270.631 726.828 256.451 C 731.611 242.271 727.093 228.284 717.047 224.895 C 714.663 223.96 712.066 223.71 709.548 224.174 L 709.548 224.15 Z  M 763.624 255.706 C 755.837 255.322 747.185 260.489 741.825 269.213 C 734.711 280.869 736.586 295.313 745.599 300.769 C 754.611 306.2 767.757 301.129 774.871 289.497 C 782.009 277.865 780.159 263.397 771.122 257.941 C 768.859 256.557 766.275 255.787 763.624 255.706 Z  M 657.708 289.497 C 628.147 289.497 601.662 293.631 580.368 308.267 C 559.05 322.928 546.553 348.932 546.553 378.109 C 546.553 412.669 569.096 435.765 585.607 452.468 C 602.142 469.196 611.155 480.924 611.155 487.029 C 611.155 503.444 607.31 505.895 597.624 517.071 C 587.963 528.246 572.101 547.954 572.101 577.154 C 572.101 589.267 574.167 606.427 585.631 622.217 C 597.071 637.983 619.134 650 646.436 650 C 676.31 650 701.954 637.238 720.82 619.213 C 739.686 601.188 752.64 578.452 762.11 554.611 C 781.096 506.928 786.912 455.377 786.912 425.431 C 786.912 347.803 725.507 289.497 657.732 289.497 L 657.708 289.497 Z  M 796.67 303.773 C 790.482 304.746 784.864 307.952 780.88 312.786 C 772.997 322.063 771.603 334.56 778.645 340.568 C 785.686 346.577 797.799 343.861 805.682 334.56 C 813.565 325.259 814.959 312.786 807.917 306.777 C 806.201 305.284 804.134 304.251 801.909 303.773 C 800.178 303.447 798.401 303.447 796.67 303.773 Z  M 657.708 337.564 C 697.435 337.564 738.821 373.134 738.821 425.431 C 738.821 448.912 733.293 498.204 717.792 537.355 C 710.005 556.87 699.502 573.477 687.75 584.653 C 676.021 595.828 663.812 601.933 646.46 601.933 C 631.439 601.933 627.858 598.088 624.662 593.665 C 621.489 589.267 620.168 581.168 620.168 577.154 C 620.168 562.013 623.821 560.067 633.698 548.603 C 643.552 537.163 659.222 516.974 659.222 487.029 C 659.222 454.247 635.934 434.732 620.168 418.677 C 604.402 402.623 594.62 390.606 594.62 378.109 C 594.62 360.276 598.585 354.075 607.406 348.067 C 616.226 342.058 633.506 337.564 657.708 337.564 Z " fill="rgb(255,82,151)"/></g></svg>