<?xml version="1.0" encoding="UTF-8" standalone="no"?><!-- Generator: Gravit.io --><svg xmlns="http://www.w3.org/2000/svg" xmlns:xlink="http://www.w3.org/1999/xlink" style="isolation:isolate" viewBox="0 0 1000 1000" width="1000pt" height="1000pt"><defs><clipPath id="_clipPath_KzGDMjVPDD6ZCHPZxjOO9h6FPumR83vv"><rect width="1000" height="1000"/></clipPath></defs><g clip-path="url(#_clipPath_KzGDMjVPDD6ZCHPZxjOO9h6FPumR83vv)"><g clip-path="url(#_clipPath_oky8282y1tNIAPpH3VTvo5jeDtkv9aTt)"><text transform="matrix(1.156,0,0,1,77.847,894.863)" style="font-family:'Chicle';font-weight:400;font-size:225px;font-style:normal;fill:#ff5297;stroke:none;">headband</text></g><defs><clipPath id="_clipPath_oky8282y1tNIAPpH3VTvo5jeDtkv9aTt"><rect x="0" y="0" width="865" height="350" transform="matrix(1.156,0,0,1,0,650)"/></clipPath></defs><path d=" M 541.953 25.098 C 526.285 25.651 510.713 28.198 494.637 31.851 C 430.523 46.678 363.429 84.983 305.395 142.993 C 247.385 201.003 209.08 268.121 194.253 332.235 C 179.426 396.349 188.533 459.43 230.299 501.195 C 263.077 533.973 308.783 546.373 357.974 543.249 C 357.59 546.734 357.59 550.386 357.229 553.775 C 353.264 592.536 354.201 626.612 354.201 626.612 L 354.97 649.153 L 377.487 649.898 C 377.487 649.898 410.818 650.859 449.579 646.894 C 488.365 642.953 532.846 637.978 561.466 609.334 C 585.978 584.846 596.864 552.189 595.278 519.987 L 605.779 510.207 L 672.633 443.401 L 680.875 434.366 C 713.557 436.432 746.864 425.474 771.759 400.579 C 800.356 371.958 805.354 328.198 809.295 289.436 C 813.236 250.675 812.299 216.599 812.299 216.599 L 811.554 194.058 L 788.989 193.314 C 788.989 193.314 754.914 192.352 716.152 196.317 C 712.788 196.702 709.111 197.447 705.627 197.831 C 709.303 147.775 696.807 101.132 663.573 67.897 C 642.666 46.99 616.737 34.494 587.732 28.847 C 572.662 25.879 557.305 24.622 541.953 25.098 Z  M 543.467 73.16 C 579.682 71.646 609.456 81.33 629.81 101.708 C 653.36 125.258 662.107 161.953 656.099 206.074 C 637.043 211.433 619.212 219.699 605.034 233.853 C 577.125 261.773 565.007 301.789 572.737 340.502 L 502.159 411.104 C 494.276 409.262 486.221 408.256 478.128 408.1 C 447.801 408.1 417.018 419.635 394.02 442.632 C 379.842 456.811 371.383 474.641 366.241 493.698 C 323.057 499.321 287.372 490.694 264.11 467.408 C 236.955 440.277 228.521 396.157 240.8 342.761 C 253.104 289.34 286.915 229.095 339.206 176.78 C 391.473 124.514 451.742 90.702 505.162 78.423 C 518.475 75.299 531.356 73.616 543.443 73.16 L 543.467 73.16 Z  M 746.215 242.12 C 752.415 241.856 757.389 242.12 763.493 242.12 C 763.397 254.231 763.493 261.753 761.234 284.174 C 757.677 319.379 746.119 358.621 737.948 366.791 C 713.86 391.153 675.615 394.335 647.833 374.289 C 663.693 366.984 680.611 358.717 685.393 354.031 C 694.598 344.64 694.598 329.611 685.393 320.22 C 676.002 311.015 660.973 311.015 651.582 320.22 C 646.896 324.93 638.629 341.92 631.324 357.78 C 611.277 329.997 614.459 291.752 638.821 267.665 C 646.992 259.494 686.234 247.959 721.439 244.379 C 732.685 243.249 740.015 242.408 746.215 242.12 Z  M 588.501 393.057 L 621.543 426.099 L 588.501 459.142 L 555.459 426.099 L 588.501 393.057 Z  M 478.128 455.393 C 493.027 455.393 507.589 460.752 520.182 470.412 C 504.321 477.741 487.332 486.008 482.622 490.694 C 473.432 500.082 473.432 515.093 482.622 524.481 C 492.01 533.67 507.021 533.67 516.409 524.481 C 521.023 519.891 528.809 503.19 535.946 487.69 C 554.353 515.013 551.902 551.323 527.679 575.546 C 519.509 583.717 480.291 595.252 445.086 598.832 C 422.641 601.091 415.143 600.995 403.032 601.091 C 403.128 588.98 402.287 581.458 404.522 559.037 C 405.363 550.963 406.684 543.081 408.27 535.007 C 408.559 534.91 408.751 535.103 409.039 535.007 L 408.294 532.748 C 413.629 506.458 422.473 482.523 428.552 476.42 C 441.622 463.094 459.463 455.527 478.128 455.393 Z " fill="rgb(102,143,255)"/></g></svg>