<?xml version="1.0" encoding="UTF-8" standalone="no"?><!-- Generator: Gravit.io --><svg xmlns="http://www.w3.org/2000/svg" xmlns:xlink="http://www.w3.org/1999/xlink" style="isolation:isolate" viewBox="0 0 1000 1000" width="1000pt" height="1000pt"><defs><clipPath id="_clipPath_qMPlsbrwlaond5G3YJ6oFRnZp5wfXnss"><rect width="1000" height="1000"/></clipPath></defs><g clip-path="url(#_clipPath_qMPlsbrwlaond5G3YJ6oFRnZp5wfXnss)"><g clip-path="url(#_clipPath_SC3Xjc1l1PLYv0U0RBBf0zRcVIoofdjA)"><text transform="matrix(1.156,0,0,1,212.977,894.863)" style="font-family:'Chicle';font-weight:400;font-size:225px;font-style:normal;fill:#ff5297;stroke:none;">mobile</text></g><defs><clipPath id="_clipPath_SC3Xjc1l1PLYv0U0RBBf0zRcVIoofdjA"><rect x="0" y="0" width="865" height="350" transform="matrix(1.156,0,0,1,0,650)"/></clipPath></defs><path d=" M 487.5 459.504 L 487.5 147.709 C 471.396 148.256 455.339 149.874 439.44 152.56 C 420.29 155.79 401.45 160.64 383.12 167.05 C 365.54 173.19 348.52 180.84 332.26 189.92 C 316.65 198.62 301.87 208.72 288.09 220.1 C 274.84 231.02 262.69 243.21 251.81 256.49 C 241.29 269.33 232.16 283.25 224.58 298.02 C 217.14 312.52 211.39 327.83 207.46 343.64 C 205.333 352.23 203.771 360.937 202.788 369.712 C 225.689 354.183 254.877 348.149 283.706 355.532 C 297.046 358.944 309.533 365.089 320.376 373.576 C 323.233 375.794 324.501 379.496 323.603 382.999 C 322.706 386.502 319.815 389.139 316.244 389.71 C 285.151 394.777 258.428 417.587 250.089 450.15 C 241.749 482.712 254.216 515.56 279.045 534.949 C 281.907 537.17 283.158 540.878 282.263 544.37 C 281.373 547.874 278.484 550.514 274.913 551.083 C 261.737 553.245 247.862 552.807 234.084 549.279 C 180.694 535.604 148.348 480.985 162.022 427.594 C 165.071 415.689 170.157 404.829 176.824 395.305 C 176.609 394.392 176.5 393.451 176.5 392.5 C 176.5 374 178.75 355.58 183.19 337.62 C 187.59 319.94 194.02 302.82 202.34 286.6 C 210.73 270.26 220.83 254.86 232.48 240.65 C 244.38 226.11 257.68 212.77 272.18 200.81 C 287.12 188.48 303.15 177.52 320.08 168.09 C 337.6 158.31 355.93 150.06 374.87 143.45 C 394.53 136.58 414.74 131.38 435.27 127.91 C 452.549 124.994 469.998 123.252 487.5 122.696 L 487.5 56.078 C 487.5 52.218 488.82 48.497 491.16 45.768 C 493.5 43.039 496.69 41.5 500 41.5 C 503.31 41.5 506.5 43.039 508.84 45.768 C 511.18 48.497 512.5 52.218 512.5 56.078 L 512.5 122.696 C 530.002 123.252 547.451 124.994 564.73 127.91 C 585.26 131.38 605.47 136.58 625.13 143.45 C 644.07 150.06 662.4 158.31 679.92 168.09 C 696.85 177.52 712.88 188.48 727.82 200.81 C 742.32 212.77 755.62 226.11 767.52 240.65 C 779.17 254.86 789.27 270.26 797.66 286.6 C 805.98 302.82 812.41 319.94 816.81 337.62 C 821.25 355.58 823.5 374 823.5 392.5 C 823.5 394.818 822.853 397.077 821.661 399.026 L 871.174 398.092 C 876.692 397.987 878.514 401.51 875.24 405.954 L 843.782 448.649 C 840.508 453.092 839.315 460.934 841.119 466.15 L 858.457 516.268 C 860.261 521.484 857.474 524.306 852.236 522.565 L 801.91 505.841 C 796.672 504.1 788.845 505.389 784.442 508.716 L 742.134 540.693 C 737.731 544.02 734.186 542.241 734.223 536.722 L 734.578 483.691 C 734.614 478.172 730.97 471.126 726.445 467.967 L 682.96 437.611 C 678.434 434.452 679.031 430.531 684.291 428.86 L 734.836 412.81 C 740.097 411.139 745.671 405.496 747.277 400.216 L 762.71 349.478 C 764.317 344.198 768.23 343.554 771.444 348.041 L 798.385 385.647 C 797.907 371.485 795.95 357.411 792.54 343.64 C 788.61 327.83 782.86 312.52 775.42 298.02 C 767.84 283.25 758.71 269.33 748.19 256.49 C 737.31 243.21 725.16 231.02 711.91 220.1 C 698.13 208.72 683.35 198.62 667.74 189.92 C 651.48 180.84 634.46 173.19 616.88 167.05 C 598.55 160.64 579.71 155.79 560.56 152.56 C 544.661 149.874 528.604 148.256 512.5 147.709 L 512.5 459.505 C 545.378 464.654 572.248 489.836 578.859 523.341 C 606.755 525.272 628.75 548.232 628.75 576.557 C 628.75 606.17 604.717 630.203 575.104 630.203 L 435.625 630.203 C 400.111 630.203 371.25 601.342 371.25 565.828 C 371.246 532.982 395.995 505.411 428.651 501.882 C 440.224 479.663 461.862 463.515 487.5 459.504 Z " fill="rgb(102,143,255)"/></g></svg>