<?xml version="1.0" encoding="UTF-8" standalone="no"?><!-- Generator: Gravit.io --><svg xmlns="http://www.w3.org/2000/svg" xmlns:xlink="http://www.w3.org/1999/xlink" style="isolation:isolate" viewBox="0 0 1000 1000" width="1000pt" height="1000pt"><defs><clipPath id="_clipPath_R2O262YdQvfpNiOt8tcNnFVP2BW5ceTd"><rect width="1000" height="1000"/></clipPath></defs><g clip-path="url(#_clipPath_R2O262YdQvfpNiOt8tcNnFVP2BW5ceTd)"><g clip-path="url(#_clipPath_CuCNZdkzB3x42UcCjgulk0iUkm1gK4NR)"><text transform="matrix(1.156,0,0,1,226.633,894.863)" style="font-family:'Chicle';font-weight:400;font-size:225px;font-style:normal;fill:#ff5297;stroke:none;">onesie</text></g><defs><clipPath id="_clipPath_CuCNZdkzB3x42UcCjgulk0iUkm1gK4NR"><rect x="0" y="0" width="865" height="350" transform="matrix(1.156,0,0,1,0,650)"/></clipPath></defs><path d=" M 399.251 25.102 C 397.151 25.574 395.126 26.336 393.235 27.364 L 200.73 122.871 C 190.382 127.828 185.016 139.499 187.904 150.688 L 220.991 281.544 C 223.93 293.358 235.237 301.109 247.316 299.591 L 304.466 292.806 C 293.231 372.703 294.245 453.846 307.474 533.438 C 308.99 543.039 316.137 550.739 325.521 553.001 C 372.613 565.129 389.818 584.115 397.711 598.865 C 405.604 613.616 403.727 622.929 403.727 622.929 C 402.891 629.811 405.053 636.721 409.661 641.9 C 414.27 647.08 420.881 650.03 427.814 650 L 572.193 650 C 579.122 650.023 585.727 647.07 590.33 641.891 C 594.933 636.713 597.092 629.807 596.256 622.929 C 596.256 622.929 594.38 613.616 602.272 598.865 C 602.272 598.865 627.37 565.129 674.462 553.001 C 683.671 550.852 690.747 543.475 692.509 534.184 C 709.715 436.246 700.21 325.435 695.517 277.766 L 746.652 298.075 C 753.149 300.722 760.368 300.337 766.576 297.113 C 772.791 293.975 777.326 288.28 778.992 281.52 L 812.079 150.688 C 815.003 139.548 809.641 127.896 799.278 122.871 L 606.772 27.364 C 600.628 24.423 593.527 24.217 587.223 26.798 C 580.919 29.379 576.002 34.506 573.685 40.912 C 568.8 53.786 557.25 61.39 541.368 66.467 C 525.487 71.52 507.223 72.483 500.004 72.483 C 492.785 72.483 474.521 71.52 458.639 66.467 C 442.757 61.414 431.207 53.786 426.298 40.888 C 422.602 30.59 412.408 24.097 401.513 25.102 L 399.227 25.102 L 399.251 25.102 Z  M 397.735 79.245 C 411.355 94.958 427.91 107.062 444.37 112.331 C 462.379 117.931 481.144 120.723 500.004 120.609 C 518.872 120.73 537.646 117.938 555.662 112.331 C 572.097 107.062 588.628 94.958 602.272 79.245 L 760.945 157.45 L 739.12 243.187 L 677.47 218.378 C 669.486 215.086 660.353 216.296 653.503 221.554 C 646.641 226.817 643.154 235.373 644.383 243.933 C 644.383 243.933 661.468 406.167 645.129 514.644 C 601.238 530.43 572.578 553.097 560.162 576.318 C 555.108 585.799 553.592 593.788 551.884 601.873 L 448.123 601.873 C 446.439 593.788 444.923 585.799 439.846 576.294 C 427.429 553.097 398.77 530.43 354.878 514.644 C 336.542 390.959 355.624 268.742 355.624 268.742 C 356.919 261.178 354.502 253.453 349.127 247.976 C 343.764 242.514 336.139 239.901 328.553 240.925 L 262.379 249.203 L 239.062 157.45 L 397.735 79.245 Z " fill="rgb(102,143,255)"/></g></svg>