<?xml version="1.0" encoding="UTF-8" standalone="no"?><!-- Generator: Gravit.io --><svg xmlns="http://www.w3.org/2000/svg" xmlns:xlink="http://www.w3.org/1999/xlink" style="isolation:isolate" viewBox="0 0 1000 1000" width="1000pt" height="1000pt"><defs><clipPath id="_clipPath_MjHCzKeakvSyE05qBO6x8kDBKgZxupwN"><rect width="1000" height="1000"/></clipPath></defs><g clip-path="url(#_clipPath_MjHCzKeakvSyE05qBO6x8kDBKgZxupwN)"><g clip-path="url(#_clipPath_M6guO31D83XNvnhMIdGcc9W5HGiNKoRo)"><text transform="matrix(1.156,0,0,1,19.538,887.1)" style="font-family:'Chicle';font-weight:400;font-size:200px;font-style:normal;letter-spacing:-2;fill:#668fff;stroke:none;">pop–up book</text></g><defs><clipPath id="_clipPath_M6guO31D83XNvnhMIdGcc9W5HGiNKoRo"><rect x="0" y="0" width="865" height="350" transform="matrix(1.156,0,0,1,0,650)"/></clipPath></defs><path d=" M 222.315 313.651 L 222.315 586.826 L 236.93 586.826 C 379.192 586.826 493.423 617.227 493.423 617.227 L 500 618.96 L 506.577 617.227 C 506.577 617.227 620.793 586.826 763.07 586.826 L 777.685 586.826 L 777.685 313.651 L 763.07 313.651 C 619.258 313.651 509.354 341.913 500 344.387 C 490.646 341.905 380.742 313.651 236.93 313.651 L 222.315 313.651 Z  M 251.545 329.964 C 372.06 331.79 465.684 353.043 485.385 357.796 L 485.385 598.565 C 454.27 591.4 366.814 573.566 251.545 571.919 L 251.545 329.964 Z  M 748.455 329.964 L 748.455 571.919 C 633.186 573.558 545.73 591.4 514.615 598.565 L 514.615 357.796 C 534.316 353.035 627.94 331.79 748.455 329.964 Z  M 163.855 352.676 L 163.855 618.046 L 178.47 618.046 C 365.44 618.046 494.066 648.595 494.066 648.595 L 500 650 L 505.934 648.595 C 505.934 648.595 634.56 618.046 821.53 618.046 L 836.145 618.046 L 836.145 352.676 L 806.915 352.676 L 806.915 602.983 C 628.612 604.598 508.17 631.393 500 633.289 C 491.83 631.401 371.388 604.598 193.085 602.983 L 193.085 352.676 L 163.855 352.676 Z " fill="rgb(255,82,151)"/><path d=" M 352.488 109.547 C 345.675 116.579 341.914 125.937 339.921 134.113 C 337.689 143.33 338.04 147.776 337.978 151.566 C 337.978 151.609 337.797 151.696 337.797 151.74 L 337.627 151.902 C 331.805 153.963 321.979 157.774 313.377 164.611 C 304.774 171.448 297.095 182.064 297.803 195.786 L 297.627 195.954 C 298.329 208.327 305.505 217.983 313.558 224.76 C 317.732 228.301 322.291 230.963 326.646 233.234 C 324.002 235.679 321.522 238.281 319.221 241.026 C 317.723 242.758 317.105 245.038 317.534 247.25 C 317.927 249.466 319.322 251.404 321.345 252.547 L 465.93 336.747 L 465.924 467.222 C 466.014 469.76 467.408 472.113 469.639 473.49 C 469.639 473.49 484.046 482.403 504.151 481.796 C 523.667 481.2 537.961 473.826 537.961 473.826 C 540.431 472.471 542.005 469.955 542.028 467.222 L 542.028 343.183 C 543.466 344.18 544.876 345.411 546.445 347.086 C 550.851 351.803 555.501 359.052 560.79 366.567 C 566.074 374.087 572.026 382.03 580.612 388.254 C 589.192 394.484 600.45 398.572 614.054 398.257 C 617.178 398.612 620.232 397.192 621.872 394.622 C 623.512 392.051 623.437 388.802 621.68 386.303 C 619.924 383.804 616.807 382.514 613.703 383 C 603.548 383.233 596.514 380.36 590.341 375.892 C 584.168 371.414 579.037 364.984 574.065 357.925 C 570.101 352.318 566.402 346.403 562.03 340.981 C 584.35 343.373 600.96 349.537 616.885 353.181 C 627.816 355.685 638.7 356.911 650.163 354.2 C 661.62 351.494 672.93 344.95 685.208 333.196 C 687.62 331.354 688.711 328.347 688.011 325.47 C 687.332 322.577 684.973 320.318 681.951 319.668 C 678.946 318.998 675.805 320.043 673.881 322.352 C 662.951 332.816 654.235 337.43 646.272 339.295 C 638.31 341.16 630.477 340.353 620.612 338.108 C 605.791 334.719 587.068 327.985 561.498 325.573 L 686.629 252.547 C 688.47 251.477 689.787 249.746 690.286 247.74 C 690.785 245.734 690.425 243.621 689.285 241.871 C 689.285 241.871 688.815 241.129 687.864 239.838 C 691.89 227.807 687.377 215.191 682.727 205.448 C 678.791 197.18 676.05 193.753 674.057 191.042 C 676.05 188.201 679.165 184.373 682.733 175.286 C 687.354 163.532 690.475 147.24 680.603 133.604 L 680.433 133.441 C 671.423 121.215 656.245 118.851 643.792 119.377 C 633.156 119.822 625.386 122.381 620.085 124.116 C 616.738 120.239 609.84 113.082 599.199 106.831 C 601.583 99.213 602.2 90.782 598.666 82.27 L 598.842 82.102 C 598.819 82.037 598.683 81.994 598.661 81.929 C 592.98 68.141 578.754 62.275 566.635 60.074 C 556.056 58.165 547.804 58.821 542.209 59.396 C 540.549 56.029 538.867 51.664 532.655 44.144 C 524.46 34.239 511.213 23.498 494.246 25.342 L 494.252 25 C 494.048 25.022 493.918 25.146 493.714 25.168 C 476.769 26.86 466.479 40.398 460.623 51.773 C 456.308 60.133 455.554 64.248 454.603 68.033 C 454.541 68.06 454.337 68.038 454.252 68.044 C 447.994 68.906 437.924 70.489 428.059 75.151 C 422.702 77.642 417.894 81.093 413.895 85.317 C 409.59 89.956 406.713 95.646 405.581 101.756 C 405.581 101.843 405.406 101.838 405.406 101.924 L 405.581 102.092 C 405.056 104.658 404.819 107.27 404.873 109.883 C 394.43 102.477 380.804 95.993 366.114 100.905 C 362.234 102.185 358.634 104.139 355.495 106.668 C 354.385 107.557 353.462 108.528 352.488 109.547 Z  M 363.457 121.069 C 365.694 118.504 368.373 116.493 371.426 115.479 C 379.366 112.833 389.565 117.512 398.508 124.457 C 407.444 131.408 413.719 139.367 413.719 139.367 L 419.383 146.48 L 424.163 141.904 C 426.773 142.289 429.424 141.4 431.242 139.541 C 436.396 138.278 441.675 137.539 446.991 137.334 C 456.591 137.036 465.018 138.836 469.65 145.125 C 473.343 150.232 474.011 156.077 473.009 162.578 C 472.284 167.392 470.466 172.125 468.404 176.474 C 459.152 175.384 449.765 176.075 440.796 178.507 C 437.101 179.543 433.492 180.844 430.001 182.4 C 428.274 179.141 425.975 176.17 423.46 173.763 C 410.64 161.537 389.907 161.534 377.083 173.757 C 367.637 182.801 365.292 196.269 370.004 207.644 C 360.337 210.165 351.57 214.567 344.338 219.333 C 342.792 220.347 341.535 221.344 340.091 222.38 C 334.363 220.082 329.049 216.937 324.341 213.06 C 318.389 208.045 314.141 202.243 313.728 195.103 C 313.326 187.138 317.375 181.44 323.633 176.468 C 329.829 171.556 337.995 168.227 342.922 166.471 C 342.99 166.449 343.035 166.319 343.103 166.297 L 347.883 164.779 L 353.541 163.082 L 353.547 157.319 C 353.547 157.319 353.173 147.852 355.67 137.665 C 357.233 131.289 359.742 125.341 363.452 121.063 L 363.457 121.069 Z  M 426.111 95.31 C 428.455 92.816 431.485 90.761 435.144 89.048 C 442.415 85.632 451.42 84.049 457.078 83.284 L 457.44 83.284 C 458.035 83.181 458.21 83.013 458.142 82.948 L 466.462 85.827 L 468.41 77.185 C 468.41 77.185 470.29 67.924 475.132 58.55 C 479.975 49.165 486.912 41.309 495.662 40.588 L 495.838 40.42 L 496.019 40.593 C 504.825 39.482 513.184 45.5 519.912 53.632 C 526.635 61.771 530.525 70.581 530.525 70.581 L 535.13 81.083 L 541.858 74.642 C 545.392 74.219 554.6 73.503 563.622 75.157 C 573.114 76.87 580.923 80.53 583.8 87.687 C 587.385 96.118 583.381 105.969 577.429 114.465 C 571.477 122.95 564.511 128.86 564.511 128.86 L 559.725 132.758 L 562.387 138.017 C 562.387 138.017 566.125 146.041 568.22 155.801 C 570.101 164.465 570.174 173.503 566.81 179.185 C 563.843 178.512 560.796 178.003 557.783 177.656 C 545.154 176.192 532.253 176.983 521.153 180.54 C 518.338 179.461 516.373 178.339 516.373 178.339 L 510.885 174.777 L 506.281 179.185 C 506.281 179.185 502.458 182.508 497.435 186.298 C 493.325 183.947 488.999 181.961 484.511 180.367 C 486.627 175.417 488.115 170.242 488.945 164.952 C 489.773 159.774 489.65 154.497 488.583 149.359 C 501.104 156.099 517.279 154.765 527.875 144.621 C 540.64 132.4 540.465 112.28 527.699 100.059 C 514.878 87.838 494.15 87.838 481.328 100.059 C 473.92 107.176 470.502 117.248 472.125 127.173 C 464.095 122.782 454.739 121.665 446.47 121.914 C 438.411 122.169 432.499 123.72 427.521 125.135 C 422.458 119.355 419.541 112.876 421.331 104.971 L 421.155 104.803 L 421.331 104.635 C 421.948 101.149 423.609 97.91 426.111 95.31 Z  M 388.421 184.612 C 394.923 178.388 405.632 178.382 412.139 184.612 C 414.065 186.455 415.362 188.423 416.024 190.37 C 409.536 194.951 403.861 200.501 399.216 206.809 C 395.151 205.925 390.998 205.468 386.83 205.448 C 382.294 199.327 382.826 189.969 388.421 184.612 Z  M 344.174 239.171 C 346.303 237.176 349.129 234.807 353.552 231.884 C 366.635 223.264 382.911 216.823 399.391 222.223 C 403.106 223.502 407.224 221.968 409.126 218.661 C 413.884 209.964 428.314 198.231 445.236 193.59 C 453.153 191.432 461.422 190.457 469.832 191.731 C 470.115 191.785 470.409 191.85 470.715 191.893 C 470.783 191.915 470.828 192.045 470.896 192.067 C 471.14 192.083 471.355 192.083 471.599 192.067 C 471.78 192.11 471.955 192.192 472.137 192.235 C 472.414 192.295 472.709 192.36 473.014 192.403 C 479.119 193.715 485.383 196.242 491.42 200.199 C 492.277 201.325 493.441 202.203 494.784 202.737 C 496.024 203.675 497.282 204.542 498.499 205.621 C 500.196 207.06 502.446 207.751 504.7 207.527 C 506.955 207.302 509.007 206.182 510.358 204.439 C 516.667 196.578 536.636 190.885 555.84 193.081 C 575.045 195.287 591.57 203.951 595.84 219.176 C 596.362 221.221 597.733 222.973 599.636 224.027 C 601.539 225.082 603.809 225.346 605.921 224.76 L 606.097 224.592 C 608 224.842 609.948 224.419 611.584 223.405 C 611.652 223.383 611.692 223.258 611.76 223.237 C 631.78 218.937 646.544 224.635 657.423 232.047 C 665.539 237.572 667.176 240.841 669.809 244.241 L 531.766 324.89 L 476.191 324.895 L 338.867 244.577 C 340.589 242.755 342.05 241.15 344.179 239.155 L 344.174 239.171 Z  M 492.655 110.903 C 495.785 107.865 500.056 106.155 504.514 106.155 C 508.971 106.155 513.242 107.865 516.373 110.903 C 519.548 113.899 521.335 117.988 521.335 122.256 C 521.335 126.524 519.548 130.613 516.373 133.609 C 513.243 136.649 508.972 138.36 504.514 138.36 C 500.056 138.36 495.784 136.649 492.655 133.609 C 489.482 130.612 487.696 126.523 487.696 122.256 C 487.696 117.989 489.482 113.9 492.655 110.903 Z  M 592.471 120.732 C 602.976 127.526 610.877 137.334 610.877 137.334 L 616.364 144.279 L 621.32 139.535 L 621.846 139.367 C 624.684 138.31 634.549 135.219 644.33 134.791 C 653.991 134.39 662.532 136.342 667.153 142.414 L 667.334 142.588 C 672.618 150.064 671.231 160.414 667.51 169.865 C 665.166 175.741 662.076 181.319 658.307 186.472 L 654.767 191.216 L 658.488 195.786 C 658.488 195.786 663.88 202.769 668.212 211.883 C 670.058 215.711 671.14 219.718 671.933 223.578 C 670.319 222.282 668.642 220.927 666.802 219.675 C 655.361 211.983 641.837 207.631 627.867 207.145 C 633.224 195.575 631.14 181.467 621.32 172.066 C 611.76 162.914 597.471 160.675 585.567 165.294 C 585.392 160.93 584.99 156.608 584.151 152.748 C 582.226 143.791 580.062 139.768 578.669 136.656 C 581.325 134.33 585.369 131.218 591.049 123.102 C 591.542 122.381 591.984 121.491 592.471 120.732 L 592.471 120.732 Z  M 586.1 183.077 C 592.601 176.853 603.31 176.859 609.812 183.083 C 613.308 186.46 615.07 191.141 614.628 195.876 C 614.186 200.612 611.584 204.919 607.518 207.649 C 602.427 197.733 594.153 190.278 584.157 185.284 C 584.746 184.547 585.369 183.777 586.1 183.077 Z " fill="rgb(255,82,151)"/></g></svg>