<?xml version="1.0" encoding="UTF-8" standalone="no"?><!-- Generator: Gravit.io --><svg xmlns="http://www.w3.org/2000/svg" xmlns:xlink="http://www.w3.org/1999/xlink" style="isolation:isolate" viewBox="0 0 1000 1000" width="1000pt" height="1000pt"><defs><clipPath id="_clipPath_RlvABKW7VgJaoAfznxACx0EYWo5tG8ve"><rect width="1000" height="1000"/></clipPath></defs><g clip-path="url(#_clipPath_RlvABKW7VgJaoAfznxACx0EYWo5tG8ve)"><g clip-path="url(#_clipPath_x6u0R6LncSIGjDdhQ5Go8d72Kg8QtLF4)"><text transform="matrix(1.156,0,0,1,270.072,894.863)" style="font-family:'Chicle';font-weight:400;font-size:225px;font-style:normal;fill:#ff5297;stroke:none;">rattle</text></g><defs><clipPath id="_clipPath_x6u0R6LncSIGjDdhQ5Go8d72Kg8QtLF4"><rect x="0" y="0" width="865" height="350" transform="matrix(1.156,0,0,1,0,650)"/></clipPath></defs><path d=" M 608.118 25.001 C 495.5 25.001 403.752 116.749 403.752 229.367 C 403.752 252.76 407.791 275.289 415.028 296.23 L 412.768 304.501 C 412.768 304.501 394.255 362.83 364.682 392.403 C 349.366 407.718 319.312 424.909 290.292 439.743 C 261.272 454.578 234.512 464.748 215.927 483.333 C 177.99 521.608 177.99 583.306 215.927 621.581 C 253.771 659.425 316.211 659.521 354.175 621.581 C 372.76 602.972 383.002 576.212 397.741 547.192 C 412.479 518.172 428.925 488.214 444.336 472.803 C 473.717 443.398 532.983 424.716 532.983 424.716 L 541.254 422.456 C 622.499 450.627 712.683 424.769 766.658 357.829 C 796.28 321.568 812.468 276.189 812.484 229.367 C 812.492 200.357 806.346 171.675 794.451 145.216 C 813.231 123.904 817.807 93.576 806.15 67.672 C 794.493 41.768 768.76 25.079 740.354 25.001 C 722.66 24.931 705.554 31.346 692.268 43.033 C 665.796 31.177 637.123 25.033 608.118 25.001 Z  M 608.118 73.087 C 629.316 73.079 650.29 77.425 669.74 85.854 C 669.067 89.628 668.225 93.187 668.225 97.13 C 668.225 136.681 700.804 169.259 740.354 169.259 C 744.298 169.259 747.88 168.417 751.631 167.744 C 759.709 186.642 764.398 207.487 764.398 229.367 C 764.639 263.55 753.537 296.849 732.829 324.048 L 732.108 323.279 C 732.372 323.014 731.891 322.726 732.108 322.533 C 730.785 322.918 728.044 323.495 723.813 323.279 C 715.374 322.918 703.16 320.562 688.518 315.008 C 659.209 303.948 622.399 281.203 589.34 248.168 C 556.161 214.989 533.079 178.828 521.707 149.712 C 517.166 138.172 514.386 126.014 513.46 113.647 C 512.979 105.401 515.335 103.525 512.691 106.146 C 539.866 84.688 573.492 73.038 608.118 73.087 Z  M 740.354 73.087 C 753.891 73.087 764.398 83.618 764.398 97.13 C 764.398 110.666 753.867 121.173 740.354 121.173 C 726.818 121.173 716.311 110.642 716.311 97.13 C 716.311 94.028 716.792 90.83 717.826 88.114 C 717.994 87.561 718.283 87.152 718.547 86.599 C 718.85 85.87 719.107 85.124 719.317 84.363 C 723.452 77.39 731.435 73.087 740.354 73.087 Z  M 472.875 151.972 C 474.39 156.853 475.4 161.83 477.395 166.999 C 491.461 203.256 516.922 244.874 554.766 282.718 C 592.706 320.658 634.685 346.288 671.231 360.113 C 676.4 362.084 681.281 363.19 686.258 364.609 C 637.928 392.581 578.341 392.622 529.973 364.717 C 481.604 336.812 451.814 285.207 451.838 229.367 C 451.838 200.9 459.724 174.885 472.875 151.972 Z  M 445.827 353.333 C 456.887 367.807 469.678 380.573 484.152 391.657 C 461.792 401.226 433.252 416.253 410.508 438.998 C 386.753 462.753 370.043 495.619 354.92 525.385 C 339.773 555.174 323.905 583.449 319.601 587.753 C 310.393 597.124 297.805 602.403 284.666 602.403 C 271.528 602.403 258.94 597.124 249.732 587.753 C 240.36 578.544 235.081 565.957 235.081 552.818 C 235.081 539.679 240.36 527.092 249.732 517.883 C 254.059 513.556 282.31 497.783 312.075 482.564 C 341.865 467.345 374.828 450.635 398.486 426.977 C 421.231 404.232 436.065 375.693 445.827 353.333 Z " fill="rgb(102,143,255)"/><path d=" M 281.21 37564.593 C 272.193 37573.602 263.183 37582.618 254.18 37591.641 C 250.404 37595.389 248.287 37600.493 248.3 37605.813 C 248.3 37611.171 250.388 37616.199 254.174 37619.991 C 257.928 37623.77 263.038 37625.887 268.364 37625.871 C 273.686 37625.88 278.791 37623.766 282.548 37619.997 L 309.572 37592.955 L 281.21 37564.593 Z  M 535.724 37338.435 C 527.424 37330.082 516.126 37325.4 504.35 37325.433 C 492.576 37325.405 481.279 37330.087 472.976 37338.435 L 470.474 37340.937 L 480.848 37351.305 C 482.575 37353.019 483.094 37355.607 482.163 37357.855 C 481.231 37360.102 479.033 37361.564 476.6 37361.553 C 475.009 37361.555 473.482 37360.922 472.358 37359.795 L 461.99 37349.427 L 446.474 37364.943 L 462.842 37381.311 C 465.185 37383.654 465.185 37387.453 462.842 37389.795 C 460.5 37392.138 456.701 37392.138 454.358 37389.795 L 437.99 37373.427 L 422.474 37388.943 L 432.842 37399.311 C 435.185 37401.654 435.185 37405.453 432.842 37407.795 C 430.499 37410.138 426.701 37410.138 424.358 37407.795 L 413.99 37397.427 L 398.474 37412.943 L 414.842 37429.311 C 417.185 37431.654 417.185 37435.453 414.842 37437.795 C 412.499 37440.138 408.701 37440.138 406.358 37437.795 L 389.99 37421.427 L 374.474 37436.943 L 384.842 37447.311 C 387.185 37449.654 387.185 37453.453 384.842 37455.795 C 382.499 37458.138 378.701 37458.138 376.358 37455.795 L 365.99 37445.427 L 350.474 37460.943 L 366.842 37477.311 C 369.185 37479.654 369.185 37483.453 366.842 37485.795 C 364.499 37488.138 360.701 37488.138 358.358 37485.795 L 341.99 37469.427 L 326.474 37484.943 L 336.842 37495.311 C 339.185 37497.654 339.185 37501.453 336.842 37503.795 C 334.499 37506.138 330.701 37506.138 328.358 37503.795 L 317.99 37493.427 L 314.324 37497.087 C 307.598 37503.813 305.588 37515.243 303.638 37526.301 C 301.97 37535.757 300.248 37545.531 295.622 37550.169 L 289.688 37556.103 L 299.624 37566.039 L 450.572 37415.091 C 452.915 37412.749 456.713 37412.749 459.056 37415.091 C 461.399 37417.434 461.399 37421.233 459.056 37423.575 L 308.108 37574.529 L 318.05 37584.465 L 323.978 37578.537 C 328.484 37574.031 338.216 37572.297 347.624 37570.623 C 358.778 37568.643 370.316 37566.585 377.078 37559.829 C 381.248 37555.641 531.188 37405.701 535.73 37401.183 C 553.016 37383.879 553.01 37355.733 535.724 37338.435 Z " fill="rgb(0,0,0)"/></g></svg>