<?xml version="1.0" encoding="UTF-8" standalone="no"?><!-- Generator: Gravit.io --><svg xmlns="http://www.w3.org/2000/svg" xmlns:xlink="http://www.w3.org/1999/xlink" style="isolation:isolate" viewBox="0 0 1000 1000" width="1000pt" height="1000pt"><defs><clipPath id="_clipPath_YnPu6Vo6f3MBoftoC6xTrJSmJlEsi9Fy"><rect width="1000" height="1000"/></clipPath></defs><g clip-path="url(#_clipPath_YnPu6Vo6f3MBoftoC6xTrJSmJlEsi9Fy)"><g clip-path="url(#_clipPath_TXErARYpYN5sm8E6GsCvV98JEruew73G)"><text transform="matrix(1.156,0,0,1,27.384,894.863)" style="font-family:'Chicle';font-weight:400;font-size:225px;font-style:normal;fill:#668fff;stroke:none;">safety pins</text></g><defs><clipPath id="_clipPath_TXErARYpYN5sm8E6GsCvV98JEruew73G"><rect x="0" y="0" width="865" height="350" transform="matrix(1.156,0,0,1,0,650)"/></clipPath></defs><path d=" M 676.996 25 C 642.342 25 607.794 38.085 581.411 64.481 C 575.746 70.199 539.802 106.09 521.159 124.734 C 518.244 127.528 515.599 130.592 513.26 133.883 C 510.919 137.247 508.539 142.181 508.685 147.58 C 508.845 152.992 511.292 157.553 513.672 160.878 C 516.065 164.202 518.406 166.862 521.571 170.027 C 558.3 206.755 576.624 223.484 596.371 228.205 C 601.983 229.561 606.611 227.221 611.744 226.13 C 610.706 231.277 608.313 235.891 609.669 241.503 C 613.725 258.178 627.169 274.548 653.3 301.343 L 373.632 561.077 C 373.685 559.721 373.632 558.311 373.632 556.915 C 373.632 505.652 331.81 463.83 280.547 463.83 C 263.195 463.83 246.195 468.73 231.504 477.965 L 330.414 57.819 C 331.471 53.426 330.241 48.795 327.143 45.505 C 324.028 42.242 319.475 40.776 315.042 41.609 C 309.643 42.54 305.374 46.649 304.23 51.995 L 193.273 524.92 C 192.921 525.722 192.645 526.554 192.448 527.407 C 189.171 536.901 187.486 546.871 187.462 556.915 C 187.462 608.178 229.284 650 280.547 650 C 304.802 650 326.677 640.386 343.3 625.066 C 343.659 624.761 344.177 624.535 344.55 624.229 C 345.132 623.862 345.683 623.449 346.198 622.992 L 672.435 320.04 C 673.938 321.343 675.228 322.965 676.996 324.202 C 680.281 326.489 685.002 328.777 690.294 328.777 C 695.6 328.777 700.268 326.489 703.592 324.202 C 706.917 321.915 709.629 319.415 712.741 316.303 L 772.994 256.051 C 825.72 203.271 825.72 117.207 772.994 64.481 C 746.597 38.085 711.637 25 676.996 25 Z  M 676.996 51.596 C 704.789 51.596 732.581 62.301 753.858 83.59 C 774.311 103.947 785.81 131.615 785.81 160.472 C 785.81 189.329 774.311 216.997 753.858 237.354 L 694.018 297.606 C 692.262 299.375 691.331 300.053 690.294 300.931 C 689.297 300.093 688.619 299.269 686.97 297.606 C 650.441 261.09 637.196 242.447 635.427 235.266 C 634.55 231.689 634.962 230.386 637.103 226.13 C 639.23 221.875 643.898 215.426 649.151 206.596 C 652.262 201.303 651.278 194.548 646.863 190.293 C 642.409 186.047 635.627 185.404 630.454 188.737 C 621.717 194.029 615.587 198.657 611.331 200.785 C 607.076 202.912 606.145 202.859 602.608 202.035 C 595.534 200.306 576.784 187.434 540.68 151.33 C 538.712 149.362 537.887 148.311 536.956 147.168 C 537.834 146.184 538.246 145.465 539.855 143.843 L 600.108 83.604 C 620.455 63.125 648.128 51.604 676.996 51.596 Z  M 692.781 91.489 C 663.526 91.489 639.589 115.426 639.589 144.681 C 639.589 173.936 663.526 197.872 692.781 197.872 C 722.036 197.872 745.972 173.936 745.972 144.681 C 745.972 115.426 722.036 91.489 692.781 91.489 Z  M 692.781 118.085 C 707.635 118.085 719.377 129.827 719.377 144.681 C 719.377 159.535 707.635 171.277 692.781 171.277 C 677.927 171.277 666.185 159.535 666.185 144.681 C 666.185 129.827 677.927 118.085 692.781 118.085 Z  M 280.547 490.426 C 317.422 490.426 347.036 520.04 347.036 556.915 C 347.063 574.346 340.188 591.08 327.914 603.457 L 327.515 603.87 L 327.089 604.295 C 314.705 616.557 297.975 623.426 280.547 623.404 C 243.672 623.404 214.058 593.79 214.058 556.915 C 214.058 549.388 215.52 542.42 217.794 535.718 C 218.419 534.428 218.831 533.019 219.044 531.569 C 229.289 506.638 253.593 490.379 280.547 490.426 Z " fill="rgb(255,82,151)"/></g></svg>