<?xml version="1.0" encoding="UTF-8" standalone="no"?><!-- Generator: Gravit.io --><svg xmlns="http://www.w3.org/2000/svg" xmlns:xlink="http://www.w3.org/1999/xlink" style="isolation:isolate" viewBox="0 0 1000 1000" width="1000pt" height="1000pt"><defs><clipPath id="_clipPath_zBBVuA36g10dC5kmN5OuUhMiuW1G5zjn"><rect width="1000" height="1000"/></clipPath></defs><g clip-path="url(#_clipPath_zBBVuA36g10dC5kmN5OuUhMiuW1G5zjn)"><g clip-path="url(#_clipPath_9gti8uZnneJptetYUlEfdz1nUI4mQHfT)"><text transform="matrix(1.156,0,0,1,77.066,894.863)" style="font-family:'Chicle';font-weight:400;font-size:225px;font-style:normal;fill:#668fff;stroke:none;">sippy cup</text></g><defs><clipPath id="_clipPath_9gti8uZnneJptetYUlEfdz1nUI4mQHfT"><rect x="0" y="0" width="865" height="350" transform="matrix(1.156,0,0,1,0,650)"/></clipPath></defs><path d=" M 467.105 25 L 450.658 57.895 L 335.526 57.895 C 299.192 57.895 269.737 87.35 269.737 123.684 L 269.737 156.579 L 236.842 156.579 L 236.842 222.368 L 272.171 222.368 L 277.204 288.158 L 269.737 288.158 C 215.625 288.158 171.053 332.73 171.053 386.842 L 171.053 452.632 C 171.053 506.743 215.625 551.316 269.737 551.316 L 297.5 551.316 L 300.329 589.342 C 303.252 623.49 331.715 649.785 365.987 650 L 634.013 650 C 668.272 649.81 696.711 623.484 699.539 589.342 L 702.5 551.316 L 730.263 551.316 C 784.375 551.316 828.947 506.743 828.947 452.632 L 828.947 386.842 C 828.947 332.73 784.375 288.158 730.263 288.158 L 722.697 288.158 L 727.829 222.368 L 763.158 222.368 L 763.158 156.579 L 730.263 156.579 L 730.263 123.684 C 730.263 87.35 700.808 57.895 664.474 57.895 L 549.342 57.895 L 532.895 25 L 467.105 25 Z  M 338.092 222.368 L 661.908 222.368 L 634.013 584.211 L 365.987 584.211 L 338.092 222.368 Z  M 500 321.053 C 481.908 321.053 467.105 335.855 467.105 353.947 C 467.105 358.322 469.046 364.474 471.974 371.283 C 467.632 365.362 463.257 360.625 459.408 358.454 C 443.73 349.37 423.656 354.716 414.572 370.395 C 405.489 386.073 410.835 406.147 426.513 415.23 C 430.362 417.533 436.645 418.849 443.947 419.737 C 436.645 420.625 430.362 421.908 426.513 424.243 C 410.826 433.327 405.472 453.408 414.556 469.095 C 423.64 484.783 443.72 490.136 459.408 481.053 C 463.257 478.849 467.632 474.211 471.974 468.191 C 469.013 475 467.105 481.151 467.105 485.526 C 467.105 503.618 481.908 518.421 500 518.421 C 518.092 518.421 532.895 503.618 532.895 485.526 C 532.895 481.151 530.954 475 528.026 468.191 C 532.368 474.112 536.743 478.849 540.592 481.02 C 556.27 490.103 576.344 484.757 585.428 469.079 C 594.511 453.401 589.165 433.327 573.487 424.243 C 569.638 421.941 563.355 420.625 556.053 419.737 C 563.355 418.849 569.638 417.566 573.487 415.23 C 589.174 406.147 594.528 386.066 585.444 370.378 C 576.36 354.691 556.28 349.337 540.592 358.421 C 536.743 360.625 532.368 365.263 528.026 371.283 C 530.987 364.474 532.895 358.322 532.895 353.947 C 532.895 335.855 518.092 321.053 500 321.053 Z  M 269.737 353.947 L 282.336 353.947 L 292.336 485.526 L 269.737 485.526 C 251.118 485.526 236.842 471.25 236.842 452.632 L 236.842 386.842 C 236.842 368.224 251.118 353.947 269.737 353.947 Z  M 717.796 353.947 L 730.263 353.947 C 748.882 353.947 763.158 368.224 763.158 386.842 L 763.158 452.632 C 763.158 471.25 748.882 485.526 730.263 485.526 L 707.632 485.526 L 717.796 353.947 Z  M 500 386.842 C 518.092 386.842 532.895 401.645 532.895 419.737 C 532.895 437.829 518.092 452.632 500 452.632 C 481.908 452.632 467.105 437.829 467.105 419.737 C 467.105 401.645 481.908 386.842 500 386.842 Z " fill="rgb(255,82,151)"/></g></svg>