<?xml version="1.0" encoding="UTF-8" standalone="no"?><!-- Generator: Gravit.io --><svg xmlns="http://www.w3.org/2000/svg" xmlns:xlink="http://www.w3.org/1999/xlink" style="isolation:isolate" viewBox="0 0 1000 1000" width="1000pt" height="1000pt"><defs><clipPath id="_clipPath_alogLFtndlS4RHmP82LS7imZpc4e6pLl"><rect width="1000" height="1000"/></clipPath></defs><g clip-path="url(#_clipPath_alogLFtndlS4RHmP82LS7imZpc4e6pLl)"><g clip-path="url(#_clipPath_vuhug0hC9fKAcUsPNwMYQ4HqghkwR2tW)"><text transform="matrix(1.156,0,0,1,275.535,894.863)" style="font-family:'Chicle';font-weight:400;font-size:225px;font-style:normal;fill:#668fff;stroke:none;">stork</text></g><defs><clipPath id="_clipPath_vuhug0hC9fKAcUsPNwMYQ4HqghkwR2tW"><rect x="0" y="0" width="865" height="350" transform="matrix(1.156,0,0,1,0,650)"/></clipPath></defs><path d=" M 664.473 25 C 650.148 25 627.335 29.556 604.852 33.734 C 582.368 37.911 562.697 41.957 562.697 41.957 C 556.78 43.208 552.025 47.604 550.312 53.405 C 548.577 59.194 550.177 65.469 554.474 69.72 C 554.474 69.72 561.875 77.368 569.391 86.678 C 573.174 91.365 576.776 96.316 579.145 100.559 C 581.529 104.803 582.237 108.322 582.237 107.237 C 582.237 138.52 583.849 214.72 565.789 281.99 C 556.743 315.592 542.664 346.694 522.615 368.338 C 502.632 389.868 477.582 403.157 440.378 403.289 L 439.869 403.289 C 361.612 399.309 293.816 338.207 245.576 275.312 C 197.27 212.286 169.507 149.901 169.507 149.901 C 166.876 143.98 161.037 140.197 154.606 140.131 L 145.346 140.131 C 139.422 140.081 133.93 143.223 130.971 148.355 C 130.971 148.355 88.816 224.802 88.816 349.325 C 88.816 469.078 184.211 551.315 286.185 551.315 C 292.106 551.381 297.615 548.289 300.642 543.157 C 303.597 538.026 303.597 531.709 300.642 526.578 C 297.615 521.447 292.089 518.354 286.185 518.42 C 201.76 518.42 121.711 451.809 121.711 349.325 C 121.711 258.338 140.724 209.128 151.004 186.381 C 162.254 209.128 182.616 246.973 219.359 294.835 C 270.379 361.332 344.589 431.677 438.832 436.184 L 439.869 436.184 C 485.674 436.184 521.398 418.322 546.776 390.953 C 572.154 363.585 587.763 327.549 597.648 290.723 C 617.467 217.039 615.131 137.171 615.131 107.237 C 615.131 97.664 611.727 90.724 607.927 84.112 C 604.578 78.516 600.8 73.187 596.628 68.174 C 602.927 66.957 603.503 67.023 611.02 65.608 C 633.059 61.562 659.457 57.895 664.473 57.895 C 691.908 57.895 713.815 79.803 713.815 107.237 C 713.815 134.671 691.908 156.579 664.473 156.579 L 648.026 156.579 C 638.98 156.579 631.579 163.98 631.579 173.026 C 631.908 222.105 619.687 334.934 554.474 433.108 C 489.293 531.249 372.467 617.104 154.606 617.104 C 148.673 617.035 143.156 620.147 140.149 625.262 C 137.194 630.394 137.194 636.71 140.149 641.841 C 143.175 646.973 148.701 650.065 154.606 649.999 C 381.267 649.999 511.678 557.236 582.237 451.085 C 647.121 353.453 661.644 248.519 663.454 189.473 L 664.473 189.473 C 694.227 189.473 720.427 173.223 734.884 149.375 C 757.008 144.508 778.951 138.858 800.674 132.434 C 820.526 126.579 841.463 120.016 860.295 112.368 C 854.901 210.164 829.851 277.615 804.786 321.578 C 790.97 345.723 777.812 362.549 767.779 373.47 C 756.661 352.615 735.657 337.499 710.74 337.499 C 674.819 337.499 644.95 367.368 644.95 403.289 C 644.95 431.496 663.371 455.197 688.635 464.457 L 685.542 467.532 C 681.412 471.722 679.843 477.804 681.431 483.47 C 681.431 483.47 686.825 501.134 702.516 517.91 C 718.19 534.687 745.361 551.315 785.773 551.315 C 810.641 551.315 833.569 539.752 850.016 518.93 C 866.463 498.124 878.157 469.012 887.022 430.526 C 904.687 353.552 911.184 237.927 911.184 75.378 C 911.146 74.157 910.975 72.944 910.674 71.76 C 909.448 63.873 902.717 58.016 894.736 57.895 L 881.365 57.895 C 879.332 57.511 877.246 57.511 875.213 57.895 L 729.753 57.895 C 714.72 38.158 691.069 25 664.473 25 Z  M 745.164 90.789 L 815.592 90.789 C 805.756 94.243 801.184 98.191 791.414 101.069 C 776.429 105.509 761.348 109.622 746.184 113.404 C 746.332 111.349 746.71 109.358 746.71 107.237 C 746.71 101.579 746.266 96.118 745.164 90.789 Z  M 873.667 238.306 C 870.065 314.375 864.67 379.769 854.638 423.338 C 846.414 459.193 835.888 483.733 824.325 498.371 C 812.763 513.009 801.513 518.42 785.773 518.42 C 753.848 518.42 737.138 507.055 726.661 495.805 C 719.852 488.552 719.588 485.772 717.927 481.924 L 735.411 464.457 C 740.252 459.733 741.716 452.532 739.103 446.294 C 736.49 440.055 730.331 436.047 723.569 436.184 L 710.707 436.184 C 694.013 436.184 677.812 419.999 677.812 403.289 C 677.812 386.578 694.013 370.394 710.707 370.394 C 727.417 370.394 743.602 386.578 743.602 403.289 C 743.668 409.344 747.089 414.862 752.483 417.614 C 757.836 420.434 764.309 420.067 769.309 416.661 C 769.309 416.661 802.582 392.302 833.552 338.009 C 848.272 312.187 862.401 279.029 873.651 238.306 L 873.667 238.306 Z " fill="rgb(255,82,151)"/></g></svg>