<?xml version="1.0" encoding="UTF-8" standalone="no"?><!-- Generator: Gravit.io --><svg xmlns="http://www.w3.org/2000/svg" xmlns:xlink="http://www.w3.org/1999/xlink" style="isolation:isolate" viewBox="0 0 1000 1000" width="1000pt" height="1000pt"><defs><clipPath id="_clipPath_bd1NID6nr6Cg2FhFgFc61ZccWN6xqgBe"><rect width="1000" height="1000"/></clipPath></defs><g clip-path="url(#_clipPath_bd1NID6nr6Cg2FhFgFc61ZccWN6xqgBe)"><g clip-path="url(#_clipPath_hbMCgwHet8356qSqwOc5JiD7wkqRi1zG)"><text transform="matrix(1.156,0,0,1,83.049,894.863)" style="font-family:'Chicle';font-weight:400;font-size:225px;font-style:normal;fill:#ff5297;stroke:none;">baby gate</text></g><defs><clipPath id="_clipPath_hbMCgwHet8356qSqwOc5JiD7wkqRi1zG"><rect x="0" y="0" width="865" height="350" transform="matrix(1.156,0,0,1,0,650)"/></clipPath></defs><path d=" M 236.48 25 C 205.516 25 180.011 43.41 180.011 65.761 C 180.011 76.223 185.752 85.666 194.881 92.935 C 185.399 100.335 180.095 110.028 180.011 120.109 L 180.011 650 L 819.989 650 L 819.989 120.109 C 819.989 109.647 814.248 100.204 805.213 92.935 C 814.248 85.666 819.989 76.223 819.989 65.761 C 819.989 43.41 794.484 25 763.52 25 C 732.557 25 707.052 43.41 707.052 65.761 C 707.052 76.223 712.793 85.666 721.828 92.935 C 716.884 96.888 713.066 101.505 710.59 106.522 L 289.391 106.522 C 286.915 101.505 283.097 96.888 278.153 92.935 C 287.188 85.666 292.929 76.223 292.929 65.761 C 292.929 43.41 267.424 25 236.461 25 L 236.48 25 Z  M 236.48 52.174 C 247.077 52.174 255.302 58.125 255.302 65.761 C 255.302 73.41 247.058 79.348 236.48 79.348 C 225.882 79.348 217.657 73.397 217.657 65.761 C 217.657 58.111 225.901 52.174 236.48 52.174 Z  M 763.52 52.174 C 774.118 52.174 782.343 58.125 782.343 65.761 C 782.343 73.41 774.099 79.348 763.52 79.348 C 752.923 79.348 744.698 73.397 744.698 65.761 C 744.698 58.111 752.942 52.174 763.52 52.174 Z  M 236.48 106.522 C 247.133 106.522 255.302 112.418 255.302 120.109 L 255.302 622.826 L 217.657 622.826 L 217.657 120.109 C 217.657 112.418 225.826 106.522 236.48 106.522 Z  M 763.52 106.522 C 774.174 106.522 782.343 112.418 782.343 120.109 L 782.343 622.826 L 744.698 622.826 L 744.698 120.109 C 744.698 112.418 752.867 106.522 763.52 106.522 Z  M 292.948 133.696 L 707.052 133.696 L 707.052 622.826 L 292.948 622.826 L 292.948 133.696 Z  M 650.282 337.283 C 639.929 337.446 631.61 343.601 631.76 351.087 L 631.76 405.435 C 631.685 410.326 635.224 414.878 641.096 417.378 C 646.988 419.823 654.178 419.823 660.07 417.378 C 665.943 414.878 669.481 410.312 669.406 405.435 L 669.406 351.087 C 669.472 347.411 667.479 343.872 663.878 341.273 C 660.277 338.674 655.374 337.235 650.282 337.283 Z " fill="rgb(102,143,255)"/></g></svg>