<?xml version="1.0" encoding="UTF-8" standalone="no"?><!-- Generator: Gravit.io --><svg xmlns="http://www.w3.org/2000/svg" xmlns:xlink="http://www.w3.org/1999/xlink" style="isolation:isolate" viewBox="0 0 1000 1000" width="1000pt" height="1000pt"><defs><clipPath id="_clipPath_6FlEsmU1A0can74YYZS3t2Ja8G0eeEZo"><rect width="1000" height="1000"/></clipPath></defs><g clip-path="url(#_clipPath_6FlEsmU1A0can74YYZS3t2Ja8G0eeEZo)"><g clip-path="url(#_clipPath_wK06ElMlxyBXND35eeyezUpnRb3EqiPS)"><text transform="matrix(1.156,0,0,1,222.211,894.863)" style="font-family:'Chicle';font-weight:400;font-size:225px;font-style:normal;fill:#ff5297;stroke:none;">blocks</text></g><defs><clipPath id="_clipPath_wK06ElMlxyBXND35eeyezUpnRb3EqiPS"><rect x="0" y="0" width="865" height="350" transform="matrix(1.156,0,0,1,0,650)"/></clipPath></defs><path d=" M 500 25 L 325.28 95.038 L 325.28 291.973 L 175.519 351.877 L 175.519 572.374 L 350.24 650 L 500 583.506 L 649.76 650 L 824.481 572.374 L 824.481 351.827 L 674.72 291.973 L 674.72 95.038 L 500 25 Z  M 500 78.814 L 624.8 128.734 L 624.8 133.227 L 500 188.638 L 375.2 133.227 L 375.2 128.734 L 500 78.814 Z  M 375.2 187.889 L 475.04 232.318 L 475.04 331.809 L 375.2 292.023 L 375.2 187.889 Z  M 624.8 187.889 L 624.8 292.023 L 524.96 331.809 L 524.96 232.318 L 624.8 187.889 Z  M 350.24 335.653 L 475.04 385.573 L 475.04 390.266 L 350.24 445.677 L 225.439 390.216 L 225.439 385.573 L 350.24 335.653 Z  M 649.76 335.653 L 774.561 385.573 L 774.561 390.266 L 649.76 445.677 L 524.96 390.216 L 524.96 385.573 L 649.76 335.653 Z  M 225.439 444.878 L 325.28 489.107 L 325.28 584.255 L 225.439 540.026 L 225.439 444.878 Z  M 475.04 444.878 L 475.04 540.026 L 375.2 584.255 L 375.2 489.107 L 475.04 444.878 Z  M 524.96 444.878 L 624.8 489.107 L 624.8 584.255 L 524.96 540.026 L 524.96 444.878 Z  M 774.561 444.878 L 774.561 540.026 L 674.72 584.255 L 674.72 489.107 L 774.561 444.878 Z " fill="rgb(102,143,255)"/></g></svg>