<?xml version="1.0" encoding="UTF-8" standalone="no"?><!-- Generator: Gravit.io --><svg xmlns="http://www.w3.org/2000/svg" xmlns:xlink="http://www.w3.org/1999/xlink" style="isolation:isolate" viewBox="0 0 1000 1000" width="1000pt" height="1000pt"><defs><clipPath id="_clipPath_6ZPMh8PMu81qhGDiTSQi0LRHAETRJidm"><rect width="1000" height="1000"/></clipPath></defs><g clip-path="url(#_clipPath_6ZPMh8PMu81qhGDiTSQi0LRHAETRJidm)"><g clip-path="url(#_clipPath_3REcK0W1DpJ4KWJHQmgC5hBWKvVXleV5)"><text transform="matrix(1.156,0,0,1,204.913,894.863)" style="font-family:'Chicle';font-weight:400;font-size:225px;font-style:normal;fill:#ff5297;stroke:none;">bumbo</text></g><defs><clipPath id="_clipPath_3REcK0W1DpJ4KWJHQmgC5hBWKvVXleV5"><rect x="0" y="0" width="865" height="350" transform="matrix(1.156,0,0,1,0,650)"/></clipPath></defs><g><path d=" M 445.163 25.002 C 421.198 25.11 397.199 29.198 374.403 37.777 C 343.053 49.576 306.229 66.855 277.704 103.81 C 229.03 115.335 192.731 140.062 171.959 163.055 C 162.404 173.633 152.454 184.823 149.307 201.569 C 146.453 216.758 150.397 232.03 158.188 249.58 L 149.945 539.553 L 155.518 546.097 C 190.387 587.044 254.652 609.919 324.47 626.309 C 394.289 642.698 469.669 650.451 525.975 649.98 C 583.23 649.501 646.643 636.844 702.95 617.458 C 759.258 598.072 808.2 572.977 837.394 541.334 L 843.613 534.596 L 843.307 525.431 C 841.873 482.221 843.831 465.789 846.183 450.659 C 848.535 435.529 851.727 419.81 851.618 386.611 L 851.618 386.399 L 848.686 253.766 L 848.55 252.654 C 847.258 242.133 847.722 230.445 845.779 216.488 C 843.836 202.531 838.353 186.091 825.737 171.834 C 801.741 144.716 760.333 121.612 720.638 105.775 C 679.869 89.51 632.801 85.341 594.648 76.564 C 555.527 48.314 522.941 35.667 487.998 28.996 C 473.908 26.306 459.542 24.938 445.163 25.002 L 445.163 25.002 Z  M 445.41 69.742 C 456.812 69.687 468.293 70.762 479.613 72.923 C 511.156 78.945 535.247 88.009 572.23 115.468 L 575.879 118.176 L 580.296 119.246 C 624.044 129.842 671.667 134.387 704.066 147.313 C 738.846 161.189 778.237 185.642 792.244 201.471 C 798.628 208.685 800.273 213.946 801.485 222.655 C 802.637 230.928 802.475 242.317 804.005 256.107 L 806.896 386.88 C 806.988 417.3 804.57 427.204 801.992 443.789 C 799.629 458.987 797.65 479.137 798.452 516.818 C 776.786 536.561 735.807 558.847 688.391 575.171 C 636.283 593.111 576.416 604.835 525.601 605.26 C 473.838 605.693 400.516 598.222 334.69 582.77 C 273.953 568.512 219.678 545.629 195.161 522.828 L 203.186 240.572 L 200.871 235.709 C 193.111 219.404 192.741 212.597 193.261 209.83 C 193.781 207.063 196.387 202.728 205.144 193.033 C 219.781 176.831 252.132 154.075 294.894 145.625 L 303.793 143.867 L 308.951 136.406 C 330.982 104.542 359.118 91.313 390.156 79.632 C 407.619 73.06 426.405 69.832 445.41 69.742 L 445.41 69.742 Z " fill-rule="evenodd" fill="rgb(102,143,255)"/><path d=" M 183.545 226.596 C 175.677 225.213 167.668 228.132 162.536 234.255 C 158.726 238.8 156.878 244.672 157.398 250.58 C 157.918 256.488 160.764 261.947 165.309 265.757 C 203.883 298.09 223.678 314.243 280.006 329.566 C 326.925 342.33 410.423 355.156 468.673 358.599 C 464.588 366.585 460.702 375.821 458.704 387.096 C 456.411 400.038 456.331 414.485 458.186 428.815 C 460.042 443.146 462.821 457.08 472.981 469.805 C 489.562 490.574 514.429 500.967 536.273 506.625 C 558.72 512.439 582.192 511.066 603.059 504.734 C 621.362 499.18 648.932 491.478 663.635 464.752 C 677.524 439.505 677.471 408.831 670.95 382.27 C 667.119 366.665 660.004 354.45 651.566 342.603 L 693.338 331.925 C 692.476 335.959 691.593 339.579 690.807 343.765 C 687.155 363.197 683.225 382.611 689.256 402.866 C 694.726 421.236 707.227 434.299 720.223 443.926 C 733.219 453.554 746.707 459.997 760.816 462.252 L 760.816 462.25 C 776.733 464.795 790.966 460.229 803.501 453.5 C 816.035 446.77 827.12 437.52 834.819 425 C 843.753 410.475 844.951 395.56 845.781 381.18 C 846.612 366.801 846.044 352.839 845.956 343.623 L 845.956 343.621 C 845.794 326.625 839.228 313.234 833.378 301.381 C 829.709 293.948 828.01 290.916 825.578 286.357 C 827.468 283.612 829.663 280.5 832.028 277.638 C 834.736 274.362 837.385 271.304 839.85 268.126 C 841.083 266.537 842.255 265.071 843.77 262.378 C 844.528 261.032 845.461 259.454 846.34 256.161 C 847.22 252.869 848.717 246.096 843.77 238.039 C 837.308 227.516 823.539 224.223 813.015 230.684 C 809.341 233.079 806.452 236.502 804.708 240.526 C 804.787 240.387 804.943 240.162 804.512 240.718 C 803.262 242.33 800.58 245.49 797.559 249.145 C 791.516 256.455 783.725 264.766 779.019 278.188 C 777.248 283.241 777.349 288.762 779.303 293.747 C 783.188 303.657 788.458 311.419 793.274 321.176 C 798.09 330.934 801.211 341.44 801.236 344.046 C 801.335 354.434 801.794 367.171 801.133 378.601 C 800.473 390.032 797.666 400.041 796.725 401.571 C 794.549 405.108 788.678 410.698 782.347 414.097 C 776.016 417.496 769.476 418.344 767.878 418.089 C 767.877 418.089 767.876 418.089 767.876 418.089 C 764.471 417.545 754.577 413.719 746.845 407.991 C 739.113 402.263 733.541 394.883 732.118 390.103 C 731.255 387.207 731.518 369.279 734.76 352.026 C 738.002 334.772 742.635 317.6 744.949 305.454 C 746.38 297.939 743.871 290.215 738.296 284.975 C 732.722 279.736 724.857 277.71 717.445 279.603 L 607.89 307.607 C 600.637 309.462 594.794 314.824 592.322 321.89 C 589.851 328.957 591.08 336.791 595.595 342.762 C 613.678 366.666 623.974 378.494 627.519 392.933 C 631.203 407.941 628.117 436.533 624.451 443.197 C 621.598 448.383 605.826 457.158 590.075 461.937 C 590.074 461.938 590.073 461.939 590.073 461.94 C 576.885 465.942 560.409 466.677 547.489 463.331 C 533.963 459.827 512.217 447.271 507.931 441.902 C 507.931 441.901 507.931 441.901 507.931 441.9 C 507.656 441.556 503.817 432.958 502.537 423.074 C 501.258 413.191 501.527 401.745 502.74 394.898 C 502.74 394.897 502.74 394.897 502.74 394.896 C 503.986 387.867 505.866 383.686 509.673 376.603 C 513.481 369.52 519.255 359.998 525.405 346.237 C 528.561 339.169 527.839 330.972 523.495 324.566 C 519.152 318.159 511.804 314.455 504.07 314.772 C 465.525 316.355 341.951 300.07 291.745 286.412 C 239.635 272.236 232.974 264.118 194.038 231.481 C 191.03 228.96 187.411 227.276 183.545 226.596 L 183.545 226.596 Z  M 804.627 240.871 C 803.21 243.791 802.446 246.985 802.387 250.231 C 802.408 247.816 802.812 245.822 803.134 244.618 C 803.789 242.167 804.293 241.443 804.627 240.871 Z  M 802.378 250.403 C 802.489 254.305 803.62 258.11 805.658 261.439 C 803.047 257.188 802.381 253.442 802.378 250.403 Z " fill-rule="evenodd" fill="rgb(102,143,255)"/></g></g></svg>