<?xml version="1.0" encoding="UTF-8" standalone="no"?><!-- Generator: Gravit.io --><svg xmlns="http://www.w3.org/2000/svg" xmlns:xlink="http://www.w3.org/1999/xlink" style="isolation:isolate" viewBox="0 0 1000 1000" width="1000pt" height="1000pt"><defs><clipPath id="_clipPath_EfxtY6fbLy2X9uQkYlR9khX6y2W9aJ3j"><rect width="1000" height="1000"/></clipPath></defs><g clip-path="url(#_clipPath_EfxtY6fbLy2X9uQkYlR9khX6y2W9aJ3j)"><g clip-path="url(#_clipPath_DDFwWvZvBRl0l2Mr83jZebRH2dXN7Eh3)"><text transform="matrix(1.156,0,0,1,325.607,894.863)" style="font-family:'Chicle';font-weight:400;font-size:225px;font-style:normal;fill:#668fff;stroke:none;">crib</text></g><defs><clipPath id="_clipPath_DDFwWvZvBRl0l2Mr83jZebRH2dXN7Eh3"><rect x="0" y="0" width="865" height="350" transform="matrix(1.156,0,0,1,0,650)"/></clipPath></defs><path d=" M 187.5 25 C 159.01 25 135.417 48.594 135.417 77.083 C 135.417 96.094 145.885 112.786 161.458 121.849 L 161.458 650 L 213.542 650 L 213.542 571.875 L 786.458 571.875 L 786.458 650 L 838.542 650 L 838.542 121.849 C 854.115 112.786 864.583 96.094 864.583 77.083 C 864.583 48.594 840.99 25 812.5 25 C 784.01 25 760.417 48.594 760.417 77.083 C 760.417 96.094 770.885 112.786 786.458 121.849 L 786.458 181.25 L 213.542 181.25 L 213.542 121.849 C 229.115 112.76 239.583 96.094 239.583 77.083 C 239.583 48.594 215.99 25 187.5 25 Z  M 213.542 233.333 L 265.625 233.333 L 265.625 415.625 L 213.542 415.625 L 213.542 233.333 Z  M 317.708 233.333 L 369.792 233.333 L 369.792 415.625 L 317.708 415.625 L 317.708 233.333 Z  M 421.875 233.333 L 473.958 233.333 L 473.958 415.625 L 421.875 415.625 L 421.875 233.333 Z  M 526.042 233.333 L 578.125 233.333 L 578.125 415.625 L 526.042 415.625 L 526.042 233.333 Z  M 630.208 233.333 L 682.292 233.333 L 682.292 415.625 L 630.208 415.625 L 630.208 233.333 Z  M 734.375 233.333 L 786.458 233.333 L 786.458 415.625 L 734.375 415.625 L 734.375 233.333 Z  M 213.542 467.708 L 786.458 467.708 L 786.458 519.792 L 213.542 519.792 L 213.542 467.708 Z " fill="rgb(255,82,151)"/></g></svg>