<?xml version="1.0" encoding="UTF-8" standalone="no"?><!-- Generator: Gravit.io --><svg xmlns="http://www.w3.org/2000/svg" xmlns:xlink="http://www.w3.org/1999/xlink" style="isolation:isolate" viewBox="0 0 1000 1000" width="1000pt" height="1000pt"><defs><clipPath id="_clipPath_zSG9Q301Nmy2tF5OH4SkbmPibxWsT2Ds"><rect width="1000" height="1000"/></clipPath></defs><g clip-path="url(#_clipPath_zSG9Q301Nmy2tF5OH4SkbmPibxWsT2Ds)"><g clip-path="url(#_clipPath_0fHx5mUOOwbZGyOf7olgfdHLkPkT8Zuo)"><text transform="matrix(1.156,0,0,1,287.63,894.863)" style="font-family:'Chicle';font-weight:400;font-size:225px;font-style:normal;fill:#ff5297;stroke:none;">fetus</text></g><defs><clipPath id="_clipPath_0fHx5mUOOwbZGyOf7olgfdHLkPkT8Zuo"><rect x="0" y="0" width="865" height="350" transform="matrix(1.156,0,0,1,0,650)"/></clipPath></defs><path d=" M 738.97 179.639 C 732.5 180.946 725.481 182.882 718.102 185.29 C 702.88 190.258 687.342 196.655 676.638 208.143 C 665.444 220.156 665.657 234.907 665.229 246.292 C 664.8 257.677 664.197 267.634 656.467 280.065 C 648.85 292.313 631.542 308.224 612.942 326.55 C 610.66 328.799 608.356 331.091 606.046 333.457 C 606.468 327.566 606.155 321.341 604.638 314.726 C 603.651 310.421 600.578 306.894 596.448 305.327 C 584.405 300.755 571.209 295.21 555.187 295.206 C 549.994 295.206 545.281 298.247 543.143 302.98 L 513.404 368.798 C 506.312 366.762 501.698 364.715 497.21 361.484 C 493.534 358.838 489.372 354.751 484.203 348.981 C 499.143 343.19 510.092 334.328 516.51 326.158 C 520.363 321.253 521.625 314.414 520.936 309.479 C 520.248 304.545 518.49 301.055 517.046 298.222 C 515.685 295.552 514.962 293.376 514.488 292.146 C 515.066 291.367 515.731 290.422 517.085 288.984 C 520.393 285.469 526.99 279.637 526.677 268.881 C 526.344 257.442 519.681 252.707 516.423 248.865 C 513.165 245.022 512.204 242.914 512.172 242.257 C 512.089 240.535 513.914 230.541 515.114 219.723 C 516.314 208.905 516.831 195.628 509.744 183.2 C 504.235 173.539 495.599 161.986 484.545 151.708 C 473.491 141.43 460.013 132.178 443.886 129.651 C 436.9 128.557 429.392 128.073 421.666 128.1 L 421.666 128.1 L 421.666 128.1 L 421.666 128.1 C 398.486 128.182 373.335 132.87 354.376 139.51 C 330.004 148.047 307.739 161.106 293.697 183.686 C 280.799 204.427 264.965 237.398 274.227 270.927 C 279.051 288.392 290.879 303.189 303.396 317.948 C 315.217 331.887 327.878 345.64 337.328 358.87 C 339.667 373.934 338.795 385.233 338.721 397.41 C 338.643 410.37 340.207 424.961 349.363 440.54 C 365.787 468.483 395.092 508.522 439.035 525.798 C 460.216 534.125 489.579 541.044 519.135 544.244 C 548.691 547.444 577.975 547.384 600.446 538.433 C 625.325 528.524 638.213 503.331 648.912 481.014 C 654.261 469.855 658.915 459.056 663.155 450.716 C 667.395 442.375 671.926 436.749 672.742 436.176 C 676.326 433.658 687.258 433.525 700.5 435.87 C 707.121 437.042 713.995 438.495 720.946 439.134 C 727.896 439.774 735.507 440.167 743.323 435.341 C 755.633 427.739 760.32 414.905 762.69 402.706 C 765.06 390.506 765.856 378.486 758.508 367.289 C 750.684 355.367 738.788 353.09 727.315 350.606 C 715.843 348.123 703.797 347.037 695.132 346.236 C 677.44 344.601 656.652 343.014 637.447 353.302 C 625.893 359.49 618.516 369.674 611.563 378.726 C 606.661 385.107 602.437 390.069 599.703 393.188 L 592.331 391.697 L 592.331 391.697 C 602.696 374.997 616.973 359.675 631.489 345.374 C 649.487 327.641 667.752 311.961 678.908 294.021 L 678.909 294.021 C 689.952 276.262 691.186 259.29 691.638 247.285 C 692.089 235.281 692.225 230.18 695.972 226.159 C 700.208 221.613 713.224 214.68 726.3 210.413 C 736.646 207.036 747.796 204.967 753.598 204.296 C 774.549 244.068 786.403 289.386 786.403 337.5 C 786.403 495.642 658.34 623.573 500 623.573 C 341.66 623.573 213.597 495.642 213.597 337.5 C 213.597 179.358 341.66 51.427 500 51.427 L 500 51.427 C 599.891 51.427 687.732 102.342 738.97 179.639 Z  M 559.337 386.83 C 561.03 383.992 563.244 380.05 565.241 376.027 C 568.977 368.5 572.653 359.863 574.362 354.278 C 577.7 343.369 580.087 335.476 579.742 327.303 C 573.858 325.157 568.467 323.434 563.332 322.481 L 532.924 389.78 C 530.336 395.507 524.072 398.619 517.944 397.222 C 503.059 393.826 491.999 390.295 481.769 382.931 C 471.54 375.566 463.142 365.617 450.26 349.775 C 447.225 346.042 446.459 340.954 448.26 336.493 C 450.061 332.032 454.145 328.902 458.921 328.322 C 475.88 326.264 488.723 317.181 494.109 311.625 C 493.909 311.102 493.973 311.149 493.502 310.225 C 491.547 306.391 485.483 300.784 487.3 288.734 C 488.807 278.746 494.848 274.053 497.842 270.871 C 498.542 270.128 498.56 270.011 498.917 269.541 C 498.314 268.607 497.534 267.451 496.266 265.955 C 492.474 261.483 486.302 254.39 485.776 243.537 C 485.301 233.747 487.883 225.514 488.849 216.809 C 489.814 208.104 489.221 200.561 486.786 196.291 C 482.773 189.253 475.285 179.182 466.551 171.061 C 457.817 162.941 447.843 157.022 439.795 155.761 C 434.693 154.962 428.622 154.659 422.067 154.766 L 422.067 154.766 L 422.067 154.766 C 402.403 155.089 378.384 159.102 363.112 164.45 C 341.844 171.9 326.023 181.747 316.138 197.642 C 305.109 215.377 293.945 243.062 299.699 263.89 C 302.382 273.603 311.647 286.82 323.55 300.856 C 335.453 314.891 349.616 329.894 360.854 346.253 C 361.918 347.802 362.64 349.56 362.97 351.41 C 366.528 371.318 365.217 386.256 365.148 397.57 C 365.08 408.884 365.652 416.099 372.146 427.148 C 387.025 452.461 414.38 487.709 448.703 501.203 C 466.656 508.262 494.696 515.016 521.98 517.971 C 549.265 520.925 576.258 519.62 590.666 513.881 L 590.666 513.883 C 602.667 509.103 614.994 490.631 625.081 469.59 C 630.124 459.07 634.754 448.266 639.596 438.741 C 644.438 429.216 648.785 420.712 657.548 414.554 C 673.124 403.608 690.95 407.342 705.107 409.848 C 712.185 411.101 718.669 412.386 723.368 412.818 C 728.067 413.251 730.394 412.265 729.438 412.856 C 730.846 411.986 735.239 405.432 736.748 397.665 C 738.257 389.9 736.143 381.377 736.414 381.789 C 737.16 382.925 730.93 378.429 721.724 376.436 C 712.518 374.443 701.331 373.348 692.699 372.551 C 675.801 370.989 660.682 370.835 649.925 376.597 C 646.496 378.434 639.115 386.24 632.52 394.825 C 625.925 403.41 621.031 412.231 611.24 418.612 C 608.336 420.505 604.804 421.181 601.406 420.494 L 572.701 414.69 C 569.02 420.348 565.096 425.658 559.598 430.49 C 550.457 438.523 537.681 443.157 520.324 444.317 C 516.827 444.55 513.38 443.385 510.743 441.078 C 508.105 438.77 506.492 435.51 506.258 432.013 C 506.025 428.516 507.19 425.07 509.497 422.432 C 511.805 419.794 515.065 418.181 518.562 417.948 C 532.598 417.01 537.774 414.488 542.153 410.64 C 546.531 406.792 550.825 399.54 557.93 388.617 C 558.349 387.974 558.818 387.375 559.337 386.83 L 559.337 386.83 L 559.337 386.83 Z  M 500 25 C 327.393 25 187.17 165.06 187.17 337.5 C 187.17 509.94 327.393 650 500 650 C 672.607 650 812.83 509.94 812.83 337.5 C 812.83 165.06 672.607 25 500 25 L 500 25 Z " fill-rule="evenodd" fill="rgb(102,143,255)"/></g></svg>