<?xml version="1.0" encoding="UTF-8" standalone="no"?><!-- Generator: Gravit.io --><svg xmlns="http://www.w3.org/2000/svg" xmlns:xlink="http://www.w3.org/1999/xlink" style="isolation:isolate" viewBox="0 0 1000 1000" width="1000pt" height="1000pt"><defs><clipPath id="_clipPath_BgqMYs4HUYt4L1WpBKVYhq7AiCjkHIDE"><rect width="1000" height="1000"/></clipPath></defs><g clip-path="url(#_clipPath_BgqMYs4HUYt4L1WpBKVYhq7AiCjkHIDE)"><g clip-path="url(#_clipPath_Cl5iLtJYum29jDDL8zWA4fMuqAnuiZJn)"><text transform="matrix(1.156,0,0,1,23.931,880.89)" style="font-family:'Chicle';font-weight:400;font-size:180px;font-style:normal;fill:#668fff;stroke:none;">gender reveal</text></g><defs><clipPath id="_clipPath_Cl5iLtJYum29jDDL8zWA4fMuqAnuiZJn"><rect x="0" y="0" width="865" height="350" transform="matrix(1.156,0,0,1,0,650)"/></clipPath></defs><path d=" M 500.022 20 C 458.659 20 425.022 53.637 425.022 95 C 425.022 136.363 458.659 170 500.022 170 C 541.384 170 575.022 136.363 575.022 95 C 575.022 53.637 541.384 20 500.022 20 Z " fill="rgb(255,82,151)"/><path d=" M 450.022 182.5 C 409.197 182.5 394.272 217.7 390.647 228.6 C 390.647 228.6 351.772 347.487 340.647 382.1 C 336.109 394.85 337.472 408.037 344.559 418.05 C 349.584 425.175 357.059 429.863 365.647 431.713 C 370.622 401.05 379.222 375.025 379.709 373.513 L 380.097 372.737 C 380.297 372.238 380.597 372 380.884 371.563 C 381.022 371.413 381.134 370.938 381.272 370.775 C 382.476 369.473 384.187 368.761 385.959 368.825 C 389.422 368.825 392.209 371.612 392.209 375.075 C 392.261 375.878 392.128 376.681 391.822 377.425 C 386.151 395.063 381.711 413.072 378.534 431.325 C 376.317 444.1 375.143 457.034 375.022 470 C 375.022 476.904 380.618 482.5 387.522 482.5 L 612.522 482.5 C 619.459 482.5 625.022 476.938 625.022 470 C 625.022 457.55 623.559 444.412 621.509 432.113 C 616.872 404.087 609.059 380.013 608.222 377.425 C 607.884 376.638 607.447 376 607.447 375.075 C 607.447 371.612 610.222 368.825 613.697 368.825 C 615.547 368.825 617.209 369.463 618.384 370.787 C 618.522 370.925 618.672 371.413 618.772 371.563 C 619.059 372 619.359 372.25 619.559 372.737 C 619.647 372.925 619.897 373.325 619.934 373.513 C 620.434 375.025 629.022 401.013 634.009 431.725 C 642.647 429.912 650.409 425.225 655.484 418.05 C 662.572 408.037 663.834 394.85 659.397 382.5 C 648.172 347.5 609.397 228.687 609.397 228.588 C 605.772 217.812 590.897 182.5 550.022 182.5 L 450.022 182.5 Z  M 500.022 270 C 541.434 270 575.022 303.6 575.022 345 C 575.022 386.412 541.422 420 500.022 420 C 458.609 420 425.022 386.4 425.022 345 C 425.022 303.588 458.622 270 500.022 270 Z " fill-rule="evenodd" fill="rgb(255,82,151)"/><path d=" M 425.022 495 L 425.022 613.75 C 425.022 630.988 439.034 645 456.272 645 C 473.509 645 487.522 630.988 487.522 613.75 L 487.522 495 L 425.022 495 Z " fill="rgb(255,82,151)"/><path d=" M 500.022 495 L 500.022 613.75 C 500.022 630.988 514.034 645 531.272 645 C 548.509 645 562.522 630.988 562.522 613.75 L 562.522 495 L 500.022 495 Z " fill="rgb(255,82,151)"/><path d=" M 486.712 390.4 L 486.712 390.4 L 486.712 390.4 Q 487.132 385.36 491.892 382.14 L 491.892 382.14 L 491.892 382.14 Q 496.652 378.92 501.202 378.92 L 501.202 378.92 L 501.202 378.92 Q 505.752 378.92 508.412 380.74 L 508.412 380.74 L 508.412 380.74 Q 511.072 382.56 511.072 385.36 L 511.072 385.36 L 511.072 385.36 Q 511.072 390.82 506.102 394.04 L 506.102 394.04 L 506.102 394.04 Q 501.132 397.26 496.512 397.26 L 496.512 397.26 L 496.512 397.26 Q 491.892 397.26 489.372 395.44 L 489.372 395.44 L 489.372 395.44 Q 486.852 393.62 486.712 390.4 Z  M 479.992 315.5 L 479.992 315.5 L 479.992 315.5 Q 479.992 306.82 487.272 301.57 L 487.272 301.57 L 487.272 301.57 Q 494.552 296.32 504.212 296.32 L 504.212 296.32 L 504.212 296.32 Q 513.872 296.32 520.452 301.43 L 520.452 301.43 L 520.452 301.43 Q 527.032 306.54 527.032 316.2 L 527.032 316.2 L 527.032 316.2 Q 527.032 325.86 515.972 339.16 L 515.972 339.16 L 515.972 339.16 Q 508.832 346.3 508.832 353.44 L 508.832 353.44 L 508.832 353.44 Q 508.832 355.26 509.812 357.22 L 509.812 357.22 L 509.812 357.22 Q 510.792 359.18 510.792 360.44 L 510.792 360.44 L 510.792 360.44 Q 510.792 364.64 505.962 366.88 L 505.962 366.88 L 505.962 366.88 Q 501.132 369.12 496.232 369.12 L 496.232 369.12 L 496.232 369.12 Q 488.112 369.12 488.112 362.54 L 488.112 362.54 L 488.112 362.54 Q 488.112 354.42 496.092 344.06 L 496.092 344.06 L 496.092 344.06 Q 499.872 339.44 502.672 333.91 L 502.672 333.91 L 502.672 333.91 Q 505.472 328.38 505.472 325.02 L 505.472 325.02 L 505.472 325.02 Q 505.472 324.18 505.332 322.99 L 505.332 322.99 L 505.332 322.99 Q 505.192 321.8 503.372 319.84 L 503.372 319.84 L 503.372 319.84 Q 501.552 317.88 498.332 317.88 L 498.332 317.88 L 498.332 317.88 Q 495.952 317.88 493.292 319.56 L 493.292 319.56 L 493.292 319.56 Q 490.632 321.24 489.372 324.04 L 489.372 324.04 L 489.372 324.04 Q 488.112 326 485.872 326 L 485.872 326 L 485.872 326 Q 483.632 326 482.372 323.76 L 482.372 323.76 L 482.372 323.76 Q 479.992 319.7 479.992 315.5 Z " fill="rgb(255,82,151)"/></g></svg>