<?xml version="1.0" encoding="UTF-8" standalone="no"?><!-- Generator: Gravit.io --><svg xmlns="http://www.w3.org/2000/svg" xmlns:xlink="http://www.w3.org/1999/xlink" style="isolation:isolate" viewBox="0 0 1000 1000" width="1000pt" height="1000pt"><defs><clipPath id="_clipPath_vM4eLhp6juOV2KPuRYRmP9biGH4M3BNN"><rect width="1000" height="1000"/></clipPath></defs><g clip-path="url(#_clipPath_vM4eLhp6juOV2KPuRYRmP9biGH4M3BNN)"><g clip-path="url(#_clipPath_fo2rajigtx1e2paRIVnXvqbpQdKjgF9N)"><text transform="matrix(1.156,0,0,1,158.405,804.723)" style="font-family:'Chicle';font-weight:400;font-size:180px;font-style:normal;fill:#668fff;stroke:none;">maternity </text><text transform="matrix(1.156,0,0,1,254.855,957.057)" style="font-family:'Chicle';font-weight:400;font-size:180px;font-style:normal;fill:#668fff;stroke:none;">clothes</text></g><defs><clipPath id="_clipPath_fo2rajigtx1e2paRIVnXvqbpQdKjgF9N"><rect x="0" y="0" width="865" height="350" transform="matrix(1.156,0,0,1,0,650)"/></clipPath></defs><path d=" M 640.207 305.125 C 665.93 340.519 686.72 382.002 689.509 418.127 C 692.747 460.073 678.447 523.181 654.235 550.534 C 628.789 579.281 571.755 604.932 523.831 605.897 C 499.534 606.386 465.002 601.748 433.201 592.69 C 401.4 583.632 372.124 569.52 357.813 555.827 C 329.35 528.593 314.871 454.77 318.293 411.565 L 318.293 411.563 C 320.959 377.924 343.007 347.018 369.504 311.579 L 369.504 311.579 C 384.825 321.423 401.701 325.735 417.016 325.842 C 442.34 326.021 466.332 313.86 485.105 295.058 C 489.234 290.923 491.552 285.317 491.547 279.473 C 491.543 273.63 489.217 268.027 485.082 263.898 C 476.471 255.301 462.521 255.311 453.923 263.922 C 442.381 275.481 426.754 281.845 417.326 281.778 C 405.43 281.695 393.339 277.983 382.152 264.615 C 377.1 258.578 369.212 255.695 361.458 257.051 L 361.458 257.051 C 357.648 257.717 354.081 259.375 351.115 261.856 C 348.046 264.424 345.762 267.754 344.455 271.465 C 337.534 280.673 330.325 289.918 323.276 299.371 L 323.276 299.371 L 245.993 276.808 C 246.654 271.298 247.641 264.81 249.154 257.699 C 252.528 241.831 257.785 222.829 264.067 203.707 C 276.63 165.464 294.52 125.597 305.813 110.409 C 317.088 95.246 335.54 84.125 353.821 78.203 C 364.666 74.69 375.322 73.622 383.25 73.478 L 403.469 170.032 L 592.538 168.693 L 625.103 69.93 C 633.045 69.866 644.287 70.949 655.704 74.988 C 673.239 81.191 690.713 92.686 701.438 108.518 C 711.899 123.961 727.732 165.299 738.533 204.96 C 746.292 233.452 751.617 262.812 753.805 281.139 L 687.486 295.773 C 682.001 287.518 676.267 279.544 670.419 271.906 C 671.373 264.498 668.542 256.785 662.266 251.801 L 662.266 251.801 C 652.737 244.234 638.878 245.823 631.31 255.352 C 620.47 269.001 608.478 273.02 596.588 273.409 C 587.163 273.717 571.379 267.758 559.544 256.497 C 550.729 248.109 536.783 248.456 528.395 257.271 C 520.008 266.087 520.354 280.032 529.169 288.42 C 548.419 306.735 572.716 318.28 598.027 317.453 C 611.674 317.008 626.477 313.188 640.207 305.125 Z  M 297.517 337.757 L 202.785 310.099 L 201.264 295.362 C 199.809 281.255 202.236 266.472 206.051 248.531 C 209.867 230.59 215.502 210.351 222.202 189.956 C 235.601 149.167 252.023 108.902 270.453 84.116 C 288.902 59.304 315.22 44.385 340.24 36.28 C 365.26 28.174 388.194 25.484 408.583 32.381 L 420.51 36.415 L 439.21 125.712 L 560.592 124.851 L 590.974 32.714 L 601.254 29.14 C 609.087 26.418 617.294 25.114 625.796 25.007 L 625.796 25.007 C 639.966 24.83 654.955 27.98 670.4 33.444 C 695.112 42.185 720.574 58.194 737.922 83.804 C 755.533 109.802 769.606 151.349 781.052 193.379 C 792.498 235.41 800.752 273.762 798.904 300.141 L 797.753 316.569 L 710.578 335.804 C 722.729 360.774 731.333 387.389 733.444 414.736 C 737.547 467.889 725.419 536.598 687.231 579.741 C 650.275 621.491 586.18 648.715 524.72 649.952 C 494.325 650.564 457.006 645.29 421.13 635.071 C 385.254 624.853 351.027 610.325 327.347 587.668 C 279.829 542.2 270.08 462.179 274.365 408.083 C 276.445 381.831 285.434 358.883 297.517 337.757 L 297.517 337.757 L 297.517 337.757 Z " fill-rule="evenodd" fill="rgb(255,82,151)"/></g></svg>