<?xml version="1.0" encoding="UTF-8" standalone="no"?><!-- Generator: Gravit.io --><svg xmlns="http://www.w3.org/2000/svg" xmlns:xlink="http://www.w3.org/1999/xlink" style="isolation:isolate" viewBox="0 0 1000 1000" width="1000pt" height="1000pt"><defs><clipPath id="_clipPath_OvAbATMIHE2ZwAst5LPO3lRFmZCKlFj6"><rect width="1000" height="1000"/></clipPath></defs><g clip-path="url(#_clipPath_OvAbATMIHE2ZwAst5LPO3lRFmZCKlFj6)"><g clip-path="url(#_clipPath_ttVss0Al7az4fNzSGcOnRyywNxWoOdys)"><text transform="matrix(1.156,0,0,1,304.408,894.863)" style="font-family:'Chicle';font-weight:400;font-size:225px;font-style:normal;fill:#ff5297;stroke:none;">milk</text></g><defs><clipPath id="_clipPath_ttVss0Al7az4fNzSGcOnRyywNxWoOdys"><rect x="0" y="0" width="865" height="350" transform="matrix(1.156,0,0,1,0,650)"/></clipPath></defs><path d=" M 433.036 25 C 396.25 25 366.071 55.179 366.071 91.964 C 366.071 118.304 383.839 136.786 406.161 147.768 L 339.375 247.857 L 339.062 248.571 C 327.515 268.352 321.429 290.845 321.429 313.75 L 321.429 583.036 C 321.429 619.821 351.607 650 388.393 650 L 611.607 650 C 648.393 650 678.571 619.821 678.571 583.036 L 678.571 313.795 C 678.571 290.759 672.455 268.259 660.937 248.571 L 660.625 247.857 L 593.661 147.768 C 616.161 136.786 633.929 118.304 633.929 91.964 C 633.929 55.179 603.75 25 566.964 25 L 433.036 25 Z  M 433.036 69.643 L 566.964 69.643 C 579.509 69.643 589.286 79.42 589.286 91.964 C 589.286 104.509 579.509 114.286 566.964 114.286 L 433.036 114.286 C 427.094 114.358 421.374 112.03 417.172 107.828 C 412.97 103.626 410.642 97.906 410.714 91.964 C 410.714 79.42 420.491 69.643 433.036 69.643 Z  M 452.411 158.929 L 547.589 158.929 L 622.411 271.25 C 629.911 283.973 633.929 298.795 633.929 313.795 L 633.929 583.036 C 633.929 595.58 624.152 605.357 611.607 605.357 L 388.393 605.357 C 382.451 605.43 376.731 603.101 372.529 598.899 C 368.327 594.698 365.999 588.978 366.071 583.036 L 366.071 313.795 C 366.071 298.795 370.089 284.152 377.589 271.25 L 377.589 271.071 L 452.411 158.929 Z " fill="rgb(102,143,255)"/></g></svg>