<?xml version="1.0" encoding="UTF-8" standalone="no"?><!-- Generator: Gravit.io --><svg xmlns="http://www.w3.org/2000/svg" xmlns:xlink="http://www.w3.org/1999/xlink" style="isolation:isolate" viewBox="0 0 1000 1000" width="1000pt" height="1000pt"><defs><clipPath id="_clipPath_xzo3NhdeGw8uCYo4NH2WEZ3MvtgMTQs2"><rect width="1000" height="1000"/></clipPath></defs><g clip-path="url(#_clipPath_xzo3NhdeGw8uCYo4NH2WEZ3MvtgMTQs2)"><g clip-path="url(#_clipPath_U0Ji9SlAgTV8eiiVQzHW4nVkb1gGPBRW)"><text transform="matrix(1.156,0,0,1,303.367,894.863)" style="font-family:'Chicle';font-weight:400;font-size:225px;font-style:normal;fill:#ff5297;stroke:none;">pink</text></g><defs><clipPath id="_clipPath_U0Ji9SlAgTV8eiiVQzHW4nVkb1gGPBRW"><rect x="0" y="0" width="865" height="350" transform="matrix(1.156,0,0,1,0,650)"/></clipPath></defs><path d=" M 670.094 40.211 C 581.419 17.746 468.344 16.533 433.28 61.535 C 398.215 106.537 390.135 155.406 341.248 181.626 C 292.361 207.846 188.055 194.137 160.551 246.722 C 133.046 299.307 221.187 302.412 251.46 374.669 C 281.733 446.926 128.156 438.186 196.466 559.856 C 264.776 681.525 373.346 654.383 425.424 624.951 C 477.501 595.52 502.859 509.078 567.961 502.616 C 633.064 496.154 707.954 626.907 783.451 573.324 C 858.948 519.74 861.587 427.136 808.143 365.69 C 754.698 304.244 722.331 306.535 698.153 237.743 C 673.975 168.951 758.769 62.676 670.094 40.211 Z " fill="rgb(255,82,151)" vector-effect="non-scaling-stroke" stroke-width="1" stroke="rgb(255,255,255)" stroke-linejoin="miter" stroke-linecap="square" stroke-miterlimit="3"/></g></svg>