<?xml version="1.0" encoding="UTF-8" standalone="no"?><!-- Generator: Gravit.io --><svg xmlns="http://www.w3.org/2000/svg" xmlns:xlink="http://www.w3.org/1999/xlink" style="isolation:isolate" viewBox="0 0 1000 1000" width="1000pt" height="1000pt"><defs><clipPath id="_clipPath_R9if0ZuKUHEcBcC1uqYsD5Roq0VtaDjB"><rect width="1000" height="1000"/></clipPath></defs><g clip-path="url(#_clipPath_R9if0ZuKUHEcBcC1uqYsD5Roq0VtaDjB)"><g clip-path="url(#_clipPath_3rwGtXj7NrASf7uljMzWOd3ZthnsyHxc)"><text transform="matrix(1.156,0,0,1,29.595,894.863)" style="font-family:'Chicle';font-weight:400;font-size:225px;font-style:normal;fill:#668fff;stroke:none;">pregnancy</text></g><defs><clipPath id="_clipPath_3rwGtXj7NrASf7uljMzWOd3ZthnsyHxc"><rect x="0" y="0" width="865" height="350" transform="matrix(1.156,0,0,1,0,650)"/></clipPath></defs><path d=" M 500.022 20 C 458.659 20 425.022 53.637 425.022 95 C 425.022 136.363 458.659 170 500.022 170 C 541.384 170 575.022 136.363 575.022 95 C 575.022 53.637 541.384 20 500.022 20 Z  M 450.022 182.5 C 409.197 182.5 394.272 217.7 390.647 228.6 C 390.647 228.6 351.772 347.487 340.647 382.1 C 336.109 394.85 337.472 408.037 344.559 418.05 C 349.584 425.175 357.059 429.863 365.647 431.713 C 370.622 401.05 379.222 375.025 379.709 373.513 L 380.097 372.737 C 380.297 372.238 380.597 372 380.884 371.563 C 381.022 371.413 381.134 370.938 381.272 370.775 C 382.476 369.473 384.187 368.761 385.959 368.825 C 389.422 368.825 392.209 371.612 392.209 375.075 C 392.261 375.878 392.128 376.681 391.822 377.425 C 386.151 395.063 381.711 413.072 378.534 431.325 C 376.317 444.1 375.143 457.034 375.022 470 C 375.022 476.904 380.618 482.5 387.522 482.5 L 612.522 482.5 C 619.459 482.5 625.022 476.938 625.022 470 C 625.022 457.55 623.559 444.412 621.509 432.113 C 616.872 404.087 609.059 380.013 608.222 377.425 C 607.884 376.638 607.447 376 607.447 375.075 C 607.447 371.612 610.222 368.825 613.697 368.825 C 615.547 368.825 617.209 369.463 618.384 370.787 C 618.522 370.925 618.672 371.413 618.772 371.563 C 619.059 372 619.359 372.25 619.559 372.737 C 619.647 372.925 619.897 373.325 619.934 373.513 C 620.434 375.025 629.022 401.013 634.009 431.725 C 642.647 429.912 650.409 425.225 655.484 418.05 C 662.572 408.037 663.834 394.85 659.397 382.5 C 648.172 347.5 609.397 228.687 609.397 228.588 C 605.772 217.812 590.897 182.5 550.022 182.5 L 450.022 182.5 Z  M 500.022 270 C 541.434 270 575.022 303.6 575.022 345 C 575.022 386.412 541.422 420 500.022 420 C 458.609 420 425.022 386.4 425.022 345 C 425.022 303.588 458.622 270 500.022 270 Z  M 481.272 314.925 C 468.772 314.925 458.609 325.075 458.609 337.575 C 458.609 363.85 488.797 376.4 500.022 386.412 C 511.247 377.663 541.434 363.85 541.434 337.575 C 541.434 325.075 531.272 314.925 518.772 314.925 C 511.247 314.925 503.772 318.825 500.022 325.075 C 496.272 318.825 488.797 314.925 481.272 314.925 Z  M 425.022 495 L 425.022 613.75 C 425.022 630.988 439.034 645 456.272 645 C 473.509 645 487.522 630.988 487.522 613.75 L 487.522 495 L 425.022 495 Z  M 500.022 495 L 500.022 613.75 C 500.022 630.988 514.034 645 531.272 645 C 548.509 645 562.522 630.988 562.522 613.75 L 562.522 495 L 500.022 495 Z " fill="rgb(255,82,151)"/></g></svg>