<?xml version="1.0" encoding="UTF-8" standalone="no"?><!-- Generator: Gravit.io --><svg xmlns="http://www.w3.org/2000/svg" xmlns:xlink="http://www.w3.org/1999/xlink" style="isolation:isolate" viewBox="0 0 1000 1000" width="1000pt" height="1000pt"><defs><clipPath id="_clipPath_q3YnY1cKjwiYbmHGFJhknUgDplRqUbzx"><rect width="1000" height="1000"/></clipPath></defs><g clip-path="url(#_clipPath_q3YnY1cKjwiYbmHGFJhknUgDplRqUbzx)"><g clip-path="url(#_clipPath_lgf4D9O3y4RzRoCBNZ2QGeEymQVZ6xrj)"><text transform="matrix(1.156,0,0,1,207.931,804.723)" style="font-family:'Chicle';font-weight:400;font-size:180px;font-style:normal;fill:#ff5297;stroke:none;">prenatal </text><text transform="matrix(1.156,0,0,1,198.15,957.057)" style="font-family:'Chicle';font-weight:400;font-size:180px;font-style:normal;fill:#ff5297;stroke:none;">vitamins</text></g><defs><clipPath id="_clipPath_lgf4D9O3y4RzRoCBNZ2QGeEymQVZ6xrj"><rect x="0" y="0" width="865" height="350" transform="matrix(1.156,0,0,1,0,650)"/></clipPath></defs><path d=" M 636.534 25 C 591.508 25 546.555 42.234 512.136 76.58 C 507.767 81.046 452.304 135.66 400.627 187.336 L 239.067 348.872 C 170.327 417.612 170.327 529.68 239.067 598.42 C 272.314 631.498 317.319 650.047 364.218 650 C 409.268 650 454.197 632.766 488.616 598.42 C 494.029 592.91 574.711 512.325 650.175 436.861 C 702.046 384.99 756.296 329.988 760.932 325.351 C 793.941 292.368 812.488 247.617 812.488 200.953 C 812.488 154.29 793.941 109.539 760.932 76.555 C 727.971 43.512 683.206 24.96 636.534 25 Z  M 636.534 73.546 C 670.565 73.546 702.726 86.653 726.805 110.707 C 776.491 160.394 776.394 241.538 726.805 291.248 C 722.144 295.884 667.166 350.134 615.295 401.981 L 478.761 265.446 L 245.888 498.319 C 225.329 442.273 280.016 378.46 280.016 378.46 L 435.531 222.216 C 487.208 170.54 541.919 115.076 546.264 110.707 C 570.187 86.767 602.69 73.387 636.534 73.546 Z " fill="rgb(102,143,255)"/></g></svg>