<?xml version="1.0" encoding="UTF-8" standalone="no"?><!-- Generator: Gravit.io --><svg xmlns="http://www.w3.org/2000/svg" xmlns:xlink="http://www.w3.org/1999/xlink" style="isolation:isolate" viewBox="0 0 1000 1000" width="1000pt" height="1000pt"><defs><clipPath id="_clipPath_q90coy5Qbpi0sP33oqt8nToGh8IAakGz"><rect width="1000" height="1000"/></clipPath></defs><g clip-path="url(#_clipPath_q90coy5Qbpi0sP33oqt8nToGh8IAakGz)"><g clip-path="url(#_clipPath_b7I5UL7GzDHytAh25gDL4RmHFwDlVkLH)"><text transform="matrix(1.156,0,0,1,182.413,894.863)" style="font-family:'Chicle';font-weight:400;font-size:225px;font-style:normal;fill:#668fff;stroke:none;">stacker</text></g><defs><clipPath id="_clipPath_b7I5UL7GzDHytAh25gDL4RmHFwDlVkLH"><rect x="0" y="0" width="865" height="350" transform="matrix(1.156,0,0,1,0,650)"/></clipPath></defs><g><path d=" M 339.175 298.189 C 335.554 297.621 331.849 298.016 328.43 299.335 C 298.112 311.028 271.252 325.799 248.988 343.391 C 196.669 384.734 175.055 439.904 189.153 491.136 C 203.252 542.367 249.25 586.138 318.883 615.219 C 458.148 673.38 646.372 657.683 751.01 574.997 C 803.329 533.654 824.945 478.484 810.847 427.252 C 796.749 376.021 750.749 332.25 681.117 303.169 C 676.009 301.035 670.261 301.018 665.14 303.121 C 660.019 305.225 655.943 309.276 653.809 314.385 C 651.675 319.494 651.658 325.241 653.762 330.363 C 655.866 335.484 659.918 339.56 665.027 341.693 C 726.876 367.524 761.168 404.078 770.594 438.33 C 780.02 472.581 768.393 508.05 725.127 542.24 C 638.595 610.618 458.671 628.354 334.973 576.695 C 273.124 550.864 238.832 514.31 229.406 480.058 C 219.98 445.807 231.607 410.337 274.871 376.148 C 293.207 361.66 316.45 348.704 343.453 338.289 C 348.619 336.297 352.781 332.334 355.025 327.273 C 357.269 322.212 357.41 316.466 355.418 311.301 C 352.734 304.343 346.542 299.344 339.175 298.189 L 339.175 298.189 Z " fill-rule="evenodd" fill="rgb(255,82,151)"/><path d=" M 338.883 355.29 C 331.646 353.488 323.997 355.684 318.818 361.051 C 300.789 379.735 290.028 402.185 289.218 425.507 C 288.409 448.829 297.698 471.88 314.604 491.176 C 342.768 523.32 387.116 543.098 436.48 552.469 C 485.843 561.84 540.702 560.47 591.161 545.895 C 641.619 531.32 679.343 506.236 698.447 473.058 C 717.551 439.88 713.559 397.776 685.396 365.632 C 677.799 356.96 664.611 356.09 655.939 363.687 C 647.268 371.284 646.397 384.472 653.995 393.144 C 672.979 414.812 673.683 432.397 662.267 452.224 C 650.85 472.051 622.837 493.288 579.576 505.785 C 536.315 518.281 487.216 519.605 444.265 511.452 C 401.314 503.298 364.99 485.332 346.006 463.664 C 334.695 450.754 330.536 438.636 330.941 426.957 C 331.346 415.277 336.461 402.892 348.862 390.041 C 356.867 381.745 356.631 368.531 348.336 360.525 C 345.699 357.981 342.439 356.175 338.883 355.29 L 338.883 355.29 Z " fill-rule="evenodd" fill="rgb(255,82,151)"/><path d=" M 361.768 268.675 C 358.137 269.174 354.702 270.619 351.807 272.866 C 326.162 292.771 310.556 318.884 310.054 346.637 C 309.553 374.389 324.324 400.966 349.369 421.273 C 413.277 473.089 524.632 482.491 609.738 447.852 C 652.291 430.531 681.991 403.828 691.868 370.567 C 701.746 337.306 687.803 300.709 655.85 274.801 C 646.895 267.541 633.749 268.914 626.489 277.869 C 619.228 286.824 620.602 299.969 629.557 307.23 C 652.422 325.769 656.747 342.178 651.846 358.682 C 646.945 375.187 628.817 395.011 593.999 409.183 C 524.362 437.526 421.394 425.923 375.662 388.844 C 357.817 374.376 351.565 360.231 351.797 347.391 C 352.029 334.551 358.912 320.201 377.405 305.848 C 381.779 302.453 384.625 297.461 385.317 291.968 C 386.01 286.475 384.491 280.932 381.097 276.558 C 376.525 270.666 369.156 267.661 361.768 268.675 L 361.768 268.675 Z " fill-rule="evenodd" fill="rgb(255,82,151)"/><path d=" M 607.314 196.002 C 599.867 195.596 592.769 199.194 588.694 205.44 C 582.396 215.095 585.116 228.029 594.771 234.328 C 615.722 247.998 621.085 261.111 619.888 272.43 C 618.69 283.75 609.255 298.448 584.756 310.965 C 535.759 335.997 452.348 332.527 410.448 305.187 C 391.335 292.716 385.208 280.169 385.19 269.801 C 385.172 259.433 391.24 246.91 410.297 234.426 C 419.94 228.108 422.636 215.169 416.319 205.526 C 410.001 195.882 397.062 193.186 387.418 199.504 C 360.349 217.237 343.394 242.485 343.441 269.874 C 343.489 297.262 360.517 322.458 387.634 340.152 C 446.961 378.862 538.351 381.556 603.751 348.143 C 636.451 331.437 658.287 306.294 661.405 276.821 C 664.523 247.348 647.248 218.718 617.584 199.363 C 614.515 197.361 610.973 196.201 607.314 196.002 Z " fill-rule="evenodd" fill="rgb(255,82,151)"/><path d=" M 458.526 111.737 C 425.927 118.669 398.225 132.884 382.481 156.283 C 367.407 178.686 369.713 208.042 385.005 228.109 C 400.297 248.175 425.326 261.69 456.48 268.685 C 487.633 275.681 519.945 274.754 548.458 267.503 C 576.971 260.252 602.445 246.989 617.519 224.586 C 632.593 202.183 630.287 172.827 614.995 152.761 C 599.704 132.694 574.674 119.179 543.521 112.184 C 538.119 110.971 532.456 111.953 527.779 114.915 C 523.101 117.877 519.792 122.576 518.579 127.978 C 517.366 133.38 518.349 139.043 521.311 143.72 C 524.273 148.398 528.972 151.707 534.374 152.92 C 558.56 158.35 574.912 169.041 581.79 178.067 C 588.668 187.093 589.318 191.715 582.883 201.28 C 576.447 210.844 560.018 221.487 538.17 227.042 C 516.321 232.598 489.812 233.38 465.626 227.95 C 441.441 222.519 425.088 211.828 418.21 202.802 C 411.332 193.777 410.682 189.155 417.118 179.59 C 423.712 169.79 441.945 157.945 467.21 152.573 C 478.487 150.175 485.684 139.09 483.286 127.813 C 480.888 116.537 469.803 109.339 458.526 111.737 L 458.526 111.737 Z " fill-rule="evenodd" fill="rgb(255,82,151)"/><path d=" M 529.023 138.65 C 520.063 138.137 511.777 143.408 508.446 151.741 C 507.11 152.413 503.37 153.498 499.197 153.37 C 495.436 153.254 492.347 152.177 491.369 151.645 C 487.744 143.287 479.118 138.245 470.056 139.188 C 458.639 140.787 450.68 151.338 452.278 162.755 C 454.046 175.382 462.652 183.417 470.855 188.023 C 479.058 192.629 488.152 194.798 497.909 195.099 C 508.651 195.43 518.705 193.466 527.744 188.779 C 536.784 184.093 546.587 175.358 547.883 161.361 C 548.394 155.848 546.694 150.358 543.157 146.099 C 539.62 141.84 534.535 139.16 529.023 138.65 L 529.023 138.65 Z  M 491.424 151.774 C 491.255 151.66 493.028 152.709 493.624 156.966 C 493.129 155.144 492.389 153.397 491.424 151.774 Z  M 508.37 151.949 C 507.423 153.696 506.731 155.57 506.313 157.512 C 506.719 153.137 508.32 152.004 508.37 151.949 Z " fill-rule="evenodd" fill="rgb(255,82,151)"/><path d=" M 529.153 80.949 C 520.342 81.518 512.126 76.48 508.635 68.37 C 507.211 67.691 503.395 66.634 499.146 66.765 C 495.331 66.883 492.192 67.935 491.153 68.472 C 487.361 76.611 478.788 81.414 469.867 80.397 C 458.465 78.69 450.606 68.064 452.313 56.662 C 454.217 43.942 462.99 36.226 471.133 31.811 C 479.275 27.395 488.235 25.333 497.86 25.037 C 508.493 24.709 518.432 26.57 527.426 31.06 C 536.421 35.551 546.465 43.95 547.869 58.12 C 549.005 69.592 540.625 79.813 529.153 80.949 Z  M 491.226 68.3 C 491.263 68.295 492.943 67.24 493.601 62.843 C 493.074 64.766 492.275 66.604 491.226 68.3 Z  M 508.533 68.098 C 507.506 66.267 506.761 64.29 506.324 62.236 C 506.761 66.653 508.201 67.85 508.533 68.098 Z " fill-rule="evenodd" fill="rgb(255,82,151)"/><path d=" M 452.077 59.427 L 493.826 59.467 L 493.739 151.839 L 451.99 151.8 L 452.077 59.427 Z " fill-rule="evenodd" fill="rgb(255,82,151)"/><path d=" M 506.262 60.491 L 506.262 159.594 L 548.012 159.594 L 548.012 60.491 L 506.262 60.491 Z " fill-rule="evenodd" fill="rgb(255,82,151)"/><path d=" M 483.301 59.447 L 517.743 59.447 L 517.743 159.645 L 483.301 159.645 L 483.301 59.447 Z " fill="rgb(255,82,151)"/></g></g></svg>