<?xml version="1.0" encoding="UTF-8" standalone="no"?><!-- Generator: Gravit.io --><svg xmlns="http://www.w3.org/2000/svg" xmlns:xlink="http://www.w3.org/1999/xlink" style="isolation:isolate" viewBox="0 0 1000 1000" width="1000pt" height="1000pt"><defs><clipPath id="_clipPath_M3dkCE9dQacTDGkjjUcxUKQxZ6Zj3UCu"><rect width="1000" height="1000"/></clipPath></defs><g clip-path="url(#_clipPath_M3dkCE9dQacTDGkjjUcxUKQxZ6Zj3UCu)"><g clip-path="url(#_clipPath_2uFPUMXl8uJLF3sbAzgfsZqEOAqf2adQ)"><text transform="matrix(1.156,0,0,1,49.156,880.89)" style="font-family:'Chicle';font-weight:400;font-size:180px;font-style:normal;fill:#668fff;stroke:none;">thermometer</text></g><defs><clipPath id="_clipPath_2uFPUMXl8uJLF3sbAzgfsZqEOAqf2adQ"><rect x="0" y="0" width="865" height="350" transform="matrix(1.156,0,0,1,0,650)"/></clipPath></defs><path d=" M 256.011 522.524 C 237.253 541.264 218.509 560.02 199.781 578.791 C 191.926 586.588 187.52 597.206 187.549 608.273 C 187.549 619.42 191.892 629.879 199.768 637.768 C 207.577 645.627 218.208 650.033 229.288 650 C 240.358 650.019 250.979 645.62 258.795 637.78 L 315.012 581.525 L 256.011 522.524 Z  M 785.475 52.048 C 768.209 34.671 744.704 24.931 720.208 25 C 695.714 24.942 672.213 34.681 654.941 52.048 L 649.736 57.253 L 671.317 78.822 C 674.909 82.387 675.99 87.771 674.051 92.446 C 672.113 97.122 667.541 100.162 662.48 100.141 C 659.169 100.144 655.993 98.828 653.655 96.483 L 632.087 74.915 L 599.809 107.193 L 633.859 141.243 C 638.733 146.117 638.733 154.019 633.859 158.892 C 628.986 163.766 621.084 163.766 616.21 158.892 L 582.16 124.842 L 549.882 157.12 L 571.45 178.688 C 576.324 183.562 576.324 191.464 571.45 196.338 C 566.577 201.211 558.675 201.211 553.801 196.338 L 532.233 174.769 L 499.955 207.047 L 534.005 241.097 C 538.879 245.971 538.879 253.873 534.005 258.746 C 529.131 263.62 521.23 263.62 516.356 258.746 L 482.306 224.696 L 450.028 256.974 L 471.596 278.542 C 476.47 283.416 476.47 291.318 471.596 296.192 C 466.723 301.065 458.821 301.065 453.947 296.192 L 432.379 274.623 L 400.101 306.901 L 434.151 340.951 C 439.025 345.825 439.025 353.727 434.151 358.601 C 429.277 363.474 421.375 363.474 416.502 358.601 L 382.451 324.55 L 350.174 356.828 L 371.742 378.397 C 376.616 383.27 376.616 391.172 371.742 396.046 C 366.868 400.92 358.967 400.92 354.093 396.046 L 332.524 374.477 L 324.898 382.091 C 310.906 396.083 306.725 419.861 302.668 442.865 C 299.198 462.536 295.616 482.869 285.992 492.517 L 273.648 504.862 L 294.318 525.532 L 608.334 211.515 C 613.208 206.642 621.11 206.642 625.983 211.515 C 630.857 216.389 630.857 224.291 625.983 229.165 L 311.967 543.193 L 332.649 563.863 L 344.981 551.531 C 354.355 542.157 374.6 538.55 394.172 535.068 C 417.375 530.949 441.378 526.668 455.445 512.613 C 464.12 503.901 776.039 191.981 785.488 182.583 C 821.448 146.585 821.435 88.033 785.475 52.048 Z " fill="rgb(255,82,151)"/></g></svg>