<?xml version="1.0" encoding="UTF-8" standalone="no"?><!-- Generator: Gravit.io --><svg xmlns="http://www.w3.org/2000/svg" xmlns:xlink="http://www.w3.org/1999/xlink" style="isolation:isolate" viewBox="0 0 1000 1000" width="1000pt" height="1000pt"><defs><clipPath id="_clipPath_SLtgj8jLSRmKI3F1cHAfLkAEmCyAw8g4"><rect width="1000" height="1000"/></clipPath></defs><g clip-path="url(#_clipPath_SLtgj8jLSRmKI3F1cHAfLkAEmCyAw8g4)"><g clip-path="url(#_clipPath_GHJrzg1ogBIdMJJKr2VIKB54fDNEsii9)"><text transform="matrix(1.156,0,0,1,211.806,894.863)" style="font-family:'Chicle';font-weight:400;font-size:225px;font-style:normal;fill:#668fff;stroke:none;">wagon</text></g><defs><clipPath id="_clipPath_GHJrzg1ogBIdMJJKr2VIKB54fDNEsii9"><rect x="0" y="0" width="865" height="350" transform="matrix(1.156,0,0,1,0,650)"/></clipPath></defs><path d=" M 450.615 496.376 L 373.812 496.376 C 339.897 496.376 312.362 468.841 312.362 434.926 L 312.362 328.304 L 312.362 328.304 L 102.818 118.76 L 102.818 118.76 L 80.866 140.711 C 77.181 144.396 72.176 146.464 66.97 146.473 C 61.765 146.464 56.759 144.396 53.075 140.711 L 32.2 119.837 C 28.516 116.153 26.447 111.147 26.439 105.941 C 26.447 100.736 28.516 95.73 32.2 92.046 L 93.484 30.762 C 97.169 27.077 102.175 25.009 107.38 25 C 112.586 25.009 117.591 27.077 121.276 30.762 L 121.276 30.762 L 142.15 51.636 C 145.835 55.32 147.903 60.326 147.912 65.532 C 147.903 70.737 145.835 75.743 142.15 79.427 L 120.198 101.379 L 293.936 275.117 C 293.93 274.899 293.928 274.681 293.928 274.462 L 293.928 264.791 C 293.928 250.841 305.253 239.516 319.203 239.516 L 948.286 239.516 C 962.236 239.516 973.561 250.841 973.561 264.791 L 973.561 274.462 C 973.561 286.237 965.491 296.143 954.588 298.953 L 954.588 298.953 C 954.943 301.622 955.126 304.345 955.126 307.111 L 955.126 434.926 C 955.126 468.841 927.592 496.376 893.677 496.376 L 816.873 496.376 C 859.263 496.381 893.677 530.797 893.677 573.188 C 893.677 615.582 859.258 650 816.865 650 C 774.471 650 740.052 615.582 740.052 573.188 L 740.052 573.188 C 740.052 530.797 774.466 496.381 816.856 496.376 L 450.633 496.376 C 493.023 496.381 527.436 530.797 527.436 573.188 C 527.436 615.582 493.018 650 450.624 650 C 408.231 650 373.812 615.582 373.812 573.188 L 373.812 573.188 C 373.812 530.797 408.226 496.381 450.615 496.376 Z  M 934.47 299.737 C 934.908 302.159 935.13 304.623 935.13 307.1 C 935.13 307.1 935.13 307.11 935.13 307.11 L 935.13 434.93 C 935.13 434.93 935.13 434.94 935.13 434.94 C 935.13 440.47 934.02 445.95 931.87 451.04 C 929.79 455.97 926.76 460.45 922.98 464.23 C 919.2 468.01 914.72 471.03 909.79 473.12 C 904.7 475.27 899.22 476.38 893.69 476.38 C 893.69 476.38 893.68 476.38 893.68 476.38 L 373.81 476.38 C 373.81 476.38 373.8 476.38 373.8 476.38 C 368.27 476.38 362.79 475.27 357.7 473.12 C 352.77 471.03 348.29 468.01 344.51 464.23 C 340.72 460.45 337.7 455.97 335.61 451.04 C 333.46 445.95 332.36 440.47 332.36 434.94 C 332.36 434.94 332.36 434.93 332.36 434.93 L 332.36 307.11 C 332.36 307.11 332.36 307.1 332.36 307.1 C 332.36 304.623 332.58 302.159 333.015 299.737 L 934.47 299.737 L 934.47 299.737 L 934.47 299.737 Z  M 66.97 119.846 L 53.066 105.941 L 107.38 51.627 L 121.285 65.532 L 66.97 119.846 L 66.97 119.846 L 66.97 119.846 L 66.97 119.846 Z  M 413.81 573.19 C 413.8 568.27 414.79 563.4 416.7 558.86 C 418.55 554.51 421.24 550.53 424.6 547.17 C 427.97 543.8 431.94 541.11 436.32 539.25 C 440.85 537.35 445.71 536.37 450.62 536.38 C 455.54 536.37 460.4 537.35 464.93 539.25 C 469.3 541.11 473.28 543.8 476.64 547.17 C 480.01 550.53 482.7 554.51 484.56 558.89 C 486.47 563.41 487.44 568.28 487.44 573.19 C 487.44 578.1 486.47 582.96 484.56 587.49 C 482.7 591.87 480.01 595.85 476.64 599.21 C 473.28 602.57 469.3 605.26 464.93 607.12 C 460.4 609.03 455.54 610.01 450.62 610 C 445.71 610.01 440.85 609.03 436.32 607.12 C 431.94 605.26 427.97 602.57 424.6 599.21 C 421.24 595.85 418.55 591.87 416.69 587.49 C 414.78 582.96 413.8 578.1 413.81 573.19 L 413.81 573.19 Z  M 780.05 573.19 C 780.04 568.27 781.03 563.4 782.94 558.86 C 784.79 554.51 787.48 550.53 790.85 547.17 C 794.21 543.8 798.18 541.11 802.56 539.25 C 807.09 537.35 811.95 536.37 816.86 536.38 C 821.78 536.37 826.64 537.35 831.17 539.25 C 835.54 541.11 839.52 543.8 842.88 547.17 C 846.25 550.53 848.94 554.51 850.8 558.89 C 852.71 563.41 853.68 568.28 853.68 573.19 C 853.68 578.1 852.71 582.96 850.8 587.49 C 848.94 591.87 846.25 595.85 842.88 599.21 C 839.52 602.57 835.54 605.26 831.17 607.12 C 826.64 609.03 821.78 610.01 816.86 610 C 811.95 610.01 807.09 609.03 802.56 607.12 C 798.18 605.26 794.21 602.57 790.85 599.21 C 787.48 595.85 784.79 591.87 782.93 587.49 C 781.02 582.96 780.04 578.1 780.05 573.19 L 780.05 573.19 Z " fill-rule="evenodd" fill="rgb(255,82,151)"/></g></svg>