<?xml version="1.0" encoding="UTF-8" standalone="no"?>
<!-- Generator: Gravit.io -->

<svg
   style="isolation:isolate"
   viewBox="0 0 350.12 219.70813"
   width="350.12pt"
   height="219.70813pt"
   version="1.1"
   id="svg71"
   sodipodi:docname="team-boy-text.svg"
   inkscape:version="1.1 (c68e22c387, 2021-05-23)"
   xmlns:inkscape="http://www.inkscape.org/namespaces/inkscape"
   xmlns:sodipodi="http://sodipodi.sourceforge.net/DTD/sodipodi-0.dtd"
   xmlns="http://www.w3.org/2000/svg"
   xmlns:svg="http://www.w3.org/2000/svg">
  <sodipodi:namedview
     id="namedview73"
     pagecolor="#ffffff"
     bordercolor="#666666"
     borderopacity="1.0"
     inkscape:pageshadow="2"
     inkscape:pageopacity="0.0"
     inkscape:pagecheckerboard="0"
     inkscape:document-units="pt"
     showgrid="false"
     fit-margin-top="0"
     fit-margin-left="0"
     fit-margin-right="0"
     fit-margin-bottom="0"
     inkscape:zoom="2.2919776"
     inkscape:cx="232.55026"
     inkscape:cy="140.70818"
     inkscape:window-width="1920"
     inkscape:window-height="1027"
     inkscape:window-x="-8"
     inkscape:window-y="-8"
     inkscape:window-maximized="1"
     inkscape:current-layer="g69" />
  <defs
     id="defs45">
    <clipPath
       id="_clipPath_5Vuc01e1SCFtApINyoc4MEsPiiurthTi">
      <rect
         width="387"
         height="268"
         id="rect42"
         x="0"
         y="0" />
    </clipPath>
    <mask
       id="_mask_TMeOxiJdRAiabbQCPZ3EvfqM7JQoWUA0"
       x="-200%"
       y="-200%"
       width="400%"
       height="400%">
      <rect
         x="-200%"
         y="-200%"
         width="400%"
         height="400%"
         style="fill:#ffffff"
         id="rect53" />
      <path
         d="m 81.34,156 h 30.24 v 0 q 11.52,0 17.16,5.4 v 0 0 q 5.64,5.4 5.64,15.96 v 0 0 q 0,5.64 -2.76,9.9 v 0 0 q -2.76,4.26 -8.16,6.6 v 0 0 q -5.4,2.34 -13.32,2.34 v 0 l 0.48,-5.4 v 0 q 3.72,0 8.52,1.02 v 0 0 q 4.8,1.02 9.3,3.6 v 0 0 q 4.5,2.58 7.44,7.2 v 0 0 q 2.94,4.62 2.94,11.82 v 0 0 q 0,7.92 -2.58,12.96 v 0 0 q -2.58,5.04 -6.78,7.8 v 0 0 q -4.2,2.76 -9,3.78 v 0 0 q -4.8,1.02 -9.24,1.02 v 0 H 81.34 v 0 q -3.12,0 -5.22,-2.1 v 0 0 q -2.1,-2.1 -2.1,-5.22 v 0 -69.36 0 q 0,-3.12 2.1,-5.22 v 0 0 q 2.1,-2.1 5.22,-2.1 z m 28.08,14.16 v 0 H 88.06 l 1.56,-1.92 v 21.72 l -1.44,-1.08 h 21.6 v 0 q 3.48,0 6.24,-2.28 v 0 0 q 2.76,-2.28 2.76,-6.6 v 0 0 q 0,-5.16 -2.58,-7.5 v 0 0 q -2.58,-2.34 -6.78,-2.34 z m 0.96,32.88 v 0 H 88.54 l 1.08,-0.96 v 25.32 l -1.2,-1.2 h 22.8 v 0 q 5.52,0 8.76,-2.94 v 0 0 q 3.24,-2.94 3.24,-8.82 v 0 0 q 0,-5.4 -2.16,-7.8 v 0 0 q -2.16,-2.4 -5.16,-3 v 0 0 q -3,-0.6 -5.52,-0.6 z M 239.9,198 v 0 0 q 0,9 -3,16.8 v 0 0 q -3,7.8 -8.46,13.74 v 0 0 q -5.46,5.94 -12.96,9.3 v 0 0 q -7.5,3.36 -16.38,3.36 v 0 0 q -8.88,0 -16.32,-3.36 v 0 0 q -7.44,-3.36 -12.9,-9.3 v 0 0 q -5.46,-5.94 -8.46,-13.74 v 0 0 q -3,-7.8 -3,-16.8 v 0 0 q 0,-9 3,-16.8 v 0 0 q 3,-7.8 8.46,-13.74 v 0 0 q 5.46,-5.94 12.9,-9.3 v 0 0 q 7.44,-3.36 16.32,-3.36 v 0 0 q 8.88,0 16.38,3.36 v 0 0 q 7.5,3.36 12.96,9.3 v 0 0 q 5.46,5.94 8.46,13.74 v 0 0 q 3,7.8 3,16.8 z m -15.6,0 v 0 0 q 0,-8.04 -3.24,-14.58 v 0 0 q -3.24,-6.54 -8.88,-10.38 v 0 0 q -5.64,-3.84 -13.08,-3.84 v 0 0 q -7.44,0 -13.08,3.84 v 0 0 q -5.64,3.84 -8.82,10.32 v 0 0 q -3.18,6.48 -3.18,14.64 v 0 0 q 0,8.04 3.18,14.58 v 0 0 q 3.18,6.54 8.82,10.38 v 0 0 q 5.64,3.84 13.08,3.84 v 0 0 q 7.44,0 13.08,-3.84 v 0 0 q 5.64,-3.84 8.88,-10.38 v 0 0 q 3.24,-6.54 3.24,-14.58 z m 89.8,-42.36 v 0 0 q 2.76,0 4.98,2.1 v 0 0 q 2.22,2.1 2.22,5.34 v 0 0 q 0,1.08 -0.3,2.22 v 0 0 q -0.3,1.14 -1.02,2.22 v 0 l -27.24,39 2.16,-8.28 v 34.44 0 q 0,3.12 -2.1,5.22 v 0 0 q -2.1,2.1 -4.86,2.1 v 0 0 q -3,0 -5.1,-2.1 v 0 0 q -2.1,-2.1 -2.1,-5.22 v 0 -33.48 l 0.96,3.84 -25.92,-34.44 v 0 q -1.2,-1.56 -1.68,-3 v 0 0 q -0.48,-1.44 -0.48,-2.64 v 0 0 q 0,-3.24 2.52,-5.28 v 0 0 q 2.52,-2.04 5.16,-2.04 v 0 0 q 3.36,0 5.88,3.36 v 0 l 23.04,31.8 -3.36,-0.48 21.24,-31.08 v 0 q 2.52,-3.6 6,-3.6 z M 55.58,120 v 0 0 q -3.36,0 -5.52,-2.1 v 0 0 q -2.16,-2.1 -2.16,-5.22 v 0 -69.6 h 15.6 v 69.6 0 q 0,3.12 -2.22,5.22 v 0 0 q -2.22,2.1 -5.7,2.1 z M 82.34,49.8 H 29.06 v 0 q -3.12,0 -5.22,-1.92 v 0 0 q -2.1,-1.92 -2.1,-5.04 v 0 0 q 0,-3.12 2.1,-4.98 v 0 0 Q 25.94,36 29.06,36 v 0 h 53.28 v 0 q 3.12,0 5.22,1.92 v 0 0 q 2.1,1.92 2.1,5.04 v 0 0 q 0,3.12 -2.1,4.98 v 0 0 q -2.1,1.86 -5.22,1.86 z M 119.58,36 v 0 h 40.2 v 0 q 3.12,0 5.22,1.98 v 0 0 q 2.1,1.98 2.1,5.1 v 0 0 q 0,3 -2.1,4.86 v 0 0 q -2.1,1.86 -5.22,1.86 v 0 h -33.6 l 1.08,-2.04 v 23.4 L 126.3,70.2 h 28.08 v 0 q 3.12,0 5.22,1.98 v 0 0 q 2.1,1.98 2.1,5.1 v 0 0 q 0,3 -2.1,4.86 v 0 0 Q 157.5,84 154.38,84 v 0 h -27.72 l 0.6,-0.96 v 24.24 l -0.96,-1.08 h 33.48 v 0 q 3.12,0 5.22,2.1 v 0 0 q 2.1,2.1 2.1,4.86 v 0 0 q 0,3 -2.1,4.92 v 0 0 q -2.1,1.92 -5.22,1.92 v 0 h -40.2 v 0 q -3.12,0 -5.22,-2.1 v 0 0 q -2.1,-2.1 -2.1,-5.22 v 0 -69.36 0 q 0,-3.12 2.1,-5.22 v 0 0 q 2.1,-2.1 5.22,-2.1 z m 98.68,19.56 3.48,-0.72 -25.92,60.96 v 0 q -0.84,2.28 -2.58,3.54 v 0 0 q -1.74,1.26 -3.78,1.26 v 0 0 q -3.24,0 -4.8,-1.8 v 0 0 q -1.56,-1.8 -1.56,-4.44 v 0 0 q 0,-1.08 0.36,-2.28 v 0 l 29.88,-71.76 v 0 q 0.96,-2.4 2.94,-3.72 v 0 0 q 1.98,-1.32 4.26,-1.08 v 0 0 q 2.16,0 4.02,1.26 v 0 0 q 1.86,1.26 2.7,3.54 v 0 l 29.52,70.32 v 0 q 0.6,1.56 0.6,2.88 v 0 0 q 0,3.24 -2.1,5.16 v 0 0 q -2.1,1.92 -4.62,1.92 v 0 0 q -2.16,0 -3.9,-1.32 v 0 0 q -1.74,-1.32 -2.7,-3.6 v 0 z m 22.56,45.6 h -41.28 l 6.6,-13.8 h 32.4 z m 44.32,-65.28 v 0 0 q 1.68,0 3.54,0.9 v 0 0 q 1.86,0.9 2.82,2.34 v 0 l 29.16,44.88 -6,-0.24 29.88,-44.64 v 0 q 2.28,-3.24 5.88,-3.24 v 0 0 q 2.88,0 5.16,2.04 v 0 0 q 2.28,2.04 2.28,5.28 v 0 69.48 0 q 0,3.12 -2.04,5.22 v 0 0 q -2.04,2.1 -5.4,2.1 v 0 0 q -3.36,0 -5.46,-2.1 v 0 0 q -2.1,-2.1 -2.1,-5.22 v 0 -56.52 l 4.68,1.08 -24.48,37.32 v 0 q -1.08,1.32 -2.7,2.28 v 0 0 q -1.62,0.96 -3.3,0.84 v 0 0 q -1.56,0.12 -3.18,-0.84 v 0 0 q -1.62,-0.96 -2.7,-2.28 v 0 l -22.92,-36.24 3.12,-6.36 v 60.72 0 q 0,3.12 -1.92,5.22 v 0 0 q -1.92,2.1 -5.04,2.1 v 0 0 q -3,0 -4.92,-2.1 v 0 0 q -1.92,-2.1 -1.92,-5.22 v 0 -69.48 0 q 0,-3 2.22,-5.16 v 0 0 q 2.22,-2.16 5.34,-2.16 z"
         fill="#000000"
         stroke="none"
         id="path55" />
    </mask>
    <mask
       id="_mask_tTM30fCZTC3QTRLHt59diNujpgu5qRz8"
       x="-200%"
       y="-200%"
       width="400%"
       height="400%">
      <rect
         x="-200%"
         y="-200%"
         width="400%"
         height="400%"
         style="fill:#ffffff"
         id="rect60" />
      <path
         d="m 81.34,156 h 30.24 v 0 q 11.52,0 17.16,5.4 v 0 0 q 5.64,5.4 5.64,15.96 v 0 0 q 0,5.64 -2.76,9.9 v 0 0 q -2.76,4.26 -8.16,6.6 v 0 0 q -5.4,2.34 -13.32,2.34 v 0 l 0.48,-5.4 v 0 q 3.72,0 8.52,1.02 v 0 0 q 4.8,1.02 9.3,3.6 v 0 0 q 4.5,2.58 7.44,7.2 v 0 0 q 2.94,4.62 2.94,11.82 v 0 0 q 0,7.92 -2.58,12.96 v 0 0 q -2.58,5.04 -6.78,7.8 v 0 0 q -4.2,2.76 -9,3.78 v 0 0 q -4.8,1.02 -9.24,1.02 v 0 H 81.34 v 0 q -3.12,0 -5.22,-2.1 v 0 0 q -2.1,-2.1 -2.1,-5.22 v 0 -69.36 0 q 0,-3.12 2.1,-5.22 v 0 0 q 2.1,-2.1 5.22,-2.1 z m 28.08,14.16 v 0 H 88.06 l 1.56,-1.92 v 21.72 l -1.44,-1.08 h 21.6 v 0 q 3.48,0 6.24,-2.28 v 0 0 q 2.76,-2.28 2.76,-6.6 v 0 0 q 0,-5.16 -2.58,-7.5 v 0 0 q -2.58,-2.34 -6.78,-2.34 z m 0.96,32.88 v 0 H 88.54 l 1.08,-0.96 v 25.32 l -1.2,-1.2 h 22.8 v 0 q 5.52,0 8.76,-2.94 v 0 0 q 3.24,-2.94 3.24,-8.82 v 0 0 q 0,-5.4 -2.16,-7.8 v 0 0 q -2.16,-2.4 -5.16,-3 v 0 0 q -3,-0.6 -5.52,-0.6 z M 239.9,198 v 0 0 q 0,9 -3,16.8 v 0 0 q -3,7.8 -8.46,13.74 v 0 0 q -5.46,5.94 -12.96,9.3 v 0 0 q -7.5,3.36 -16.38,3.36 v 0 0 q -8.88,0 -16.32,-3.36 v 0 0 q -7.44,-3.36 -12.9,-9.3 v 0 0 q -5.46,-5.94 -8.46,-13.74 v 0 0 q -3,-7.8 -3,-16.8 v 0 0 q 0,-9 3,-16.8 v 0 0 q 3,-7.8 8.46,-13.74 v 0 0 q 5.46,-5.94 12.9,-9.3 v 0 0 q 7.44,-3.36 16.32,-3.36 v 0 0 q 8.88,0 16.38,3.36 v 0 0 q 7.5,3.36 12.96,9.3 v 0 0 q 5.46,5.94 8.46,13.74 v 0 0 q 3,7.8 3,16.8 z m -15.6,0 v 0 0 q 0,-8.04 -3.24,-14.58 v 0 0 q -3.24,-6.54 -8.88,-10.38 v 0 0 q -5.64,-3.84 -13.08,-3.84 v 0 0 q -7.44,0 -13.08,3.84 v 0 0 q -5.64,3.84 -8.82,10.32 v 0 0 q -3.18,6.48 -3.18,14.64 v 0 0 q 0,8.04 3.18,14.58 v 0 0 q 3.18,6.54 8.82,10.38 v 0 0 q 5.64,3.84 13.08,3.84 v 0 0 q 7.44,0 13.08,-3.84 v 0 0 q 5.64,-3.84 8.88,-10.38 v 0 0 q 3.24,-6.54 3.24,-14.58 z m 89.8,-42.36 v 0 0 q 2.76,0 4.98,2.1 v 0 0 q 2.22,2.1 2.22,5.34 v 0 0 q 0,1.08 -0.3,2.22 v 0 0 q -0.3,1.14 -1.02,2.22 v 0 l -27.24,39 2.16,-8.28 v 34.44 0 q 0,3.12 -2.1,5.22 v 0 0 q -2.1,2.1 -4.86,2.1 v 0 0 q -3,0 -5.1,-2.1 v 0 0 q -2.1,-2.1 -2.1,-5.22 v 0 -33.48 l 0.96,3.84 -25.92,-34.44 v 0 q -1.2,-1.56 -1.68,-3 v 0 0 q -0.48,-1.44 -0.48,-2.64 v 0 0 q 0,-3.24 2.52,-5.28 v 0 0 q 2.52,-2.04 5.16,-2.04 v 0 0 q 3.36,0 5.88,3.36 v 0 l 23.04,31.8 -3.36,-0.48 21.24,-31.08 v 0 q 2.52,-3.6 6,-3.6 z M 55.58,120 v 0 0 q -3.36,0 -5.52,-2.1 v 0 0 q -2.16,-2.1 -2.16,-5.22 v 0 -69.6 h 15.6 v 69.6 0 q 0,3.12 -2.22,5.22 v 0 0 q -2.22,2.1 -5.7,2.1 z M 82.34,49.8 H 29.06 v 0 q -3.12,0 -5.22,-1.92 v 0 0 q -2.1,-1.92 -2.1,-5.04 v 0 0 q 0,-3.12 2.1,-4.98 v 0 0 Q 25.94,36 29.06,36 v 0 h 53.28 v 0 q 3.12,0 5.22,1.92 v 0 0 q 2.1,1.92 2.1,5.04 v 0 0 q 0,3.12 -2.1,4.98 v 0 0 q -2.1,1.86 -5.22,1.86 z M 119.58,36 v 0 h 40.2 v 0 q 3.12,0 5.22,1.98 v 0 0 q 2.1,1.98 2.1,5.1 v 0 0 q 0,3 -2.1,4.86 v 0 0 q -2.1,1.86 -5.22,1.86 v 0 h -33.6 l 1.08,-2.04 v 23.4 L 126.3,70.2 h 28.08 v 0 q 3.12,0 5.22,1.98 v 0 0 q 2.1,1.98 2.1,5.1 v 0 0 q 0,3 -2.1,4.86 v 0 0 Q 157.5,84 154.38,84 v 0 h -27.72 l 0.6,-0.96 v 24.24 l -0.96,-1.08 h 33.48 v 0 q 3.12,0 5.22,2.1 v 0 0 q 2.1,2.1 2.1,4.86 v 0 0 q 0,3 -2.1,4.92 v 0 0 q -2.1,1.92 -5.22,1.92 v 0 h -40.2 v 0 q -3.12,0 -5.22,-2.1 v 0 0 q -2.1,-2.1 -2.1,-5.22 v 0 -69.36 0 q 0,-3.12 2.1,-5.22 v 0 0 q 2.1,-2.1 5.22,-2.1 z m 98.68,19.56 3.48,-0.72 -25.92,60.96 v 0 q -0.84,2.28 -2.58,3.54 v 0 0 q -1.74,1.26 -3.78,1.26 v 0 0 q -3.24,0 -4.8,-1.8 v 0 0 q -1.56,-1.8 -1.56,-4.44 v 0 0 q 0,-1.08 0.36,-2.28 v 0 l 29.88,-71.76 v 0 q 0.96,-2.4 2.94,-3.72 v 0 0 q 1.98,-1.32 4.26,-1.08 v 0 0 q 2.16,0 4.02,1.26 v 0 0 q 1.86,1.26 2.7,3.54 v 0 l 29.52,70.32 v 0 q 0.6,1.56 0.6,2.88 v 0 0 q 0,3.24 -2.1,5.16 v 0 0 q -2.1,1.92 -4.62,1.92 v 0 0 q -2.16,0 -3.9,-1.32 v 0 0 q -1.74,-1.32 -2.7,-3.6 v 0 z m 22.56,45.6 h -41.28 l 6.6,-13.8 h 32.4 z m 44.32,-65.28 v 0 0 q 1.68,0 3.54,0.9 v 0 0 q 1.86,0.9 2.82,2.34 v 0 l 29.16,44.88 -6,-0.24 29.88,-44.64 v 0 q 2.28,-3.24 5.88,-3.24 v 0 0 q 2.88,0 5.16,2.04 v 0 0 q 2.28,2.04 2.28,5.28 v 0 69.48 0 q 0,3.12 -2.04,5.22 v 0 0 q -2.04,2.1 -5.4,2.1 v 0 0 q -3.36,0 -5.46,-2.1 v 0 0 q -2.1,-2.1 -2.1,-5.22 v 0 -56.52 l 4.68,1.08 -24.48,37.32 v 0 q -1.08,1.32 -2.7,2.28 v 0 0 q -1.62,0.96 -3.3,0.84 v 0 0 q -1.56,0.12 -3.18,-0.84 v 0 0 q -1.62,-0.96 -2.7,-2.28 v 0 l -22.92,-36.24 3.12,-6.36 v 60.72 0 q 0,3.12 -1.92,5.22 v 0 0 q -1.92,2.1 -5.04,2.1 v 0 0 q -3,0 -4.92,-2.1 v 0 0 q -1.92,-2.1 -1.92,-5.22 v 0 -69.48 0 q 0,-3 2.22,-5.16 v 0 0 q 2.22,-2.16 5.34,-2.16 z"
         fill="#000000"
         stroke="none"
         id="path62" />
    </mask>
  </defs>
  <g
     clip-path="url(#_clipPath_5Vuc01e1SCFtApINyoc4MEsPiiurthTi)"
     id="g69"
     transform="translate(-14.74,-28.491876)">
    <path
       d="m 81.34,156 h 30.24 v 0 q 11.52,0 17.16,5.4 v 0 0 q 5.64,5.4 5.64,15.96 v 0 0 q 0,5.64 -2.76,9.9 v 0 0 q -2.76,4.26 -8.16,6.6 v 0 0 q -5.4,2.34 -13.32,2.34 v 0 l 0.48,-5.4 v 0 q 3.72,0 8.52,1.02 v 0 0 q 4.8,1.02 9.3,3.6 v 0 0 q 4.5,2.58 7.44,7.2 v 0 0 q 2.94,4.62 2.94,11.82 v 0 0 q 0,7.92 -2.58,12.96 v 0 0 q -2.58,5.04 -6.78,7.8 v 0 0 q -4.2,2.76 -9,3.78 v 0 0 q -4.8,1.02 -9.24,1.02 v 0 H 81.34 v 0 q -3.12,0 -5.22,-2.1 v 0 0 q -2.1,-2.1 -2.1,-5.22 v 0 -69.36 0 q 0,-3.12 2.1,-5.22 v 0 0 q 2.1,-2.1 5.22,-2.1 z m 28.08,14.16 v 0 H 88.06 l 1.56,-1.92 v 21.72 l -1.44,-1.08 h 21.6 v 0 q 3.48,0 6.24,-2.28 v 0 0 q 2.76,-2.28 2.76,-6.6 v 0 0 q 0,-5.16 -2.58,-7.5 v 0 0 q -2.58,-2.34 -6.78,-2.34 z m 0.96,32.88 v 0 H 88.54 l 1.08,-0.96 v 25.32 l -1.2,-1.2 h 22.8 v 0 q 5.52,0 8.76,-2.94 v 0 0 q 3.24,-2.94 3.24,-8.82 v 0 0 q 0,-5.4 -2.16,-7.8 v 0 0 q -2.16,-2.4 -5.16,-3 v 0 0 q -3,-0.6 -5.52,-0.6 z M 239.9,198 v 0 0 q 0,9 -3,16.8 v 0 0 q -3,7.8 -8.46,13.74 v 0 0 q -5.46,5.94 -12.96,9.3 v 0 0 q -7.5,3.36 -16.38,3.36 v 0 0 q -8.88,0 -16.32,-3.36 v 0 0 q -7.44,-3.36 -12.9,-9.3 v 0 0 q -5.46,-5.94 -8.46,-13.74 v 0 0 q -3,-7.8 -3,-16.8 v 0 0 q 0,-9 3,-16.8 v 0 0 q 3,-7.8 8.46,-13.74 v 0 0 q 5.46,-5.94 12.9,-9.3 v 0 0 q 7.44,-3.36 16.32,-3.36 v 0 0 q 8.88,0 16.38,3.36 v 0 0 q 7.5,3.36 12.96,9.3 v 0 0 q 5.46,5.94 8.46,13.74 v 0 0 q 3,7.8 3,16.8 z m -15.6,0 v 0 0 q 0,-8.04 -3.24,-14.58 v 0 0 q -3.24,-6.54 -8.88,-10.38 v 0 0 q -5.64,-3.84 -13.08,-3.84 v 0 0 q -7.44,0 -13.08,3.84 v 0 0 q -5.64,3.84 -8.82,10.32 v 0 0 q -3.18,6.48 -3.18,14.64 v 0 0 q 0,8.04 3.18,14.58 v 0 0 q 3.18,6.54 8.82,10.38 v 0 0 q 5.64,3.84 13.08,3.84 v 0 0 q 7.44,0 13.08,-3.84 v 0 0 q 5.64,-3.84 8.88,-10.38 v 0 0 q 3.24,-6.54 3.24,-14.58 z m 89.8,-42.36 v 0 0 q 2.76,0 4.98,2.1 v 0 0 q 2.22,2.1 2.22,5.34 v 0 0 q 0,1.08 -0.3,2.22 v 0 0 q -0.3,1.14 -1.02,2.22 v 0 l -27.24,39 2.16,-8.28 v 34.44 0 q 0,3.12 -2.1,5.22 v 0 0 q -2.1,2.1 -4.86,2.1 v 0 0 q -3,0 -5.1,-2.1 v 0 0 q -2.1,-2.1 -2.1,-5.22 v 0 -33.48 l 0.96,3.84 -25.92,-34.44 v 0 q -1.2,-1.56 -1.68,-3 v 0 0 q -0.48,-1.44 -0.48,-2.64 v 0 0 q 0,-3.24 2.52,-5.28 v 0 0 q 2.52,-2.04 5.16,-2.04 v 0 0 q 3.36,0 5.88,3.36 v 0 l 23.04,31.8 -3.36,-0.48 21.24,-31.08 v 0 q 2.52,-3.6 6,-3.6 z M 55.58,120 v 0 0 q -3.36,0 -5.52,-2.1 v 0 0 q -2.16,-2.1 -2.16,-5.22 v 0 -69.6 h 15.6 v 69.6 0 q 0,3.12 -2.22,5.22 v 0 0 q -2.22,2.1 -5.7,2.1 z M 82.34,49.8 H 29.06 v 0 q -3.12,0 -5.22,-1.92 v 0 0 q -2.1,-1.92 -2.1,-5.04 v 0 0 q 0,-3.12 2.1,-4.98 v 0 0 Q 25.94,36 29.06,36 v 0 h 53.28 v 0 q 3.12,0 5.22,1.92 v 0 0 q 2.1,1.92 2.1,5.04 v 0 0 q 0,3.12 -2.1,4.98 v 0 0 q -2.1,1.86 -5.22,1.86 z M 119.58,36 v 0 h 40.2 v 0 q 3.12,0 5.22,1.98 v 0 0 q 2.1,1.98 2.1,5.1 v 0 0 q 0,3 -2.1,4.86 v 0 0 q -2.1,1.86 -5.22,1.86 v 0 h -33.6 l 1.08,-2.04 v 23.4 L 126.3,70.2 h 28.08 v 0 q 3.12,0 5.22,1.98 v 0 0 q 2.1,1.98 2.1,5.1 v 0 0 q 0,3 -2.1,4.86 v 0 0 Q 157.5,84 154.38,84 v 0 h -27.72 l 0.6,-0.96 v 24.24 l -0.96,-1.08 h 33.48 v 0 q 3.12,0 5.22,2.1 v 0 0 q 2.1,2.1 2.1,4.86 v 0 0 q 0,3 -2.1,4.92 v 0 0 q -2.1,1.92 -5.22,1.92 v 0 h -40.2 v 0 q -3.12,0 -5.22,-2.1 v 0 0 q -2.1,-2.1 -2.1,-5.22 v 0 -69.36 0 q 0,-3.12 2.1,-5.22 v 0 0 q 2.1,-2.1 5.22,-2.1 z m 98.68,19.56 3.48,-0.72 -25.92,60.96 v 0 q -0.84,2.28 -2.58,3.54 v 0 0 q -1.74,1.26 -3.78,1.26 v 0 0 q -3.24,0 -4.8,-1.8 v 0 0 q -1.56,-1.8 -1.56,-4.44 v 0 0 q 0,-1.08 0.36,-2.28 v 0 l 29.88,-71.76 v 0 q 0.96,-2.4 2.94,-3.72 v 0 0 q 1.98,-1.32 4.26,-1.08 v 0 0 q 2.16,0 4.02,1.26 v 0 0 q 1.86,1.26 2.7,3.54 v 0 l 29.52,70.32 v 0 q 0.6,1.56 0.6,2.88 v 0 0 q 0,3.24 -2.1,5.16 v 0 0 q -2.1,1.92 -4.62,1.92 v 0 0 q -2.16,0 -3.9,-1.32 v 0 0 q -1.74,-1.32 -2.7,-3.6 v 0 z m 22.56,45.6 h -41.28 l 6.6,-13.8 h 32.4 z m 44.32,-65.28 v 0 0 q 1.68,0 3.54,0.9 v 0 0 q 1.86,0.9 2.82,2.34 v 0 l 29.16,44.88 -6,-0.24 29.88,-44.64 v 0 q 2.28,-3.24 5.88,-3.24 v 0 0 q 2.88,0 5.16,2.04 v 0 0 q 2.28,2.04 2.28,5.28 v 0 69.48 0 q 0,3.12 -2.04,5.22 v 0 0 q -2.04,2.1 -5.4,2.1 v 0 0 q -3.36,0 -5.46,-2.1 v 0 0 q -2.1,-2.1 -2.1,-5.22 v 0 -56.52 l 4.68,1.08 -24.48,37.32 v 0 q -1.08,1.32 -2.7,2.28 v 0 0 q -1.62,0.96 -3.3,0.84 v 0 0 q -1.56,0.12 -3.18,-0.84 v 0 0 q -1.62,-0.96 -2.7,-2.28 v 0 l -22.92,-36.24 3.12,-6.36 v 60.72 0 q 0,3.12 -1.92,5.22 v 0 0 q -1.92,2.1 -5.04,2.1 v 0 0 q -3,0 -4.92,-2.1 v 0 0 q -1.92,-2.1 -1.92,-5.22 v 0 -69.48 0 q 0,-3 2.22,-5.16 v 0 0 q 2.22,-2.16 5.34,-2.16 z"
       fill="none"
       id="path47" />
    <path
       d="m 81.34,156 h 30.24 v 0 q 11.52,0 17.16,5.4 v 0 0 q 5.64,5.4 5.64,15.96 v 0 0 q 0,5.64 -2.76,9.9 v 0 0 q -2.76,4.26 -8.16,6.6 v 0 0 q -5.4,2.34 -13.32,2.34 v 0 l 0.48,-5.4 v 0 q 3.72,0 8.52,1.02 v 0 0 q 4.8,1.02 9.3,3.6 v 0 0 q 4.5,2.58 7.44,7.2 v 0 0 q 2.94,4.62 2.94,11.82 v 0 0 q 0,7.92 -2.58,12.96 v 0 0 q -2.58,5.04 -6.78,7.8 v 0 0 q -4.2,2.76 -9,3.78 v 0 0 q -4.8,1.02 -9.24,1.02 v 0 H 81.34 v 0 q -3.12,0 -5.22,-2.1 v 0 0 q -2.1,-2.1 -2.1,-5.22 v 0 -69.36 0 q 0,-3.12 2.1,-5.22 v 0 0 q 2.1,-2.1 5.22,-2.1 z m 28.08,14.16 v 0 H 88.06 l 1.56,-1.92 v 21.72 l -1.44,-1.08 h 21.6 v 0 q 3.48,0 6.24,-2.28 v 0 0 q 2.76,-2.28 2.76,-6.6 v 0 0 q 0,-5.16 -2.58,-7.5 v 0 0 q -2.58,-2.34 -6.78,-2.34 z m 0.96,32.88 v 0 H 88.54 l 1.08,-0.96 v 25.32 l -1.2,-1.2 h 22.8 v 0 q 5.52,0 8.76,-2.94 v 0 0 q 3.24,-2.94 3.24,-8.82 v 0 0 q 0,-5.4 -2.16,-7.8 v 0 0 q -2.16,-2.4 -5.16,-3 v 0 0 q -3,-0.6 -5.52,-0.6 z M 239.9,198 v 0 0 q 0,9 -3,16.8 v 0 0 q -3,7.8 -8.46,13.74 v 0 0 q -5.46,5.94 -12.96,9.3 v 0 0 q -7.5,3.36 -16.38,3.36 v 0 0 q -8.88,0 -16.32,-3.36 v 0 0 q -7.44,-3.36 -12.9,-9.3 v 0 0 q -5.46,-5.94 -8.46,-13.74 v 0 0 q -3,-7.8 -3,-16.8 v 0 0 q 0,-9 3,-16.8 v 0 0 q 3,-7.8 8.46,-13.74 v 0 0 q 5.46,-5.94 12.9,-9.3 v 0 0 q 7.44,-3.36 16.32,-3.36 v 0 0 q 8.88,0 16.38,3.36 v 0 0 q 7.5,3.36 12.96,9.3 v 0 0 q 5.46,5.94 8.46,13.74 v 0 0 q 3,7.8 3,16.8 z m -15.6,0 v 0 0 q 0,-8.04 -3.24,-14.58 v 0 0 q -3.24,-6.54 -8.88,-10.38 v 0 0 q -5.64,-3.84 -13.08,-3.84 v 0 0 q -7.44,0 -13.08,3.84 v 0 0 q -5.64,3.84 -8.82,10.32 v 0 0 q -3.18,6.48 -3.18,14.64 v 0 0 q 0,8.04 3.18,14.58 v 0 0 q 3.18,6.54 8.82,10.38 v 0 0 q 5.64,3.84 13.08,3.84 v 0 0 q 7.44,0 13.08,-3.84 v 0 0 q 5.64,-3.84 8.88,-10.38 v 0 0 q 3.24,-6.54 3.24,-14.58 z m 89.8,-42.36 v 0 0 q 2.76,0 4.98,2.1 v 0 0 q 2.22,2.1 2.22,5.34 v 0 0 q 0,1.08 -0.3,2.22 v 0 0 q -0.3,1.14 -1.02,2.22 v 0 l -27.24,39 2.16,-8.28 v 34.44 0 q 0,3.12 -2.1,5.22 v 0 0 q -2.1,2.1 -4.86,2.1 v 0 0 q -3,0 -5.1,-2.1 v 0 0 q -2.1,-2.1 -2.1,-5.22 v 0 -33.48 l 0.96,3.84 -25.92,-34.44 v 0 q -1.2,-1.56 -1.68,-3 v 0 0 q -0.48,-1.44 -0.48,-2.64 v 0 0 q 0,-3.24 2.52,-5.28 v 0 0 q 2.52,-2.04 5.16,-2.04 v 0 0 q 3.36,0 5.88,3.36 v 0 l 23.04,31.8 -3.36,-0.48 21.24,-31.08 v 0 q 2.52,-3.6 6,-3.6 z M 55.58,120 v 0 0 q -3.36,0 -5.52,-2.1 v 0 0 q -2.16,-2.1 -2.16,-5.22 v 0 -69.6 h 15.6 v 69.6 0 q 0,3.12 -2.22,5.22 v 0 0 q -2.22,2.1 -5.7,2.1 z M 82.34,49.8 H 29.06 v 0 q -3.12,0 -5.22,-1.92 v 0 0 q -2.1,-1.92 -2.1,-5.04 v 0 0 q 0,-3.12 2.1,-4.98 v 0 0 Q 25.94,36 29.06,36 v 0 h 53.28 v 0 q 3.12,0 5.22,1.92 v 0 0 q 2.1,1.92 2.1,5.04 v 0 0 q 0,3.12 -2.1,4.98 v 0 0 q -2.1,1.86 -5.22,1.86 z M 119.58,36 v 0 h 40.2 v 0 q 3.12,0 5.22,1.98 v 0 0 q 2.1,1.98 2.1,5.1 v 0 0 q 0,3 -2.1,4.86 v 0 0 q -2.1,1.86 -5.22,1.86 v 0 h -33.6 l 1.08,-2.04 v 23.4 L 126.3,70.2 h 28.08 v 0 q 3.12,0 5.22,1.98 v 0 0 q 2.1,1.98 2.1,5.1 v 0 0 q 0,3 -2.1,4.86 v 0 0 Q 157.5,84 154.38,84 v 0 h -27.72 l 0.6,-0.96 v 24.24 l -0.96,-1.08 h 33.48 v 0 q 3.12,0 5.22,2.1 v 0 0 q 2.1,2.1 2.1,4.86 v 0 0 q 0,3 -2.1,4.92 v 0 0 q -2.1,1.92 -5.22,1.92 v 0 h -40.2 v 0 q -3.12,0 -5.22,-2.1 v 0 0 q -2.1,-2.1 -2.1,-5.22 v 0 -69.36 0 q 0,-3.12 2.1,-5.22 v 0 0 q 2.1,-2.1 5.22,-2.1 z m 98.68,19.56 3.48,-0.72 -25.92,60.96 v 0 q -0.84,2.28 -2.58,3.54 v 0 0 q -1.74,1.26 -3.78,1.26 v 0 0 q -3.24,0 -4.8,-1.8 v 0 0 q -1.56,-1.8 -1.56,-4.44 v 0 0 q 0,-1.08 0.36,-2.28 v 0 l 29.88,-71.76 v 0 q 0.96,-2.4 2.94,-3.72 v 0 0 q 1.98,-1.32 4.26,-1.08 v 0 0 q 2.16,0 4.02,1.26 v 0 0 q 1.86,1.26 2.7,3.54 v 0 l 29.52,70.32 v 0 q 0.6,1.56 0.6,2.88 v 0 0 q 0,3.24 -2.1,5.16 v 0 0 q -2.1,1.92 -4.62,1.92 v 0 0 q -2.16,0 -3.9,-1.32 v 0 0 q -1.74,-1.32 -2.7,-3.6 v 0 z m 22.56,45.6 h -41.28 l 6.6,-13.8 h 32.4 z m 44.32,-65.28 v 0 0 q 1.68,0 3.54,0.9 v 0 0 q 1.86,0.9 2.82,2.34 v 0 l 29.16,44.88 -6,-0.24 29.88,-44.64 v 0 q 2.28,-3.24 5.88,-3.24 v 0 0 q 2.88,0 5.16,2.04 v 0 0 q 2.28,2.04 2.28,5.28 v 0 69.48 0 q 0,3.12 -2.04,5.22 v 0 0 q -2.04,2.1 -5.4,2.1 v 0 0 q -3.36,0 -5.46,-2.1 v 0 0 q -2.1,-2.1 -2.1,-5.22 v 0 -56.52 l 4.68,1.08 -24.48,37.32 v 0 q -1.08,1.32 -2.7,2.28 v 0 0 q -1.62,0.96 -3.3,0.84 v 0 0 q -1.56,0.12 -3.18,-0.84 v 0 0 q -1.62,-0.96 -2.7,-2.28 v 0 l -22.92,-36.24 3.12,-6.36 v 60.72 0 q 0,3.12 -1.92,5.22 v 0 0 q -1.92,2.1 -5.04,2.1 v 0 0 q -3,0 -4.92,-2.1 v 0 0 q -1.92,-2.1 -1.92,-5.22 v 0 -69.48 0 q 0,-3 2.22,-5.16 v 0 0 q 2.22,-2.16 5.34,-2.16 z"
       fill="none"
       id="path49" />
    <path
       d="m 81.34,156 h 30.24 v 0 q 11.52,0 17.16,5.4 v 0 0 q 5.64,5.4 5.64,15.96 v 0 0 q 0,5.64 -2.76,9.9 v 0 0 q -2.76,4.26 -8.16,6.6 v 0 0 q -5.4,2.34 -13.32,2.34 v 0 l 0.48,-5.4 v 0 q 3.72,0 8.52,1.02 v 0 0 q 4.8,1.02 9.3,3.6 v 0 0 q 4.5,2.58 7.44,7.2 v 0 0 q 2.94,4.62 2.94,11.82 v 0 0 q 0,7.92 -2.58,12.96 v 0 0 q -2.58,5.04 -6.78,7.8 v 0 0 q -4.2,2.76 -9,3.78 v 0 0 q -4.8,1.02 -9.24,1.02 v 0 H 81.34 v 0 q -3.12,0 -5.22,-2.1 v 0 0 q -2.1,-2.1 -2.1,-5.22 v 0 -69.36 0 q 0,-3.12 2.1,-5.22 v 0 0 q 2.1,-2.1 5.22,-2.1 z m 28.08,14.16 v 0 H 88.06 l 1.56,-1.92 v 21.72 l -1.44,-1.08 h 21.6 v 0 q 3.48,0 6.24,-2.28 v 0 0 q 2.76,-2.28 2.76,-6.6 v 0 0 q 0,-5.16 -2.58,-7.5 v 0 0 q -2.58,-2.34 -6.78,-2.34 z m 0.96,32.88 v 0 H 88.54 l 1.08,-0.96 v 25.32 l -1.2,-1.2 h 22.8 v 0 q 5.52,0 8.76,-2.94 v 0 0 q 3.24,-2.94 3.24,-8.82 v 0 0 q 0,-5.4 -2.16,-7.8 v 0 0 q -2.16,-2.4 -5.16,-3 v 0 0 q -3,-0.6 -5.52,-0.6 z M 239.9,198 v 0 0 q 0,9 -3,16.8 v 0 0 q -3,7.8 -8.46,13.74 v 0 0 q -5.46,5.94 -12.96,9.3 v 0 0 q -7.5,3.36 -16.38,3.36 v 0 0 q -8.88,0 -16.32,-3.36 v 0 0 q -7.44,-3.36 -12.9,-9.3 v 0 0 q -5.46,-5.94 -8.46,-13.74 v 0 0 q -3,-7.8 -3,-16.8 v 0 0 q 0,-9 3,-16.8 v 0 0 q 3,-7.8 8.46,-13.74 v 0 0 q 5.46,-5.94 12.9,-9.3 v 0 0 q 7.44,-3.36 16.32,-3.36 v 0 0 q 8.88,0 16.38,3.36 v 0 0 q 7.5,3.36 12.96,9.3 v 0 0 q 5.46,5.94 8.46,13.74 v 0 0 q 3,7.8 3,16.8 z m -15.6,0 v 0 0 q 0,-8.04 -3.24,-14.58 v 0 0 q -3.24,-6.54 -8.88,-10.38 v 0 0 q -5.64,-3.84 -13.08,-3.84 v 0 0 q -7.44,0 -13.08,3.84 v 0 0 q -5.64,3.84 -8.82,10.32 v 0 0 q -3.18,6.48 -3.18,14.64 v 0 0 q 0,8.04 3.18,14.58 v 0 0 q 3.18,6.54 8.82,10.38 v 0 0 q 5.64,3.84 13.08,3.84 v 0 0 q 7.44,0 13.08,-3.84 v 0 0 q 5.64,-3.84 8.88,-10.38 v 0 0 q 3.24,-6.54 3.24,-14.58 z m 89.8,-42.36 v 0 0 q 2.76,0 4.98,2.1 v 0 0 q 2.22,2.1 2.22,5.34 v 0 0 q 0,1.08 -0.3,2.22 v 0 0 q -0.3,1.14 -1.02,2.22 v 0 l -27.24,39 2.16,-8.28 v 34.44 0 q 0,3.12 -2.1,5.22 v 0 0 q -2.1,2.1 -4.86,2.1 v 0 0 q -3,0 -5.1,-2.1 v 0 0 q -2.1,-2.1 -2.1,-5.22 v 0 -33.48 l 0.96,3.84 -25.92,-34.44 v 0 q -1.2,-1.56 -1.68,-3 v 0 0 q -0.48,-1.44 -0.48,-2.64 v 0 0 q 0,-3.24 2.52,-5.28 v 0 0 q 2.52,-2.04 5.16,-2.04 v 0 0 q 3.36,0 5.88,3.36 v 0 l 23.04,31.8 -3.36,-0.48 21.24,-31.08 v 0 q 2.52,-3.6 6,-3.6 z M 55.58,120 v 0 0 q -3.36,0 -5.52,-2.1 v 0 0 q -2.16,-2.1 -2.16,-5.22 v 0 -69.6 h 15.6 v 69.6 0 q 0,3.12 -2.22,5.22 v 0 0 q -2.22,2.1 -5.7,2.1 z M 82.34,49.8 H 29.06 v 0 q -3.12,0 -5.22,-1.92 v 0 0 q -2.1,-1.92 -2.1,-5.04 v 0 0 q 0,-3.12 2.1,-4.98 v 0 0 Q 25.94,36 29.06,36 v 0 h 53.28 v 0 q 3.12,0 5.22,1.92 v 0 0 q 2.1,1.92 2.1,5.04 v 0 0 q 0,3.12 -2.1,4.98 v 0 0 q -2.1,1.86 -5.22,1.86 z M 119.58,36 v 0 h 40.2 v 0 q 3.12,0 5.22,1.98 v 0 0 q 2.1,1.98 2.1,5.1 v 0 0 q 0,3 -2.1,4.86 v 0 0 q -2.1,1.86 -5.22,1.86 v 0 h -33.6 l 1.08,-2.04 v 23.4 L 126.3,70.2 h 28.08 v 0 q 3.12,0 5.22,1.98 v 0 0 q 2.1,1.98 2.1,5.1 v 0 0 q 0,3 -2.1,4.86 v 0 0 Q 157.5,84 154.38,84 v 0 h -27.72 l 0.6,-0.96 v 24.24 l -0.96,-1.08 h 33.48 v 0 q 3.12,0 5.22,2.1 v 0 0 q 2.1,2.1 2.1,4.86 v 0 0 q 0,3 -2.1,4.92 v 0 0 q -2.1,1.92 -5.22,1.92 v 0 h -40.2 v 0 q -3.12,0 -5.22,-2.1 v 0 0 q -2.1,-2.1 -2.1,-5.22 v 0 -69.36 0 q 0,-3.12 2.1,-5.22 v 0 0 q 2.1,-2.1 5.22,-2.1 z m 98.68,19.56 3.48,-0.72 -25.92,60.96 v 0 q -0.84,2.28 -2.58,3.54 v 0 0 q -1.74,1.26 -3.78,1.26 v 0 0 q -3.24,0 -4.8,-1.8 v 0 0 q -1.56,-1.8 -1.56,-4.44 v 0 0 q 0,-1.08 0.36,-2.28 v 0 l 29.88,-71.76 v 0 q 0.96,-2.4 2.94,-3.72 v 0 0 q 1.98,-1.32 4.26,-1.08 v 0 0 q 2.16,0 4.02,1.26 v 0 0 q 1.86,1.26 2.7,3.54 v 0 l 29.52,70.32 v 0 q 0.6,1.56 0.6,2.88 v 0 0 q 0,3.24 -2.1,5.16 v 0 0 q -2.1,1.92 -4.62,1.92 v 0 0 q -2.16,0 -3.9,-1.32 v 0 0 q -1.74,-1.32 -2.7,-3.6 v 0 z m 22.56,45.6 h -41.28 l 6.6,-13.8 h 32.4 z m 44.32,-65.28 v 0 0 q 1.68,0 3.54,0.9 v 0 0 q 1.86,0.9 2.82,2.34 v 0 l 29.16,44.88 -6,-0.24 29.88,-44.64 v 0 q 2.28,-3.24 5.88,-3.24 v 0 0 q 2.88,0 5.16,2.04 v 0 0 q 2.28,2.04 2.28,5.28 v 0 69.48 0 q 0,3.12 -2.04,5.22 v 0 0 q -2.04,2.1 -5.4,2.1 v 0 0 q -3.36,0 -5.46,-2.1 v 0 0 q -2.1,-2.1 -2.1,-5.22 v 0 -56.52 l 4.68,1.08 -24.48,37.32 v 0 q -1.08,1.32 -2.7,2.28 v 0 0 q -1.62,0.96 -3.3,0.84 v 0 0 q -1.56,0.12 -3.18,-0.84 v 0 0 q -1.62,-0.96 -2.7,-2.28 v 0 l -22.92,-36.24 3.12,-6.36 v 60.72 0 q 0,3.12 -1.92,5.22 v 0 0 q -1.92,2.1 -5.04,2.1 v 0 0 q -3,0 -4.92,-2.1 v 0 0 q -1.92,-2.1 -1.92,-5.22 v 0 -69.48 0 q 0,-3 2.22,-5.16 v 0 0 q 2.22,-2.16 5.34,-2.16 z"
       fill="#668fff"
       id="path51" />
    <path
       d="m 81.34,156 h 30.24 v 0 q 11.52,0 17.16,5.4 v 0 0 q 5.64,5.4 5.64,15.96 v 0 0 q 0,5.64 -2.76,9.9 v 0 0 q -2.76,4.26 -8.16,6.6 v 0 0 q -5.4,2.34 -13.32,2.34 v 0 l 0.48,-5.4 v 0 q 3.72,0 8.52,1.02 v 0 0 q 4.8,1.02 9.3,3.6 v 0 0 q 4.5,2.58 7.44,7.2 v 0 0 q 2.94,4.62 2.94,11.82 v 0 0 q 0,7.92 -2.58,12.96 v 0 0 q -2.58,5.04 -6.78,7.8 v 0 0 q -4.2,2.76 -9,3.78 v 0 0 q -4.8,1.02 -9.24,1.02 v 0 H 81.34 v 0 q -3.12,0 -5.22,-2.1 v 0 0 q -2.1,-2.1 -2.1,-5.22 v 0 -69.36 0 q 0,-3.12 2.1,-5.22 v 0 0 q 2.1,-2.1 5.22,-2.1 z m 28.08,14.16 v 0 H 88.06 l 1.56,-1.92 v 21.72 l -1.44,-1.08 h 21.6 v 0 q 3.48,0 6.24,-2.28 v 0 0 q 2.76,-2.28 2.76,-6.6 v 0 0 q 0,-5.16 -2.58,-7.5 v 0 0 q -2.58,-2.34 -6.78,-2.34 z m 0.96,32.88 v 0 H 88.54 l 1.08,-0.96 v 25.32 l -1.2,-1.2 h 22.8 v 0 q 5.52,0 8.76,-2.94 v 0 0 q 3.24,-2.94 3.24,-8.82 v 0 0 q 0,-5.4 -2.16,-7.8 v 0 0 q -2.16,-2.4 -5.16,-3 v 0 0 q -3,-0.6 -5.52,-0.6 z M 239.9,198 v 0 0 q 0,9 -3,16.8 v 0 0 q -3,7.8 -8.46,13.74 v 0 0 q -5.46,5.94 -12.96,9.3 v 0 0 q -7.5,3.36 -16.38,3.36 v 0 0 q -8.88,0 -16.32,-3.36 v 0 0 q -7.44,-3.36 -12.9,-9.3 v 0 0 q -5.46,-5.94 -8.46,-13.74 v 0 0 q -3,-7.8 -3,-16.8 v 0 0 q 0,-9 3,-16.8 v 0 0 q 3,-7.8 8.46,-13.74 v 0 0 q 5.46,-5.94 12.9,-9.3 v 0 0 q 7.44,-3.36 16.32,-3.36 v 0 0 q 8.88,0 16.38,3.36 v 0 0 q 7.5,3.36 12.96,9.3 v 0 0 q 5.46,5.94 8.46,13.74 v 0 0 q 3,7.8 3,16.8 z m -15.6,0 v 0 0 q 0,-8.04 -3.24,-14.58 v 0 0 q -3.24,-6.54 -8.88,-10.38 v 0 0 q -5.64,-3.84 -13.08,-3.84 v 0 0 q -7.44,0 -13.08,3.84 v 0 0 q -5.64,3.84 -8.82,10.32 v 0 0 q -3.18,6.48 -3.18,14.64 v 0 0 q 0,8.04 3.18,14.58 v 0 0 q 3.18,6.54 8.82,10.38 v 0 0 q 5.64,3.84 13.08,3.84 v 0 0 q 7.44,0 13.08,-3.84 v 0 0 q 5.64,-3.84 8.88,-10.38 v 0 0 q 3.24,-6.54 3.24,-14.58 z m 89.8,-42.36 v 0 0 q 2.76,0 4.98,2.1 v 0 0 q 2.22,2.1 2.22,5.34 v 0 0 q 0,1.08 -0.3,2.22 v 0 0 q -0.3,1.14 -1.02,2.22 v 0 l -27.24,39 2.16,-8.28 v 34.44 0 q 0,3.12 -2.1,5.22 v 0 0 q -2.1,2.1 -4.86,2.1 v 0 0 q -3,0 -5.1,-2.1 v 0 0 q -2.1,-2.1 -2.1,-5.22 v 0 -33.48 l 0.96,3.84 -25.92,-34.44 v 0 q -1.2,-1.56 -1.68,-3 v 0 0 q -0.48,-1.44 -0.48,-2.64 v 0 0 q 0,-3.24 2.52,-5.28 v 0 0 q 2.52,-2.04 5.16,-2.04 v 0 0 q 3.36,0 5.88,3.36 v 0 l 23.04,31.8 -3.36,-0.48 21.24,-31.08 v 0 q 2.52,-3.6 6,-3.6 z M 55.58,120 v 0 0 q -3.36,0 -5.52,-2.1 v 0 0 q -2.16,-2.1 -2.16,-5.22 v 0 -69.6 h 15.6 v 69.6 0 q 0,3.12 -2.22,5.22 v 0 0 q -2.22,2.1 -5.7,2.1 z M 82.34,49.8 H 29.06 v 0 q -3.12,0 -5.22,-1.92 v 0 0 q -2.1,-1.92 -2.1,-5.04 v 0 0 q 0,-3.12 2.1,-4.98 v 0 0 Q 25.94,36 29.06,36 v 0 h 53.28 v 0 q 3.12,0 5.22,1.92 v 0 0 q 2.1,1.92 2.1,5.04 v 0 0 q 0,3.12 -2.1,4.98 v 0 0 q -2.1,1.86 -5.22,1.86 z M 119.58,36 v 0 h 40.2 v 0 q 3.12,0 5.22,1.98 v 0 0 q 2.1,1.98 2.1,5.1 v 0 0 q 0,3 -2.1,4.86 v 0 0 q -2.1,1.86 -5.22,1.86 v 0 h -33.6 l 1.08,-2.04 v 23.4 L 126.3,70.2 h 28.08 v 0 q 3.12,0 5.22,1.98 v 0 0 q 2.1,1.98 2.1,5.1 v 0 0 q 0,3 -2.1,4.86 v 0 0 Q 157.5,84 154.38,84 v 0 h -27.72 l 0.6,-0.96 v 24.24 l -0.96,-1.08 h 33.48 v 0 q 3.12,0 5.22,2.1 v 0 0 q 2.1,2.1 2.1,4.86 v 0 0 q 0,3 -2.1,4.92 v 0 0 q -2.1,1.92 -5.22,1.92 v 0 h -40.2 v 0 q -3.12,0 -5.22,-2.1 v 0 0 q -2.1,-2.1 -2.1,-5.22 v 0 -69.36 0 q 0,-3.12 2.1,-5.22 v 0 0 q 2.1,-2.1 5.22,-2.1 z m 98.68,19.56 3.48,-0.72 -25.92,60.96 v 0 q -0.84,2.28 -2.58,3.54 v 0 0 q -1.74,1.26 -3.78,1.26 v 0 0 q -3.24,0 -4.8,-1.8 v 0 0 q -1.56,-1.8 -1.56,-4.44 v 0 0 q 0,-1.08 0.36,-2.28 v 0 l 29.88,-71.76 v 0 q 0.96,-2.4 2.94,-3.72 v 0 0 q 1.98,-1.32 4.26,-1.08 v 0 0 q 2.16,0 4.02,1.26 v 0 0 q 1.86,1.26 2.7,3.54 v 0 l 29.52,70.32 v 0 q 0.6,1.56 0.6,2.88 v 0 0 q 0,3.24 -2.1,5.16 v 0 0 q -2.1,1.92 -4.62,1.92 v 0 0 q -2.16,0 -3.9,-1.32 v 0 0 q -1.74,-1.32 -2.7,-3.6 v 0 z m 22.56,45.6 h -41.28 l 6.6,-13.8 h 32.4 z m 44.32,-65.28 v 0 0 q 1.68,0 3.54,0.9 v 0 0 q 1.86,0.9 2.82,2.34 v 0 l 29.16,44.88 -6,-0.24 29.88,-44.64 v 0 q 2.28,-3.24 5.88,-3.24 v 0 0 q 2.88,0 5.16,2.04 v 0 0 q 2.28,2.04 2.28,5.28 v 0 69.48 0 q 0,3.12 -2.04,5.22 v 0 0 q -2.04,2.1 -5.4,2.1 v 0 0 q -3.36,0 -5.46,-2.1 v 0 0 q -2.1,-2.1 -2.1,-5.22 v 0 -56.52 l 4.68,1.08 -24.48,37.32 v 0 q -1.08,1.32 -2.7,2.28 v 0 0 q -1.62,0.96 -3.3,0.84 v 0 0 q -1.56,0.12 -3.18,-0.84 v 0 0 q -1.62,-0.96 -2.7,-2.28 v 0 l -22.92,-36.24 3.12,-6.36 v 60.72 0 q 0,3.12 -1.92,5.22 v 0 0 q -1.92,2.1 -5.04,2.1 v 0 0 q -3,0 -4.92,-2.1 v 0 0 q -1.92,-2.1 -1.92,-5.22 v 0 -69.48 0 q 0,-3 2.22,-5.16 v 0 0 q 2.22,-2.16 5.34,-2.16 z"
       fill="none"
       mask="url(#_mask_TMeOxiJdRAiabbQCPZ3EvfqM7JQoWUA0)"
       stroke-width="14"
       stroke="#668fff"
       stroke-linejoin="miter"
       stroke-linecap="square"
       stroke-miterlimit="3"
       id="path58"
       style="isolation:isolate" />
    <path
       d="m 81.34,156 h 30.24 v 0 q 11.52,0 17.16,5.4 v 0 0 q 5.64,5.4 5.64,15.96 v 0 0 q 0,5.64 -2.76,9.9 v 0 0 q -2.76,4.26 -8.16,6.6 v 0 0 q -5.4,2.34 -13.32,2.34 v 0 l 0.48,-5.4 v 0 q 3.72,0 8.52,1.02 v 0 0 q 4.8,1.02 9.3,3.6 v 0 0 q 4.5,2.58 7.44,7.2 v 0 0 q 2.94,4.62 2.94,11.82 v 0 0 q 0,7.92 -2.58,12.96 v 0 0 q -2.58,5.04 -6.78,7.8 v 0 0 q -4.2,2.76 -9,3.78 v 0 0 q -4.8,1.02 -9.24,1.02 v 0 H 81.34 v 0 q -3.12,0 -5.22,-2.1 v 0 0 q -2.1,-2.1 -2.1,-5.22 v 0 -69.36 0 q 0,-3.12 2.1,-5.22 v 0 0 q 2.1,-2.1 5.22,-2.1 z m 28.08,14.16 v 0 H 88.06 l 1.56,-1.92 v 21.72 l -1.44,-1.08 h 21.6 v 0 q 3.48,0 6.24,-2.28 v 0 0 q 2.76,-2.28 2.76,-6.6 v 0 0 q 0,-5.16 -2.58,-7.5 v 0 0 q -2.58,-2.34 -6.78,-2.34 z m 0.96,32.88 v 0 H 88.54 l 1.08,-0.96 v 25.32 l -1.2,-1.2 h 22.8 v 0 q 5.52,0 8.76,-2.94 v 0 0 q 3.24,-2.94 3.24,-8.82 v 0 0 q 0,-5.4 -2.16,-7.8 v 0 0 q -2.16,-2.4 -5.16,-3 v 0 0 q -3,-0.6 -5.52,-0.6 z M 239.9,198 v 0 0 q 0,9 -3,16.8 v 0 0 q -3,7.8 -8.46,13.74 v 0 0 q -5.46,5.94 -12.96,9.3 v 0 0 q -7.5,3.36 -16.38,3.36 v 0 0 q -8.88,0 -16.32,-3.36 v 0 0 q -7.44,-3.36 -12.9,-9.3 v 0 0 q -5.46,-5.94 -8.46,-13.74 v 0 0 q -3,-7.8 -3,-16.8 v 0 0 q 0,-9 3,-16.8 v 0 0 q 3,-7.8 8.46,-13.74 v 0 0 q 5.46,-5.94 12.9,-9.3 v 0 0 q 7.44,-3.36 16.32,-3.36 v 0 0 q 8.88,0 16.38,3.36 v 0 0 q 7.5,3.36 12.96,9.3 v 0 0 q 5.46,5.94 8.46,13.74 v 0 0 q 3,7.8 3,16.8 z m -15.6,0 v 0 0 q 0,-8.04 -3.24,-14.58 v 0 0 q -3.24,-6.54 -8.88,-10.38 v 0 0 q -5.64,-3.84 -13.08,-3.84 v 0 0 q -7.44,0 -13.08,3.84 v 0 0 q -5.64,3.84 -8.82,10.32 v 0 0 q -3.18,6.48 -3.18,14.64 v 0 0 q 0,8.04 3.18,14.58 v 0 0 q 3.18,6.54 8.82,10.38 v 0 0 q 5.64,3.84 13.08,3.84 v 0 0 q 7.44,0 13.08,-3.84 v 0 0 q 5.64,-3.84 8.88,-10.38 v 0 0 q 3.24,-6.54 3.24,-14.58 z m 89.8,-42.36 v 0 0 q 2.76,0 4.98,2.1 v 0 0 q 2.22,2.1 2.22,5.34 v 0 0 q 0,1.08 -0.3,2.22 v 0 0 q -0.3,1.14 -1.02,2.22 v 0 l -27.24,39 2.16,-8.28 v 34.44 0 q 0,3.12 -2.1,5.22 v 0 0 q -2.1,2.1 -4.86,2.1 v 0 0 q -3,0 -5.1,-2.1 v 0 0 q -2.1,-2.1 -2.1,-5.22 v 0 -33.48 l 0.96,3.84 -25.92,-34.44 v 0 q -1.2,-1.56 -1.68,-3 v 0 0 q -0.48,-1.44 -0.48,-2.64 v 0 0 q 0,-3.24 2.52,-5.28 v 0 0 q 2.52,-2.04 5.16,-2.04 v 0 0 q 3.36,0 5.88,3.36 v 0 l 23.04,31.8 -3.36,-0.48 21.24,-31.08 v 0 q 2.52,-3.6 6,-3.6 z M 55.58,120 v 0 0 q -3.36,0 -5.52,-2.1 v 0 0 q -2.16,-2.1 -2.16,-5.22 v 0 -69.6 h 15.6 v 69.6 0 q 0,3.12 -2.22,5.22 v 0 0 q -2.22,2.1 -5.7,2.1 z M 82.34,49.8 H 29.06 v 0 q -3.12,0 -5.22,-1.92 v 0 0 q -2.1,-1.92 -2.1,-5.04 v 0 0 q 0,-3.12 2.1,-4.98 v 0 0 Q 25.94,36 29.06,36 v 0 h 53.28 v 0 q 3.12,0 5.22,1.92 v 0 0 q 2.1,1.92 2.1,5.04 v 0 0 q 0,3.12 -2.1,4.98 v 0 0 q -2.1,1.86 -5.22,1.86 z M 119.58,36 v 0 h 40.2 v 0 q 3.12,0 5.22,1.98 v 0 0 q 2.1,1.98 2.1,5.1 v 0 0 q 0,3 -2.1,4.86 v 0 0 q -2.1,1.86 -5.22,1.86 v 0 h -33.6 l 1.08,-2.04 v 23.4 L 126.3,70.2 h 28.08 v 0 q 3.12,0 5.22,1.98 v 0 0 q 2.1,1.98 2.1,5.1 v 0 0 q 0,3 -2.1,4.86 v 0 0 Q 157.5,84 154.38,84 v 0 h -27.72 l 0.6,-0.96 v 24.24 l -0.96,-1.08 h 33.48 v 0 q 3.12,0 5.22,2.1 v 0 0 q 2.1,2.1 2.1,4.86 v 0 0 q 0,3 -2.1,4.92 v 0 0 q -2.1,1.92 -5.22,1.92 v 0 h -40.2 v 0 q -3.12,0 -5.22,-2.1 v 0 0 q -2.1,-2.1 -2.1,-5.22 v 0 -69.36 0 q 0,-3.12 2.1,-5.22 v 0 0 q 2.1,-2.1 5.22,-2.1 z m 98.68,19.56 3.48,-0.72 -25.92,60.96 v 0 q -0.84,2.28 -2.58,3.54 v 0 0 q -1.74,1.26 -3.78,1.26 v 0 0 q -3.24,0 -4.8,-1.8 v 0 0 q -1.56,-1.8 -1.56,-4.44 v 0 0 q 0,-1.08 0.36,-2.28 v 0 l 29.88,-71.76 v 0 q 0.96,-2.4 2.94,-3.72 v 0 0 q 1.98,-1.32 4.26,-1.08 v 0 0 q 2.16,0 4.02,1.26 v 0 0 q 1.86,1.26 2.7,3.54 v 0 l 29.52,70.32 v 0 q 0.6,1.56 0.6,2.88 v 0 0 q 0,3.24 -2.1,5.16 v 0 0 q -2.1,1.92 -4.62,1.92 v 0 0 q -2.16,0 -3.9,-1.32 v 0 0 q -1.74,-1.32 -2.7,-3.6 v 0 z m 22.56,45.6 h -41.28 l 6.6,-13.8 h 32.4 z m 44.32,-65.28 v 0 0 q 1.68,0 3.54,0.9 v 0 0 q 1.86,0.9 2.82,2.34 v 0 l 29.16,44.88 -6,-0.24 29.88,-44.64 v 0 q 2.28,-3.24 5.88,-3.24 v 0 0 q 2.88,0 5.16,2.04 v 0 0 q 2.28,2.04 2.28,5.28 v 0 69.48 0 q 0,3.12 -2.04,5.22 v 0 0 q -2.04,2.1 -5.4,2.1 v 0 0 q -3.36,0 -5.46,-2.1 v 0 0 q -2.1,-2.1 -2.1,-5.22 v 0 -56.52 l 4.68,1.08 -24.48,37.32 v 0 q -1.08,1.32 -2.7,2.28 v 0 0 q -1.62,0.96 -3.3,0.84 v 0 0 q -1.56,0.12 -3.18,-0.84 v 0 0 q -1.62,-0.96 -2.7,-2.28 v 0 l -22.92,-36.24 3.12,-6.36 v 60.72 0 q 0,3.12 -1.92,5.22 v 0 0 q -1.92,2.1 -5.04,2.1 v 0 0 q -3,0 -4.92,-2.1 v 0 0 q -1.92,-2.1 -1.92,-5.22 v 0 -69.48 0 q 0,-3 2.22,-5.16 v 0 0 q 2.22,-2.16 5.34,-2.16 z"
       fill="none"
       mask="url(#_mask_tTM30fCZTC3QTRLHt59diNujpgu5qRz8)"
       stroke-width="6"
       stroke="#ffffff"
       stroke-linejoin="miter"
       stroke-linecap="square"
       stroke-miterlimit="3"
       id="path65"
       style="isolation:isolate" />
  </g>
</svg>
