<?xml version="1.0" encoding="UTF-8" standalone="no"?>
<!-- Generator: Gravit.io -->

<svg
   style="isolation:isolate"
   viewBox="0 0 350.12 219.70813"
   width="350.12pt"
   height="219.70813pt"
   version="1.1"
   id="svg322"
   sodipodi:docname="team-girl-text.svg"
   inkscape:version="1.1 (c68e22c387, 2021-05-23)"
   xmlns:inkscape="http://www.inkscape.org/namespaces/inkscape"
   xmlns:sodipodi="http://sodipodi.sourceforge.net/DTD/sodipodi-0.dtd"
   xmlns="http://www.w3.org/2000/svg"
   xmlns:svg="http://www.w3.org/2000/svg">
  <sodipodi:namedview
     id="namedview324"
     pagecolor="#ffffff"
     bordercolor="#666666"
     borderopacity="1.0"
     inkscape:pageshadow="2"
     inkscape:pageopacity="0.0"
     inkscape:pagecheckerboard="0"
     inkscape:document-units="pt"
     showgrid="false"
     inkscape:zoom="2.0503876"
     inkscape:cx="238.24764"
     inkscape:cy="140.7051"
     inkscape:window-width="1920"
     inkscape:window-height="1027"
     inkscape:window-x="-8"
     inkscape:window-y="-8"
     inkscape:window-maximized="1"
     inkscape:current-layer="svg322" />
  <defs
     id="defs296">
    <clipPath
       id="_clipPath_q1orv1BcawpqjXgyKFhQh565O7xiFccW">
      <rect
         width="387"
         height="268"
         id="rect293"
         x="0"
         y="0" />
    </clipPath>
  </defs>
  <g
     clip-path="url(#_clipPath_q1orv1BcawpqjXgyKFhQh565O7xiFccW)"
     id="g320"
     transform="translate(-14.74,-28.491876)">
    <path
       d="m 92.9,241.2 v 0 0 q -9.12,0 -17.04,-3.36 v 0 0 q -7.92,-3.36 -13.92,-9.3 v 0 0 q -6,-5.94 -9.42,-13.74 v 0 0 Q 49.1,207 49.1,198 v 0 0 q 0,-9 3.42,-16.8 v 0 0 q 3.42,-7.8 9.42,-13.74 v 0 0 q 6,-5.94 13.92,-9.3 v 0 0 q 7.92,-3.36 17.04,-3.36 v 0 0 q 5.64,0 10.92,1.2 v 0 0 q 5.28,1.2 9.72,3.6 v 0 0 q 1.8,0.96 2.7,2.58 v 0 0 q 0.9,1.62 0.9,3.3 v 0 0 q 0,2.88 -1.92,5.16 v 0 0 q -1.92,2.28 -4.92,2.28 v 0 0 q -0.96,0 -1.98,-0.24 v 0 0 q -1.02,-0.24 -1.98,-0.72 v 0 0 q -3,-1.32 -6.36,-2.04 v 0 0 Q 96.62,169.2 92.9,169.2 v 0 0 q -7.8,0 -14.22,3.9 v 0 0 q -6.42,3.9 -10.2,10.44 v 0 0 Q 64.7,190.08 64.7,198 v 0 0 q 0,7.8 3.78,14.4 v 0 0 q 3.78,6.6 10.2,10.5 v 0 0 q 6.42,3.9 14.22,3.9 v 0 0 q 3.6,0 7.92,-0.72 v 0 0 q 4.32,-0.72 7.08,-1.92 v 0 l -1.08,3.6 v -20.52 l 2.04,1.8 H 95.54 v 0 q -3.12,0 -5.22,-2.04 v 0 0 q -2.1,-2.04 -2.1,-5.16 v 0 0 q 0,-3.12 2.1,-5.16 v 0 0 q 2.1,-2.04 5.22,-2.04 v 0 h 19.68 v 0 q 3.12,0 5.16,2.1 v 0 0 q 2.04,2.1 2.04,5.22 v 0 25.44 0 q 0,2.4 -1.14,3.96 v 0 0 q -1.14,1.56 -2.58,2.52 v 0 0 q -5.52,3.36 -12.06,5.34 v 0 0 q -6.54,1.98 -13.74,1.98 z m 68.92,-77.88 v 69.36 0 q 0,3.12 -2.28,5.22 v 0 0 q -2.28,2.1 -5.28,2.1 v 0 0 q -3.36,0 -5.4,-2.1 v 0 0 q -2.04,-2.1 -2.04,-5.22 v 0 -69.36 0 q 0,-3.12 2.16,-5.22 v 0 0 q 2.16,-2.1 5.52,-2.1 v 0 0 q 2.88,0 5.1,2.1 v 0 0 q 2.22,2.1 2.22,5.22 z M 198.46,240 v 0 0 q -3.36,0 -6,-2.1 v 0 0 q -2.64,-2.1 -2.64,-5.22 v 0 -69.36 0 q 0,-3.12 2.1,-5.22 v 0 0 q 2.1,-2.1 5.22,-2.1 v 0 h 34.56 v 0 q 6.24,0 11.7,3.3 v 0 0 q 5.46,3.3 8.82,9.12 v 0 0 q 3.36,5.82 3.36,13.38 v 0 0 q 0,4.56 -1.86,8.88 v 0 0 q -1.86,4.32 -5.04,7.8 v 0 0 q -3.18,3.48 -7.14,5.4 v 0 l 0.12,-2.76 v 0 q 3.36,1.8 5.58,4.26 v 0 0 q 2.22,2.46 3.48,5.28 v 0 0 q 1.26,2.82 1.5,6.06 v 0 0 q 0.48,3 0.66,5.28 v 0 0 q 0.18,2.28 0.72,3.84 v 0 0 q 0.54,1.56 2.1,2.4 v 0 0 q 2.64,1.56 3.3,4.5 v 0 0 q 0.66,2.94 -1.38,5.22 v 0 0 q -1.32,1.56 -3.36,1.98 v 0 0 q -2.04,0.42 -4.08,0 v 0 0 q -2.04,-0.42 -3.36,-1.14 v 0 0 q -2.04,-1.2 -4.08,-3.54 v 0 0 q -2.04,-2.34 -3.3,-6.3 v 0 0 q -1.26,-3.96 -1.26,-10.2 v 0 0 q 0,-2.04 -0.72,-3.78 v 0 0 q -0.72,-1.74 -2.04,-3 v 0 0 q -1.32,-1.26 -3.36,-1.92 v 0 0 q -2.04,-0.66 -4.8,-0.66 v 0 h -24.24 l 1.8,-2.76 v 26.04 0 q 0,3.12 -1.68,5.22 v 0 0 q -1.68,2.1 -4.68,2.1 z m 6.36,-40.08 -1.68,-2.88 h 27.96 v 0 q 2.16,0 4.2,-1.98 v 0 0 q 2.04,-1.98 3.36,-5.4 v 0 0 q 1.32,-3.42 1.32,-7.5 v 0 0 q 0,-5.28 -2.82,-8.82 v 0 0 q -2.82,-3.54 -6.06,-3.54 v 0 h -27.72 l 1.44,-3.84 z m 89.8,26.04 h 33.96 v 0 q 3.12,0 5.22,1.98 v 0 0 q 2.1,1.98 2.1,5.1 v 0 0 q 0,3 -2.1,4.98 v 0 0 q -2.1,1.98 -5.22,1.98 v 0 h -39 v 0 q -3.12,0 -5.22,-2.1 v 0 0 q -2.1,-2.1 -2.1,-5.22 v 0 -69.36 0 q 0,-3.12 2.16,-5.22 v 0 0 q 2.16,-2.1 5.52,-2.1 v 0 0 q 2.88,0 5.1,2.1 v 0 0 q 2.22,2.1 2.22,5.22 v 0 V 228 Z M 55.58,120 v 0 0 q -3.36,0 -5.52,-2.1 v 0 0 q -2.16,-2.1 -2.16,-5.22 v 0 -69.6 h 15.6 v 69.6 0 q 0,3.12 -2.22,5.22 v 0 0 q -2.22,2.1 -5.7,2.1 z M 82.34,49.8 H 29.06 v 0 q -3.12,0 -5.22,-1.92 v 0 0 q -2.1,-1.92 -2.1,-5.04 v 0 0 q 0,-3.12 2.1,-4.98 v 0 0 Q 25.94,36 29.06,36 v 0 h 53.28 v 0 q 3.12,0 5.22,1.92 v 0 0 q 2.1,1.92 2.1,5.04 v 0 0 q 0,3.12 -2.1,4.98 v 0 0 q -2.1,1.86 -5.22,1.86 z M 119.58,36 v 0 h 40.2 v 0 q 3.12,0 5.22,1.98 v 0 0 q 2.1,1.98 2.1,5.1 v 0 0 q 0,3 -2.1,4.86 v 0 0 q -2.1,1.86 -5.22,1.86 v 0 h -33.6 l 1.08,-2.04 v 23.4 L 126.3,70.2 h 28.08 v 0 q 3.12,0 5.22,1.98 v 0 0 q 2.1,1.98 2.1,5.1 v 0 0 q 0,3 -2.1,4.86 v 0 0 Q 157.5,84 154.38,84 v 0 h -27.72 l 0.6,-0.96 v 24.24 l -0.96,-1.08 h 33.48 v 0 q 3.12,0 5.22,2.1 v 0 0 q 2.1,2.1 2.1,4.86 v 0 0 q 0,3 -2.1,4.92 v 0 0 q -2.1,1.92 -5.22,1.92 v 0 h -40.2 v 0 q -3.12,0 -5.22,-2.1 v 0 0 q -2.1,-2.1 -2.1,-5.22 v 0 -69.36 0 q 0,-3.12 2.1,-5.22 v 0 0 q 2.1,-2.1 5.22,-2.1 z m 98.68,19.56 3.48,-0.72 -25.92,60.96 v 0 q -0.84,2.28 -2.58,3.54 v 0 0 q -1.74,1.26 -3.78,1.26 v 0 0 q -3.24,0 -4.8,-1.8 v 0 0 q -1.56,-1.8 -1.56,-4.44 v 0 0 q 0,-1.08 0.36,-2.28 v 0 l 29.88,-71.76 v 0 q 0.96,-2.4 2.94,-3.72 v 0 0 q 1.98,-1.32 4.26,-1.08 v 0 0 q 2.16,0 4.02,1.26 v 0 0 q 1.86,1.26 2.7,3.54 v 0 l 29.52,70.32 v 0 q 0.6,1.56 0.6,2.88 v 0 0 q 0,3.24 -2.1,5.16 v 0 0 q -2.1,1.92 -4.62,1.92 v 0 0 q -2.16,0 -3.9,-1.32 v 0 0 q -1.74,-1.32 -2.7,-3.6 v 0 z m 22.56,45.6 h -41.28 l 6.6,-13.8 h 32.4 z m 44.32,-65.28 v 0 0 q 1.68,0 3.54,0.9 v 0 0 q 1.86,0.9 2.82,2.34 v 0 l 29.16,44.88 -6,-0.24 29.88,-44.64 v 0 q 2.28,-3.24 5.88,-3.24 v 0 0 q 2.88,0 5.16,2.04 v 0 0 q 2.28,2.04 2.28,5.28 v 0 69.48 0 q 0,3.12 -2.04,5.22 v 0 0 q -2.04,2.1 -5.4,2.1 v 0 0 q -3.36,0 -5.46,-2.1 v 0 0 q -2.1,-2.1 -2.1,-5.22 v 0 -56.52 l 4.68,1.08 -24.48,37.32 v 0 q -1.08,1.32 -2.7,2.28 v 0 0 q -1.62,0.96 -3.3,0.84 v 0 0 q -1.56,0.12 -3.18,-0.84 v 0 0 q -1.62,-0.96 -2.7,-2.28 v 0 l -22.92,-36.24 3.12,-6.36 v 60.72 0 q 0,3.12 -1.92,5.22 v 0 0 q -1.92,2.1 -5.04,2.1 v 0 0 q -3,0 -4.92,-2.1 v 0 0 q -1.92,-2.1 -1.92,-5.22 v 0 -69.48 0 q 0,-3 2.22,-5.16 v 0 0 q 2.22,-2.16 5.34,-2.16 z"
       fill="none"
       id="path298" />
    <path
       d="m 92.9,241.2 v 0 0 q -9.12,0 -17.04,-3.36 v 0 0 q -7.92,-3.36 -13.92,-9.3 v 0 0 q -6,-5.94 -9.42,-13.74 v 0 0 Q 49.1,207 49.1,198 v 0 0 q 0,-9 3.42,-16.8 v 0 0 q 3.42,-7.8 9.42,-13.74 v 0 0 q 6,-5.94 13.92,-9.3 v 0 0 q 7.92,-3.36 17.04,-3.36 v 0 0 q 5.64,0 10.92,1.2 v 0 0 q 5.28,1.2 9.72,3.6 v 0 0 q 1.8,0.96 2.7,2.58 v 0 0 q 0.9,1.62 0.9,3.3 v 0 0 q 0,2.88 -1.92,5.16 v 0 0 q -1.92,2.28 -4.92,2.28 v 0 0 q -0.96,0 -1.98,-0.24 v 0 0 q -1.02,-0.24 -1.98,-0.72 v 0 0 q -3,-1.32 -6.36,-2.04 v 0 0 Q 96.62,169.2 92.9,169.2 v 0 0 q -7.8,0 -14.22,3.9 v 0 0 q -6.42,3.9 -10.2,10.44 v 0 0 Q 64.7,190.08 64.7,198 v 0 0 q 0,7.8 3.78,14.4 v 0 0 q 3.78,6.6 10.2,10.5 v 0 0 q 6.42,3.9 14.22,3.9 v 0 0 q 3.6,0 7.92,-0.72 v 0 0 q 4.32,-0.72 7.08,-1.92 v 0 l -1.08,3.6 v -20.52 l 2.04,1.8 H 95.54 v 0 q -3.12,0 -5.22,-2.04 v 0 0 q -2.1,-2.04 -2.1,-5.16 v 0 0 q 0,-3.12 2.1,-5.16 v 0 0 q 2.1,-2.04 5.22,-2.04 v 0 h 19.68 v 0 q 3.12,0 5.16,2.1 v 0 0 q 2.04,2.1 2.04,5.22 v 0 25.44 0 q 0,2.4 -1.14,3.96 v 0 0 q -1.14,1.56 -2.58,2.52 v 0 0 q -5.52,3.36 -12.06,5.34 v 0 0 q -6.54,1.98 -13.74,1.98 z m 68.92,-77.88 v 69.36 0 q 0,3.12 -2.28,5.22 v 0 0 q -2.28,2.1 -5.28,2.1 v 0 0 q -3.36,0 -5.4,-2.1 v 0 0 q -2.04,-2.1 -2.04,-5.22 v 0 -69.36 0 q 0,-3.12 2.16,-5.22 v 0 0 q 2.16,-2.1 5.52,-2.1 v 0 0 q 2.88,0 5.1,2.1 v 0 0 q 2.22,2.1 2.22,5.22 z M 198.46,240 v 0 0 q -3.36,0 -6,-2.1 v 0 0 q -2.64,-2.1 -2.64,-5.22 v 0 -69.36 0 q 0,-3.12 2.1,-5.22 v 0 0 q 2.1,-2.1 5.22,-2.1 v 0 h 34.56 v 0 q 6.24,0 11.7,3.3 v 0 0 q 5.46,3.3 8.82,9.12 v 0 0 q 3.36,5.82 3.36,13.38 v 0 0 q 0,4.56 -1.86,8.88 v 0 0 q -1.86,4.32 -5.04,7.8 v 0 0 q -3.18,3.48 -7.14,5.4 v 0 l 0.12,-2.76 v 0 q 3.36,1.8 5.58,4.26 v 0 0 q 2.22,2.46 3.48,5.28 v 0 0 q 1.26,2.82 1.5,6.06 v 0 0 q 0.48,3 0.66,5.28 v 0 0 q 0.18,2.28 0.72,3.84 v 0 0 q 0.54,1.56 2.1,2.4 v 0 0 q 2.64,1.56 3.3,4.5 v 0 0 q 0.66,2.94 -1.38,5.22 v 0 0 q -1.32,1.56 -3.36,1.98 v 0 0 q -2.04,0.42 -4.08,0 v 0 0 q -2.04,-0.42 -3.36,-1.14 v 0 0 q -2.04,-1.2 -4.08,-3.54 v 0 0 q -2.04,-2.34 -3.3,-6.3 v 0 0 q -1.26,-3.96 -1.26,-10.2 v 0 0 q 0,-2.04 -0.72,-3.78 v 0 0 q -0.72,-1.74 -2.04,-3 v 0 0 q -1.32,-1.26 -3.36,-1.92 v 0 0 q -2.04,-0.66 -4.8,-0.66 v 0 h -24.24 l 1.8,-2.76 v 26.04 0 q 0,3.12 -1.68,5.22 v 0 0 q -1.68,2.1 -4.68,2.1 z m 6.36,-40.08 -1.68,-2.88 h 27.96 v 0 q 2.16,0 4.2,-1.98 v 0 0 q 2.04,-1.98 3.36,-5.4 v 0 0 q 1.32,-3.42 1.32,-7.5 v 0 0 q 0,-5.28 -2.82,-8.82 v 0 0 q -2.82,-3.54 -6.06,-3.54 v 0 h -27.72 l 1.44,-3.84 z m 89.8,26.04 h 33.96 v 0 q 3.12,0 5.22,1.98 v 0 0 q 2.1,1.98 2.1,5.1 v 0 0 q 0,3 -2.1,4.98 v 0 0 q -2.1,1.98 -5.22,1.98 v 0 h -39 v 0 q -3.12,0 -5.22,-2.1 v 0 0 q -2.1,-2.1 -2.1,-5.22 v 0 -69.36 0 q 0,-3.12 2.16,-5.22 v 0 0 q 2.16,-2.1 5.52,-2.1 v 0 0 q 2.88,0 5.1,2.1 v 0 0 q 2.22,2.1 2.22,5.22 v 0 V 228 Z M 55.58,120 v 0 0 q -3.36,0 -5.52,-2.1 v 0 0 q -2.16,-2.1 -2.16,-5.22 v 0 -69.6 h 15.6 v 69.6 0 q 0,3.12 -2.22,5.22 v 0 0 q -2.22,2.1 -5.7,2.1 z M 82.34,49.8 H 29.06 v 0 q -3.12,0 -5.22,-1.92 v 0 0 q -2.1,-1.92 -2.1,-5.04 v 0 0 q 0,-3.12 2.1,-4.98 v 0 0 Q 25.94,36 29.06,36 v 0 h 53.28 v 0 q 3.12,0 5.22,1.92 v 0 0 q 2.1,1.92 2.1,5.04 v 0 0 q 0,3.12 -2.1,4.98 v 0 0 q -2.1,1.86 -5.22,1.86 z M 119.58,36 v 0 h 40.2 v 0 q 3.12,0 5.22,1.98 v 0 0 q 2.1,1.98 2.1,5.1 v 0 0 q 0,3 -2.1,4.86 v 0 0 q -2.1,1.86 -5.22,1.86 v 0 h -33.6 l 1.08,-2.04 v 23.4 L 126.3,70.2 h 28.08 v 0 q 3.12,0 5.22,1.98 v 0 0 q 2.1,1.98 2.1,5.1 v 0 0 q 0,3 -2.1,4.86 v 0 0 Q 157.5,84 154.38,84 v 0 h -27.72 l 0.6,-0.96 v 24.24 l -0.96,-1.08 h 33.48 v 0 q 3.12,0 5.22,2.1 v 0 0 q 2.1,2.1 2.1,4.86 v 0 0 q 0,3 -2.1,4.92 v 0 0 q -2.1,1.92 -5.22,1.92 v 0 h -40.2 v 0 q -3.12,0 -5.22,-2.1 v 0 0 q -2.1,-2.1 -2.1,-5.22 v 0 -69.36 0 q 0,-3.12 2.1,-5.22 v 0 0 q 2.1,-2.1 5.22,-2.1 z m 98.68,19.56 3.48,-0.72 -25.92,60.96 v 0 q -0.84,2.28 -2.58,3.54 v 0 0 q -1.74,1.26 -3.78,1.26 v 0 0 q -3.24,0 -4.8,-1.8 v 0 0 q -1.56,-1.8 -1.56,-4.44 v 0 0 q 0,-1.08 0.36,-2.28 v 0 l 29.88,-71.76 v 0 q 0.96,-2.4 2.94,-3.72 v 0 0 q 1.98,-1.32 4.26,-1.08 v 0 0 q 2.16,0 4.02,1.26 v 0 0 q 1.86,1.26 2.7,3.54 v 0 l 29.52,70.32 v 0 q 0.6,1.56 0.6,2.88 v 0 0 q 0,3.24 -2.1,5.16 v 0 0 q -2.1,1.92 -4.62,1.92 v 0 0 q -2.16,0 -3.9,-1.32 v 0 0 q -1.74,-1.32 -2.7,-3.6 v 0 z m 22.56,45.6 h -41.28 l 6.6,-13.8 h 32.4 z m 44.32,-65.28 v 0 0 q 1.68,0 3.54,0.9 v 0 0 q 1.86,0.9 2.82,2.34 v 0 l 29.16,44.88 -6,-0.24 29.88,-44.64 v 0 q 2.28,-3.24 5.88,-3.24 v 0 0 q 2.88,0 5.16,2.04 v 0 0 q 2.28,2.04 2.28,5.28 v 0 69.48 0 q 0,3.12 -2.04,5.22 v 0 0 q -2.04,2.1 -5.4,2.1 v 0 0 q -3.36,0 -5.46,-2.1 v 0 0 q -2.1,-2.1 -2.1,-5.22 v 0 -56.52 l 4.68,1.08 -24.48,37.32 v 0 q -1.08,1.32 -2.7,2.28 v 0 0 q -1.62,0.96 -3.3,0.84 v 0 0 q -1.56,0.12 -3.18,-0.84 v 0 0 q -1.62,-0.96 -2.7,-2.28 v 0 l -22.92,-36.24 3.12,-6.36 v 60.72 0 q 0,3.12 -1.92,5.22 v 0 0 q -1.92,2.1 -5.04,2.1 v 0 0 q -3,0 -4.92,-2.1 v 0 0 q -1.92,-2.1 -1.92,-5.22 v 0 -69.48 0 q 0,-3 2.22,-5.16 v 0 0 q 2.22,-2.16 5.34,-2.16 z"
       fill="none"
       id="path300" />
    <path
       d="m 92.9,241.2 v 0 0 q -9.12,0 -17.04,-3.36 v 0 0 q -7.92,-3.36 -13.92,-9.3 v 0 0 q -6,-5.94 -9.42,-13.74 v 0 0 Q 49.1,207 49.1,198 v 0 0 q 0,-9 3.42,-16.8 v 0 0 q 3.42,-7.8 9.42,-13.74 v 0 0 q 6,-5.94 13.92,-9.3 v 0 0 q 7.92,-3.36 17.04,-3.36 v 0 0 q 5.64,0 10.92,1.2 v 0 0 q 5.28,1.2 9.72,3.6 v 0 0 q 1.8,0.96 2.7,2.58 v 0 0 q 0.9,1.62 0.9,3.3 v 0 0 q 0,2.88 -1.92,5.16 v 0 0 q -1.92,2.28 -4.92,2.28 v 0 0 q -0.96,0 -1.98,-0.24 v 0 0 q -1.02,-0.24 -1.98,-0.72 v 0 0 q -3,-1.32 -6.36,-2.04 v 0 0 Q 96.62,169.2 92.9,169.2 v 0 0 q -7.8,0 -14.22,3.9 v 0 0 q -6.42,3.9 -10.2,10.44 v 0 0 Q 64.7,190.08 64.7,198 v 0 0 q 0,7.8 3.78,14.4 v 0 0 q 3.78,6.6 10.2,10.5 v 0 0 q 6.42,3.9 14.22,3.9 v 0 0 q 3.6,0 7.92,-0.72 v 0 0 q 4.32,-0.72 7.08,-1.92 v 0 l -1.08,3.6 v -20.52 l 2.04,1.8 H 95.54 v 0 q -3.12,0 -5.22,-2.04 v 0 0 q -2.1,-2.04 -2.1,-5.16 v 0 0 q 0,-3.12 2.1,-5.16 v 0 0 q 2.1,-2.04 5.22,-2.04 v 0 h 19.68 v 0 q 3.12,0 5.16,2.1 v 0 0 q 2.04,2.1 2.04,5.22 v 0 25.44 0 q 0,2.4 -1.14,3.96 v 0 0 q -1.14,1.56 -2.58,2.52 v 0 0 q -5.52,3.36 -12.06,5.34 v 0 0 q -6.54,1.98 -13.74,1.98 z m 68.92,-77.88 v 69.36 0 q 0,3.12 -2.28,5.22 v 0 0 q -2.28,2.1 -5.28,2.1 v 0 0 q -3.36,0 -5.4,-2.1 v 0 0 q -2.04,-2.1 -2.04,-5.22 v 0 -69.36 0 q 0,-3.12 2.16,-5.22 v 0 0 q 2.16,-2.1 5.52,-2.1 v 0 0 q 2.88,0 5.1,2.1 v 0 0 q 2.22,2.1 2.22,5.22 z M 198.46,240 v 0 0 q -3.36,0 -6,-2.1 v 0 0 q -2.64,-2.1 -2.64,-5.22 v 0 -69.36 0 q 0,-3.12 2.1,-5.22 v 0 0 q 2.1,-2.1 5.22,-2.1 v 0 h 34.56 v 0 q 6.24,0 11.7,3.3 v 0 0 q 5.46,3.3 8.82,9.12 v 0 0 q 3.36,5.82 3.36,13.38 v 0 0 q 0,4.56 -1.86,8.88 v 0 0 q -1.86,4.32 -5.04,7.8 v 0 0 q -3.18,3.48 -7.14,5.4 v 0 l 0.12,-2.76 v 0 q 3.36,1.8 5.58,4.26 v 0 0 q 2.22,2.46 3.48,5.28 v 0 0 q 1.26,2.82 1.5,6.06 v 0 0 q 0.48,3 0.66,5.28 v 0 0 q 0.18,2.28 0.72,3.84 v 0 0 q 0.54,1.56 2.1,2.4 v 0 0 q 2.64,1.56 3.3,4.5 v 0 0 q 0.66,2.94 -1.38,5.22 v 0 0 q -1.32,1.56 -3.36,1.98 v 0 0 q -2.04,0.42 -4.08,0 v 0 0 q -2.04,-0.42 -3.36,-1.14 v 0 0 q -2.04,-1.2 -4.08,-3.54 v 0 0 q -2.04,-2.34 -3.3,-6.3 v 0 0 q -1.26,-3.96 -1.26,-10.2 v 0 0 q 0,-2.04 -0.72,-3.78 v 0 0 q -0.72,-1.74 -2.04,-3 v 0 0 q -1.32,-1.26 -3.36,-1.92 v 0 0 q -2.04,-0.66 -4.8,-0.66 v 0 h -24.24 l 1.8,-2.76 v 26.04 0 q 0,3.12 -1.68,5.22 v 0 0 q -1.68,2.1 -4.68,2.1 z m 6.36,-40.08 -1.68,-2.88 h 27.96 v 0 q 2.16,0 4.2,-1.98 v 0 0 q 2.04,-1.98 3.36,-5.4 v 0 0 q 1.32,-3.42 1.32,-7.5 v 0 0 q 0,-5.28 -2.82,-8.82 v 0 0 q -2.82,-3.54 -6.06,-3.54 v 0 h -27.72 l 1.44,-3.84 z m 89.8,26.04 h 33.96 v 0 q 3.12,0 5.22,1.98 v 0 0 q 2.1,1.98 2.1,5.1 v 0 0 q 0,3 -2.1,4.98 v 0 0 q -2.1,1.98 -5.22,1.98 v 0 h -39 v 0 q -3.12,0 -5.22,-2.1 v 0 0 q -2.1,-2.1 -2.1,-5.22 v 0 -69.36 0 q 0,-3.12 2.16,-5.22 v 0 0 q 2.16,-2.1 5.52,-2.1 v 0 0 q 2.88,0 5.1,2.1 v 0 0 q 2.22,2.1 2.22,5.22 v 0 V 228 Z M 55.58,120 v 0 0 q -3.36,0 -5.52,-2.1 v 0 0 q -2.16,-2.1 -2.16,-5.22 v 0 -69.6 h 15.6 v 69.6 0 q 0,3.12 -2.22,5.22 v 0 0 q -2.22,2.1 -5.7,2.1 z M 82.34,49.8 H 29.06 v 0 q -3.12,0 -5.22,-1.92 v 0 0 q -2.1,-1.92 -2.1,-5.04 v 0 0 q 0,-3.12 2.1,-4.98 v 0 0 Q 25.94,36 29.06,36 v 0 h 53.28 v 0 q 3.12,0 5.22,1.92 v 0 0 q 2.1,1.92 2.1,5.04 v 0 0 q 0,3.12 -2.1,4.98 v 0 0 q -2.1,1.86 -5.22,1.86 z M 119.58,36 v 0 h 40.2 v 0 q 3.12,0 5.22,1.98 v 0 0 q 2.1,1.98 2.1,5.1 v 0 0 q 0,3 -2.1,4.86 v 0 0 q -2.1,1.86 -5.22,1.86 v 0 h -33.6 l 1.08,-2.04 v 23.4 L 126.3,70.2 h 28.08 v 0 q 3.12,0 5.22,1.98 v 0 0 q 2.1,1.98 2.1,5.1 v 0 0 q 0,3 -2.1,4.86 v 0 0 Q 157.5,84 154.38,84 v 0 h -27.72 l 0.6,-0.96 v 24.24 l -0.96,-1.08 h 33.48 v 0 q 3.12,0 5.22,2.1 v 0 0 q 2.1,2.1 2.1,4.86 v 0 0 q 0,3 -2.1,4.92 v 0 0 q -2.1,1.92 -5.22,1.92 v 0 h -40.2 v 0 q -3.12,0 -5.22,-2.1 v 0 0 q -2.1,-2.1 -2.1,-5.22 v 0 -69.36 0 q 0,-3.12 2.1,-5.22 v 0 0 q 2.1,-2.1 5.22,-2.1 z m 98.68,19.56 3.48,-0.72 -25.92,60.96 v 0 q -0.84,2.28 -2.58,3.54 v 0 0 q -1.74,1.26 -3.78,1.26 v 0 0 q -3.24,0 -4.8,-1.8 v 0 0 q -1.56,-1.8 -1.56,-4.44 v 0 0 q 0,-1.08 0.36,-2.28 v 0 l 29.88,-71.76 v 0 q 0.96,-2.4 2.94,-3.72 v 0 0 q 1.98,-1.32 4.26,-1.08 v 0 0 q 2.16,0 4.02,1.26 v 0 0 q 1.86,1.26 2.7,3.54 v 0 l 29.52,70.32 v 0 q 0.6,1.56 0.6,2.88 v 0 0 q 0,3.24 -2.1,5.16 v 0 0 q -2.1,1.92 -4.62,1.92 v 0 0 q -2.16,0 -3.9,-1.32 v 0 0 q -1.74,-1.32 -2.7,-3.6 v 0 z m 22.56,45.6 h -41.28 l 6.6,-13.8 h 32.4 z m 44.32,-65.28 v 0 0 q 1.68,0 3.54,0.9 v 0 0 q 1.86,0.9 2.82,2.34 v 0 l 29.16,44.88 -6,-0.24 29.88,-44.64 v 0 q 2.28,-3.24 5.88,-3.24 v 0 0 q 2.88,0 5.16,2.04 v 0 0 q 2.28,2.04 2.28,5.28 v 0 69.48 0 q 0,3.12 -2.04,5.22 v 0 0 q -2.04,2.1 -5.4,2.1 v 0 0 q -3.36,0 -5.46,-2.1 v 0 0 q -2.1,-2.1 -2.1,-5.22 v 0 -56.52 l 4.68,1.08 -24.48,37.32 v 0 q -1.08,1.32 -2.7,2.28 v 0 0 q -1.62,0.96 -3.3,0.84 v 0 0 q -1.56,0.12 -3.18,-0.84 v 0 0 q -1.62,-0.96 -2.7,-2.28 v 0 l -22.92,-36.24 3.12,-6.36 v 60.72 0 q 0,3.12 -1.92,5.22 v 0 0 q -1.92,2.1 -5.04,2.1 v 0 0 q -3,0 -4.92,-2.1 v 0 0 q -1.92,-2.1 -1.92,-5.22 v 0 -69.48 0 q 0,-3 2.22,-5.16 v 0 0 q 2.22,-2.16 5.34,-2.16 z"
       fill="#ff5297"
       id="path302" />
    <g
       style="isolation:isolate"
       id="g318">
      <mask
         id="_mask_AptWbEmeU1D0eJNCUeVoU6QmgomvZiv6"
         x="-200%"
         y="-200%"
         width="400%"
         height="400%">
        <rect
           x="-200%"
           y="-200%"
           width="400%"
           height="400%"
           style="fill:#ffffff"
           id="rect304" />
        <path
           d="m 92.9,241.2 v 0 0 q -9.12,0 -17.04,-3.36 v 0 0 q -7.92,-3.36 -13.92,-9.3 v 0 0 q -6,-5.94 -9.42,-13.74 v 0 0 Q 49.1,207 49.1,198 v 0 0 q 0,-9 3.42,-16.8 v 0 0 q 3.42,-7.8 9.42,-13.74 v 0 0 q 6,-5.94 13.92,-9.3 v 0 0 q 7.92,-3.36 17.04,-3.36 v 0 0 q 5.64,0 10.92,1.2 v 0 0 q 5.28,1.2 9.72,3.6 v 0 0 q 1.8,0.96 2.7,2.58 v 0 0 q 0.9,1.62 0.9,3.3 v 0 0 q 0,2.88 -1.92,5.16 v 0 0 q -1.92,2.28 -4.92,2.28 v 0 0 q -0.96,0 -1.98,-0.24 v 0 0 q -1.02,-0.24 -1.98,-0.72 v 0 0 q -3,-1.32 -6.36,-2.04 v 0 0 Q 96.62,169.2 92.9,169.2 v 0 0 q -7.8,0 -14.22,3.9 v 0 0 q -6.42,3.9 -10.2,10.44 v 0 0 Q 64.7,190.08 64.7,198 v 0 0 q 0,7.8 3.78,14.4 v 0 0 q 3.78,6.6 10.2,10.5 v 0 0 q 6.42,3.9 14.22,3.9 v 0 0 q 3.6,0 7.92,-0.72 v 0 0 q 4.32,-0.72 7.08,-1.92 v 0 l -1.08,3.6 v -20.52 l 2.04,1.8 H 95.54 v 0 q -3.12,0 -5.22,-2.04 v 0 0 q -2.1,-2.04 -2.1,-5.16 v 0 0 q 0,-3.12 2.1,-5.16 v 0 0 q 2.1,-2.04 5.22,-2.04 v 0 h 19.68 v 0 q 3.12,0 5.16,2.1 v 0 0 q 2.04,2.1 2.04,5.22 v 0 25.44 0 q 0,2.4 -1.14,3.96 v 0 0 q -1.14,1.56 -2.58,2.52 v 0 0 q -5.52,3.36 -12.06,5.34 v 0 0 q -6.54,1.98 -13.74,1.98 z m 68.92,-77.88 v 69.36 0 q 0,3.12 -2.28,5.22 v 0 0 q -2.28,2.1 -5.28,2.1 v 0 0 q -3.36,0 -5.4,-2.1 v 0 0 q -2.04,-2.1 -2.04,-5.22 v 0 -69.36 0 q 0,-3.12 2.16,-5.22 v 0 0 q 2.16,-2.1 5.52,-2.1 v 0 0 q 2.88,0 5.1,2.1 v 0 0 q 2.22,2.1 2.22,5.22 z M 198.46,240 v 0 0 q -3.36,0 -6,-2.1 v 0 0 q -2.64,-2.1 -2.64,-5.22 v 0 -69.36 0 q 0,-3.12 2.1,-5.22 v 0 0 q 2.1,-2.1 5.22,-2.1 v 0 h 34.56 v 0 q 6.24,0 11.7,3.3 v 0 0 q 5.46,3.3 8.82,9.12 v 0 0 q 3.36,5.82 3.36,13.38 v 0 0 q 0,4.56 -1.86,8.88 v 0 0 q -1.86,4.32 -5.04,7.8 v 0 0 q -3.18,3.48 -7.14,5.4 v 0 l 0.12,-2.76 v 0 q 3.36,1.8 5.58,4.26 v 0 0 q 2.22,2.46 3.48,5.28 v 0 0 q 1.26,2.82 1.5,6.06 v 0 0 q 0.48,3 0.66,5.28 v 0 0 q 0.18,2.28 0.72,3.84 v 0 0 q 0.54,1.56 2.1,2.4 v 0 0 q 2.64,1.56 3.3,4.5 v 0 0 q 0.66,2.94 -1.38,5.22 v 0 0 q -1.32,1.56 -3.36,1.98 v 0 0 q -2.04,0.42 -4.08,0 v 0 0 q -2.04,-0.42 -3.36,-1.14 v 0 0 q -2.04,-1.2 -4.08,-3.54 v 0 0 q -2.04,-2.34 -3.3,-6.3 v 0 0 q -1.26,-3.96 -1.26,-10.2 v 0 0 q 0,-2.04 -0.72,-3.78 v 0 0 q -0.72,-1.74 -2.04,-3 v 0 0 q -1.32,-1.26 -3.36,-1.92 v 0 0 q -2.04,-0.66 -4.8,-0.66 v 0 h -24.24 l 1.8,-2.76 v 26.04 0 q 0,3.12 -1.68,5.22 v 0 0 q -1.68,2.1 -4.68,2.1 z m 6.36,-40.08 -1.68,-2.88 h 27.96 v 0 q 2.16,0 4.2,-1.98 v 0 0 q 2.04,-1.98 3.36,-5.4 v 0 0 q 1.32,-3.42 1.32,-7.5 v 0 0 q 0,-5.28 -2.82,-8.82 v 0 0 q -2.82,-3.54 -6.06,-3.54 v 0 h -27.72 l 1.44,-3.84 z m 89.8,26.04 h 33.96 v 0 q 3.12,0 5.22,1.98 v 0 0 q 2.1,1.98 2.1,5.1 v 0 0 q 0,3 -2.1,4.98 v 0 0 q -2.1,1.98 -5.22,1.98 v 0 h -39 v 0 q -3.12,0 -5.22,-2.1 v 0 0 q -2.1,-2.1 -2.1,-5.22 v 0 -69.36 0 q 0,-3.12 2.16,-5.22 v 0 0 q 2.16,-2.1 5.52,-2.1 v 0 0 q 2.88,0 5.1,2.1 v 0 0 q 2.22,2.1 2.22,5.22 v 0 V 228 Z M 55.58,120 v 0 0 q -3.36,0 -5.52,-2.1 v 0 0 q -2.16,-2.1 -2.16,-5.22 v 0 -69.6 h 15.6 v 69.6 0 q 0,3.12 -2.22,5.22 v 0 0 q -2.22,2.1 -5.7,2.1 z M 82.34,49.8 H 29.06 v 0 q -3.12,0 -5.22,-1.92 v 0 0 q -2.1,-1.92 -2.1,-5.04 v 0 0 q 0,-3.12 2.1,-4.98 v 0 0 Q 25.94,36 29.06,36 v 0 h 53.28 v 0 q 3.12,0 5.22,1.92 v 0 0 q 2.1,1.92 2.1,5.04 v 0 0 q 0,3.12 -2.1,4.98 v 0 0 q -2.1,1.86 -5.22,1.86 z M 119.58,36 v 0 h 40.2 v 0 q 3.12,0 5.22,1.98 v 0 0 q 2.1,1.98 2.1,5.1 v 0 0 q 0,3 -2.1,4.86 v 0 0 q -2.1,1.86 -5.22,1.86 v 0 h -33.6 l 1.08,-2.04 v 23.4 L 126.3,70.2 h 28.08 v 0 q 3.12,0 5.22,1.98 v 0 0 q 2.1,1.98 2.1,5.1 v 0 0 q 0,3 -2.1,4.86 v 0 0 Q 157.5,84 154.38,84 v 0 h -27.72 l 0.6,-0.96 v 24.24 l -0.96,-1.08 h 33.48 v 0 q 3.12,0 5.22,2.1 v 0 0 q 2.1,2.1 2.1,4.86 v 0 0 q 0,3 -2.1,4.92 v 0 0 q -2.1,1.92 -5.22,1.92 v 0 h -40.2 v 0 q -3.12,0 -5.22,-2.1 v 0 0 q -2.1,-2.1 -2.1,-5.22 v 0 -69.36 0 q 0,-3.12 2.1,-5.22 v 0 0 q 2.1,-2.1 5.22,-2.1 z m 98.68,19.56 3.48,-0.72 -25.92,60.96 v 0 q -0.84,2.28 -2.58,3.54 v 0 0 q -1.74,1.26 -3.78,1.26 v 0 0 q -3.24,0 -4.8,-1.8 v 0 0 q -1.56,-1.8 -1.56,-4.44 v 0 0 q 0,-1.08 0.36,-2.28 v 0 l 29.88,-71.76 v 0 q 0.96,-2.4 2.94,-3.72 v 0 0 q 1.98,-1.32 4.26,-1.08 v 0 0 q 2.16,0 4.02,1.26 v 0 0 q 1.86,1.26 2.7,3.54 v 0 l 29.52,70.32 v 0 q 0.6,1.56 0.6,2.88 v 0 0 q 0,3.24 -2.1,5.16 v 0 0 q -2.1,1.92 -4.62,1.92 v 0 0 q -2.16,0 -3.9,-1.32 v 0 0 q -1.74,-1.32 -2.7,-3.6 v 0 z m 22.56,45.6 h -41.28 l 6.6,-13.8 h 32.4 z m 44.32,-65.28 v 0 0 q 1.68,0 3.54,0.9 v 0 0 q 1.86,0.9 2.82,2.34 v 0 l 29.16,44.88 -6,-0.24 29.88,-44.64 v 0 q 2.28,-3.24 5.88,-3.24 v 0 0 q 2.88,0 5.16,2.04 v 0 0 q 2.28,2.04 2.28,5.28 v 0 69.48 0 q 0,3.12 -2.04,5.22 v 0 0 q -2.04,2.1 -5.4,2.1 v 0 0 q -3.36,0 -5.46,-2.1 v 0 0 q -2.1,-2.1 -2.1,-5.22 v 0 -56.52 l 4.68,1.08 -24.48,37.32 v 0 q -1.08,1.32 -2.7,2.28 v 0 0 q -1.62,0.96 -3.3,0.84 v 0 0 q -1.56,0.12 -3.18,-0.84 v 0 0 q -1.62,-0.96 -2.7,-2.28 v 0 l -22.92,-36.24 3.12,-6.36 v 60.72 0 q 0,3.12 -1.92,5.22 v 0 0 q -1.92,2.1 -5.04,2.1 v 0 0 q -3,0 -4.92,-2.1 v 0 0 q -1.92,-2.1 -1.92,-5.22 v 0 -69.48 0 q 0,-3 2.22,-5.16 v 0 0 q 2.22,-2.16 5.34,-2.16 z"
           fill="#000000"
           stroke="none"
           id="path306" />
      </mask>
      <path
         d="m 92.9,241.2 v 0 0 q -9.12,0 -17.04,-3.36 v 0 0 q -7.92,-3.36 -13.92,-9.3 v 0 0 q -6,-5.94 -9.42,-13.74 v 0 0 Q 49.1,207 49.1,198 v 0 0 q 0,-9 3.42,-16.8 v 0 0 q 3.42,-7.8 9.42,-13.74 v 0 0 q 6,-5.94 13.92,-9.3 v 0 0 q 7.92,-3.36 17.04,-3.36 v 0 0 q 5.64,0 10.92,1.2 v 0 0 q 5.28,1.2 9.72,3.6 v 0 0 q 1.8,0.96 2.7,2.58 v 0 0 q 0.9,1.62 0.9,3.3 v 0 0 q 0,2.88 -1.92,5.16 v 0 0 q -1.92,2.28 -4.92,2.28 v 0 0 q -0.96,0 -1.98,-0.24 v 0 0 q -1.02,-0.24 -1.98,-0.72 v 0 0 q -3,-1.32 -6.36,-2.04 v 0 0 Q 96.62,169.2 92.9,169.2 v 0 0 q -7.8,0 -14.22,3.9 v 0 0 q -6.42,3.9 -10.2,10.44 v 0 0 Q 64.7,190.08 64.7,198 v 0 0 q 0,7.8 3.78,14.4 v 0 0 q 3.78,6.6 10.2,10.5 v 0 0 q 6.42,3.9 14.22,3.9 v 0 0 q 3.6,0 7.92,-0.72 v 0 0 q 4.32,-0.72 7.08,-1.92 v 0 l -1.08,3.6 v -20.52 l 2.04,1.8 H 95.54 v 0 q -3.12,0 -5.22,-2.04 v 0 0 q -2.1,-2.04 -2.1,-5.16 v 0 0 q 0,-3.12 2.1,-5.16 v 0 0 q 2.1,-2.04 5.22,-2.04 v 0 h 19.68 v 0 q 3.12,0 5.16,2.1 v 0 0 q 2.04,2.1 2.04,5.22 v 0 25.44 0 q 0,2.4 -1.14,3.96 v 0 0 q -1.14,1.56 -2.58,2.52 v 0 0 q -5.52,3.36 -12.06,5.34 v 0 0 q -6.54,1.98 -13.74,1.98 z m 68.92,-77.88 v 69.36 0 q 0,3.12 -2.28,5.22 v 0 0 q -2.28,2.1 -5.28,2.1 v 0 0 q -3.36,0 -5.4,-2.1 v 0 0 q -2.04,-2.1 -2.04,-5.22 v 0 -69.36 0 q 0,-3.12 2.16,-5.22 v 0 0 q 2.16,-2.1 5.52,-2.1 v 0 0 q 2.88,0 5.1,2.1 v 0 0 q 2.22,2.1 2.22,5.22 z M 198.46,240 v 0 0 q -3.36,0 -6,-2.1 v 0 0 q -2.64,-2.1 -2.64,-5.22 v 0 -69.36 0 q 0,-3.12 2.1,-5.22 v 0 0 q 2.1,-2.1 5.22,-2.1 v 0 h 34.56 v 0 q 6.24,0 11.7,3.3 v 0 0 q 5.46,3.3 8.82,9.12 v 0 0 q 3.36,5.82 3.36,13.38 v 0 0 q 0,4.56 -1.86,8.88 v 0 0 q -1.86,4.32 -5.04,7.8 v 0 0 q -3.18,3.48 -7.14,5.4 v 0 l 0.12,-2.76 v 0 q 3.36,1.8 5.58,4.26 v 0 0 q 2.22,2.46 3.48,5.28 v 0 0 q 1.26,2.82 1.5,6.06 v 0 0 q 0.48,3 0.66,5.28 v 0 0 q 0.18,2.28 0.72,3.84 v 0 0 q 0.54,1.56 2.1,2.4 v 0 0 q 2.64,1.56 3.3,4.5 v 0 0 q 0.66,2.94 -1.38,5.22 v 0 0 q -1.32,1.56 -3.36,1.98 v 0 0 q -2.04,0.42 -4.08,0 v 0 0 q -2.04,-0.42 -3.36,-1.14 v 0 0 q -2.04,-1.2 -4.08,-3.54 v 0 0 q -2.04,-2.34 -3.3,-6.3 v 0 0 q -1.26,-3.96 -1.26,-10.2 v 0 0 q 0,-2.04 -0.72,-3.78 v 0 0 q -0.72,-1.74 -2.04,-3 v 0 0 q -1.32,-1.26 -3.36,-1.92 v 0 0 q -2.04,-0.66 -4.8,-0.66 v 0 h -24.24 l 1.8,-2.76 v 26.04 0 q 0,3.12 -1.68,5.22 v 0 0 q -1.68,2.1 -4.68,2.1 z m 6.36,-40.08 -1.68,-2.88 h 27.96 v 0 q 2.16,0 4.2,-1.98 v 0 0 q 2.04,-1.98 3.36,-5.4 v 0 0 q 1.32,-3.42 1.32,-7.5 v 0 0 q 0,-5.28 -2.82,-8.82 v 0 0 q -2.82,-3.54 -6.06,-3.54 v 0 h -27.72 l 1.44,-3.84 z m 89.8,26.04 h 33.96 v 0 q 3.12,0 5.22,1.98 v 0 0 q 2.1,1.98 2.1,5.1 v 0 0 q 0,3 -2.1,4.98 v 0 0 q -2.1,1.98 -5.22,1.98 v 0 h -39 v 0 q -3.12,0 -5.22,-2.1 v 0 0 q -2.1,-2.1 -2.1,-5.22 v 0 -69.36 0 q 0,-3.12 2.16,-5.22 v 0 0 q 2.16,-2.1 5.52,-2.1 v 0 0 q 2.88,0 5.1,2.1 v 0 0 q 2.22,2.1 2.22,5.22 v 0 V 228 Z M 55.58,120 v 0 0 q -3.36,0 -5.52,-2.1 v 0 0 q -2.16,-2.1 -2.16,-5.22 v 0 -69.6 h 15.6 v 69.6 0 q 0,3.12 -2.22,5.22 v 0 0 q -2.22,2.1 -5.7,2.1 z M 82.34,49.8 H 29.06 v 0 q -3.12,0 -5.22,-1.92 v 0 0 q -2.1,-1.92 -2.1,-5.04 v 0 0 q 0,-3.12 2.1,-4.98 v 0 0 Q 25.94,36 29.06,36 v 0 h 53.28 v 0 q 3.12,0 5.22,1.92 v 0 0 q 2.1,1.92 2.1,5.04 v 0 0 q 0,3.12 -2.1,4.98 v 0 0 q -2.1,1.86 -5.22,1.86 z M 119.58,36 v 0 h 40.2 v 0 q 3.12,0 5.22,1.98 v 0 0 q 2.1,1.98 2.1,5.1 v 0 0 q 0,3 -2.1,4.86 v 0 0 q -2.1,1.86 -5.22,1.86 v 0 h -33.6 l 1.08,-2.04 v 23.4 L 126.3,70.2 h 28.08 v 0 q 3.12,0 5.22,1.98 v 0 0 q 2.1,1.98 2.1,5.1 v 0 0 q 0,3 -2.1,4.86 v 0 0 Q 157.5,84 154.38,84 v 0 h -27.72 l 0.6,-0.96 v 24.24 l -0.96,-1.08 h 33.48 v 0 q 3.12,0 5.22,2.1 v 0 0 q 2.1,2.1 2.1,4.86 v 0 0 q 0,3 -2.1,4.92 v 0 0 q -2.1,1.92 -5.22,1.92 v 0 h -40.2 v 0 q -3.12,0 -5.22,-2.1 v 0 0 q -2.1,-2.1 -2.1,-5.22 v 0 -69.36 0 q 0,-3.12 2.1,-5.22 v 0 0 q 2.1,-2.1 5.22,-2.1 z m 98.68,19.56 3.48,-0.72 -25.92,60.96 v 0 q -0.84,2.28 -2.58,3.54 v 0 0 q -1.74,1.26 -3.78,1.26 v 0 0 q -3.24,0 -4.8,-1.8 v 0 0 q -1.56,-1.8 -1.56,-4.44 v 0 0 q 0,-1.08 0.36,-2.28 v 0 l 29.88,-71.76 v 0 q 0.96,-2.4 2.94,-3.72 v 0 0 q 1.98,-1.32 4.26,-1.08 v 0 0 q 2.16,0 4.02,1.26 v 0 0 q 1.86,1.26 2.7,3.54 v 0 l 29.52,70.32 v 0 q 0.6,1.56 0.6,2.88 v 0 0 q 0,3.24 -2.1,5.16 v 0 0 q -2.1,1.92 -4.62,1.92 v 0 0 q -2.16,0 -3.9,-1.32 v 0 0 q -1.74,-1.32 -2.7,-3.6 v 0 z m 22.56,45.6 h -41.28 l 6.6,-13.8 h 32.4 z m 44.32,-65.28 v 0 0 q 1.68,0 3.54,0.9 v 0 0 q 1.86,0.9 2.82,2.34 v 0 l 29.16,44.88 -6,-0.24 29.88,-44.64 v 0 q 2.28,-3.24 5.88,-3.24 v 0 0 q 2.88,0 5.16,2.04 v 0 0 q 2.28,2.04 2.28,5.28 v 0 69.48 0 q 0,3.12 -2.04,5.22 v 0 0 q -2.04,2.1 -5.4,2.1 v 0 0 q -3.36,0 -5.46,-2.1 v 0 0 q -2.1,-2.1 -2.1,-5.22 v 0 -56.52 l 4.68,1.08 -24.48,37.32 v 0 q -1.08,1.32 -2.7,2.28 v 0 0 q -1.62,0.96 -3.3,0.84 v 0 0 q -1.56,0.12 -3.18,-0.84 v 0 0 q -1.62,-0.96 -2.7,-2.28 v 0 l -22.92,-36.24 3.12,-6.36 v 60.72 0 q 0,3.12 -1.92,5.22 v 0 0 q -1.92,2.1 -5.04,2.1 v 0 0 q -3,0 -4.92,-2.1 v 0 0 q -1.92,-2.1 -1.92,-5.22 v 0 -69.48 0 q 0,-3 2.22,-5.16 v 0 0 q 2.22,-2.16 5.34,-2.16 z"
         fill="none"
         mask="url(#_mask_AptWbEmeU1D0eJNCUeVoU6QmgomvZiv6)"
         stroke-width="14"
         stroke="#ff5297"
         stroke-linejoin="miter"
         stroke-linecap="square"
         stroke-miterlimit="3"
         id="path309" />
      <mask
         id="_mask_YqJwvlCk87KrAEXL66LWYXr5RfzW4EoY"
         x="-200%"
         y="-200%"
         width="400%"
         height="400%">
        <rect
           x="-200%"
           y="-200%"
           width="400%"
           height="400%"
           style="fill:#ffffff"
           id="rect311" />
        <path
           d="m 92.9,241.2 v 0 0 q -9.12,0 -17.04,-3.36 v 0 0 q -7.92,-3.36 -13.92,-9.3 v 0 0 q -6,-5.94 -9.42,-13.74 v 0 0 Q 49.1,207 49.1,198 v 0 0 q 0,-9 3.42,-16.8 v 0 0 q 3.42,-7.8 9.42,-13.74 v 0 0 q 6,-5.94 13.92,-9.3 v 0 0 q 7.92,-3.36 17.04,-3.36 v 0 0 q 5.64,0 10.92,1.2 v 0 0 q 5.28,1.2 9.72,3.6 v 0 0 q 1.8,0.96 2.7,2.58 v 0 0 q 0.9,1.62 0.9,3.3 v 0 0 q 0,2.88 -1.92,5.16 v 0 0 q -1.92,2.28 -4.92,2.28 v 0 0 q -0.96,0 -1.98,-0.24 v 0 0 q -1.02,-0.24 -1.98,-0.72 v 0 0 q -3,-1.32 -6.36,-2.04 v 0 0 Q 96.62,169.2 92.9,169.2 v 0 0 q -7.8,0 -14.22,3.9 v 0 0 q -6.42,3.9 -10.2,10.44 v 0 0 Q 64.7,190.08 64.7,198 v 0 0 q 0,7.8 3.78,14.4 v 0 0 q 3.78,6.6 10.2,10.5 v 0 0 q 6.42,3.9 14.22,3.9 v 0 0 q 3.6,0 7.92,-0.72 v 0 0 q 4.32,-0.72 7.08,-1.92 v 0 l -1.08,3.6 v -20.52 l 2.04,1.8 H 95.54 v 0 q -3.12,0 -5.22,-2.04 v 0 0 q -2.1,-2.04 -2.1,-5.16 v 0 0 q 0,-3.12 2.1,-5.16 v 0 0 q 2.1,-2.04 5.22,-2.04 v 0 h 19.68 v 0 q 3.12,0 5.16,2.1 v 0 0 q 2.04,2.1 2.04,5.22 v 0 25.44 0 q 0,2.4 -1.14,3.96 v 0 0 q -1.14,1.56 -2.58,2.52 v 0 0 q -5.52,3.36 -12.06,5.34 v 0 0 q -6.54,1.98 -13.74,1.98 z m 68.92,-77.88 v 69.36 0 q 0,3.12 -2.28,5.22 v 0 0 q -2.28,2.1 -5.28,2.1 v 0 0 q -3.36,0 -5.4,-2.1 v 0 0 q -2.04,-2.1 -2.04,-5.22 v 0 -69.36 0 q 0,-3.12 2.16,-5.22 v 0 0 q 2.16,-2.1 5.52,-2.1 v 0 0 q 2.88,0 5.1,2.1 v 0 0 q 2.22,2.1 2.22,5.22 z M 198.46,240 v 0 0 q -3.36,0 -6,-2.1 v 0 0 q -2.64,-2.1 -2.64,-5.22 v 0 -69.36 0 q 0,-3.12 2.1,-5.22 v 0 0 q 2.1,-2.1 5.22,-2.1 v 0 h 34.56 v 0 q 6.24,0 11.7,3.3 v 0 0 q 5.46,3.3 8.82,9.12 v 0 0 q 3.36,5.82 3.36,13.38 v 0 0 q 0,4.56 -1.86,8.88 v 0 0 q -1.86,4.32 -5.04,7.8 v 0 0 q -3.18,3.48 -7.14,5.4 v 0 l 0.12,-2.76 v 0 q 3.36,1.8 5.58,4.26 v 0 0 q 2.22,2.46 3.48,5.28 v 0 0 q 1.26,2.82 1.5,6.06 v 0 0 q 0.48,3 0.66,5.28 v 0 0 q 0.18,2.28 0.72,3.84 v 0 0 q 0.54,1.56 2.1,2.4 v 0 0 q 2.64,1.56 3.3,4.5 v 0 0 q 0.66,2.94 -1.38,5.22 v 0 0 q -1.32,1.56 -3.36,1.98 v 0 0 q -2.04,0.42 -4.08,0 v 0 0 q -2.04,-0.42 -3.36,-1.14 v 0 0 q -2.04,-1.2 -4.08,-3.54 v 0 0 q -2.04,-2.34 -3.3,-6.3 v 0 0 q -1.26,-3.96 -1.26,-10.2 v 0 0 q 0,-2.04 -0.72,-3.78 v 0 0 q -0.72,-1.74 -2.04,-3 v 0 0 q -1.32,-1.26 -3.36,-1.92 v 0 0 q -2.04,-0.66 -4.8,-0.66 v 0 h -24.24 l 1.8,-2.76 v 26.04 0 q 0,3.12 -1.68,5.22 v 0 0 q -1.68,2.1 -4.68,2.1 z m 6.36,-40.08 -1.68,-2.88 h 27.96 v 0 q 2.16,0 4.2,-1.98 v 0 0 q 2.04,-1.98 3.36,-5.4 v 0 0 q 1.32,-3.42 1.32,-7.5 v 0 0 q 0,-5.28 -2.82,-8.82 v 0 0 q -2.82,-3.54 -6.06,-3.54 v 0 h -27.72 l 1.44,-3.84 z m 89.8,26.04 h 33.96 v 0 q 3.12,0 5.22,1.98 v 0 0 q 2.1,1.98 2.1,5.1 v 0 0 q 0,3 -2.1,4.98 v 0 0 q -2.1,1.98 -5.22,1.98 v 0 h -39 v 0 q -3.12,0 -5.22,-2.1 v 0 0 q -2.1,-2.1 -2.1,-5.22 v 0 -69.36 0 q 0,-3.12 2.16,-5.22 v 0 0 q 2.16,-2.1 5.52,-2.1 v 0 0 q 2.88,0 5.1,2.1 v 0 0 q 2.22,2.1 2.22,5.22 v 0 V 228 Z M 55.58,120 v 0 0 q -3.36,0 -5.52,-2.1 v 0 0 q -2.16,-2.1 -2.16,-5.22 v 0 -69.6 h 15.6 v 69.6 0 q 0,3.12 -2.22,5.22 v 0 0 q -2.22,2.1 -5.7,2.1 z M 82.34,49.8 H 29.06 v 0 q -3.12,0 -5.22,-1.92 v 0 0 q -2.1,-1.92 -2.1,-5.04 v 0 0 q 0,-3.12 2.1,-4.98 v 0 0 Q 25.94,36 29.06,36 v 0 h 53.28 v 0 q 3.12,0 5.22,1.92 v 0 0 q 2.1,1.92 2.1,5.04 v 0 0 q 0,3.12 -2.1,4.98 v 0 0 q -2.1,1.86 -5.22,1.86 z M 119.58,36 v 0 h 40.2 v 0 q 3.12,0 5.22,1.98 v 0 0 q 2.1,1.98 2.1,5.1 v 0 0 q 0,3 -2.1,4.86 v 0 0 q -2.1,1.86 -5.22,1.86 v 0 h -33.6 l 1.08,-2.04 v 23.4 L 126.3,70.2 h 28.08 v 0 q 3.12,0 5.22,1.98 v 0 0 q 2.1,1.98 2.1,5.1 v 0 0 q 0,3 -2.1,4.86 v 0 0 Q 157.5,84 154.38,84 v 0 h -27.72 l 0.6,-0.96 v 24.24 l -0.96,-1.08 h 33.48 v 0 q 3.12,0 5.22,2.1 v 0 0 q 2.1,2.1 2.1,4.86 v 0 0 q 0,3 -2.1,4.92 v 0 0 q -2.1,1.92 -5.22,1.92 v 0 h -40.2 v 0 q -3.12,0 -5.22,-2.1 v 0 0 q -2.1,-2.1 -2.1,-5.22 v 0 -69.36 0 q 0,-3.12 2.1,-5.22 v 0 0 q 2.1,-2.1 5.22,-2.1 z m 98.68,19.56 3.48,-0.72 -25.92,60.96 v 0 q -0.84,2.28 -2.58,3.54 v 0 0 q -1.74,1.26 -3.78,1.26 v 0 0 q -3.24,0 -4.8,-1.8 v 0 0 q -1.56,-1.8 -1.56,-4.44 v 0 0 q 0,-1.08 0.36,-2.28 v 0 l 29.88,-71.76 v 0 q 0.96,-2.4 2.94,-3.72 v 0 0 q 1.98,-1.32 4.26,-1.08 v 0 0 q 2.16,0 4.02,1.26 v 0 0 q 1.86,1.26 2.7,3.54 v 0 l 29.52,70.32 v 0 q 0.6,1.56 0.6,2.88 v 0 0 q 0,3.24 -2.1,5.16 v 0 0 q -2.1,1.92 -4.62,1.92 v 0 0 q -2.16,0 -3.9,-1.32 v 0 0 q -1.74,-1.32 -2.7,-3.6 v 0 z m 22.56,45.6 h -41.28 l 6.6,-13.8 h 32.4 z m 44.32,-65.28 v 0 0 q 1.68,0 3.54,0.9 v 0 0 q 1.86,0.9 2.82,2.34 v 0 l 29.16,44.88 -6,-0.24 29.88,-44.64 v 0 q 2.28,-3.24 5.88,-3.24 v 0 0 q 2.88,0 5.16,2.04 v 0 0 q 2.28,2.04 2.28,5.28 v 0 69.48 0 q 0,3.12 -2.04,5.22 v 0 0 q -2.04,2.1 -5.4,2.1 v 0 0 q -3.36,0 -5.46,-2.1 v 0 0 q -2.1,-2.1 -2.1,-5.22 v 0 -56.52 l 4.68,1.08 -24.48,37.32 v 0 q -1.08,1.32 -2.7,2.28 v 0 0 q -1.62,0.96 -3.3,0.84 v 0 0 q -1.56,0.12 -3.18,-0.84 v 0 0 q -1.62,-0.96 -2.7,-2.28 v 0 l -22.92,-36.24 3.12,-6.36 v 60.72 0 q 0,3.12 -1.92,5.22 v 0 0 q -1.92,2.1 -5.04,2.1 v 0 0 q -3,0 -4.92,-2.1 v 0 0 q -1.92,-2.1 -1.92,-5.22 v 0 -69.48 0 q 0,-3 2.22,-5.16 v 0 0 q 2.22,-2.16 5.34,-2.16 z"
           fill="#000000"
           stroke="none"
           id="path313" />
      </mask>
      <path
         d="m 92.9,241.2 v 0 0 q -9.12,0 -17.04,-3.36 v 0 0 q -7.92,-3.36 -13.92,-9.3 v 0 0 q -6,-5.94 -9.42,-13.74 v 0 0 Q 49.1,207 49.1,198 v 0 0 q 0,-9 3.42,-16.8 v 0 0 q 3.42,-7.8 9.42,-13.74 v 0 0 q 6,-5.94 13.92,-9.3 v 0 0 q 7.92,-3.36 17.04,-3.36 v 0 0 q 5.64,0 10.92,1.2 v 0 0 q 5.28,1.2 9.72,3.6 v 0 0 q 1.8,0.96 2.7,2.58 v 0 0 q 0.9,1.62 0.9,3.3 v 0 0 q 0,2.88 -1.92,5.16 v 0 0 q -1.92,2.28 -4.92,2.28 v 0 0 q -0.96,0 -1.98,-0.24 v 0 0 q -1.02,-0.24 -1.98,-0.72 v 0 0 q -3,-1.32 -6.36,-2.04 v 0 0 Q 96.62,169.2 92.9,169.2 v 0 0 q -7.8,0 -14.22,3.9 v 0 0 q -6.42,3.9 -10.2,10.44 v 0 0 Q 64.7,190.08 64.7,198 v 0 0 q 0,7.8 3.78,14.4 v 0 0 q 3.78,6.6 10.2,10.5 v 0 0 q 6.42,3.9 14.22,3.9 v 0 0 q 3.6,0 7.92,-0.72 v 0 0 q 4.32,-0.72 7.08,-1.92 v 0 l -1.08,3.6 v -20.52 l 2.04,1.8 H 95.54 v 0 q -3.12,0 -5.22,-2.04 v 0 0 q -2.1,-2.04 -2.1,-5.16 v 0 0 q 0,-3.12 2.1,-5.16 v 0 0 q 2.1,-2.04 5.22,-2.04 v 0 h 19.68 v 0 q 3.12,0 5.16,2.1 v 0 0 q 2.04,2.1 2.04,5.22 v 0 25.44 0 q 0,2.4 -1.14,3.96 v 0 0 q -1.14,1.56 -2.58,2.52 v 0 0 q -5.52,3.36 -12.06,5.34 v 0 0 q -6.54,1.98 -13.74,1.98 z m 68.92,-77.88 v 69.36 0 q 0,3.12 -2.28,5.22 v 0 0 q -2.28,2.1 -5.28,2.1 v 0 0 q -3.36,0 -5.4,-2.1 v 0 0 q -2.04,-2.1 -2.04,-5.22 v 0 -69.36 0 q 0,-3.12 2.16,-5.22 v 0 0 q 2.16,-2.1 5.52,-2.1 v 0 0 q 2.88,0 5.1,2.1 v 0 0 q 2.22,2.1 2.22,5.22 z M 198.46,240 v 0 0 q -3.36,0 -6,-2.1 v 0 0 q -2.64,-2.1 -2.64,-5.22 v 0 -69.36 0 q 0,-3.12 2.1,-5.22 v 0 0 q 2.1,-2.1 5.22,-2.1 v 0 h 34.56 v 0 q 6.24,0 11.7,3.3 v 0 0 q 5.46,3.3 8.82,9.12 v 0 0 q 3.36,5.82 3.36,13.38 v 0 0 q 0,4.56 -1.86,8.88 v 0 0 q -1.86,4.32 -5.04,7.8 v 0 0 q -3.18,3.48 -7.14,5.4 v 0 l 0.12,-2.76 v 0 q 3.36,1.8 5.58,4.26 v 0 0 q 2.22,2.46 3.48,5.28 v 0 0 q 1.26,2.82 1.5,6.06 v 0 0 q 0.48,3 0.66,5.28 v 0 0 q 0.18,2.28 0.72,3.84 v 0 0 q 0.54,1.56 2.1,2.4 v 0 0 q 2.64,1.56 3.3,4.5 v 0 0 q 0.66,2.94 -1.38,5.22 v 0 0 q -1.32,1.56 -3.36,1.98 v 0 0 q -2.04,0.42 -4.08,0 v 0 0 q -2.04,-0.42 -3.36,-1.14 v 0 0 q -2.04,-1.2 -4.08,-3.54 v 0 0 q -2.04,-2.34 -3.3,-6.3 v 0 0 q -1.26,-3.96 -1.26,-10.2 v 0 0 q 0,-2.04 -0.72,-3.78 v 0 0 q -0.72,-1.74 -2.04,-3 v 0 0 q -1.32,-1.26 -3.36,-1.92 v 0 0 q -2.04,-0.66 -4.8,-0.66 v 0 h -24.24 l 1.8,-2.76 v 26.04 0 q 0,3.12 -1.68,5.22 v 0 0 q -1.68,2.1 -4.68,2.1 z m 6.36,-40.08 -1.68,-2.88 h 27.96 v 0 q 2.16,0 4.2,-1.98 v 0 0 q 2.04,-1.98 3.36,-5.4 v 0 0 q 1.32,-3.42 1.32,-7.5 v 0 0 q 0,-5.28 -2.82,-8.82 v 0 0 q -2.82,-3.54 -6.06,-3.54 v 0 h -27.72 l 1.44,-3.84 z m 89.8,26.04 h 33.96 v 0 q 3.12,0 5.22,1.98 v 0 0 q 2.1,1.98 2.1,5.1 v 0 0 q 0,3 -2.1,4.98 v 0 0 q -2.1,1.98 -5.22,1.98 v 0 h -39 v 0 q -3.12,0 -5.22,-2.1 v 0 0 q -2.1,-2.1 -2.1,-5.22 v 0 -69.36 0 q 0,-3.12 2.16,-5.22 v 0 0 q 2.16,-2.1 5.52,-2.1 v 0 0 q 2.88,0 5.1,2.1 v 0 0 q 2.22,2.1 2.22,5.22 v 0 V 228 Z M 55.58,120 v 0 0 q -3.36,0 -5.52,-2.1 v 0 0 q -2.16,-2.1 -2.16,-5.22 v 0 -69.6 h 15.6 v 69.6 0 q 0,3.12 -2.22,5.22 v 0 0 q -2.22,2.1 -5.7,2.1 z M 82.34,49.8 H 29.06 v 0 q -3.12,0 -5.22,-1.92 v 0 0 q -2.1,-1.92 -2.1,-5.04 v 0 0 q 0,-3.12 2.1,-4.98 v 0 0 Q 25.94,36 29.06,36 v 0 h 53.28 v 0 q 3.12,0 5.22,1.92 v 0 0 q 2.1,1.92 2.1,5.04 v 0 0 q 0,3.12 -2.1,4.98 v 0 0 q -2.1,1.86 -5.22,1.86 z M 119.58,36 v 0 h 40.2 v 0 q 3.12,0 5.22,1.98 v 0 0 q 2.1,1.98 2.1,5.1 v 0 0 q 0,3 -2.1,4.86 v 0 0 q -2.1,1.86 -5.22,1.86 v 0 h -33.6 l 1.08,-2.04 v 23.4 L 126.3,70.2 h 28.08 v 0 q 3.12,0 5.22,1.98 v 0 0 q 2.1,1.98 2.1,5.1 v 0 0 q 0,3 -2.1,4.86 v 0 0 Q 157.5,84 154.38,84 v 0 h -27.72 l 0.6,-0.96 v 24.24 l -0.96,-1.08 h 33.48 v 0 q 3.12,0 5.22,2.1 v 0 0 q 2.1,2.1 2.1,4.86 v 0 0 q 0,3 -2.1,4.92 v 0 0 q -2.1,1.92 -5.22,1.92 v 0 h -40.2 v 0 q -3.12,0 -5.22,-2.1 v 0 0 q -2.1,-2.1 -2.1,-5.22 v 0 -69.36 0 q 0,-3.12 2.1,-5.22 v 0 0 q 2.1,-2.1 5.22,-2.1 z m 98.68,19.56 3.48,-0.72 -25.92,60.96 v 0 q -0.84,2.28 -2.58,3.54 v 0 0 q -1.74,1.26 -3.78,1.26 v 0 0 q -3.24,0 -4.8,-1.8 v 0 0 q -1.56,-1.8 -1.56,-4.44 v 0 0 q 0,-1.08 0.36,-2.28 v 0 l 29.88,-71.76 v 0 q 0.96,-2.4 2.94,-3.72 v 0 0 q 1.98,-1.32 4.26,-1.08 v 0 0 q 2.16,0 4.02,1.26 v 0 0 q 1.86,1.26 2.7,3.54 v 0 l 29.52,70.32 v 0 q 0.6,1.56 0.6,2.88 v 0 0 q 0,3.24 -2.1,5.16 v 0 0 q -2.1,1.92 -4.62,1.92 v 0 0 q -2.16,0 -3.9,-1.32 v 0 0 q -1.74,-1.32 -2.7,-3.6 v 0 z m 22.56,45.6 h -41.28 l 6.6,-13.8 h 32.4 z m 44.32,-65.28 v 0 0 q 1.68,0 3.54,0.9 v 0 0 q 1.86,0.9 2.82,2.34 v 0 l 29.16,44.88 -6,-0.24 29.88,-44.64 v 0 q 2.28,-3.24 5.88,-3.24 v 0 0 q 2.88,0 5.16,2.04 v 0 0 q 2.28,2.04 2.28,5.28 v 0 69.48 0 q 0,3.12 -2.04,5.22 v 0 0 q -2.04,2.1 -5.4,2.1 v 0 0 q -3.36,0 -5.46,-2.1 v 0 0 q -2.1,-2.1 -2.1,-5.22 v 0 -56.52 l 4.68,1.08 -24.48,37.32 v 0 q -1.08,1.32 -2.7,2.28 v 0 0 q -1.62,0.96 -3.3,0.84 v 0 0 q -1.56,0.12 -3.18,-0.84 v 0 0 q -1.62,-0.96 -2.7,-2.28 v 0 l -22.92,-36.24 3.12,-6.36 v 60.72 0 q 0,3.12 -1.92,5.22 v 0 0 q -1.92,2.1 -5.04,2.1 v 0 0 q -3,0 -4.92,-2.1 v 0 0 q -1.92,-2.1 -1.92,-5.22 v 0 -69.48 0 q 0,-3 2.22,-5.16 v 0 0 q 2.22,-2.16 5.34,-2.16 z"
         fill="none"
         mask="url(#_mask_YqJwvlCk87KrAEXL66LWYXr5RfzW4EoY)"
         stroke-width="6"
         stroke="#ffffff"
         stroke-linejoin="miter"
         stroke-linecap="square"
         stroke-miterlimit="3"
         id="path316" />
    </g>
  </g>
</svg>
