<?xml version="1.0" encoding="UTF-8" standalone="no"?><!-- Generator: Gravit.io --><svg xmlns="http://www.w3.org/2000/svg" xmlns:xlink="http://www.w3.org/1999/xlink" style="isolation:isolate" viewBox="0 0 1000 1000" width="1000pt" height="1000pt"><defs><clipPath id="_clipPath_jGd3jHJbhP4gGfvhuX1UMUVNrr3N2yL3"><rect width="1000" height="1000"/></clipPath></defs><g clip-path="url(#_clipPath_jGd3jHJbhP4gGfvhuX1UMUVNrr3N2yL3)"><g clip-path="url(#_clipPath_xFfGdlZipuWtUUzMuoRXsTQy1jHQ0WBB)"><text transform="matrix(1.156,0,0,1,130,894.863)" style="font-family:'Chicle';font-weight:400;font-size:225px;font-style:normal;fill:#ff5297;stroke:none;">babbling</text></g><defs><clipPath id="_clipPath_xFfGdlZipuWtUUzMuoRXsTQy1jHQ0WBB"><rect x="0" y="0" width="865" height="350" transform="matrix(1.156,0,0,1,0,650)"/></clipPath></defs><path d=" M 357.657 46.307 C 277.095 46.307 211.43 102.757 211.43 173.403 C 211.43 214.407 233.903 250.1 268.403 273.447 C 268.352 274.811 268.454 277.031 266.656 283.707 C 264.417 291.953 259.909 303.585 250.764 316.69 L 244.259 326 L 255.623 326 C 294.983 326 317.749 300.345 321.288 296.238 C 332.997 298.98 345.049 300.498 357.657 300.498 C 438.219 300.498 503.884 244.048 503.884 173.403 C 503.884 102.757 438.219 46.307 357.657 46.307 Z  M 357.657 58.169 C 432.715 58.169 492.022 110.129 492.022 173.403 C 492.022 236.676 432.715 288.637 357.657 288.637 C 344.648 288.637 332.404 287.393 320.887 284.377 L 317.201 283.408 L 314.784 286.373 C 314.784 286.373 296.379 307.15 266.981 312.156 C 272.312 302.539 276.247 293.573 278.071 286.794 C 280.634 277.356 280.685 270.979 280.685 270.979 L 280.685 267.714 L 277.943 265.973 C 244.266 244.546 223.292 211.391 223.292 173.403 C 223.292 110.129 282.599 58.169 357.657 58.169 Z  M 293.886 160.649 C 286.842 160.649 281.132 166.359 281.132 173.403 C 281.132 180.447 286.842 186.157 293.886 186.157 C 300.93 186.157 306.64 180.447 306.64 173.403 C 306.64 166.359 300.93 160.649 293.886 160.649 Z  M 357.657 160.649 C 350.613 160.649 344.903 166.359 344.903 173.403 C 344.903 180.447 350.613 186.157 357.657 186.157 C 364.701 186.157 370.411 180.447 370.411 173.403 C 370.411 166.359 364.701 160.649 357.657 160.649 Z  M 421.428 160.649 C 414.384 160.649 408.674 166.359 408.674 173.403 C 408.674 180.447 414.384 186.157 421.428 186.157 C 428.472 186.157 434.182 180.447 434.182 173.403 C 434.182 166.359 428.472 160.649 421.428 160.649 Z " fill="rgb(102,143,255)"/><path d=" M 573.452 283.408 C 467.86 283.408 381.794 357.396 381.794 449.991 C 381.794 503.736 411.249 550.518 456.468 581.118 C 456.401 582.907 456.535 585.816 454.178 594.567 C 451.244 605.374 445.334 620.62 433.348 637.797 L 424.823 650 L 439.718 650 C 491.306 650 521.145 616.374 525.784 610.991 C 541.13 614.585 556.928 616.575 573.452 616.575 C 679.044 616.575 765.111 542.586 765.111 449.991 C 765.111 357.396 679.044 283.408 573.452 283.408 Z  M 573.452 298.954 C 671.831 298.954 749.565 367.059 749.565 449.991 C 749.565 532.923 671.831 601.028 573.452 601.028 C 556.401 601.028 540.353 599.398 525.258 595.445 L 520.427 594.174 L 517.259 598.061 C 517.259 598.061 493.136 625.292 454.604 631.854 C 461.592 619.249 466.749 607.497 469.139 598.612 C 472.499 586.242 472.566 577.883 472.566 577.883 L 472.566 573.604 L 468.972 571.322 C 424.831 543.238 397.34 499.782 397.34 449.991 C 397.34 367.059 475.074 298.954 573.452 298.954 Z  M 489.868 433.274 C 480.636 433.274 473.151 440.759 473.151 449.991 C 473.151 459.224 480.636 466.708 489.868 466.708 C 499.101 466.708 506.585 459.224 506.585 449.991 C 506.585 440.759 499.101 433.274 489.868 433.274 Z  M 573.452 433.274 C 564.22 433.274 556.736 440.759 556.736 449.991 C 556.736 459.224 564.22 466.708 573.452 466.708 C 582.685 466.708 590.169 459.224 590.169 449.991 C 590.169 440.759 582.685 433.274 573.452 433.274 Z  M 657.037 433.274 C 647.804 433.274 640.32 440.759 640.32 449.991 C 640.32 459.224 647.804 466.708 657.037 466.708 C 666.269 466.708 673.754 459.224 673.754 449.991 C 673.754 440.759 666.269 433.274 657.037 433.274 Z " fill="rgb(102,143,255)"/><path d=" M 681.011 25 C 621.753 25 573.452 66.522 573.452 118.486 C 573.452 148.648 589.983 174.902 615.359 192.075 C 615.322 193.079 615.397 194.711 614.074 199.622 C 612.428 205.687 609.111 214.243 602.385 223.883 L 597.6 230.731 L 605.959 230.731 C 634.91 230.731 651.656 211.86 654.26 208.84 C 662.872 210.857 671.737 211.973 681.011 211.973 C 740.269 211.973 788.57 170.45 788.57 118.486 C 788.57 66.522 740.269 25 681.011 25 Z  M 681.011 33.725 C 736.221 33.725 779.845 71.945 779.845 118.486 C 779.845 165.028 736.221 203.248 681.011 203.248 C 671.442 203.248 662.436 202.333 653.964 200.115 L 651.253 199.402 L 649.475 201.583 C 649.475 201.583 635.938 216.865 614.313 220.548 C 618.235 213.474 621.129 206.879 622.471 201.893 C 624.356 194.95 624.394 190.259 624.394 190.259 L 624.394 187.858 L 622.377 186.577 C 597.605 170.816 582.177 146.429 582.177 118.486 C 582.177 71.945 625.801 33.725 681.011 33.725 Z  M 634.104 109.105 C 628.922 109.105 624.722 113.305 624.722 118.486 C 624.722 123.668 628.922 127.868 634.104 127.868 C 639.285 127.868 643.485 123.668 643.485 118.486 C 643.485 113.305 639.285 109.105 634.104 109.105 Z  M 681.011 109.105 C 675.83 109.105 671.63 113.305 671.63 118.486 C 671.63 123.668 675.83 127.868 681.011 127.868 C 686.192 127.868 690.393 123.668 690.393 118.486 C 690.393 113.305 686.192 109.105 681.011 109.105 Z  M 727.918 109.105 C 722.737 109.105 718.537 113.305 718.537 118.486 C 718.537 123.668 722.737 127.868 727.918 127.868 C 733.1 127.868 737.3 123.668 737.3 118.486 C 737.3 113.305 733.1 109.105 727.918 109.105 Z " fill="rgb(102,143,255)"/></g></svg>