<?xml version="1.0" encoding="UTF-8" standalone="no"?><!-- Generator: Gravit.io --><svg xmlns="http://www.w3.org/2000/svg" xmlns:xlink="http://www.w3.org/1999/xlink" style="isolation:isolate" viewBox="0 0 1000 1000" width="1000pt" height="1000pt"><defs><clipPath id="_clipPath_UAs8lFIIekn51GrjR5UYZOijgvtES158"><rect width="1000" height="1000"/></clipPath></defs><g clip-path="url(#_clipPath_UAs8lFIIekn51GrjR5UYZOijgvtES158)"><path d=" M 549.449 25.286 C 547.4 25.556 545.389 26.063 543.456 26.796 C 541.364 27.266 539.348 28.024 537.464 29.049 C 537.464 29.049 520.134 38.133 505.249 56.758 C 494.03 71.185 485.874 87.75 481.28 105.44 C 471.13 94.111 458.225 85.599 443.816 80.727 C 422.099 73.536 402.612 74.735 402.612 74.735 L 400.383 74.735 C 387.145 76.184 377.589 88.091 379.038 101.329 C 380.488 114.567 392.395 124.123 405.633 122.674 C 405.633 122.674 416.946 122.482 428.835 126.413 C 432.191 127.539 435.019 128.762 437.823 130.176 C 332.766 154.864 253.283 240.747 240.819 346.619 C 211.888 355.896 188.398 378.499 188.398 410.306 C 188.398 441.107 210.402 463.111 237.847 473.226 C 254.793 533.892 291.778 579.218 338.207 607.311 C 387.464 637.057 445.11 650 500 650 C 554.89 650 612.536 637.057 661.793 607.311 C 708.246 579.218 745.207 533.892 762.177 473.226 C 789.574 463.111 811.602 441.107 811.602 410.306 C 811.602 378.475 788.112 355.896 759.157 346.643 C 745.207 228.762 648.227 135.689 525.455 124.184 C 527.909 110.425 533.851 97.526 542.713 86.719 C 551.774 75.478 558.413 72.482 558.413 72.482 C 571.116 69.699 579.297 57.312 576.869 44.537 C 574.441 31.761 562.287 23.239 549.449 25.31 L 549.449 25.286 Z  M 489.525 170.612 C 491.491 170.516 493.528 170.612 495.518 170.612 C 498.035 170.996 500.479 170.996 502.996 170.612 C 617.81 172.122 709.181 257.693 714.981 363.877 L 716.468 386.337 L 739.694 386.337 C 753.189 386.337 763.663 396.835 763.663 410.306 C 763.663 423.25 753.836 433.317 741.18 434.276 L 723.97 435.019 L 719.464 452.253 C 707.215 505.992 676.966 542.689 637.081 566.85 C 597.196 591.035 547.387 602.061 500 602.061 C 452.613 602.061 402.804 591.035 362.919 566.85 C 323.034 542.689 292.785 505.992 280.536 452.253 L 276.03 435.019 L 258.796 434.276 C 246.14 433.501 236.288 422.986 236.337 410.306 C 236.337 396.811 246.835 386.337 260.306 386.337 L 283.532 386.337 L 285.019 363.853 C 290.364 266.586 367.329 186.72 468.552 172.865 C 475.479 175.382 483.245 174.543 489.501 170.612 L 489.525 170.612 Z  M 404.122 338.398 C 377.647 338.398 356.184 359.861 356.184 386.337 C 356.184 412.813 377.647 434.276 404.122 434.276 C 430.598 434.276 452.061 412.813 452.061 386.337 C 452.061 359.861 430.598 338.398 404.122 338.398 Z  M 595.878 338.398 C 569.402 338.398 547.939 359.861 547.939 386.337 C 547.939 412.813 569.402 434.276 595.878 434.276 C 622.353 434.276 643.816 412.813 643.816 386.337 C 643.816 359.861 622.353 338.398 595.878 338.398 Z  M 425.096 484.467 C 415.443 485.595 407.426 492.439 404.799 501.796 C 402.172 511.153 405.455 521.17 413.111 527.157 C 413.111 527.157 447.651 554.122 500 554.122 C 552.349 554.122 586.889 527.157 586.889 527.157 C 593.581 521.805 596.91 513.289 595.621 504.817 C 594.332 496.345 588.621 489.205 580.64 486.085 C 572.659 482.965 563.62 484.341 556.927 489.693 C 556.927 489.693 536.889 506.184 500 506.184 C 463.087 506.184 443.073 489.693 443.073 489.693 C 438.036 485.586 431.549 483.7 425.096 484.467 Z " fill="rgb(255,82,151)"/><g clip-path="url(#_clipPath_Vj11JzcWz8bS5rnitvfMSsGHThznSWy6)"><text transform="matrix(1.156,0,0,1,291.532,894.863)" style="font-family:'Chicle';font-weight:400;font-size:225px;font-style:normal;fill:#668fff;stroke:none;">baby</text></g><defs><clipPath id="_clipPath_Vj11JzcWz8bS5rnitvfMSsGHThznSWy6"><rect x="0" y="0" width="865" height="350" transform="matrix(1.156,0,0,1,0,650)"/></clipPath></defs></g></svg>