<?xml version="1.0" encoding="UTF-8" standalone="no"?><!-- Generator: Gravit.io --><svg xmlns="http://www.w3.org/2000/svg" xmlns:xlink="http://www.w3.org/1999/xlink" style="isolation:isolate" viewBox="0 0 1000 1000" width="1000pt" height="1000pt"><defs><clipPath id="_clipPath_wYqT9Hqh0nDM1PDV0o1jXZf1ts95CGED"><rect width="1000" height="1000"/></clipPath></defs><g clip-path="url(#_clipPath_wYqT9Hqh0nDM1PDV0o1jXZf1ts95CGED)"><g clip-path="url(#_clipPath_m8Q6vSCYj9WPejaAXBXQ2sxIm9LX4e4B)"><text transform="matrix(1.156,0,0,1,52.616,894.863)" style="font-family:'Chicle';font-weight:400;font-size:225px;font-style:normal;fill:#668fff;stroke:none;">baby sling</text></g><defs><clipPath id="_clipPath_m8Q6vSCYj9WPejaAXBXQ2sxIm9LX4e4B"><rect x="0" y="0" width="865" height="350" transform="matrix(1.156,0,0,1,0,650)"/></clipPath></defs><path d=" M 356.317 426.853 L 500 639.872 L 643.683 426.853 C 628.331 413.262 610.864 402.226 591.935 394.207 C 580.522 389.37 568.652 385.685 556.5 383.196 C 543.946 380.63 531.163 379.337 518.348 379.348 C 518.348 379.348 518.337 379.348 518.337 379.348 L 481.663 379.348 L 481.663 379.348 C 481.663 379.348 481.652 379.348 481.652 379.348 C 468.837 379.337 456.054 380.63 443.5 383.196 C 431.348 385.685 419.478 389.37 408.065 394.207 C 389.136 402.226 371.669 413.262 356.317 426.853 L 356.317 426.853 L 356.317 426.853 Z  M 407.609 160.87 C 407.598 148.522 410.065 136.293 414.87 124.924 C 419.511 113.967 426.25 103.989 434.685 95.554 C 443.12 87.12 453.098 80.38 464.076 75.728 C 475.446 70.924 487.663 68.467 500 68.478 C 512.337 68.467 524.554 70.924 535.924 75.728 C 546.902 80.38 556.88 87.12 565.315 95.554 C 573.75 103.989 580.489 113.967 585.141 124.946 C 589.946 136.315 592.402 148.533 592.391 160.87 C 592.402 173.207 589.946 185.424 585.141 196.793 C 580.489 207.772 573.75 217.75 565.315 226.185 C 556.88 234.62 546.902 241.359 535.924 246.011 C 524.565 250.804 512.359 253.272 500.033 253.261 C 500.022 253.261 500.011 253.261 500 253.261 L 500 253.261 L 499.967 253.261 C 487.641 253.272 475.435 250.804 464.076 246.011 C 453.098 241.359 443.12 234.62 434.685 226.185 C 426.25 217.75 419.511 207.772 414.859 196.793 C 410.054 185.424 407.598 173.207 407.609 160.87 L 407.609 160.87 L 407.609 160.87 Z  M 297.817 523.438 L 383.184 650 L 493.169 650 L 506.831 650 L 616.816 650 L 702.183 523.438 C 702.753 525.766 703.279 528.106 703.761 530.457 C 706.326 543.011 707.62 555.793 707.609 568.609 C 707.609 568.609 707.609 568.62 707.609 568.62 L 707.609 650 L 751.087 650 L 751.087 650 L 751.087 568.624 C 751.087 440.163 646.793 335.87 518.332 335.87 L 481.668 335.87 L 481.668 335.87 C 353.207 335.87 248.913 440.163 248.913 568.624 L 248.913 650 L 292.391 650 L 292.391 568.62 C 292.391 568.62 292.391 568.609 292.391 568.609 C 292.38 555.793 293.674 543.011 296.239 530.457 C 296.721 528.106 297.247 525.766 297.817 523.438 L 297.817 523.438 L 297.817 523.438 Z  M 364.13 160.87 C 364.13 85.881 425.012 25 500 25 C 574.988 25 635.87 85.881 635.87 160.87 C 635.87 235.858 574.988 296.739 500 296.739 C 425.012 296.739 364.13 235.858 364.13 160.87 L 364.13 160.87 L 364.13 160.87 Z  M 461.957 489.13 C 461.946 484.043 462.967 479.011 464.946 474.326 C 466.848 469.826 469.63 465.717 473.109 462.239 C 476.587 458.761 480.696 455.978 485.217 454.065 C 489.902 452.087 494.924 451.076 500 451.087 C 505.076 451.076 510.098 452.087 514.783 454.065 C 519.304 455.978 523.413 458.761 526.891 462.239 C 530.37 465.717 533.152 469.826 535.065 474.348 C 537.043 479.033 538.054 484.054 538.043 489.13 C 538.054 494.207 537.043 499.228 535.065 503.913 C 533.152 508.435 530.37 512.543 526.891 516.022 C 523.413 519.5 519.304 522.283 514.783 524.196 C 510.098 526.174 505.076 527.185 500 527.174 C 494.924 527.185 489.902 526.174 485.217 524.196 C 480.696 522.283 476.587 519.5 473.109 516.022 C 469.63 512.543 466.848 508.435 464.935 503.913 C 462.957 499.228 461.946 494.207 461.957 489.13 L 461.957 489.13 Z  M 418.478 489.13 C 418.478 444.137 455.007 407.609 500 407.609 C 544.993 407.609 581.522 444.137 581.522 489.13 C 581.522 534.123 544.993 570.652 500 570.652 C 455.007 570.652 418.478 534.123 418.478 489.13 L 418.478 489.13 Z " fill-rule="evenodd" fill="rgb(255,82,151)"/></g></svg>