<?xml version="1.0" encoding="UTF-8" standalone="no"?><!-- Generator: Gravit.io --><svg xmlns="http://www.w3.org/2000/svg" xmlns:xlink="http://www.w3.org/1999/xlink" style="isolation:isolate" viewBox="0 0 1000 1000" width="1000pt" height="1000pt"><defs><clipPath id="_clipPath_RqNc179c2gMndvJE7KbCA5wQC28no952"><rect width="1000" height="1000"/></clipPath></defs><g clip-path="url(#_clipPath_RqNc179c2gMndvJE7KbCA5wQC28no952)"><g clip-path="url(#_clipPath_Pm6l8qaHn2aCofGdBVva0R9qBfiwACwF)"><text transform="matrix(1.156,0,0,1,75.506,894.863)" style="font-family:'Chicle';font-weight:400;font-size:225px;font-style:normal;fill:#668fff;stroke:none;">baby food</text></g><defs><clipPath id="_clipPath_Pm6l8qaHn2aCofGdBVva0R9qBfiwACwF"><rect x="0" y="0" width="865" height="350" transform="matrix(1.156,0,0,1,0,650)"/></clipPath></defs><path d=" M 333.971 25 C 303.698 25 278.628 39.24 278.628 56.435 L 278.628 103.587 C 278.628 118.943 298.634 131.957 324.452 134.535 C 321.768 137.175 318.641 139.501 315.818 142.393 C 296.365 162.276 277.217 188.194 259.59 216.061 C 224.475 271.811 195.613 325.156 195.613 360.457 L 195.613 571.413 C 195.613 614.636 257.874 650 333.971 650 L 666.029 650 C 742.126 650 804.387 614.636 804.387 571.413 L 804.387 360.457 C 804.387 325.045 775.083 271.811 739.525 216.061 C 721.815 188.194 702.777 161.789 683.324 141.89 C 680.723 139.266 678.122 136.987 675.548 134.535 C 701.938 131.821 721.189 118.82 721.372 103.587 L 721.372 56.435 C 721.372 39.24 696.302 25 666.029 25 L 333.971 25 Z  M 333.971 56.435 L 666.029 56.435 L 666.029 103.587 L 333.971 103.587 L 333.971 56.435 Z  M 391.915 135.022 L 606.369 135.022 C 607.116 135.273 609.413 136.059 612.402 137.977 C 618.489 141.78 626.348 148.9 634.899 157.624 C 651.972 175.054 670.595 199.542 687.641 226.372 C 721.815 280.047 749.044 336.221 749.044 360.457 L 749.044 571.413 C 749.044 597.63 712.185 618.565 666.029 618.565 L 333.971 618.565 C 287.815 618.565 250.956 597.63 250.956 571.413 L 250.956 360.457 C 250.956 336.095 277.659 280.047 311.502 226.372 C 328.464 199.542 347.253 174.991 364.244 157.624 C 372.656 148.9 380.653 141.78 386.713 137.977 C 389.535 136.185 391.057 135.336 391.915 135.022 Z  M 426.73 226.375 C 422.914 226.427 420.621 226.779 420.621 226.779 L 407.191 228.004 L 408.82 241.433 C 408.82 241.433 412.024 271.197 433.243 293.132 C 390.193 299.789 356.717 335.31 356.717 378.607 C 356.717 425.318 377.532 462.363 401.903 487.294 C 412.861 498.647 425.49 508.258 439.352 515.795 C 451.714 522.399 463.059 526.372 473.948 526.372 C 481.074 526.372 487.99 525.147 494.308 523.115 C 498.004 521.891 501.996 521.891 505.692 523.115 C 512.01 525.147 518.926 526.372 526.052 526.372 C 537.853 526.372 549.198 521.383 561.469 513.75 C 573.726 506.116 586.504 495.54 598.501 482.41 C 622.533 456.202 643.283 419.821 643.283 378.607 C 643.283 330.529 601.914 291.908 552.103 291.908 C 538.726 291.908 526.351 295.164 515.058 300.453 C 515.006 300.101 514.758 299.489 514.654 298.825 C 521.323 264.072 545.59 251.202 545.59 251.202 L 532.564 228.407 C 532.564 228.407 514.198 239.453 500.808 263.004 C 496.248 256.06 490.621 249.879 484.135 244.69 C 463.463 228.199 438.128 226.271 426.73 226.375 Z  M 439.352 254.055 C 448.353 255.423 459.503 258.38 467.839 265.036 C 476.345 271.809 482.037 281.735 485.346 290.28 C 476.293 288.951 464.948 285.656 456.442 278.882 C 448.053 272.161 442.661 262.548 439.352 254.055 Z  M 447.897 317.959 C 464.83 317.959 479.901 324.121 491.455 333.838 L 500 340.755 L 508.545 333.838 C 520.724 323.551 536.161 317.923 552.103 317.959 C 588.64 317.959 617.232 345.483 617.232 378.607 C 617.232 410.911 600.298 442.108 579.379 464.903 C 570.044 475.126 559.36 484.031 547.622 491.371 C 537.657 497.52 528.605 500.32 526.052 500.32 C 521.779 500.32 517.754 499.552 513.833 498.288 C 504.835 495.388 495.152 495.388 486.154 498.288 C 482.246 499.552 478.221 500.32 473.948 500.32 C 470.432 500.32 461.444 498.288 451.557 492.987 C 441.684 487.698 430.495 479.505 420.217 468.98 C 399.663 447.917 382.768 417.685 382.768 378.607 C 382.768 345.483 411.36 317.959 447.897 317.959 Z " fill-rule="evenodd" fill="rgb(255,82,151)"/></g></svg>