<?xml version="1.0" encoding="UTF-8" standalone="no"?><!-- Generator: Gravit.io --><svg xmlns="http://www.w3.org/2000/svg" xmlns:xlink="http://www.w3.org/1999/xlink" style="isolation:isolate" viewBox="0 0 1000 1000" width="1000pt" height="1000pt"><defs><clipPath id="_clipPath_C0LvloM36cJZQiwuRPNINNvwpGLGXxE6"><rect width="1000" height="1000"/></clipPath></defs><g clip-path="url(#_clipPath_C0LvloM36cJZQiwuRPNINNvwpGLGXxE6)"><g clip-path="url(#_clipPath_pBd8yaY7FrgDnU0AJNAFLaFeE5FFzZaM)"><text transform="matrix(1.156,0,0,1,174.22,894.863)" style="font-family:'Chicle';font-weight:400;font-size:225px;font-style:normal;fill:#668fff;stroke:none;">bathtub</text></g><defs><clipPath id="_clipPath_pBd8yaY7FrgDnU0AJNAFLaFeE5FFzZaM"><rect x="0" y="0" width="865" height="350" transform="matrix(1.156,0,0,1,0,650)"/></clipPath></defs><path d=" M 262.008 261.305 C 292.501 261.305 317.309 236.498 317.309 206.005 C 317.309 175.512 292.501 150.705 262.008 150.705 C 231.507 150.705 206.692 175.512 206.692 206.005 C 206.692 236.498 231.507 261.305 262.008 261.305 Z  M 262.008 165.452 C 284.37 165.452 302.562 183.644 302.562 206.005 C 302.562 228.366 284.37 246.558 262.008 246.558 C 239.638 246.558 221.439 228.366 221.439 206.005 C 221.439 183.644 239.638 165.452 262.008 165.452 Z  M 407.352 119.594 C 433.432 119.594 454.649 98.376 454.649 72.297 C 454.649 46.218 433.431 25 407.352 25 C 381.273 25 360.055 46.218 360.055 72.297 C 360.055 98.376 381.273 119.594 407.352 119.594 Z  M 407.352 39.747 C 425.301 39.747 439.902 54.348 439.902 72.297 C 439.902 90.246 425.301 104.847 407.352 104.847 C 389.403 104.847 374.802 90.246 374.802 72.297 C 374.802 54.348 389.403 39.747 407.352 39.747 Z  M 732 191.361 C 758.079 191.361 779.297 170.143 779.297 144.064 C 779.297 117.985 758.077 96.768 732 96.768 C 705.911 96.768 684.686 117.985 684.686 144.064 C 684.686 170.143 705.911 191.361 732 191.361 Z  M 732 111.516 C 749.947 111.516 764.55 126.117 764.55 144.064 C 764.55 162.013 749.947 176.614 732 176.614 C 714.042 176.614 699.434 162.013 699.434 144.064 C 699.434 126.117 714.044 111.516 732 111.516 Z  M 769.859 491.827 C 765.887 490.951 761.947 493.461 761.068 497.438 C 751.24 541.942 718.099 578.081 674.568 591.755 C 665.267 594.694 655.523 596.556 645.623 597.286 C 642.477 597.508 639.32 597.621 636.239 597.621 L 363.749 597.621 C 360.668 597.621 357.511 597.509 354.387 597.288 C 344.464 596.555 334.719 594.694 325.406 591.75 C 278.198 576.919 243.496 535.621 236.999 486.541 L 230.926 440.608 L 303.168 440.608 C 307.239 440.608 310.541 437.308 310.541 433.235 C 310.541 429.162 307.239 425.861 303.168 425.861 L 174.971 425.861 C 166.356 425.861 159.346 418.852 159.346 410.237 C 159.346 401.621 166.356 394.612 174.971 394.612 L 223.403 394.612 L 223.409 394.612 L 478.996 394.612 C 483.09 394.612 487.401 394.554 491.807 394.444 L 491.921 394.444 C 491.989 394.444 492.058 394.442 492.127 394.441 C 496.433 394.321 500.234 394.173 503.716 393.99 C 505.63 393.897 507.528 393.802 509.318 393.683 C 510.219 393.639 511.105 393.578 512.005 393.516 L 512.148 393.506 C 513.53 393.413 514.909 393.319 516.196 393.215 C 517.824 393.106 519.468 392.963 521.029 392.826 C 522.642 392.701 524.255 392.558 525.819 392.404 L 528.025 392.192 C 529.346 392.058 530.678 391.922 531.942 391.783 L 532.825 391.698 C 532.878 391.692 532.93 391.686 532.981 391.68 L 536.699 391.254 C 537.976 391.104 539.266 390.953 540.557 390.79 C 540.734 390.769 540.911 390.748 541.088 390.725 L 541.328 390.694 C 541.389 390.686 541.452 390.679 541.512 390.672 C 542.962 390.484 544.413 390.296 545.782 390.105 C 546.667 389.992 547.55 389.863 548.357 389.745 C 549.474 389.595 550.575 389.431 551.689 389.265 L 551.915 389.232 C 552.642 389.126 553.381 389.018 554.108 388.899 C 555.32 388.725 556.519 388.535 557.612 388.35 C 558.489 388.218 559.356 388.073 560.228 387.927 L 560.666 387.853 C 561.204 387.769 561.743 387.685 562.282 387.585 C 563.881 387.32 565.462 387.041 567.028 386.753 C 571.218 386.001 574.953 385.287 578.444 384.572 C 580.356 384.18 582.266 383.788 584.104 383.376 C 587.5 382.651 591.209 381.806 595.466 380.789 C 599.18 379.894 602.538 379.049 605.702 378.216 C 607.945 377.635 610.187 377.023 612.362 376.411 C 614.256 375.892 616.136 375.361 618.059 374.801 C 619.442 374.401 620.824 374 622.228 373.58 L 622.892 373.379 C 623.639 373.155 624.391 372.926 625.135 372.692 C 625.816 372.496 626.512 372.285 627.193 372.059 C 628.344 371.707 629.494 371.353 630.663 370.98 L 631.026 370.863 C 632.216 370.48 633.406 370.096 634.596 369.7 C 638.46 368.412 640.548 364.237 639.261 360.374 C 637.972 356.51 633.797 354.423 629.933 355.711 C 628.792 356.091 627.648 356.46 626.506 356.827 L 626.16 356.939 C 625.036 357.297 623.914 357.642 622.79 357.986 C 622.734 358.004 622.678 358.021 622.622 358.041 C 622.079 358.222 621.52 358.389 620.976 358.545 C 620.91 358.564 620.84 358.583 620.774 358.605 C 620.067 358.83 619.351 359.046 618.64 359.26 L 617.978 359.464 C 616.642 359.865 615.303 360.251 613.893 360.66 C 612.091 361.183 610.292 361.695 608.423 362.205 C 606.295 362.802 604.152 363.389 601.979 363.953 C 598.883 364.768 595.623 365.588 592.027 366.455 C 587.901 367.439 584.3 368.26 580.96 368.974 C 579.146 369.378 577.316 369.754 575.485 370.129 C 572.114 370.82 568.497 371.511 564.393 372.248 C 562.857 372.53 561.34 372.799 559.805 373.052 C 559.753 373.061 559.7 373.071 559.647 373.081 C 559.233 373.159 558.817 373.223 558.326 373.298 L 557.802 373.386 C 557.006 373.521 556.215 373.652 555.292 373.792 C 554.173 373.981 553.067 374.155 551.948 374.314 C 551.891 374.323 551.835 374.332 551.779 374.341 C 551.126 374.45 550.46 374.546 549.675 374.659 L 549.51 374.686 C 548.467 374.84 547.439 374.995 546.319 375.147 C 545.516 375.264 544.714 375.38 543.829 375.494 C 542.453 375.685 541.077 375.864 539.7 376.042 C 539.526 376.062 539.351 376.082 539.176 376.106 L 538.936 376.137 C 538.879 376.143 538.821 376.15 538.764 376.157 C 537.5 376.318 536.237 376.467 534.922 376.62 L 530.375 377.125 C 529.104 377.266 527.82 377.396 526.543 377.524 L 524.409 377.729 C 522.91 377.877 521.396 378.01 519.815 378.135 C 518.284 378.269 516.739 378.403 515.117 378.513 C 513.797 378.619 512.478 378.709 511.153 378.797 L 510.999 378.807 C 510.192 378.863 509.401 378.918 508.469 378.964 C 506.643 379.085 504.829 379.176 502.974 379.265 C 499.61 379.442 495.959 379.583 491.815 379.7 C 484.956 379.658 271.596 379.828 230.028 379.862 C 229.935 378.378 229.889 376.895 229.889 375.42 C 229.889 336.371 261.657 304.603 300.706 304.603 C 308.648 304.603 316.467 305.924 323.945 308.531 C 326.071 309.273 328.424 309.002 330.325 307.793 C 332.227 306.586 333.472 304.573 333.706 302.333 C 335.821 282.065 344.849 262.827 359.126 248.168 C 361.967 245.251 361.906 240.583 358.989 237.742 C 356.07 234.9 351.401 234.959 348.561 237.881 C 334.029 252.801 324.181 271.808 320.314 292.134 C 313.905 290.621 307.343 289.857 300.708 289.857 C 253.527 289.857 215.143 328.241 215.143 375.422 C 215.143 376.899 215.197 378.384 215.273 379.869 L 174.971 379.869 C 158.224 379.869 144.599 393.493 144.599 410.241 C 144.599 426.989 158.224 440.613 174.971 440.613 L 216.05 440.613 L 222.378 488.48 C 229.279 540.607 264.715 584.84 313.535 603.229 L 307.35 618.999 C 302.772 630.646 308.527 643.849 320.179 648.428 C 322.895 649.497 325.694 650 328.452 650 C 337.515 650 346.097 644.533 349.608 635.598 L 358.767 612.281 C 360.438 612.339 362.105 612.371 363.749 612.371 L 636.239 612.371 C 637.883 612.371 639.547 612.34 641.221 612.281 L 650.382 635.599 C 653.893 644.533 662.473 650 671.538 650 C 674.294 650 677.095 649.494 679.81 648.428 C 691.46 643.849 697.216 630.646 692.638 619.004 L 686.455 603.237 C 731.301 586.353 765.076 547.69 775.468 500.623 C 776.347 496.642 773.836 492.706 769.859 491.827 Z  M 325.573 634.698 C 321.49 633.092 319.472 628.468 321.078 624.384 L 327.616 607.72 C 332.805 609.08 338.096 610.146 343.461 610.913 L 335.884 630.2 C 334.278 634.285 329.655 636.298 325.573 634.698 Z  M 674.417 634.698 C 670.336 636.3 665.711 634.282 664.107 630.202 L 656.528 610.913 C 661.892 610.146 667.186 609.08 672.376 607.72 L 678.913 624.389 C 680.515 628.469 678.499 633.092 674.417 634.698 Z  M 853.071 297.363 C 846.629 281.917 828.813 274.576 813.348 281.007 L 772.343 298.098 C 758.671 267.555 728.214 247.523 694.253 247.523 C 690.917 247.523 687.565 247.723 684.229 248.12 C 664.666 202.154 618.97 171.677 568.655 171.677 C 530.856 171.677 496.003 188.117 472.061 217.009 C 457.381 209.653 441.098 205.79 424.585 205.79 C 410.017 205.79 395.898 208.692 382.619 214.414 C 378.879 216.026 377.154 220.364 378.766 224.103 C 380.378 227.842 384.715 229.565 388.456 227.956 C 399.879 223.032 412.035 220.537 424.585 220.537 C 440.654 220.537 456.466 224.784 470.313 232.818 C 473.547 234.695 477.674 233.853 479.915 230.863 C 501.068 202.622 533.415 186.424 568.655 186.424 C 614.853 186.424 656.639 215.533 672.632 258.86 C 673.884 262.249 677.407 264.235 680.947 263.547 C 685.34 262.699 689.819 262.27 694.253 262.27 C 722.233 262.27 747.347 278.689 758.739 303.77 L 667.835 341.659 C 664.076 343.227 662.299 347.544 663.867 351.303 C 665.048 354.134 667.788 355.84 670.675 355.84 C 671.621 355.84 672.582 355.657 673.51 355.271 L 771.096 314.595 L 819.017 294.622 C 826.97 291.316 836.143 295.088 839.456 303.031 C 842.764 310.988 838.989 320.161 831.04 323.475 L 685.529 384.127 C 619.103 411.817 549.616 425.86 478.996 425.86 L 349.241 425.86 C 345.169 425.86 341.867 429.16 341.867 433.233 C 341.867 437.306 345.169 440.607 349.241 440.607 L 478.998 440.607 C 551.574 440.607 622.971 426.184 691.205 397.74 L 779.614 360.89 L 766.948 456.609 C 766.415 460.647 769.254 464.353 773.292 464.887 C 773.621 464.929 773.945 464.951 774.268 464.951 C 777.911 464.951 781.078 462.253 781.568 458.544 L 795.359 354.326 L 836.718 337.088 C 852.164 330.646 859.501 312.83 853.071 297.363 Z  M 623.145 238.53 C 624.564 239.842 626.36 240.49 628.15 240.49 C 630.134 240.49 632.113 239.693 633.566 238.123 C 636.331 235.133 636.148 230.469 633.159 227.704 C 622.402 217.757 609.311 210.318 595.3 206.191 C 591.395 205.038 587.293 207.275 586.143 211.18 C 584.991 215.086 587.226 219.186 591.132 220.336 C 602.976 223.824 614.046 230.116 623.145 238.53 Z  M 553.646 218.354 C 554.058 218.354 554.477 218.32 554.897 218.248 C 557.115 217.869 559.382 217.58 561.633 217.387 C 565.692 217.04 568.699 213.47 568.354 209.413 C 568.006 205.356 564.443 202.34 560.378 202.694 C 557.717 202.921 555.04 203.263 552.418 203.71 C 548.402 204.395 545.704 208.205 546.389 212.219 C 547 215.813 550.117 218.354 553.646 218.354 Z " fill-rule="evenodd" fill="rgb(255,82,151)"/></g></svg>