<?xml version="1.0" encoding="UTF-8" standalone="no"?><!-- Generator: Gravit.io --><svg xmlns="http://www.w3.org/2000/svg" xmlns:xlink="http://www.w3.org/1999/xlink" style="isolation:isolate" viewBox="0 0 1000 1000" width="1000pt" height="1000pt"><defs><clipPath id="_clipPath_OfmMbpDuKWCcMQhs5GWxW0Y12oFVZuGm"><rect width="1000" height="1000"/></clipPath></defs><g clip-path="url(#_clipPath_OfmMbpDuKWCcMQhs5GWxW0Y12oFVZuGm)"><path d=" M 407.407 25 C 395.648 25 384.63 28.426 374.861 33.681 L 374.861 32.963 C 374.051 33.31 373.495 34.051 372.685 34.398 C 285.602 73.657 222.222 153.704 222.222 256.481 L 222.222 395.37 C 222.222 535.347 336.875 650 476.852 650 L 523.148 650 C 663.125 650 777.778 535.347 777.778 395.37 L 777.778 256.481 C 777.778 153.681 714.398 73.657 627.315 34.398 C 626.505 34.051 625.949 33.31 625.139 32.963 L 625.139 33.681 C 615.176 28.137 603.993 25.154 592.593 25 C 554.514 25 523.148 56.366 523.148 94.444 C 523.148 134.861 556.435 155.116 557.87 155.926 C 558.241 156.111 558.241 156.481 558.588 156.644 C 580.579 170.231 592.593 189.468 592.593 210.185 C 592.593 245.718 553.889 279.63 500 279.63 C 446.111 279.63 407.407 245.718 407.407 210.185 C 407.407 189.468 419.444 170.208 441.412 156.644 C 441.759 156.481 441.759 156.111 442.13 155.949 C 443.588 155.093 476.852 134.861 476.852 94.444 C 476.852 56.366 445.486 25 407.407 25 Z  M 407.407 71.296 C 420.509 71.296 430.556 81.343 430.556 94.444 C 430.556 110.995 419.699 116.157 419.699 116.157 L 418.981 116.157 C 385.347 136.296 361.111 170.556 361.111 210.185 C 361.111 276.921 426.042 325.926 500 325.926 C 573.958 325.926 638.889 276.921 638.889 210.185 C 638.889 170.671 614.653 136.389 581.019 116.134 L 580.301 116.134 C 580.301 116.134 569.444 110.995 569.444 94.444 C 569.444 81.343 579.491 71.296 592.593 71.296 C 596.641 71.199 600.64 72.199 604.167 74.19 L 605.625 74.907 L 606.319 75.648 C 681.134 108.542 731.481 171.366 731.481 256.481 L 731.481 395.37 C 731.481 510.023 637.801 603.704 523.148 603.704 L 476.852 603.704 C 362.199 603.704 268.519 510.023 268.519 395.37 L 268.519 256.481 C 268.519 171.389 318.889 108.565 393.657 75.625 L 394.375 74.931 L 395.833 74.19 C 399.36 72.199 403.359 71.199 407.407 71.296 Z  M 499.282 372.222 C 481.861 372.277 466.055 382.437 458.773 398.264 L 455.162 406.944 L 445.741 409.12 C 408.843 415.162 394.028 461.667 421.157 487.963 L 428.38 494.468 L 426.944 503.889 C 421.157 541.574 459.954 569.884 492.778 551.62 L 501.435 547.269 L 510.116 551.62 C 543.403 568.889 581.389 539.236 574.514 501.713 L 573.056 492.292 L 579.583 485.81 C 605.972 458.75 590.509 411.921 553.542 406.944 L 544.12 406.227 L 539.792 397.546 C 531.296 380.532 515.37 372.037 499.282 372.222 Z  M 500 441.667 C 512.731 441.667 523.148 452.083 523.148 464.815 C 523.148 477.599 512.784 487.963 500 487.963 C 487.216 487.963 476.852 477.599 476.852 464.815 C 476.833 458.67 479.266 452.771 483.611 448.426 C 487.956 444.081 493.855 441.648 500 441.667 L 500 441.667 Z " fill="rgb(102,143,255)"/><g clip-path="url(#_clipPath_npfAg3veWxbIza5H3gt1NrsoLbcLDfWK)"><text transform="matrix(1.156,0,0,1,368.006,894.863)" style="font-family:'Chicle';font-weight:400;font-size:225px;font-style:normal;fill:#ff5297;stroke:none;">bib</text></g><defs><clipPath id="_clipPath_npfAg3veWxbIza5H3gt1NrsoLbcLDfWK"><rect x="0" y="0" width="865" height="350" transform="matrix(1.156,0,0,1,0,650)"/></clipPath></defs></g></svg>