<?xml version="1.0" encoding="UTF-8" standalone="no"?><!-- Generator: Gravit.io --><svg xmlns="http://www.w3.org/2000/svg" xmlns:xlink="http://www.w3.org/1999/xlink" style="isolation:isolate" viewBox="0 0 1000 1000" width="1000pt" height="1000pt"><defs><clipPath id="_clipPath_6Fug4oNAzvLZFQz7N1s6GtPLsj6e8vTk"><rect width="1000" height="1000"/></clipPath></defs><g clip-path="url(#_clipPath_6Fug4oNAzvLZFQz7N1s6GtPLsj6e8vTk)"><g clip-path="url(#_clipPath_zTysGeutORopXw3y1gWTClmgoFCRiBzB)"><text transform="matrix(1.156,0,0,1,74.335,894.863)" style="font-family:'Chicle';font-weight:400;font-size:225px;font-style:normal;fill:#668fff;stroke:none;">birth plan</text></g><defs><clipPath id="_clipPath_zTysGeutORopXw3y1gWTClmgoFCRiBzB"><rect x="0" y="0" width="865" height="350" transform="matrix(1.156,0,0,1,0,650)"/></clipPath></defs><path d=" M 259.615 25 C 220 25 187.5 57.5 187.5 97.115 L 187.5 577.885 C 187.5 617.5 220 650 259.615 650 L 740.385 650 C 780 650 812.5 617.5 812.5 577.885 L 812.5 97.115 C 812.5 57.5 780 25 740.385 25 L 259.615 25 Z  M 259.615 73.077 L 740.385 73.077 C 753.894 73.077 764.423 83.606 764.423 97.115 L 764.423 577.885 C 764.423 591.394 753.894 601.923 740.385 601.923 L 259.615 601.923 C 253.216 602.001 247.057 599.494 242.531 594.969 C 238.006 590.443 235.499 584.284 235.577 577.885 L 235.577 97.115 C 235.577 83.606 246.106 73.077 259.615 73.077 Z  M 331.731 217.308 L 331.731 265.385 L 668.269 265.385 L 668.269 217.308 L 331.731 217.308 Z  M 331.731 313.462 L 331.731 361.538 L 668.269 361.538 L 668.269 313.462 L 331.731 313.462 Z  M 331.731 409.615 L 331.731 457.692 L 572.115 457.692 L 572.115 409.615 L 331.731 409.615 Z " fill="rgb(255,82,151)"/></g></svg>