<?xml version="1.0" encoding="UTF-8" standalone="no"?><!-- Generator: Gravit.io --><svg xmlns="http://www.w3.org/2000/svg" xmlns:xlink="http://www.w3.org/1999/xlink" style="isolation:isolate" viewBox="0 0 1000 1000" width="1000pt" height="1000pt"><defs><clipPath id="_clipPath_4U0idDfAyNfqpYQD5U6teOWcUrUXm72I"><rect width="1000" height="1000"/></clipPath></defs><g clip-path="url(#_clipPath_4U0idDfAyNfqpYQD5U6teOWcUrUXm72I)"><g clip-path="url(#_clipPath_aQgG1DfEj3ARHpXsKoQfKc1GFsxDOMLM)"><text transform="matrix(1.156,0,0,1,291.922,894.863)" style="font-family:'Chicle';font-weight:400;font-size:225px;font-style:normal;fill:#668fff;stroke:none;">birth</text></g><defs><clipPath id="_clipPath_aQgG1DfEj3ARHpXsKoQfKc1GFsxDOMLM"><rect x="0" y="0" width="865" height="350" transform="matrix(1.156,0,0,1,0,650)"/></clipPath></defs><path d=" M 481.224 140.688 L 481.224 197.015 L 424.898 197.015 L 424.898 234.566 L 481.224 234.566 L 481.224 290.893 L 518.776 290.893 L 518.776 234.566 L 575.102 234.566 L 575.102 197.015 L 518.776 197.015 L 518.776 140.688 L 481.224 140.688 L 481.224 140.688 Z  M 500 98 L 750 205.406 L 750 556.25 C 750 573.594 736.094 587.5 718.75 587.5 L 281.25 587.5 C 263.906 587.5 250 573.594 250 556.25 L 250 205.406 L 500 98 L 500 98 Z  M 500 25 L 487.312 30.875 L 206.063 152.937 L 187.5 160.75 L 187.5 556.25 C 187.5 607.656 229.844 650 281.25 650 L 718.75 650 C 770.156 650 812.5 607.656 812.5 556.25 L 812.5 160.75 L 793.938 152.937 L 512.688 30.844 L 500 25 L 500 25 Z  M 609.167 337.373 C 605.202 337.363 601.397 338.931 598.591 341.73 C 592.771 347.55 588.642 372.811 588.642 372.811 C 588.642 372.811 613.912 368.692 619.732 362.862 C 626.481 362.85 632.382 358.31 634.124 351.79 C 635.865 345.27 633.014 338.392 627.171 335.016 C 621.327 331.64 613.945 332.607 609.167 337.373 L 609.167 337.373 Z  M 380.34 357.271 C 374.29 357.252 368.827 360.888 366.509 366.477 C 364.191 372.066 365.477 378.501 369.764 382.77 C 375.594 388.59 400.865 392.719 400.865 392.719 C 400.865 392.719 396.736 367.448 390.916 361.628 C 388.109 358.829 384.304 357.261 380.34 357.271 L 380.34 357.271 Z  M 473.612 407.015 C 461.872 408.607 450.212 412.069 439.726 418.516 C 436.423 420.267 434.353 423.73 434.403 427.461 C 434.446 431.202 436.594 434.6 439.954 436.245 C 443.305 437.905 447.303 437.543 450.301 435.31 C 457.793 430.684 466.22 428.276 476.099 426.913 C 481.571 426.217 485.501 421.203 484.804 415.721 C 484.106 410.233 479.103 406.341 473.612 407.015 L 473.612 407.015 Z  M 512.164 407.015 C 506.692 407.364 502.484 412.109 502.832 417.591 C 503.19 423.063 507.926 427.262 513.408 426.913 C 523.277 428.276 531.714 430.684 539.215 435.31 C 542.2 437.519 546.209 437.907 549.552 436.245 C 552.913 434.6 555.06 431.202 555.104 427.461 C 555.139 423.719 553.086 420.27 549.781 418.516 C 539.295 412.069 527.635 408.607 515.895 407.015 C 514.967 406.899 514.028 406.899 513.099 407.015 L 512.164 407.015 L 512.164 407.015 Z  M 494.753 436.862 C 456.281 436.862 435.059 474.569 435.059 496.556 C 435.059 518.543 456.281 496.556 494.753 496.556 C 533.226 496.556 554.447 518.543 554.447 496.556 C 554.447 474.569 533.226 436.862 494.753 436.862 L 494.753 436.862 Z  M 493.51 377.168 C 494.131 377.247 494.759 377.247 495.38 377.168 C 545.195 377.477 584.294 413.462 584.294 456.76 C 584.294 462.232 588.771 466.709 594.243 466.709 C 599.874 466.709 604.192 471.027 604.192 476.658 C 604.192 482.289 599.874 486.607 594.243 486.607 C 590.592 486.639 587.252 488.667 585.538 491.89 C 585.538 491.89 579.907 502.386 565.64 513.658 C 551.373 524.931 529.067 536.352 494.753 536.352 C 460.429 536.352 438.134 524.931 423.867 513.658 C 409.6 502.386 403.969 491.89 403.969 491.89 C 402.255 488.667 398.914 486.639 395.264 486.607 C 389.632 486.607 385.315 482.289 385.315 476.658 C 385.315 471.027 389.632 466.709 395.264 466.709 C 400.736 466.709 405.213 462.232 405.213 456.76 C 405.213 417.044 438.094 383.615 482.009 378.104 C 484.483 378.874 487.16 378.65 489.47 377.477 C 490.794 377.397 492.157 377.168 493.51 377.168 L 493.51 377.168 Z  M 443.148 317.475 C 437.666 317.972 433.617 322.877 434.124 328.359 C 434.632 333.831 439.527 337.88 445.008 337.373 C 455.773 337.373 462.499 344.217 467.702 352.604 C 469.224 355.052 470.388 357.499 471.433 359.758 C 425.339 369.12 390.249 405.463 386.867 450.234 C 375.017 454.193 365.417 463.526 365.417 476.658 C 365.417 490.219 375.594 499.819 388.11 503.401 C 389.822 506.306 396.348 517.27 411.431 529.199 C 428.642 542.799 455.932 556.25 494.753 556.25 C 533.574 556.25 560.864 542.799 578.076 529.199 C 593.159 517.27 599.685 506.316 601.396 503.401 C 613.912 499.819 624.09 490.219 624.09 476.658 C 624.09 463.526 614.489 454.193 602.64 450.234 C 599.019 402.668 559.73 364.812 509.368 358.514 C 512.671 354.982 518.303 350.853 528.331 346.695 C 533.653 345.321 536.853 339.894 535.479 334.572 C 534.106 329.25 528.678 326.05 523.357 327.424 C 522.506 327.536 521.671 327.746 520.869 328.05 C 504.155 335.005 494.634 343.869 489.779 351.679 C 488.344 348.352 486.682 345.127 484.804 342.029 C 477.691 330.548 464.479 317.475 445.008 317.475 L 443.148 317.475 L 443.148 317.475 Z " fill-rule="evenodd" fill="rgb(255,82,151)"/></g></svg>