<?xml version="1.0" encoding="UTF-8" standalone="no"?><!-- Generator: Gravit.io --><svg xmlns="http://www.w3.org/2000/svg" xmlns:xlink="http://www.w3.org/1999/xlink" style="isolation:isolate" viewBox="0 0 1000 1000" width="1000pt" height="1000pt"><defs><clipPath id="_clipPath_XLWU525NblqBI8GbL249rCCCb4War1ZP"><rect width="1000" height="1000"/></clipPath></defs><g clip-path="url(#_clipPath_XLWU525NblqBI8GbL249rCCCb4War1ZP)"><g clip-path="url(#_clipPath_aiVjGAcl1ZfoI7f6uibItIWT3XAX89rk)"><text transform="matrix(1.156,0,0,1,181.893,894.863)" style="font-family:'Chicle';font-weight:400;font-size:225px;font-style:normal;fill:#668fff;stroke:none;">blanket</text></g><defs><clipPath id="_clipPath_aiVjGAcl1ZfoI7f6uibItIWT3XAX89rk"><rect x="0" y="0" width="865" height="350" transform="matrix(1.156,0,0,1,0,650)"/></clipPath></defs><g><path d=" M 280.494 25 L 271.987 36.691 C 232.579 90.849 206.656 186.543 199.316 295.407 C 191.895 405.479 214.662 504.64 222.073 604.168 L 223.381 621.726 L 240.606 625.365 C 311.867 640.423 417.201 650.442 507.816 649.985 C 597.808 649.533 706.726 642.22 783.791 622.458 L 799.577 618.411 L 801.283 602.203 C 805.752 559.762 792.154 512.35 778.932 463.733 C 765.71 415.116 752.3 365.682 751.905 327.555 C 751.098 249.586 795.292 160.947 796.06 82.869 L 796.304 58.152 L 771.608 59.215 C 697.677 62.391 598.113 93.576 525.313 88.717 C 489.09 86.299 446.503 73.95 405.923 60.544 C 365.343 47.138 327.299 32.719 294.759 27.352 L 280.494 25 Z  M 301.989 76.979 C 325.761 82.873 357.138 93.81 391.215 105.068 C 432.753 118.79 478.136 132.563 522.192 135.504 C 598.059 140.569 684.807 116.902 746.497 108.679 C 736.973 166.538 704.177 246.741 705.019 328.039 C 705.516 376.097 720.539 427.698 733.686 476.039 C 744.503 515.814 753.537 553.471 754.836 580.917 C 685.795 595.867 588.245 602.69 507.58 603.096 L 507.578 603.096 C 427.629 603.499 333.326 594.954 267.217 582.712 C 258.511 485.453 239.649 394.257 246.101 298.56 C 252.393 205.231 276.106 121.368 301.989 76.979 L 301.989 76.979 Z " fill-rule="evenodd" fill="rgb(255,82,151)"/><path d=" M 340.793 160.663 L 312.879 257.71 L 408.911 285.333 L 410.392 280.181 L 436.825 188.286 L 340.793 160.663 Z  M 348.133 173.924 L 423.564 195.623 L 401.574 272.07 L 326.143 250.373 L 348.133 173.924 Z " fill-rule="evenodd" fill="rgb(255,82,151)"/><path d=" M 404.026 166.213 L 394.303 198.279 L 404.56 201.388 L 414.28 169.324 L 404.026 166.213 Z " fill-rule="evenodd" fill="rgb(255,82,151)"/><path d=" M 374.55 157.735 L 364.827 189.799 L 375.084 192.907 L 384.804 160.846 L 374.55 157.735 Z " fill-rule="evenodd" fill="rgb(255,82,151)"/><path d=" M 378.886 253.61 L 369.165 285.673 L 379.422 288.785 L 389.143 256.721 L 378.886 253.61 Z " fill-rule="evenodd" fill="rgb(255,82,151)"/><path d=" M 349.41 245.132 L 339.689 277.196 L 349.946 280.304 L 359.667 248.24 L 349.41 245.132 Z " fill-rule="evenodd" fill="rgb(255,82,151)"/><path d=" M 321.598 183.338 L 318.487 193.593 L 350.551 203.316 L 353.662 193.059 L 321.598 183.338 Z " fill-rule="evenodd" fill="rgb(255,82,151)"/><path d=" M 313.117 212.814 L 310.009 223.069 L 342.073 232.792 L 345.181 222.535 L 313.117 212.814 Z " fill-rule="evenodd" fill="rgb(255,82,151)"/><path d=" M 408.992 208.476 L 405.884 218.733 L 437.948 228.454 L 441.059 218.197 L 408.992 208.476 Z " fill-rule="evenodd" fill="rgb(255,82,151)"/><path d=" M 400.514 237.952 L 397.403 248.209 L 429.47 257.932 L 432.578 247.675 L 400.514 237.952 Z " fill-rule="evenodd" fill="rgb(255,82,151)"/></g></g></svg>