<?xml version="1.0" encoding="UTF-8" standalone="no"?><!-- Generator: Gravit.io --><svg xmlns="http://www.w3.org/2000/svg" xmlns:xlink="http://www.w3.org/1999/xlink" style="isolation:isolate" viewBox="0 0 1000 1000" width="1000pt" height="1000pt"><defs><clipPath id="_clipPath_vQR4XWBpXVMvj6RvtzohEmRHgJQZ2KLN"><rect width="1000" height="1000"/></clipPath></defs><g clip-path="url(#_clipPath_vQR4XWBpXVMvj6RvtzohEmRHgJQZ2KLN)"><g clip-path="url(#_clipPath_z66grPe9e9gRAomaGFg5b1ZO7qm4fbrD)"><text transform="matrix(1.156,0,0,1,193.338,894.863)" style="font-family:'Chicle';font-weight:400;font-size:225px;font-style:normal;fill:#668fff;stroke:none;">booties</text></g><defs><clipPath id="_clipPath_z66grPe9e9gRAomaGFg5b1ZO7qm4fbrD"><rect x="0" y="0" width="865" height="350" transform="matrix(1.156,0,0,1,0,650)"/></clipPath></defs><g><path d=" M 639.243 88.104 C 649.605 92.939 656.735 102.433 660.127 110.897 C 664.114 120.848 665.214 130.71 665.625 140.852 C 666.447 161.135 663.696 182.852 661.517 200.172 C 659.835 213.54 661.443 236.962 657.626 261.912 C 656.324 270.423 654.116 279.396 650.646 288.223 C 662.607 289.005 675.923 289.83 689.461 291.32 C 716.96 294.345 746.412 299.924 770.696 318.248 C 792.145 334.433 814.729 358.774 832.497 386.701 C 850.266 414.627 863.924 446.111 860.887 478.693 C 858.66 502.599 856.401 538.215 839.687 572.266 C 822.972 606.318 789.582 637.727 734.603 649.21 L 732.208 649.711 L 729.762 649.687 C 576.559 648.185 343.616 653.523 191.255 645.126 L 176.918 644.336 L 171.539 631.024 C 162.644 609.001 163.285 585.705 164.723 563.929 C 166.162 542.154 168.919 521.38 168.767 508.547 L 168.758 507.785 L 168.8 507.026 C 171.611 456.334 180.834 393.29 187.235 342.15 L 187.235 342.15 C 172.303 336.814 159.035 330.271 148.029 321.884 L 138.688 314.765 L 139.145 303.029 C 142.14 225.935 142.173 182.642 168.48 102.977 L 168.992 101.428 L 169.72 99.966 C 175.081 89.23 187.146 80.465 198.843 77.861 C 202.239 75.75 206.091 73.29 210.019 70.696 C 225.704 60.337 245.526 48.213 269.67 42.654 C 311.113 33.112 369.508 26.143 420.094 25.168 C 470.354 24.201 532.959 27.304 572.833 37.09 C 596.835 42.98 613.052 58.044 624.133 69.877 C 629.673 75.793 634.149 81.073 637.321 84.306 C 640.494 87.539 642.489 87.917 639.57 87.029 L 639.243 88.104 Z  M 585.591 95.161 C 584.3 95.833 583.025 96.514 581.753 97.194 C 567.311 104.905 553.328 112.361 540.66 114.426 C 506.047 120.07 450.681 125.823 408.777 126.003 C 366.572 126.186 320.258 121.766 285.271 115.607 C 278.386 114.395 265.992 106.657 252.283 97.872 C 261.381 92.876 270.699 88.805 279.813 86.707 L 279.815 86.707 C 316.729 78.208 373.982 71.27 420.964 70.365 C 468.272 69.454 531.486 73.49 562.057 80.993 C 570.979 83.182 578.392 88.304 585.591 95.161 Z  M 208.54 126.395 L 208.54 126.395 C 188.316 190.498 187.204 226.685 184.84 291.348 C 201.484 299.503 231.629 308.717 264.777 314.598 C 305.545 321.83 351.376 325.834 386.828 326.656 C 455.087 328.239 543.227 311.112 591.692 293.681 C 605.605 284.39 610.285 272.426 612.939 255.076 C 615.705 236.997 614.021 215.546 616.665 194.528 C 618.812 177.464 621.046 157.189 620.457 142.684 C 620.217 136.759 619.388 132.413 618.652 129.729 C 615.478 130.745 609.827 133.45 603.046 137.071 C 589.463 144.323 571.189 155.251 547.933 159.042 C 510.697 165.113 454.717 171.011 408.974 171.208 C 363.531 171.405 315.424 166.816 277.433 160.128 C 249.846 155.271 230.431 137.457 216.044 128.385 C 213.881 127.02 212.089 126.115 210.423 125.311 C 209.813 125.688 209.18 126.044 208.54 126.395 Z  M 617.586 330.827 C 639.052 333.6 662.506 333.831 684.517 336.253 C 708.867 338.932 730.414 344.484 743.467 354.333 C 759.356 366.322 779.681 387.901 794.358 410.967 C 809.034 434.034 817.357 458.614 815.876 474.497 C 813.587 499.058 810.858 528.41 799.108 552.348 C 787.54 575.915 769.256 595.227 727.239 604.479 C 578.035 603.1 358.638 607.668 210.487 600.689 C 209.245 591.193 208.997 579.502 209.829 566.909 C 211.119 547.385 214.194 526.858 213.97 508.01 L 213.937 509.529 C 216.45 464.21 224.886 404.87 231.29 354.167 C 239.584 355.935 248.139 357.557 256.879 359.107 C 300.514 366.848 347.879 370.969 385.78 371.848 C 463.21 373.643 554.194 355.783 609.675 335.315 L 611.792 334.534 L 613.712 333.351 C 615.039 332.533 616.329 331.69 617.586 330.827 L 617.586 330.827 Z " fill-rule="evenodd" fill="rgb(255,82,151)"/></g></g></svg>