<?xml version="1.0" encoding="UTF-8" standalone="no"?><!-- Generator: Gravit.io --><svg xmlns="http://www.w3.org/2000/svg" xmlns:xlink="http://www.w3.org/1999/xlink" style="isolation:isolate" viewBox="0 0 1000 1000" width="1000pt" height="1000pt"><defs><clipPath id="_clipPath_vpFSJS15lTj5jkC06DvfwwIfe9JCrnb4"><rect width="1000" height="1000"/></clipPath></defs><g clip-path="url(#_clipPath_vpFSJS15lTj5jkC06DvfwwIfe9JCrnb4)"><g clip-path="url(#_clipPath_r6V0MtNFXNjc3w8bNjjoYqa1VfroOVFr)"><text transform="matrix(1.156,0,0,1,233.786,894.863)" style="font-family:'Chicle';font-weight:400;font-size:225px;font-style:normal;fill:#ff5297;stroke:none;">boppy</text></g><defs><clipPath id="_clipPath_r6V0MtNFXNjc3w8bNjjoYqa1VfroOVFr"><rect x="0" y="0" width="865" height="350" transform="matrix(1.156,0,0,1,0,650)"/></clipPath></defs><path d=" M 402.092 470.953 C 421.756 490.606 432.826 517.288 432.837 545.086 C 432.843 572.889 421.804 599.589 402.151 619.254 C 382.498 638.919 355.816 649.988 328.018 650 C 300.215 650.006 273.515 638.966 253.85 619.314 C 237.205 602.68 222.274 584.403 209.306 564.768 C 196.677 545.626 185.975 525.279 177.362 504.03 C 160.527 462.435 151.884 417.974 151.896 373.104 C 151.884 328.234 160.527 283.773 177.362 242.178 C 185.975 220.929 196.677 200.583 209.306 181.44 C 222.274 161.817 237.181 143.552 253.82 126.924 C 270.448 110.285 288.713 95.378 308.336 82.41 C 327.478 69.781 347.825 59.08 369.074 50.466 C 410.669 33.631 455.13 24.988 500 25 C 544.87 24.988 589.331 33.631 630.926 50.466 C 652.175 59.08 672.522 69.781 691.664 82.41 C 711.287 95.378 729.552 110.285 746.18 126.924 C 762.819 143.552 777.726 161.817 790.694 181.44 C 803.323 200.583 814.025 220.929 822.638 242.178 C 839.473 283.773 848.116 328.234 848.104 373.104 C 848.116 417.974 839.473 462.435 822.638 504.03 C 814.025 525.279 803.323 545.626 790.694 564.768 C 777.726 584.403 762.795 602.68 746.15 619.314 C 726.485 638.966 699.785 650.006 671.982 650 C 644.184 649.988 617.502 638.919 597.849 619.254 C 578.196 599.589 567.157 572.889 567.163 545.086 C 567.174 517.288 578.244 490.606 597.908 470.953 C 604.546 464.315 610.502 457.031 615.669 449.206 C 620.64 441.673 624.846 433.67 628.233 425.312 C 634.948 408.726 638.389 391.001 638.371 373.104 C 638.389 355.207 634.948 337.482 628.233 320.896 C 624.846 312.538 620.64 304.536 615.669 297.002 C 610.49 289.166 604.529 281.863 597.879 275.225 C 591.241 268.576 583.938 262.614 576.102 257.435 C 568.568 252.464 560.566 248.258 552.208 244.871 C 535.622 238.156 517.897 234.716 500 234.733 C 482.103 234.716 464.378 238.156 447.792 244.871 C 439.434 248.258 431.432 252.464 423.898 257.435 C 416.062 262.614 408.759 268.576 402.121 275.225 C 395.471 281.863 389.51 289.166 384.331 297.002 C 379.36 304.536 375.154 312.538 371.767 320.896 C 365.052 337.482 361.611 355.207 361.629 373.104 C 361.611 391.001 365.052 408.726 371.767 425.312 C 375.154 433.67 379.36 441.673 384.331 449.206 C 389.498 457.031 395.454 464.315 402.092 470.953 Z  M 390.89 545.103 L 390.89 545.112 C 390.89 545.112 390.89 545.112 390.89 545.112 C 390.898 561.789 384.271 577.804 372.475 589.608 C 360.689 601.403 344.682 608.047 328.004 608.056 L 327.988 608.056 C 327.988 608.056 327.988 608.056 327.988 608.056 C 311.31 608.056 295.295 601.428 283.5 589.642 C 268.852 575.011 255.723 558.929 244.314 541.655 C 233.215 524.835 223.811 506.958 216.244 488.284 C 201.445 451.723 193.836 412.647 193.845 373.201 L 193.845 373.1 L 193.845 373.008 C 193.836 333.562 201.445 294.485 216.244 257.925 C 223.811 239.251 233.215 221.374 244.314 204.553 C 255.723 187.288 268.844 171.215 283.483 156.584 C 298.114 141.945 314.179 128.824 331.444 117.415 C 348.264 106.316 366.15 96.912 384.824 89.345 C 421.384 74.546 460.461 66.946 499.907 66.946 L 499.999 66.946 L 500.1 66.946 C 539.537 66.946 578.614 74.546 615.183 89.345 C 633.857 96.912 651.734 106.316 668.555 117.415 C 685.819 128.824 701.893 141.945 716.515 156.584 C 731.155 171.215 744.284 187.288 755.693 204.553 C 766.783 221.374 776.188 239.251 783.763 257.925 C 798.553 294.485 806.162 333.562 806.162 373.008 L 806.162 373.1 L 806.162 373.201 C 806.162 412.647 798.553 451.723 783.763 488.284 C 776.188 506.958 766.783 524.835 755.685 541.655 C 744.275 558.929 731.146 575.011 716.507 589.642 C 704.703 601.428 688.689 608.056 672.011 608.056 C 672.011 608.056 672.011 608.056 672.011 608.056 L 671.994 608.056 C 655.316 608.047 639.31 601.403 627.523 589.608 C 615.736 577.804 609.109 561.789 609.109 545.112 C 609.109 545.112 609.109 545.112 609.109 545.112 L 609.109 545.103 C 609.117 528.417 615.761 512.411 627.557 500.624 C 636.197 491.992 643.941 482.512 650.669 472.319 C 657.17 462.47 662.682 452 667.112 441.061 C 675.836 419.509 680.316 396.481 680.316 373.243 C 680.316 373.234 680.316 373.226 680.316 373.218 L 680.316 373.1 L 680.316 372.983 C 680.316 372.983 680.316 372.974 680.316 372.966 C 680.316 349.728 675.836 326.7 667.112 305.148 C 662.682 294.217 657.17 283.739 650.677 273.89 C 643.941 263.697 636.189 254.2 627.54 245.568 C 618.899 236.919 609.411 229.167 599.21 222.431 C 589.361 215.929 578.891 210.426 567.952 205.996 C 546.408 197.271 523.38 192.783 500.133 192.783 C 500.133 192.783 500.125 192.783 500.117 192.783 L 499.999 192.792 L 499.882 192.783 C 499.873 192.783 499.873 192.783 499.865 192.783 C 476.619 192.783 453.59 197.271 432.047 205.996 C 421.107 210.426 410.638 215.929 400.789 222.431 C 390.588 229.167 381.099 236.919 372.459 245.568 C 363.818 254.2 356.066 263.697 349.33 273.89 C 342.828 283.739 337.316 294.217 332.887 305.148 C 324.162 326.7 319.682 349.728 319.682 372.966 C 319.682 372.974 319.682 372.983 319.682 372.983 L 319.682 373.1 L 319.682 373.218 C 319.682 373.226 319.682 373.234 319.682 373.243 C 319.682 396.481 324.162 419.509 332.887 441.061 C 337.316 452 342.828 462.47 349.33 472.319 C 356.058 482.512 363.801 491.992 372.442 500.624 C 384.237 512.411 390.881 528.417 390.89 545.103 Z " fill-rule="evenodd" fill="rgb(102,143,255)"/></g></svg>