<?xml version="1.0" encoding="UTF-8" standalone="no"?><!-- Generator: Gravit.io --><svg xmlns="http://www.w3.org/2000/svg" xmlns:xlink="http://www.w3.org/1999/xlink" style="isolation:isolate" viewBox="0 0 1000 1000" width="1000pt" height="1000pt"><defs><clipPath id="_clipPath_0lhTWhgEgnB0RjIBGdd0Bqt4ya9BK9Sn"><rect width="1000" height="1000"/></clipPath></defs><g clip-path="url(#_clipPath_0lhTWhgEgnB0RjIBGdd0Bqt4ya9BK9Sn)"><g clip-path="url(#_clipPath_fuwTflFs5uucKxqPslGeGTELu2JTYMeJ)"><text transform="matrix(1.156,0,0,1,28.035,880.89)" style="font-family:'Chicle';font-weight:400;font-size:180px;font-style:normal;fill:#668fff;stroke:none;">breastfeeding</text></g><defs><clipPath id="_clipPath_fuwTflFs5uucKxqPslGeGTELu2JTYMeJ"><rect x="0" y="0" width="865" height="350" transform="matrix(1.156,0,0,1,0,650)"/></clipPath></defs><path d=" M 473.934 25 C 402.32 25 343.726 83.594 343.726 155.208 C 343.726 165.078 344.846 174.427 346.981 183.698 C 327.45 186.745 299.976 194.062 277.815 216.25 C 241.096 252.969 239.559 311.458 239.559 311.458 C 239.559 311.458 298.049 309.922 334.768 273.203 C 350.341 257.656 358.466 239.427 363.257 222.76 C 386.252 260 427.242 285.417 473.934 285.417 C 545.549 285.417 604.143 226.823 604.143 155.208 C 604.143 83.594 545.549 25 473.934 25 Z  M 473.934 77.083 C 517.372 77.083 552.059 111.771 552.059 155.208 C 552.059 198.646 517.372 233.333 473.934 233.333 C 430.497 233.333 395.809 198.646 395.809 155.208 C 395.809 111.771 430.497 77.083 473.934 77.083 Z  M 473.127 311.458 C 344.429 311.458 239.559 416.328 239.559 545.026 L 239.559 650 L 291.643 650 L 291.643 545.026 C 291.643 445.026 373.127 363.542 473.127 363.542 C 530.947 363.564 585.317 391.053 619.611 437.604 L 695.289 541.771 C 709.95 561.693 712.372 588.151 700.992 610.13 L 679.82 650 L 738.414 650 L 747.372 633.724 C 767.83 594.252 764.041 546.579 737.606 510.833 L 661.096 406.667 C 617.177 346.821 547.385 311.466 473.153 311.458 L 473.127 311.458 Z  M 565.08 467.708 C 541.773 467.708 518.596 476.771 500.783 494.557 C 486.442 508.797 477.275 527.424 474.742 547.474 C 446.461 546.74 419.114 557.619 399.065 577.578 L 371.382 605.234 C 358.466 618.151 350.757 633.516 346.174 650 L 402.32 650 C 404.247 647.057 406.278 644.401 408.83 641.849 L 436.513 614.193 C 446.252 604.427 458.778 598.724 472.294 598.724 C 476.877 598.724 481.46 599.948 486.148 601.172 L 500.783 604.427 L 528.466 576.745 L 526.825 564.557 C 525.106 552.135 528.752 539.74 537.424 531.172 C 552.714 515.911 577.473 515.911 592.763 531.172 C 607.967 546.485 607.967 571.197 592.763 586.51 C 584.195 595.182 571.669 598.828 559.377 597.109 L 547.19 595.469 L 519.507 623.151 L 522.763 637.786 C 523.882 641.953 524.299 645.937 524.403 650 L 576.486 650 L 576.486 649.193 C 596.518 646.648 615.125 637.482 629.351 623.151 C 646.524 606.163 656.187 583.01 656.187 558.854 C 656.187 534.698 646.524 511.546 629.351 494.557 C 612.355 477.411 589.223 467.748 565.08 467.708 Z " fill="rgb(255,82,151)"/></g></svg>