<?xml version="1.0" encoding="UTF-8" standalone="no"?><!-- Generator: Gravit.io --><svg xmlns="http://www.w3.org/2000/svg" xmlns:xlink="http://www.w3.org/1999/xlink" style="isolation:isolate" viewBox="0 0 1000 1000" width="1000pt" height="1000pt"><defs><clipPath id="_clipPath_LhkHM85l1upi0zf50O3SbyViYlNgI5Qd"><rect width="1000" height="1000"/></clipPath></defs><g clip-path="url(#_clipPath_LhkHM85l1upi0zf50O3SbyViYlNgI5Qd)"><g clip-path="url(#_clipPath_jOLzdfjsxt3i7KC3UOnzdCu6GDrQr8Th)"><text transform="matrix(1.156,0,0,1,135.072,894.863)" style="font-family:'Chicle';font-weight:400;font-size:225px;font-style:normal;fill:#ff5297;stroke:none;">cheerios</text></g><defs><clipPath id="_clipPath_jOLzdfjsxt3i7KC3UOnzdCu6GDrQr8Th"><rect x="0" y="0" width="865" height="350" transform="matrix(1.156,0,0,1,0,650)"/></clipPath></defs><g><path d=" M 129.844 242.249 C 129.844 167.235 190.746 106.333 265.761 106.333 C 340.775 106.333 401.678 167.235 401.678 242.249 C 401.678 317.264 340.775 378.166 265.761 378.166 C 190.746 378.166 129.844 317.264 129.844 242.249 Z  M 179.807 242.249 C 179.807 194.81 218.322 156.296 265.761 156.296 C 313.2 156.296 351.715 194.81 351.715 242.249 C 351.715 289.689 313.2 328.203 265.761 328.203 C 218.322 328.203 179.807 289.689 179.807 242.249 Z " fill-rule="evenodd" fill="rgb(102,143,255)"/><path d=" M 497.581 160.917 C 497.581 85.902 558.483 25 633.498 25 C 708.512 25 769.414 85.902 769.414 160.917 C 769.414 235.931 708.512 296.834 633.498 296.834 C 558.483 296.834 497.581 235.931 497.581 160.917 Z  M 547.544 160.917 C 547.544 113.478 586.058 74.963 633.498 74.963 C 680.937 74.963 719.451 113.478 719.451 160.917 C 719.451 208.356 680.937 246.871 633.498 246.871 C 586.058 246.871 547.544 208.356 547.544 160.917 Z " fill-rule="evenodd" fill="rgb(102,143,255)"/><path d=" M 401.678 315.264 C 401.678 240.249 462.58 179.347 537.595 179.347 C 612.609 179.347 673.511 240.249 673.511 315.264 C 673.511 390.279 612.609 451.181 537.595 451.181 C 462.58 451.181 401.678 390.279 401.678 315.264 Z  M 451.641 315.264 C 451.641 267.825 490.155 229.31 537.595 229.31 C 585.034 229.31 623.548 267.825 623.548 315.264 C 623.548 362.703 585.034 401.218 537.595 401.218 C 490.155 401.218 451.641 362.703 451.641 315.264 Z " fill-rule="evenodd" fill="rgb(102,143,255)"/><path d=" M 201.01 514.083 C 201.01 439.069 261.912 378.166 336.927 378.166 C 411.942 378.166 472.844 439.069 472.844 514.083 C 472.844 589.098 411.942 650 336.927 650 C 261.912 650 201.01 589.098 201.01 514.083 Z  M 250.973 514.083 C 250.973 466.644 289.488 428.129 336.927 428.129 C 384.366 428.129 422.881 466.644 422.881 514.083 C 422.881 561.522 384.366 600.037 336.927 600.037 C 289.488 600.037 250.973 561.522 250.973 514.083 Z " fill-rule="evenodd" fill="rgb(102,143,255)"/><path d=" M 598.322 514.083 C 598.322 439.069 659.225 378.166 734.239 378.166 C 809.254 378.166 870.156 439.069 870.156 514.083 C 870.156 589.098 809.254 650 734.239 650 C 659.225 650 598.322 589.098 598.322 514.083 Z  M 648.285 514.083 C 648.285 466.644 686.8 428.129 734.239 428.129 C 781.678 428.129 820.193 466.644 820.193 514.083 C 820.193 561.522 781.678 600.037 734.239 600.037 C 686.8 600.037 648.285 561.522 648.285 514.083 Z " fill-rule="evenodd" fill="rgb(102,143,255)"/></g></g></svg>