<?xml version="1.0" encoding="UTF-8" standalone="no"?><!-- Generator: Gravit.io --><svg xmlns="http://www.w3.org/2000/svg" xmlns:xlink="http://www.w3.org/1999/xlink" style="isolation:isolate" viewBox="0 0 1000 1000" width="1000pt" height="1000pt"><defs><clipPath id="_clipPath_1G594cJVV9rjYH9nWPWJT9JxzYyrH9d4"><rect width="1000" height="1000"/></clipPath></defs><g clip-path="url(#_clipPath_1G594cJVV9rjYH9nWPWJT9JxzYyrH9d4)"><g clip-path="url(#_clipPath_fFuG0BzyDPqbEqczM0JyH0eBPu02c4G9)"><text transform="matrix(1.156,0,0,1,217.139,894.863)" style="font-family:'Chicle';font-weight:400;font-size:225px;font-style:normal;fill:#ff5297;stroke:none;">diaper</text></g><defs><clipPath id="_clipPath_fFuG0BzyDPqbEqczM0JyH0eBPu02c4G9"><rect x="0" y="0" width="865" height="350" transform="matrix(1.156,0,0,1,0,650)"/></clipPath></defs><path d=" M 585.692 639.656 L 584.041 639.656 C 580.539 639.656 577.152 638.368 574.528 636.04 C 571.913 633.712 570.234 630.496 569.823 627.013 C 568.678 617.261 568.096 607.443 568.087 597.614 C 568.173 528.693 595.644 462.557 644.404 413.845 C 668.106 390.143 696.169 371.231 727.037 358.158 C 742.772 351.508 759.127 346.422 775.864 342.996 C 793.096 339.475 810.644 337.7 828.23 337.7 C 828.23 337.7 828.23 337.7 828.23 337.7 L 839.986 337.7 C 844.222 337.7 848.249 339.58 850.968 342.834 C 853.688 346.088 854.823 350.382 854.07 354.561 C 841.818 422.376 810.339 485.267 763.402 535.716 C 716.455 586.174 655.997 622.099 589.241 639.208 C 588.077 639.504 586.884 639.656 585.692 639.656 Z  M 596.932 607.319 C 596.789 604.084 596.713 600.849 596.713 597.614 C 596.799 536.288 621.245 477.433 664.633 434.094 C 685.739 412.987 710.72 396.155 738.201 384.523 C 752.18 378.607 766.722 374.094 781.598 371.04 C 795.033 368.302 808.678 366.746 822.381 366.403 C 809.203 422.433 781.646 474.074 742.438 516.221 C 702.791 558.845 652.591 590.267 596.932 607.319 Z  M 414.641 639.647 L 416.292 639.647 C 419.794 639.647 423.181 638.359 425.805 636.031 C 428.42 633.702 430.099 630.487 430.51 627.004 C 431.655 617.252 432.237 607.433 432.246 597.605 C 432.16 528.683 404.689 462.548 355.929 413.836 C 332.227 390.134 304.164 371.221 273.296 358.149 C 257.561 351.498 241.206 346.412 224.469 342.987 C 207.237 339.466 189.689 337.691 172.103 337.691 C 172.103 337.691 172.103 337.691 172.103 337.691 L 160.347 337.691 C 156.111 337.691 152.084 339.571 149.365 342.824 C 146.645 346.078 145.51 350.372 146.263 354.552 C 158.515 422.366 189.994 485.258 236.931 535.706 C 283.878 586.164 344.336 622.09 411.092 639.198 C 412.256 639.494 413.449 639.647 414.641 639.647 Z  M 403.401 607.309 C 403.544 604.074 403.62 600.84 403.62 597.605 C 403.534 536.279 379.088 477.424 335.7 434.084 C 314.594 412.977 289.613 396.145 262.132 384.513 C 248.153 378.597 233.611 374.084 218.735 371.031 C 205.3 368.292 191.655 366.737 177.952 366.393 C 191.13 422.424 218.687 474.065 257.895 516.212 C 297.542 558.836 347.742 590.258 403.401 607.309 Z " fill-rule="evenodd" fill="rgb(102,143,255)"/><path d=" M 501.574 99.428 C 467.597 99.428 438.125 120.876 428.142 151.336 C 394.494 150.647 364.813 171.393 354.231 202.795 C 343.244 235.365 356.925 270.27 385.573 288.396 C 375.335 319.499 384.87 352.533 410.824 370.719 C 425.088 380.703 440.64 385.687 456.67 385.687 C 471.803 385.687 487.01 380.897 501.11 372.111 C 532.153 391.764 571.848 387.962 593.716 371.183 C 618.981 351.77 628.097 319.544 618.039 289.324 C 644.831 271.213 656.865 235.994 645.639 202.795 C 635.341 172.336 606.633 152.159 574.542 151.336 C 564.484 120.996 535.371 99.428 501.574 99.428 Z  M 501.574 129.363 C 525.253 129.363 545.011 146.606 547.884 169.118 L 550.219 184.085 L 565.187 181.736 C 588.223 178.233 609.971 191.046 617.096 212.15 C 625.058 235.829 614.88 260.272 593.252 268.743 L 577.341 274.82 L 585.768 289.788 C 595.287 307.211 595.707 331.833 575.47 347.325 C 562.792 357.024 532.917 361.065 511.393 342.64 L 502.038 334.707 L 492.219 342.191 C 471.459 358.655 447.78 359.957 427.663 345.932 C 408.085 332.237 407.965 306.567 417.844 288.381 L 426.271 273.413 L 409.896 267.336 C 387.01 258.565 375.275 234.317 382.759 212.165 C 389.076 193.395 407.082 181.287 427.199 181.287 C 430.417 181.287 433.755 181.586 437.018 182.229 L 452.929 185.492 L 454.799 169.597 C 457.434 146.801 477.655 129.363 501.574 129.363 Z  M 500.167 205.13 C 475.44 205.13 455.263 225.247 455.263 250.034 C 455.263 274.82 475.44 294.937 500.167 294.937 C 524.894 294.937 545.07 274.82 545.07 250.034 C 545.07 225.247 524.894 205.13 500.167 205.13 Z  M 831.426 238.718 L 831.426 290.439 C 831.426 312.824 829.136 335.162 824.575 357.08 C 820.148 378.368 813.593 399.17 805.033 419.151 C 796.589 438.845 786.255 457.672 774.184 475.372 C 762.19 492.968 748.545 509.38 733.449 524.389 C 718.373 539.399 701.913 552.939 684.28 564.847 C 666.579 576.794 647.781 587.023 628.125 595.372 C 608.249 603.817 587.581 610.277 566.436 614.656 C 544.776 619.122 522.724 621.374 500.606 621.374 C 478.469 621.384 456.388 619.179 434.69 614.819 C 413.526 610.553 392.839 604.227 372.906 595.935 C 333.602 579.58 297.791 555.821 267.448 525.954 C 236.951 495.973 212.6 460.315 195.768 420.992 C 187.152 400.821 180.596 379.838 176.178 358.359 C 171.598 336.011 169.299 313.254 169.318 290.448 L 169.318 290.439 L 169.318 290.439 L 169.318 238.764 L 250.992 238.543 L 250.992 238.543 C 269.624 236.473 282.896 228.502 291.331 220.057 C 297.142 214.256 301.77 207.386 304.976 199.828 C 308.287 191.975 309.986 183.55 309.976 175.038 L 309.976 168.111 C 309.976 151.231 303.268 135.019 291.331 123.092 C 285.53 117.281 278.659 112.643 271.093 109.447 C 263.249 106.136 254.823 104.428 246.302 104.437 L 169.318 104.437 L 169.318 86.317 C 169.318 77.653 172.762 69.332 178.898 63.197 C 185.024 57.071 193.344 53.626 202.009 53.626 L 798.736 53.626 C 798.745 53.626 798.745 53.626 798.745 53.626 C 803.115 53.626 807.438 54.494 811.465 56.193 C 815.348 57.834 818.869 60.22 821.856 63.197 C 824.833 66.183 827.218 69.714 828.86 73.597 C 830.558 77.615 831.436 81.937 831.426 86.307 C 831.426 86.307 831.426 86.317 831.426 86.317 L 831.426 104.389 L 753.698 104.389 C 745.177 104.38 736.751 106.088 728.907 109.399 C 721.341 112.595 714.47 117.233 708.669 123.044 C 696.732 134.971 690.024 151.183 690.024 168.063 L 690.024 174.991 C 690.014 183.502 691.713 191.928 695.024 199.781 C 698.23 207.338 702.858 214.208 708.669 220.01 C 717.104 228.454 730.376 236.425 749.008 238.495 L 749.008 238.495 L 831.426 238.718 Z  M 860.052 238.239 L 860.052 290.439 C 860.052 290.439 860.052 290.439 860.052 290.439 C 860.052 314.79 857.562 339.074 852.61 362.91 C 847.781 386.069 840.663 408.693 831.341 430.429 C 822.171 451.823 810.949 472.271 797.829 491.498 C 784.814 510.592 770.024 528.397 753.64 544.685 C 737.285 560.964 719.423 575.658 700.301 588.569 C 681.083 601.546 660.663 612.643 639.318 621.718 C 617.705 630.906 595.234 637.929 572.228 642.691 C 548.669 647.548 524.671 650 500.606 650 C 476.57 650.01 452.6 647.624 429.031 642.882 C 406.045 638.244 383.564 631.374 361.913 622.366 C 319.222 604.609 280.329 578.798 247.371 546.365 C 214.213 513.76 187.743 474.99 169.451 432.242 C 160.081 410.305 152.934 387.481 148.135 364.113 C 143.163 339.866 140.673 315.181 140.692 290.429 L 140.692 238.406 C 132.74 237.211 125.318 233.5 119.566 227.748 C 112.476 220.658 108.497 211.031 108.497 201.011 L 108.497 142.252 C 108.497 132.233 112.476 122.605 119.566 115.515 C 125.318 109.763 132.74 106.053 140.692 104.857 L 140.692 104.857 L 140.692 86.317 C 140.692 70.057 147.161 54.456 158.65 42.958 C 170.148 31.46 185.759 25 202.009 25 L 798.726 25 C 806.932 24.99 815.052 26.632 822.61 29.819 C 829.89 32.91 836.503 37.366 842.094 42.958 C 847.686 48.55 852.152 55.162 855.234 62.452 C 858.421 70 860.062 78.12 860.052 86.326 L 860.052 104.929 L 860.052 104.929 C 867.722 106.239 874.862 109.896 880.434 115.468 C 887.524 122.557 891.503 132.185 891.503 142.204 L 891.503 200.964 C 891.503 210.983 887.524 220.611 880.434 227.7 C 874.862 233.272 867.722 236.929 860.052 238.239 Z  M 846.908 133.015 C 846.521 133.047 846.131 133.063 845.739 133.063 C 845.349 133.063 844.96 133.047 844.574 133.015 L 753.688 133.015 C 753.688 133.015 753.678 133.015 753.678 133.015 C 748.993 133.015 744.365 133.95 740.052 135.763 C 735.892 137.529 732.104 140.076 728.907 143.283 C 722.343 149.847 718.65 158.769 718.65 168.063 L 718.65 174.991 C 718.65 175 718.65 175 718.65 175 C 718.64 179.685 719.575 184.313 721.398 188.626 C 723.163 192.796 725.711 196.574 728.907 199.771 C 735.472 206.336 744.394 210.038 753.688 210.038 C 754.299 210.038 754.909 210.076 755.52 210.153 L 755.52 210.153 L 853.688 210.153 C 856.131 210.153 858.468 209.179 860.186 207.462 C 861.913 205.735 862.877 203.397 862.877 200.964 L 862.877 142.204 C 862.877 139.771 861.913 137.433 860.186 135.706 C 858.468 133.989 856.131 133.015 853.688 133.015 L 846.908 133.015 L 846.908 133.015 Z  M 244.48 210.2 L 146.312 210.2 C 143.869 210.2 141.532 209.227 139.814 207.51 C 138.087 205.782 137.123 203.445 137.123 201.011 L 137.123 142.252 C 137.123 139.819 138.087 137.481 139.814 135.754 C 141.532 134.036 143.869 133.063 146.312 133.063 L 155.005 133.063 L 246.312 133.063 C 246.312 133.063 246.322 133.063 246.322 133.063 C 251.007 133.063 255.635 133.998 259.948 135.811 C 264.108 137.576 267.896 140.124 271.093 143.33 C 277.657 149.895 281.35 158.817 281.35 168.111 L 281.35 175.038 C 281.35 175.048 281.35 175.048 281.35 175.048 C 281.36 179.733 280.425 184.361 278.602 188.674 C 276.837 192.844 274.289 196.622 271.093 199.819 C 264.528 206.384 255.606 210.086 246.312 210.086 C 245.701 210.086 245.091 210.124 244.48 210.2 L 244.48 210.2 L 244.48 210.2 L 244.48 210.2 Z " fill-rule="evenodd" fill="rgb(102,143,255)"/></g></svg>