<?xml version="1.0" encoding="UTF-8" standalone="no"?><!-- Generator: Gravit.io --><svg xmlns="http://www.w3.org/2000/svg" xmlns:xlink="http://www.w3.org/1999/xlink" style="isolation:isolate" viewBox="0 0 1000 1000" width="1000pt" height="1000pt"><defs><clipPath id="_clipPath_JoWOd5eXZmGWOtdX4mFg6BFox1Zkiim0"><rect width="1000" height="1000"/></clipPath></defs><g clip-path="url(#_clipPath_JoWOd5eXZmGWOtdX4mFg6BFox1Zkiim0)"><g clip-path="url(#_clipPath_AyC8jrTpG4qIiO4osFaolL9LTfTeY8MB)"><text transform="matrix(1.156,0,0,1,176.171,894.863)" style="font-family:'Chicle';font-weight:400;font-size:225px;font-style:normal;fill:#668fff;stroke:none;">mittens</text></g><defs><clipPath id="_clipPath_AyC8jrTpG4qIiO4osFaolL9LTfTeY8MB"><rect x="0" y="0" width="865" height="350" transform="matrix(1.156,0,0,1,0,650)"/></clipPath></defs><path d=" M 737.132 25 C 700.478 25 661.47 31.075 630.97 54.231 C 600.479 77.377 580.207 117.339 580.207 180.064 C 580.207 199.41 581.704 226.829 583.289 250.517 C 581.438 249.06 578.662 246.825 577.126 245.594 C 574.251 243.29 571.977 241.361 570.362 240.061 C 569.555 239.401 568.934 238.87 568.511 238.515 C 568.098 238.171 567.015 237.481 567.901 238.22 L 567.595 237.905 C 541.752 217.407 503.798 221.601 482.985 247.14 C 461.601 273.397 468.68 312.778 492.525 331.12 C 506.604 341.97 533.787 363.206 557.13 386.815 C 580.473 410.424 598.362 437.194 598.362 452.966 L 598.362 480.04 C 598.362 500.46 615.394 517.265 635.892 517.265 L 819.901 517.265 C 840.435 517.206 857.067 500.575 857.126 480.04 L 857.126 452.966 C 857.126 446.763 857.668 439.931 858.662 432.655 L 858.662 432.35 C 858.977 431.542 859.164 430.735 859.282 429.888 L 859.282 428.963 C 867.05 377.275 894.046 301.171 894.046 217.289 C 894.046 148.106 874.474 99.608 844.514 68.693 C 814.545 37.76 774.898 25 737.122 25 L 737.132 25 Z  M 737.132 44.691 C 770.468 44.691 804.503 55.885 830.347 82.536 C 856.191 109.187 874.346 151.837 874.346 217.279 C 874.346 293.974 849.27 364.23 840.498 419.728 C 808.008 423.961 754.893 424.729 707.291 424.03 C 684.518 423.717 661.748 423.205 638.984 422.495 C 623.714 422.002 615.601 421.727 609.448 421.569 C 600.686 404.734 586.213 388.341 570.982 372.963 C 546.448 348.153 518.763 326.394 504.526 315.427 C 490.881 304.932 484.915 275.967 498.373 259.427 C 512.452 242.168 537.754 239.667 555.299 253.588 L 555.299 253.273 L 555.604 253.273 C 555.909 253.549 555.87 253.628 556.224 253.894 C 556.677 254.238 557.258 254.78 558.065 255.429 C 559.68 256.739 561.954 258.659 564.839 260.972 C 570.648 265.58 578.681 272.088 587.906 279.432 C 591.035 281.997 595.414 282.387 598.946 280.415 C 602.479 278.444 604.446 274.512 603.905 270.503 C 601.522 247.662 599.908 204.638 599.908 180.054 C 599.908 121.445 617.403 89.103 642.676 69.904 C 667.939 50.736 702.703 44.691 737.122 44.691 L 737.132 44.691 Z  M 735.586 142.839 C 735.163 142.917 734.739 143.035 734.355 143.144 C 729.776 144.178 726.56 148.296 726.666 152.989 L 726.666 165.916 L 721.438 160.678 C 719.046 158.221 715.553 157.174 712.203 157.912 C 708.531 158.565 705.549 161.249 704.514 164.833 C 703.48 168.446 704.554 172.296 707.281 174.836 L 726.666 194.221 L 726.666 224.368 L 699.897 208.979 L 693.133 182.83 C 691.97 178.241 687.697 175.135 682.973 175.446 C 679.97 175.608 677.208 177.139 675.48 179.601 C 673.721 182.051 673.194 185.177 674.053 188.068 L 675.904 195.137 L 664.828 188.678 C 662.79 187.471 660.387 187.035 658.054 187.448 C 653.851 188.099 650.536 191.367 649.823 195.56 C 649.123 199.762 651.205 203.938 654.982 205.908 L 666.058 212.366 L 658.98 214.217 C 653.713 215.576 650.546 220.947 651.906 226.214 C 653.265 231.48 658.636 234.647 663.902 233.287 L 690.366 226.524 L 716.506 241.597 L 690.347 256.67 L 663.892 249.906 C 662.4 249.437 660.817 249.329 659.275 249.591 C 654.568 250.37 651.088 254.4 651.005 259.171 C 650.928 263.939 654.287 268.074 658.97 268.977 L 666.049 270.828 L 654.973 277.286 C 650.198 280.013 648.544 286.048 651.281 290.823 C 654.008 295.588 660.043 297.242 664.818 294.515 L 675.894 288.057 L 674.043 295.126 C 672.597 300.395 675.695 305.838 680.964 307.285 C 686.233 308.731 691.677 305.632 693.123 300.363 L 699.887 274.204 L 726.666 258.826 L 726.666 288.982 L 707.281 308.358 C 705.396 310.232 704.337 312.779 704.337 315.437 C 704.337 318.094 705.396 320.642 707.281 322.515 C 711.209 326.434 717.52 326.434 721.438 322.515 L 726.666 317.278 L 726.666 330.205 C 726.627 333.749 728.478 337.047 731.549 338.859 C 734.631 340.631 738.392 340.631 741.473 338.859 C 744.545 337.047 746.396 333.739 746.357 330.205 L 746.357 317.278 L 751.585 322.515 C 755.513 326.434 761.824 326.434 765.742 322.515 C 767.626 320.642 768.686 318.094 768.686 315.437 C 768.686 312.779 767.626 310.232 765.742 308.358 L 746.357 288.982 L 746.357 258.826 L 773.126 274.214 L 779.89 300.363 C 781.336 305.632 786.78 308.731 792.049 307.285 C 797.318 305.838 800.416 300.395 798.97 295.126 L 797.119 288.057 L 808.195 294.515 C 812.97 297.242 819.005 295.598 821.732 290.823 C 823.043 288.54 823.39 285.828 822.697 283.288 C 822.004 280.748 820.329 278.588 818.04 277.286 L 806.964 270.828 L 814.043 268.977 C 819.091 267.521 822.136 262.39 820.995 257.262 C 819.853 252.134 814.92 248.778 809.731 249.601 C 809.521 249.684 809.316 249.783 809.121 249.896 L 782.656 256.67 L 756.517 241.597 L 782.676 226.524 L 809.13 233.287 C 814.397 234.647 819.768 231.48 821.127 226.214 C 822.486 220.947 819.319 215.576 814.053 214.217 L 806.974 212.366 L 818.05 205.908 C 822.543 203.72 824.678 198.509 823.012 193.798 C 821.369 189.09 816.458 186.359 811.592 187.448 C 810.396 187.642 809.247 188.06 808.205 188.678 L 797.129 195.137 L 798.98 188.068 C 799.908 184.972 799.244 181.618 797.208 179.109 C 795.187 176.579 792.049 175.209 788.82 175.446 C 784.559 175.711 780.955 178.694 779.9 182.83 L 773.136 208.989 L 746.357 224.368 L 746.357 194.211 L 765.742 174.836 C 767.626 172.962 768.686 170.414 768.686 167.757 C 768.686 165.1 767.626 162.552 765.742 160.678 C 763.868 158.794 761.321 157.735 758.663 157.735 C 756.006 157.735 753.458 158.794 751.585 160.678 L 746.357 165.906 L 746.357 152.989 C 746.457 150.157 745.332 147.418 743.27 145.475 C 741.207 143.531 738.407 142.57 735.586 142.839 Z  M 836.815 440.344 C 837.111 440.315 837.426 440.383 837.731 440.344 C 837.426 444.656 837.426 448.89 837.426 452.966 L 837.426 480.04 C 837.426 489.689 829.845 497.575 819.891 497.575 L 635.892 497.575 C 631.196 497.633 626.671 495.814 623.322 492.522 C 619.973 489.229 618.076 484.737 618.053 480.04 L 618.053 452.966 C 618.053 449.156 617.59 445.345 616.822 441.575 C 623.123 441.811 626.746 441.811 638.049 442.195 C 656.735 442.815 681.161 443.347 706.966 443.731 C 752.156 444.39 801.766 444.194 836.806 440.354 L 836.815 440.344 Z  M 262.868 157.735 C 299.522 157.735 338.529 163.809 369.03 186.965 C 399.521 210.112 419.793 250.074 419.793 312.798 C 419.793 332.144 418.296 359.563 416.711 383.251 C 418.562 381.794 421.338 379.559 422.874 378.329 C 425.749 376.025 428.023 374.095 429.638 372.795 C 430.445 372.136 431.066 371.604 431.489 371.25 C 431.902 370.905 432.985 370.216 432.099 370.954 L 432.405 370.639 C 458.248 350.141 496.202 354.336 517.015 379.874 C 538.399 406.132 531.32 445.513 507.475 463.855 C 493.396 474.704 466.213 495.941 442.87 519.55 C 419.527 543.159 401.638 569.928 401.638 585.7 L 401.638 612.775 C 401.638 633.194 384.606 650 364.108 650 L 180.099 650 C 159.565 649.941 142.933 633.309 142.874 612.775 L 142.874 585.7 C 142.874 579.498 142.332 572.665 141.338 565.389 L 141.338 565.084 C 141.023 564.277 140.836 563.47 140.718 562.623 L 140.718 561.697 C 132.95 510.01 105.954 433.905 105.954 350.023 C 105.954 280.84 125.526 232.342 155.485 201.428 C 185.455 170.494 225.102 157.735 262.878 157.735 L 262.868 157.735 Z  M 262.868 177.425 C 229.532 177.425 195.497 188.619 169.653 215.271 C 143.809 241.922 125.654 284.572 125.654 350.013 C 125.654 426.708 150.73 496.965 159.502 552.463 C 191.992 556.696 245.107 557.464 292.709 556.765 C 315.482 556.451 338.252 555.939 361.016 555.229 C 376.286 554.737 384.399 554.461 390.552 554.304 C 399.314 537.468 413.787 521.076 429.018 505.697 C 453.552 480.887 481.237 459.129 495.474 448.161 C 509.119 437.666 515.085 408.701 501.627 392.161 C 487.548 374.902 462.246 372.402 444.701 386.323 L 444.701 386.008 L 444.396 386.008 C 444.091 386.284 444.13 386.362 443.776 386.628 C 443.323 386.973 442.742 387.514 441.935 388.164 C 440.32 389.473 438.046 391.393 435.161 393.707 C 429.352 398.315 421.319 404.822 412.094 412.167 C 408.965 414.732 404.586 415.121 401.054 413.15 C 397.521 411.178 395.554 407.246 396.095 403.237 C 398.478 380.396 400.092 337.372 400.092 312.788 C 400.092 254.179 382.597 221.837 357.324 202.639 C 332.061 183.47 297.297 177.425 262.878 177.425 L 262.868 177.425 Z  M 264.414 275.573 C 264.837 275.652 265.261 275.77 265.645 275.878 C 270.224 276.912 273.44 281.03 273.334 285.724 L 273.334 298.65 L 278.562 293.413 C 280.954 290.955 284.447 289.909 287.797 290.646 C 291.469 291.299 294.451 293.983 295.486 297.567 C 296.52 301.181 295.446 305.03 292.719 307.57 L 273.334 326.956 L 273.334 357.102 L 300.103 341.714 L 306.867 315.565 C 308.03 310.975 312.303 307.869 317.027 308.181 C 320.03 308.342 322.792 309.874 324.52 312.335 C 326.279 314.785 326.806 317.911 325.947 320.802 L 324.096 327.871 L 335.172 321.413 C 337.21 320.206 339.613 319.769 341.946 320.182 C 346.149 320.834 349.464 324.101 350.177 328.295 C 350.877 332.497 348.795 336.672 345.018 338.642 L 333.942 345.101 L 341.02 346.952 C 346.286 348.311 349.454 353.682 348.094 358.948 C 346.735 364.214 341.364 367.381 336.098 366.022 L 309.634 359.258 L 283.494 374.331 L 309.653 389.405 L 336.108 382.641 C 337.6 382.172 339.183 382.064 340.725 382.326 C 345.432 383.104 348.912 387.135 348.995 391.905 C 349.072 396.674 345.713 400.809 341.03 401.711 L 333.951 403.562 L 345.027 410.021 C 349.802 412.748 351.456 418.783 348.719 423.558 C 345.992 428.323 339.957 429.977 335.182 427.25 L 324.106 420.791 L 325.957 427.86 C 327.403 433.129 324.305 438.573 319.036 440.019 C 313.767 441.466 308.323 438.367 306.877 433.098 L 300.113 406.939 L 273.334 391.561 L 273.334 421.717 L 292.719 441.092 C 294.604 442.966 295.663 445.514 295.663 448.171 C 295.663 450.828 294.604 453.376 292.719 455.25 C 288.791 459.168 282.48 459.168 278.562 455.25 L 273.334 450.012 L 273.334 462.939 C 273.373 466.483 271.522 469.782 268.451 471.593 C 265.369 473.365 261.608 473.365 258.527 471.593 C 255.455 469.782 253.604 466.474 253.643 462.939 L 253.643 450.012 L 248.415 455.25 C 244.487 459.168 238.176 459.168 234.258 455.25 C 232.374 453.376 231.314 450.828 231.314 448.171 C 231.314 445.514 232.374 442.966 234.258 441.092 L 253.643 421.717 L 253.643 391.561 L 226.874 406.949 L 220.11 433.098 C 218.664 438.367 213.22 441.466 207.951 440.019 C 202.682 438.573 199.584 433.129 201.03 427.86 L 202.881 420.791 L 191.805 427.25 C 187.03 429.977 180.995 428.333 178.268 423.558 C 176.957 421.274 176.61 418.563 177.303 416.023 C 177.996 413.483 179.671 411.323 181.96 410.021 L 193.036 403.562 L 185.957 401.711 C 180.909 400.256 177.864 395.124 179.005 389.996 C 180.147 384.868 185.08 381.513 190.269 382.336 C 190.479 382.419 190.683 382.518 190.879 382.631 L 217.344 389.405 L 243.483 374.331 L 217.324 359.258 L 190.87 366.022 C 185.603 367.381 180.232 364.214 178.873 358.948 C 177.514 353.682 180.681 348.311 185.947 346.952 L 193.026 345.101 L 181.95 338.642 C 177.457 336.455 175.322 331.243 176.988 326.532 C 178.631 321.824 183.541 319.094 188.408 320.182 C 189.604 320.377 190.753 320.794 191.795 321.413 L 202.871 327.871 L 201.02 320.802 C 200.092 317.707 200.756 314.352 202.792 311.843 C 204.813 309.314 207.951 307.943 211.18 308.181 C 215.441 308.445 219.044 311.428 220.1 315.565 L 226.864 341.724 L 253.643 357.102 L 253.643 326.946 L 234.258 307.57 C 232.374 305.697 231.314 303.149 231.314 300.492 C 231.314 297.834 232.374 295.287 234.258 293.413 C 236.132 291.529 238.679 290.469 241.337 290.469 C 243.994 290.469 246.542 291.529 248.415 293.413 L 253.643 298.641 L 253.643 285.724 C 253.543 282.891 254.668 280.153 256.73 278.209 C 258.793 276.266 261.593 275.305 264.414 275.573 Z  M 163.185 573.079 C 162.889 573.049 162.574 573.118 162.269 573.079 C 162.574 577.391 162.574 581.624 162.574 585.7 L 162.574 612.775 C 162.574 622.423 170.155 630.309 180.109 630.309 L 364.108 630.309 C 368.804 630.367 373.328 628.548 376.678 625.256 C 380.027 621.964 381.924 617.471 381.947 612.775 L 381.947 585.7 C 381.947 581.89 382.41 578.08 383.178 574.309 C 376.877 574.546 373.254 574.546 361.951 574.93 C 343.265 575.55 318.839 576.081 293.034 576.465 C 247.844 577.125 198.234 576.928 163.194 573.088 L 163.185 573.079 Z " fill-rule="evenodd" fill="rgb(255,82,151)"/></g></svg>