<?xml version="1.0" encoding="UTF-8" standalone="no"?><!-- Generator: Gravit.io --><svg xmlns="http://www.w3.org/2000/svg" xmlns:xlink="http://www.w3.org/1999/xlink" style="isolation:isolate" viewBox="0 0 1000 1000" width="1000pt" height="1000pt"><defs><clipPath id="_clipPath_FSPi7NXWfURXelVArxzUPnC4MiWmk0ZT"><rect width="1000" height="1000"/></clipPath></defs><g clip-path="url(#_clipPath_FSPi7NXWfURXelVArxzUPnC4MiWmk0ZT)"><g clip-path="url(#_clipPath_29vKZA0r9rw9A6lm0V2HH6nMh2h7sWLF)"><text transform="matrix(1.156,0,0,1,314.474,806.7)" style="font-family:'Chicle';font-weight:400;font-size:180px;font-style:normal;fill:#ff5297;stroke:none;">nasal </text><text transform="matrix(1.156,0,0,1,182.231,937.272)" style="font-family:'Chicle';font-weight:400;font-size:180px;font-style:normal;fill:#ff5297;stroke:none;">aspirator</text></g><defs><clipPath id="_clipPath_29vKZA0r9rw9A6lm0V2HH6nMh2h7sWLF"><rect x="0" y="0" width="865" height="358" transform="matrix(1.156,0,0,1,0,642)"/></clipPath></defs><g><path d=" M 507.481 25.02 C 504.246 24.956 501.019 25.061 497.785 25.112 C 491.318 25.214 484.996 25.873 478.911 27.29 C 472.825 28.706 466.918 29.915 460.026 36.509 L 455.181 41.147 L 412.344 319.638 C 389.506 330.225 357.727 344.971 339.891 377.893 C 322.167 410.606 300.119 466.66 315.748 515.671 C 330.395 561.603 373.102 613.347 422.52 634.418 C 471.314 655.224 542.75 655.583 590.592 633.145 C 639.286 610.309 676.171 554.844 687.231 509.409 C 698.976 461.158 675.319 409.577 653.904 377.357 L 653.906 377.357 C 633.365 346.45 599.019 325.667 570.914 315.931 L 542.864 41.174 L 537.179 36.075 C 526.96 26.91 517.186 25.211 507.481 25.02 Z  M 498.408 64.599 C 500.96 64.559 503.416 65.017 505.653 65.53 L 534.399 347.095 L 548.148 350.285 C 563.83 353.922 606.597 377.523 621.014 399.216 C 638.078 424.891 655.531 472.658 648.859 500.069 C 641.502 530.293 604.392 583.054 573.824 597.39 C 542.407 612.124 471.765 612.483 438.011 598.09 C 404.88 583.964 363.064 534.059 353.374 503.673 C 344.666 476.367 360.436 422.876 374.614 396.706 C 386.257 375.216 414.044 362.865 438.9 350.78 L 448.208 346.254 L 491.443 65.166 C 493.586 64.872 495.932 64.638 498.408 64.599 L 498.408 64.599 Z " fill-rule="evenodd" fill="rgb(102,143,255)"/><path d=" M 508.345 420.054 C 476.214 420.386 426.575 421.633 383.672 426.404 C 362.22 428.79 342.574 431.937 326.512 436.925 C 318.481 439.419 311.301 442.244 304.616 446.866 C 297.931 451.488 290.474 459.494 289.592 470.833 C 288.363 486.627 289.692 500.269 299.193 510.304 C 308.694 520.34 318.144 520.852 323.882 522.721 C 334.251 526.097 345.394 520.428 348.771 510.059 C 350.393 505.079 349.97 499.659 347.595 494.991 C 345.221 490.323 341.089 486.79 336.109 485.168 C 332.315 483.932 330.205 483.073 328.818 482.565 C 328.754 481.7 328.764 480.327 328.795 478.458 C 330.717 477.428 333.726 476.037 338.227 474.639 C 349.786 471.05 367.893 467.894 388.038 465.653 C 428.328 461.173 477.256 459.87 508.754 459.544 C 539.386 459.228 584.655 461.593 621.135 466.292 C 639.376 468.641 655.588 471.664 665.825 474.724 C 667.745 475.298 669.194 475.863 670.626 476.412 C 669.645 477.134 667.533 478.787 663.322 481.595 C 658.965 484.501 655.94 489.018 654.914 494.154 C 653.888 499.289 654.943 504.622 657.849 508.979 C 660.755 513.337 665.272 516.361 670.408 517.387 C 675.543 518.414 680.876 517.358 685.234 514.452 C 691.959 509.967 698.749 506.536 704.488 497.542 C 710.226 488.548 710.794 478.979 710.794 468.419 C 710.794 455.782 702.231 448.647 696.262 444.926 C 690.292 441.205 684.156 438.985 677.136 436.886 C 663.096 432.689 645.611 429.626 626.18 427.123 C 587.318 422.118 541.34 419.713 508.345 420.054 L 508.345 420.054 Z " fill-rule="evenodd" fill="rgb(102,143,255)"/></g></g></svg>