<?xml version="1.0" encoding="UTF-8" standalone="no"?><!-- Generator: Gravit.io --><svg xmlns="http://www.w3.org/2000/svg" xmlns:xlink="http://www.w3.org/1999/xlink" style="isolation:isolate" viewBox="0 0 1000 1000" width="1000pt" height="1000pt"><defs><clipPath id="_clipPath_L61v7lxBC98TkNyeHSQFlbLwZ7r0Siqf"><rect width="1000" height="1000"/></clipPath></defs><g clip-path="url(#_clipPath_L61v7lxBC98TkNyeHSQFlbLwZ7r0Siqf)"><g clip-path="url(#_clipPath_NibbRHlVbUr6ucOisxcuuuJBgKKifMzk)"><text transform="matrix(1.156,0,0,1,163.815,894.863)" style="font-family:'Chicle';font-weight:400;font-size:225px;font-style:normal;fill:#ff5297;stroke:none;">pacifier</text></g><defs><clipPath id="_clipPath_NibbRHlVbUr6ucOisxcuuuJBgKKifMzk"><rect x="0" y="0" width="865" height="350" transform="matrix(1.156,0,0,1,0,650)"/></clipPath></defs><path d=" M 695.313 25 C 630.729 25 578.125 77.604 578.125 142.187 C 578.125 149.714 578.841 157.096 580.156 164.167 C 580.872 169.505 576.953 173.88 572.018 178.802 L 529.701 221.12 C 528.735 222.08 527.914 223.177 527.266 224.375 C 507.696 201.946 488.701 179.022 470.299 155.625 C 457.539 139.232 446.849 125.404 438.555 115.742 C 434.44 110.911 430.872 106.992 427.161 103.932 C 425.143 102.142 422.794 100.762 420.247 99.87 C 416.836 98.646 409.206 98.646 404.779 103.125 L 392.982 114.922 C 381.745 126.172 378.229 141.484 379.961 155.612 C 381.693 169.753 387.643 183.385 395.013 196.706 C 409.766 223.307 430.729 249.258 441.003 265.885 C 440.586 265.273 440.951 266.406 441.406 268.333 C 422.443 262.391 402.685 259.37 382.813 259.375 C 275.091 259.375 187.5 346.966 187.5 454.687 C 187.5 562.409 275.091 650 382.813 650 C 490.534 650 578.125 562.409 578.125 454.687 C 578.125 434.635 574.87 415.169 569.167 396.901 C 571.875 397.461 574.049 397.982 573.646 397.721 C 590.078 407.695 615.404 428.49 641.602 442.891 C 654.675 450.052 668.294 455.911 682.292 457.539 C 696.276 459.167 711.432 455.651 722.578 444.518 L 734.375 432.708 C 738.542 428.542 738.75 421.224 737.63 417.656 C 736.784 414.843 735.4 412.221 733.555 409.935 C 730.508 406.068 727.005 402.708 722.174 398.542 C 712.5 390.143 698.672 379.518 682.292 366.797 C 661.849 350.924 637.435 331.602 612.708 310.234 C 614.089 309.622 615.312 308.802 616.38 307.799 C 616.38 307.799 649.531 274.232 658.281 265.482 C 661.341 262.422 663.776 259.883 666.016 258.555 C 668.255 257.24 669.727 256.523 674.154 257.344 L 674.557 257.344 C 681.399 258.654 688.347 259.334 695.313 259.375 C 759.857 259.375 812.5 206.771 812.5 142.187 C 812.5 77.604 759.896 25 695.313 25 Z  M 695.313 51.042 C 745.82 51.042 786.458 91.68 786.458 142.187 C 786.458 192.695 745.82 233.333 695.313 233.333 C 689.85 233.273 684.403 232.728 679.036 231.706 C 670.099 230.083 660.876 231.67 652.995 236.185 C 646.484 240 642.214 244.935 639.974 247.161 C 631.276 255.859 597.656 289.089 597.656 289.089 C 596.185 290.56 595.052 292.383 594.401 294.362 C 576.49 278.113 559.378 261.006 543.125 243.099 C 545.12 242.44 546.934 241.325 548.424 239.844 C 548.424 239.844 581.589 206.276 590.326 197.526 C 595.573 192.292 608.789 179.271 606.211 160.495 L 605.794 160.091 C 604.687 154.188 604.142 148.193 604.167 142.187 C 604.167 91.68 644.805 51.042 695.313 51.042 Z  M 415.365 129.167 C 416.641 130.534 417.396 130.951 419.023 132.826 C 426.445 141.471 436.732 155.052 449.544 171.484 C 475.182 204.336 509.818 248.138 549.648 287.865 C 589.219 327.279 633.164 362.018 666.016 387.552 C 682.448 400.312 696.484 410.638 705.078 418.06 C 707.005 419.753 707.37 420.404 708.737 421.732 L 704.271 426.198 C 698.867 431.602 693.594 432.865 685.13 431.901 C 676.693 430.937 665.716 426.406 654.219 420.104 C 631.224 407.435 606.654 387.656 587.07 375.742 C 579.961 371.419 572.487 369.948 563.477 370.052 C 557.458 370.095 551.508 371.339 545.977 373.711 C 545.565 373.827 545.161 373.966 544.766 374.128 C 541.287 375.738 538.115 377.941 535.391 380.638 C 525.885 390.195 503.659 412.37 503.659 412.37 C 499.193 416.849 496.745 417.096 492.682 416.445 C 488.607 415.781 482.865 412.721 477.214 407.07 L 431.237 361.497 C 425.638 355.911 422.539 349.753 421.875 345.638 C 421.224 341.523 421.471 339.128 425.951 334.648 L 457.682 302.917 C 465.82 294.779 468.008 284.036 468.268 275.247 C 468.516 266.445 467.852 259.323 463.385 252.044 C 451.224 232.37 430.833 207.552 417.812 184.102 C 411.302 172.344 406.667 161.419 405.599 152.773 C 404.531 144.115 405.859 138.672 411.302 133.242 L 415.365 129.167 Z  M 382.813 334.245 C 387.643 334.245 392.37 334.505 397.057 335.065 C 395.75 339.972 395.471 345.097 396.237 350.117 C 398.125 361.654 404.57 371.523 412.93 379.818 L 458.503 425.794 C 466.784 434.128 476.654 440.599 488.19 442.487 C 492.773 443.242 497.656 442.786 502.448 441.667 C 502.904 445.885 503.255 450.313 503.255 454.687 C 503.311 486.648 490.639 517.315 468.04 539.915 C 445.44 562.514 414.773 575.186 382.813 575.13 C 350.852 575.186 320.185 562.514 297.585 539.915 C 274.986 517.315 262.314 486.648 262.37 454.687 C 262.314 422.727 274.986 392.06 297.585 369.46 C 320.185 346.861 350.852 334.189 382.813 334.245 L 382.813 334.245 Z " fill="rgb(102,143,255)"/></g></svg>