<?xml version="1.0" encoding="UTF-8" standalone="no"?><!-- Generator: Gravit.io --><svg xmlns="http://www.w3.org/2000/svg" xmlns:xlink="http://www.w3.org/1999/xlink" style="isolation:isolate" viewBox="0 0 1000 1000" width="1000pt" height="1000pt"><defs><clipPath id="_clipPath_DrqNCjKVKLfasKfbZw1AJVCVPab5XT6U"><rect width="1000" height="1000"/></clipPath></defs><g clip-path="url(#_clipPath_DrqNCjKVKLfasKfbZw1AJVCVPab5XT6U)"><g clip-path="url(#_clipPath_GcH6ucknIZfLBRXTvLeePBTzhBLHvvnD)"><text transform="matrix(1.156,0,0,1,168.107,894.863)" style="font-family:'Chicle';font-weight:400;font-size:225px;font-style:normal;fill:#668fff;stroke:none;">parents</text></g><defs><clipPath id="_clipPath_GcH6ucknIZfLBRXTvLeePBTzhBLHvvnD"><rect x="0" y="0" width="865" height="350" transform="matrix(1.156,0,0,1,0,650)"/></clipPath></defs><path d=" M 313.478 25 C 272.228 25 238.478 58.75 238.478 100 C 238.478 141.25 272.228 175 313.478 175 C 354.728 175 388.478 141.25 388.478 100 C 388.478 58.75 354.728 25 313.478 25 Z  M 650.978 25 C 609.728 25 575.978 58.75 575.978 100 C 575.978 141.25 609.728 175 650.978 175 C 692.228 175 725.978 141.25 725.978 100 C 725.978 58.75 692.228 25 650.978 25 Z  M 313.478 50 C 341.265 50 363.478 72.212 363.478 100 C 363.478 127.787 341.265 150 313.478 150 C 285.69 150 263.478 127.787 263.478 100 C 263.478 72.212 285.69 50 313.478 50 Z  M 650.978 50 C 678.765 50 700.978 72.212 700.978 100 C 700.978 127.787 678.765 150 650.978 150 C 623.19 150 600.978 127.787 600.978 100 C 600.978 72.212 623.19 50 650.978 50 Z  M 458.403 111.325 C 445.903 111.325 438.478 121.2 438.478 132.425 C 438.478 154.925 482.228 187.5 482.228 187.5 C 482.228 187.5 525.978 154.938 525.978 132.425 C 525.978 121.188 515.815 111.325 503.315 111.325 C 490.815 111.325 481.065 122.663 481.065 122.663 C 481.065 122.663 470.903 111.325 458.403 111.325 Z  M 257.228 187.5 C 219.267 187.521 188.498 218.289 188.478 256.25 L 188.478 422.662 C 188.38 423.439 188.38 424.224 188.478 425 C 188.435 426.183 188.565 427.367 188.865 428.512 C 190.728 447.412 206.64 462.5 225.978 462.5 C 230.249 462.447 234.479 461.651 238.478 460.15 L 238.478 606.25 C 238.478 630.275 258.203 650 282.228 650 C 294.011 649.973 305.283 645.18 313.478 636.713 C 321.672 645.18 332.944 649.973 344.728 650 C 368.753 650 388.478 630.275 388.478 606.25 L 388.478 340.625 L 418.553 403.912 L 418.553 404.288 C 427.928 423.038 451.078 428.862 468.953 419.913 C 471.24 418.75 473.29 417.537 475.203 416.013 C 479.64 420.062 485.303 423.187 491.603 424.612 C 491.703 424.662 491.853 424.563 491.99 424.612 C 508.49 428.512 522.853 418.9 531.053 407.425 C 531.206 407.173 531.339 406.91 531.453 406.638 L 541.203 390.625 L 520.515 453.512 C 518.215 460.45 517.915 468.95 523.24 476.95 C 528.228 484.425 537.015 487.5 543.553 487.5 L 588.478 487.5 L 588.478 612.5 C 588.478 633.063 605.415 650 625.978 650 C 635.553 650 644.34 646.25 650.978 640.238 C 657.615 646.238 666.403 650 675.978 650 C 696.54 650 713.478 633.063 713.478 612.5 L 713.478 487.5 L 758.403 487.5 C 767.728 487.5 773.19 482.863 777.153 478.9 C 777.74 478.307 778.264 477.653 778.715 476.95 C 783.34 470.025 783.453 460.738 781.84 454.3 C 781.727 454.028 781.593 453.764 781.44 453.512 L 775.978 437.5 C 788.578 437.5 799.953 431.25 806.053 421.487 C 812.115 411.812 813.278 399.262 809.178 387.5 C 809.128 387.4 809.228 387.212 809.178 387.112 C 797.803 351.712 759.178 233.588 759.178 233.588 C 755.752 223.281 750.16 213.828 742.778 205.862 C 731.648 194.005 716.064 187.347 699.803 187.5 L 611.14 187.5 C 588.865 187.5 567.628 199.563 556.44 218.75 C 533.99 256.938 496.39 322.85 478.315 354.3 L 427.54 231.638 C 416.94 204.387 390.865 187.5 362.303 187.5 L 257.228 187.5 Z  M 257.228 212.5 L 362.303 212.5 C 381.253 212.5 397.603 222.9 404.49 240.625 L 404.49 241.013 L 461.915 379.688 C 462.029 379.957 462.158 380.22 462.303 380.475 C 465.865 387.6 464.265 394.537 458.015 397.662 C 451.078 401.125 444.44 399.163 441.215 393.362 C 441.115 393.162 440.915 393.162 440.815 392.963 L 388.478 282.037 C 386.683 278.545 383.357 276.093 379.49 275.413 C 379.242 275.26 378.983 275.126 378.715 275.012 L 378.328 275.012 C 376.649 274.669 374.919 274.669 373.24 275.012 C 367.431 276.325 363.349 281.546 363.478 287.5 L 363.478 606.25 C 363.478 617.188 355.665 625 344.728 625 C 333.79 625 325.978 617.188 325.978 606.25 L 325.978 450 C 326.105 446.404 324.677 442.927 322.059 440.46 C 319.44 437.992 315.885 436.772 312.303 437.113 C 311.765 437.213 311.228 437.362 310.74 437.5 C 304.926 438.813 300.843 444.041 300.978 450 L 300.978 603.912 C 300.93 604.428 300.93 604.947 300.978 605.463 L 300.978 606.25 C 300.978 617.188 293.165 625 282.228 625 C 271.29 625 263.478 617.188 263.478 606.25 L 263.478 287.5 C 263.605 283.904 262.177 280.427 259.559 277.96 C 256.94 275.492 253.385 274.272 249.803 274.612 C 249.265 274.712 248.728 274.863 248.24 275 C 242.426 276.313 238.343 281.541 238.478 287.5 L 238.478 425 C 238.766 429.556 236.55 433.907 232.697 436.354 C 228.843 438.801 223.962 438.954 219.962 436.755 C 215.962 434.556 213.477 430.352 213.478 425.787 L 213.478 425 C 213.576 424.22 213.576 423.43 213.478 422.65 L 213.478 256.25 C 213.342 244.606 217.908 233.399 226.142 225.165 C 234.377 216.93 245.583 212.365 257.228 212.5 L 257.228 212.5 Z  M 611.14 212.5 L 699.803 212.5 C 711.915 212.5 719.09 217 724.803 223.05 C 730.515 229.1 733.89 236.963 735.353 241.412 C 735.353 241.412 774.128 360.063 785.353 394.913 L 785.353 395.313 C 787.353 400.938 786.665 405.475 784.965 408.2 C 783.253 410.938 780.865 412.5 775.978 412.5 C 771.19 412.5 767.14 409.912 765.04 404.3 C 764.94 403.9 764.79 403.513 764.653 403.125 L 729.103 296.088 C 727.433 290.272 721.834 286.49 715.815 287.112 C 715.29 287.212 714.753 287.363 714.265 287.5 C 710.767 288.296 707.777 290.553 706.053 293.7 C 704.338 296.834 704.056 300.555 705.278 303.912 L 740.815 410.538 C 740.965 411.475 741.265 412.413 741.603 413.287 C 741.803 413.812 742.14 414.313 742.39 414.85 L 757.615 460.55 C 758.353 463.525 758.203 462.45 758.015 462.5 L 543.928 462.5 C 543.978 462.25 543.79 461.763 543.928 461.325 L 596.678 303.912 C 598.262 299.177 596.876 293.952 593.153 290.625 C 592.812 290.186 592.417 289.791 591.978 289.45 C 591.729 289.302 591.47 289.172 591.203 289.063 C 590.471 288.574 589.682 288.179 588.853 287.888 C 582.904 285.26 575.935 287.643 572.84 293.362 L 510.728 392.575 C 506.528 398.487 501.165 401.225 497.84 400.388 L 497.453 400.388 C 492.365 399.312 490.665 397.513 489.64 394.537 C 488.615 391.55 488.953 386.475 491.978 380.862 C 506.04 356.588 553.103 273.388 577.915 231.25 C 584.215 220.413 598.378 212.5 611.128 212.5 L 611.14 212.5 Z  M 613.478 487.5 L 638.478 487.5 L 638.478 612.5 C 638.478 619.438 632.915 625 625.978 625 C 619.04 625 613.478 619.438 613.478 612.5 L 613.478 487.5 Z  M 663.478 487.5 L 688.478 487.5 L 688.478 612.5 C 688.478 619.438 682.915 625 675.978 625 C 669.04 625 663.478 619.438 663.478 612.5 L 663.478 487.5 Z " fill="rgb(255,82,151)"/></g></svg>