<?xml version="1.0" encoding="UTF-8" standalone="no"?><!-- Generator: Gravit.io --><svg xmlns="http://www.w3.org/2000/svg" xmlns:xlink="http://www.w3.org/1999/xlink" style="isolation:isolate" viewBox="0 0 1000 1000" width="1000pt" height="1000pt"><defs><clipPath id="_clipPath_093bloAihcX739387kCdCZ1qSLDq2qkK"><rect width="1000" height="1000"/></clipPath></defs><g clip-path="url(#_clipPath_093bloAihcX739387kCdCZ1qSLDq2qkK)"><g clip-path="url(#_clipPath_dVtQnUo2D3MajUNgNU1w91F73TIowQEG)"><text transform="matrix(1.156,0,0,1,123.497,894.863)" style="font-family:'Chicle';font-weight:400;font-size:225px;font-style:normal;fill:#ff5297;stroke:none;">play doh</text></g><defs><clipPath id="_clipPath_dVtQnUo2D3MajUNgNU1w91F73TIowQEG"><rect x="0" y="0" width="865" height="350" transform="matrix(1.156,0,0,1,0,650)"/></clipPath></defs><path d=" M 321.552 122.827 L 214.662 122.827 C 187.752 122.827 165.675 144.904 165.675 171.814 L 165.675 220.801 L 199.215 220.801 L 233.016 433.524 L 425.046 433.524 L 458.194 220.801 L 492.257 220.801 L 492.257 171.814 C 492.257 144.904 470.18 122.827 443.269 122.827 L 355.092 122.827 L 321.552 122.827 Z  M 214.662 155.485 L 443.269 155.485 C 452.446 155.485 459.598 162.637 459.598 171.814 L 459.598 188.143 L 198.333 188.143 L 198.333 171.814 C 198.333 162.637 205.485 155.485 214.662 155.485 Z  M 232.297 220.801 L 425.307 220.801 L 396.209 400.866 L 261.624 400.866 L 232.297 220.801 Z  M 663.621 25 L 556.731 25 C 529.82 25 507.743 47.077 507.743 73.987 L 507.743 122.975 L 541.283 122.975 L 575.085 335.697 L 767.115 335.697 L 800.263 122.975 L 834.325 122.975 L 834.325 73.987 C 834.325 47.077 812.248 25 785.338 25 L 697.161 25 L 663.621 25 Z  M 556.731 57.658 L 785.338 57.658 C 794.515 57.658 801.667 64.81 801.667 73.987 L 801.667 90.316 L 540.402 90.316 L 540.402 73.987 C 540.402 64.81 547.554 57.658 556.731 57.658 Z  M 574.366 122.975 L 767.376 122.975 L 738.278 303.039 L 603.693 303.039 L 574.366 122.975 Z  M 663.41 613.143 Q 648.872 629.741 637.945 635.214 Q 626.268 641.063 601.949 642.607 Q 578.99 650.773 565.953 650 Q 552.916 649.227 531.083 638.404 Q 507.117 633.997 496.213 626.809 Q 485.309 619.621 471.813 599.332 Q 453.262 583.532 447.412 571.855 Q 441.563 560.178 440.02 535.859 Q 431.854 512.9 432.627 499.863 Q 433.4 486.826 444.222 464.993 Q 448.63 441.028 455.818 430.124 Q 463.006 419.219 483.295 405.723 Q 499.094 387.172 510.772 381.323 Q 522.449 375.474 546.768 373.93 Q 569.726 365.764 582.763 366.537 Q 595.801 367.31 617.633 378.132 Q 641.599 382.54 652.503 389.728 Q 663.407 396.916 676.904 417.205 Q 695.455 433.005 701.304 444.682 Q 707.153 456.359 708.697 480.678 Q 714.768 497.748 715.898 509.334 C 743.877 514.653 765.057 539.263 765.057 568.78 C 765.057 602.177 737.943 629.291 704.546 629.291 C 688.668 629.291 674.21 623.162 663.41 613.143 Z " fill-rule="evenodd" fill="rgb(102,143,255)"/></g></svg>