<?xml version="1.0" encoding="UTF-8" standalone="no"?><!-- Generator: Gravit.io --><svg xmlns="http://www.w3.org/2000/svg" xmlns:xlink="http://www.w3.org/1999/xlink" style="isolation:isolate" viewBox="0 0 1000 1000" width="1000pt" height="1000pt"><defs><clipPath id="_clipPath_M6XyIIWuwmfoX26rZrkz2qHdTGDUElKb"><rect width="1000" height="1000"/></clipPath></defs><g clip-path="url(#_clipPath_M6XyIIWuwmfoX26rZrkz2qHdTGDUElKb)"><g clip-path="url(#_clipPath_QIFb6Q9ziD8K5xGJLlykbS3nmHD1cIfs)"><text transform="matrix(1.156,0,0,1,123.627,894.863)" style="font-family:'Chicle';font-weight:400;font-size:225px;font-style:normal;fill:#ff5297;stroke:none;">play pen</text></g><defs><clipPath id="_clipPath_QIFb6Q9ziD8K5xGJLlykbS3nmHD1cIfs"><rect x="0" y="0" width="865" height="350" transform="matrix(1.156,0,0,1,0,650)"/></clipPath></defs><g><path d=" M 389.594 25.73 C 386.339 26.767 383.519 28.853 381.576 31.662 C 346.844 81.883 318.559 117.763 297.814 138.558 C 277.021 159.401 244.808 184.489 201.569 213.055 C 196.475 216.422 193.842 222.472 194.85 228.494 C 195.857 234.516 200.317 239.38 206.229 240.905 C 296.094 264.053 367.071 279.191 419.774 286.307 C 471.727 293.321 532.799 299.944 603.052 306.191 C 606.73 306.518 610.404 305.516 613.408 303.368 C 665.589 266.05 700.413 238.939 719.405 220.2 C 738.663 201.198 765.649 165.99 802.601 112.827 C 805.939 108.023 806.277 101.746 803.475 96.612 C 800.673 91.477 795.211 88.365 789.365 88.572 C 702.298 91.683 634.731 88.902 587.618 80.695 C 540.146 72.425 477.217 54.194 399.565 25.931 C 396.355 24.764 392.848 24.693 389.594 25.73 L 389.594 25.73 Z  M 400.164 58.858 C 473.569 85.138 534.362 102.78 582.316 111.133 C 626.859 118.893 686.322 121.588 759.559 120.079 C 732.021 158.508 710.724 185.36 697.704 198.206 C 682.229 213.475 648.984 239.72 600.079 274.855 C 532.735 268.8 473.737 262.415 423.908 255.687 C 379.987 249.758 320.374 237.363 247.254 219.253 C 277.587 197.876 301.771 178.338 319.687 160.379 C 341.415 138.6 368.104 104.613 400.164 58.858 L 400.164 58.858 Z " fill="rgb(102,143,255)"/><path d=" M 396.73 286.574 C 391.817 285.786 386.826 287.412 383.32 290.943 L 199.121 476.438 C 195.046 480.542 193.605 486.578 195.386 492.08 C 197.167 497.582 201.871 501.629 207.577 502.568 L 601.914 567.425 C 606.844 568.235 611.862 566.612 615.383 563.066 L 800.877 376.274 C 804.958 372.163 806.396 366.115 804.603 360.607 C 802.809 355.099 798.086 351.057 792.367 350.136 L 396.73 286.574 Z  M 399.657 318.338 L 757.74 375.868 L 599.071 535.645 L 242.163 476.943 L 399.657 318.338 Z " fill="rgb(102,143,255)"/><g><line x1="789.917" y1="104.01" x2="789.917" y2="447.76"/><path d=" M 789.917 88.562 C 785.819 88.562 781.89 90.19 778.993 93.087 C 776.096 95.984 774.468 99.913 774.468 104.011 L 774.468 447.76 C 774.468 456.292 781.385 463.208 789.917 463.208 C 798.449 463.208 805.365 456.292 805.365 447.76 L 805.365 104.011 C 805.365 95.479 798.449 88.562 789.917 88.562 L 789.917 88.562 Z " fill="rgb(102,143,255)"/></g><g><line x1="604.422" y1="290.802" x2="604.422" y2="634.552"/><path d=" M 604.422 275.354 C 595.89 275.354 588.974 282.271 588.974 290.803 L 588.974 634.552 C 588.974 643.084 595.89 650 604.422 650 C 612.954 650 619.871 643.084 619.871 634.552 L 619.871 290.803 C 619.871 282.271 612.954 275.354 604.422 275.354 Z " fill="rgb(102,143,255)"/></g><g><line x1="210.083" y1="225.944" x2="210.083" y2="569.694"/><path d=" M 210.083 210.497 C 201.551 210.497 194.635 217.413 194.635 225.945 L 194.635 569.694 C 194.635 578.226 201.551 585.142 210.083 585.142 C 218.615 585.142 225.532 578.226 225.532 569.694 L 225.532 225.945 C 225.532 217.413 218.615 210.497 210.083 210.497 L 210.083 210.497 Z " fill="rgb(102,143,255)"/></g><g><line x1="394.281" y1="384.198" x2="394.281" y2="40.449"/><path d=" M 394.28 25 C 385.748 25 378.832 31.917 378.832 40.448 L 378.832 384.197 C 378.832 392.729 385.748 399.646 394.28 399.646 C 402.812 399.646 409.729 392.729 409.729 384.197 L 409.729 40.448 C 409.729 31.917 402.812 25 394.28 25 Z " fill="rgb(102,143,255)"/></g><path d=" M 790.432 114.287 L 604.253 290.253 L 210.168 225.436 L 209.659 225.352 L 209.492 226.369 L 209.999 226.452 L 604.589 291.352 L 789.402 116.677 L 789.402 383.97 L 604.259 551.633 L 210.168 486.815 L 209.659 486.731 L 209.492 487.749 L 209.999 487.831 L 604.583 552.729 L 790.432 384.427 L 790.432 114.287 Z " fill="rgb(102,143,255)"/></g></g></svg>