<?xml version="1.0" encoding="UTF-8" standalone="no"?><!-- Generator: Gravit.io --><svg xmlns="http://www.w3.org/2000/svg" xmlns:xlink="http://www.w3.org/1999/xlink" style="isolation:isolate" viewBox="0 0 1000 1000" width="1000pt" height="1000pt"><defs><clipPath id="_clipPath_HByhNKMjA6uPLBzXDckw3ltTvlywaWqd"><rect width="1000" height="1000"/></clipPath></defs><g clip-path="url(#_clipPath_HByhNKMjA6uPLBzXDckw3ltTvlywaWqd)"><g clip-path="url(#_clipPath_42qMpSJ7IRiUubLNVddGH5lWOO9IJrph)"><text transform="matrix(1.156,0,0,1,222.601,894.863)" style="font-family:'Chicle';font-weight:400;font-size:225px;font-style:normal;fill:#668fff;stroke:none;">puppy</text></g><defs><clipPath id="_clipPath_42qMpSJ7IRiUubLNVddGH5lWOO9IJrph"><rect x="0" y="0" width="865" height="350" transform="matrix(1.156,0,0,1,0,650)"/></clipPath></defs><path d=" M 591.983 25.124 C 585.903 25.856 581.074 30.685 580.343 36.764 L 555.399 237.977 L 277.28 237.977 L 235.707 196.817 C 224.213 185.336 205.043 179.469 188.307 189.34 C 188.041 189.487 187.735 189.181 187.482 189.34 L 187.482 189.753 C 164.348 203.109 159.785 235.33 178.742 252.943 L 179.168 253.356 L 221.153 294.117 L 221.153 595.93 C 221.153 618.692 235.028 639.791 256.912 647.068 L 257.311 647.068 C 292.938 657.245 327.58 631.303 327.58 597.167 L 327.58 522.748 L 386.62 622.523 L 387.019 622.949 C 398.872 641.6 420.862 654.172 443.558 648.717 C 443.678 648.664 443.877 648.771 443.984 648.717 C 479.783 639.937 496.572 599.362 478.905 569.31 L 409.062 450.83 L 580.343 450.83 L 580.343 595.916 C 580.343 618.678 594.218 639.778 616.102 647.054 L 616.501 647.054 C 652.127 657.245 686.769 631.303 686.769 597.167 L 686.769 440.441 L 712.551 375.999 C 713.13 374.401 713.41 372.71 713.376 371.01 L 713.376 319.46 C 713.584 318.08 713.584 316.676 713.376 315.296 L 713.376 251.281 Q 760.748 251.94 768 251.281 C 775.252 250.621 790.06 245.469 800 233.827 Q 811.43 221.829 818 199 C 819.514 195.702 827.285 160.635 820 142 C 812.715 123.365 789.373 115.349 786 114 Q 706.919 82.029 673.466 78.337 L 652.673 78.337 L 613 36.764 C 610.745 33.149 601.481 23.002 591.983 25.124 Z  M 603.623 67.535 L 628 91 C 630.549 93.494 643.295 102.096 646.859 102 Q 656.787 101.589 677 102 C 697.213 102.411 797.948 128.894 802 157 C 806.052 185.106 801.184 211.627 776 227 Q 750.816 242.373 700.073 224.674 C 692.756 224.674 686.769 230.66 686.769 237.977 L 686.769 296.179 L 581.593 243.378 L 603.623 67.535 Z  M 693.421 131.551 C 682.4 131.551 673.466 140.485 673.466 151.506 C 673.466 162.526 682.4 171.461 693.421 171.461 C 704.442 171.461 713.376 162.526 713.376 151.506 C 713.376 140.485 704.442 131.551 693.421 131.551 Z  M 205.349 210.958 C 209.3 210.493 213.77 212.302 217.002 215.535 L 262.313 260.846 C 264.861 263.331 268.307 264.68 271.865 264.584 L 563.714 264.584 L 686.769 326.112 L 686.769 368.097 L 660.987 432.538 C 660.403 434.135 660.123 435.827 660.163 437.527 L 660.163 597.167 C 660.163 613.437 644.465 627.153 624.403 621.698 C 624.31 621.645 624.097 621.752 624.004 621.698 C 614.067 618.213 606.949 607.61 606.949 595.916 L 606.949 437.527 C 606.949 430.21 600.963 424.224 593.646 424.224 L 314.276 424.224 C 306.959 424.224 300.973 430.21 300.973 437.527 L 300.973 470.785 C 300.609 472.567 300.609 474.405 300.973 476.187 L 300.973 597.167 C 300.973 613.437 285.275 627.153 265.214 621.698 C 265.12 621.645 264.908 621.752 264.814 621.698 C 254.864 618.213 247.76 607.61 247.76 595.916 L 247.76 288.703 C 247.735 285.076 246.231 281.616 243.596 279.124 L 197.034 233.827 L 196.635 233.401 C 189.824 227.281 190.436 218.182 200.786 212.621 C 201.07 212.504 201.346 212.366 201.61 212.209 C 202.754 211.532 204.028 211.105 205.349 210.958 Z  M 327.58 450.83 L 378.305 450.83 L 455.624 582.613 C 464.511 597.686 457.593 618.213 437.744 622.949 L 437.332 622.949 C 428.286 625.224 416.18 619.304 409.475 608.807 L 327.58 469.535 L 327.58 450.83 Z " fill="rgb(255,82,151)"/></g></svg>