<?xml version="1.0" encoding="UTF-8" standalone="no"?><!-- Generator: Gravit.io --><svg xmlns="http://www.w3.org/2000/svg" xmlns:xlink="http://www.w3.org/1999/xlink" style="isolation:isolate" viewBox="0 0 1000 1000" width="1000pt" height="1000pt"><defs><clipPath id="_clipPath_Yzn2N1wIdncOvsdTd02KQBBmkAPaHxKk"><rect width="1000" height="1000"/></clipPath></defs><g clip-path="url(#_clipPath_Yzn2N1wIdncOvsdTd02KQBBmkAPaHxKk)"><g clip-path="url(#_clipPath_nBUJDRpazuM1QVIzr4gO9aBUh9TUIqfY)"><text transform="matrix(1.156,0,0,1,21.272,887.1)" style="font-family:'Chicle';font-weight:400;font-size:200px;font-style:normal;fill:#ff5297;stroke:none;">rubber duck</text></g><defs><clipPath id="_clipPath_nBUJDRpazuM1QVIzr4gO9aBUh9TUIqfY"><rect x="0" y="0" width="865" height="350" transform="matrix(1.156,0,0,1,0,650)"/></clipPath></defs><g><path d=" M 409.716 223.179 C 408.23 226.454 406.781 229.747 405.386 233.058 C 404.35 235.489 403.304 237.901 402.24 240.313 C 401.121 242.863 399.956 245.395 398.746 247.899 C 397.471 250.55 396.122 253.155 394.7 255.714 C 393.205 258.411 391.6 261.052 389.885 263.611 C 388.087 266.308 386.143 268.913 384.07 271.408 C 381.877 274.031 379.529 276.517 377.025 278.838 C 371.614 283.855 365.495 288.065 358.873 291.312 C 355.819 292.798 352.691 294.146 349.517 295.348 C 346.142 296.632 342.73 297.806 339.281 298.861 C 331.824 301.145 324.265 303.053 316.616 304.585 C 308.599 306.217 300.509 307.483 292.373 308.391 C 288.328 308.841 284.274 309.189 280.21 309.437 C 276.257 309.684 272.295 309.804 268.332 309.813 C 263.324 309.831 258.316 309.593 253.335 309.088 C 250.932 308.841 248.529 308.501 246.144 308.079 C 243.777 307.666 241.42 307.134 239.1 306.502 C 235.183 305.401 231.349 304.043 227.616 302.438 C 223.818 300.815 220.103 298.989 216.499 296.971 C 209.078 292.844 202.098 287.992 195.659 282.47 C 192.439 279.718 189.385 276.774 186.532 273.646 C 183.652 270.518 181.029 267.161 178.69 263.611 C 177.507 261.795 176.406 259.915 175.415 257.989 C 174.406 256.017 173.517 253.971 172.765 251.889 C 171.967 249.697 171.352 247.45 170.912 245.166 C 170.444 242.744 170.206 240.277 170.196 237.809 C 170.178 231.719 171.701 225.72 174.627 220.382 C 176.773 216.465 180.176 213.392 184.285 211.659 L 309.654 158.789 L 399.424 196.781 C 404.332 198.863 408.202 202.835 410.138 207.806 C 412.073 212.778 411.926 218.327 409.716 223.179 Z  M 365.578 225.408 C 364.78 227.197 363.955 228.976 363.111 230.737 C 362.166 232.691 361.166 234.626 360.111 236.525 C 359.139 238.277 358.093 239.983 356.983 241.653 C 355.956 243.184 354.856 244.67 353.672 246.092 C 352.562 247.413 351.379 248.669 350.113 249.853 C 347.536 252.228 344.637 254.228 341.491 255.778 C 339.528 256.732 337.52 257.594 335.474 258.374 C 332.915 259.346 330.319 260.236 327.696 261.043 C 321.477 262.942 315.166 264.538 308.792 265.813 C 301.912 267.207 294.969 268.298 287.989 269.078 C 284.604 269.454 281.201 269.748 277.798 269.959 C 274.606 270.151 271.414 270.252 268.222 270.252 C 264.599 270.27 260.976 270.096 257.371 269.738 C 255.913 269.583 254.463 269.381 253.014 269.124 C 251.886 268.922 250.767 268.674 249.657 268.372 C 247.456 267.757 245.309 266.987 243.209 266.088 C 240.668 264.996 238.182 263.776 235.77 262.428 C 230.652 259.585 225.827 256.228 221.378 252.412 C 219.361 250.697 217.453 248.853 215.664 246.89 C 214.462 245.588 213.353 244.212 212.344 242.753 L 309.626 201.734 L 365.578 225.408 Z " fill-rule="evenodd" fill="rgb(102,143,255)"/><path d=" M 326.779 312.207 C 322.99 308.244 319.175 304.309 315.332 300.402 C 315.313 300.393 315.295 300.374 315.286 300.356 L 311.131 296.109 C 308.7 293.623 306.966 290.551 306.104 287.194 C 305.242 283.827 305.288 280.296 306.214 276.957 C 307.15 273.618 308.948 270.573 311.424 268.152 C 313.91 265.721 316.983 263.987 320.34 263.125 C 324.421 262.07 328.457 260.86 332.438 259.484 C 334.117 258.897 335.786 258.264 337.437 257.594 C 338.804 257.035 340.152 256.429 341.482 255.787 C 344.628 254.237 347.536 252.238 350.113 249.853 C 351.379 248.669 352.562 247.413 353.672 246.092 C 354.856 244.67 355.956 243.184 356.983 241.653 C 358.103 239.983 359.139 238.277 360.111 236.525 C 361.166 234.626 362.166 232.691 363.111 230.737 C 363.955 228.976 364.78 227.197 365.578 225.408 L 309.626 201.734 L 289.759 210.109 C 286.558 211.457 283.063 211.943 279.623 211.512 C 276.174 211.081 272.909 209.751 270.139 207.66 C 267.369 205.559 265.204 202.78 263.856 199.579 C 262.508 196.377 262.021 192.883 262.453 189.443 C 263.113 184.077 264.049 178.748 265.232 173.474 C 266.452 168.053 267.883 162.678 269.534 157.376 C 272.9 146.553 277.009 135.977 281.825 125.732 C 284.2 120.65 286.741 115.651 289.456 110.744 C 292.089 105.965 294.905 101.278 297.886 96.701 C 300.747 92.298 303.802 88.024 307.03 83.878 C 310.112 79.915 313.424 76.118 316.918 72.504 C 321.101 68.248 325.595 64.304 330.374 60.717 C 335.116 57.149 340.079 53.884 345.234 50.94 C 350.398 47.986 355.709 45.317 361.157 42.932 C 366.605 40.547 372.164 38.41 377.805 36.539 C 388.959 32.842 400.387 30.026 411.981 28.128 C 423.034 26.275 434.215 25.238 445.415 25.037 C 446.708 25.009 447.992 25 449.286 25 C 460.421 25.018 471.547 25.77 482.591 27.247 C 488.406 28.018 494.185 28.999 499.926 30.173 C 505.769 31.366 511.557 32.787 517.281 34.429 C 523.032 36.08 528.71 37.997 534.286 40.171 C 539.854 42.327 545.293 44.803 550.586 47.564 C 555.86 50.316 560.932 53.425 565.784 56.874 C 570.673 60.341 575.25 64.221 579.479 68.477 C 583.478 72.55 587.175 76.907 590.55 81.511 C 594.063 86.272 597.319 91.216 600.3 96.325 C 603.41 101.626 606.281 107.066 608.913 112.615 C 611.61 118.302 614.086 124.08 616.334 129.96 C 618.599 135.867 620.645 141.857 622.452 147.929 C 624.249 153.918 625.8 159.981 627.111 166.099 C 628.386 172.043 629.386 178.051 630.111 184.086 C 630.808 189.902 631.175 195.745 631.193 201.606 C 631.202 205.743 630.991 209.888 630.542 214.007 C 629.973 219.07 628.964 224.078 627.542 228.967 C 626.148 233.728 624.415 238.369 622.369 242.882 C 620.342 247.321 618.076 251.632 615.572 255.815 C 613.087 259.961 610.436 263.997 607.601 267.913 C 604.795 271.802 601.869 275.609 598.833 279.314 C 595.815 282.983 592.724 286.597 589.559 290.138 C 586.45 293.614 583.295 297.063 580.103 300.466 C 578.69 301.961 577.277 303.465 575.865 304.961 C 579.314 305.869 582.79 306.712 586.276 307.492 C 591.1 308.574 595.971 309.428 600.878 310.042 C 604.978 310.547 609.106 310.803 613.243 310.813 C 616.967 310.813 620.691 310.592 624.387 310.152 C 628.423 309.666 632.44 308.996 636.412 308.134 C 643.044 306.731 649.547 304.814 655.876 302.392 C 662.214 299.989 668.323 297.008 674.12 293.486 C 676.872 291.798 679.532 289.964 682.082 287.982 C 684.512 286.093 686.824 284.047 688.988 281.864 C 691.043 279.801 692.933 277.59 694.657 275.251 C 701.16 266.418 704.572 255.696 704.38 244.734 C 719.202 254.035 733.355 264.363 746.729 275.646 C 752.627 280.617 758.359 285.799 763.9 291.165 C 769.385 296.476 774.659 302.007 779.713 307.731 C 784.703 313.381 789.445 319.26 793.912 325.333 C 798.324 331.331 802.424 337.559 806.194 343.98 C 809.936 350.327 813.293 356.904 816.256 363.655 C 819.209 370.369 821.704 377.285 823.74 384.339 C 825.777 391.429 827.281 398.657 828.235 405.967 C 828.776 410.159 829.17 414.36 829.418 418.579 C 829.684 422.991 829.813 427.403 829.803 431.824 C 829.794 438.878 829.501 445.922 828.923 452.948 C 828.327 460.286 827.446 467.606 826.29 474.889 C 825.098 482.374 823.63 489.812 821.869 497.178 C 820.09 504.635 817.998 512.019 815.604 519.292 C 813.21 526.566 810.477 533.721 807.395 540.728 C 804.359 547.654 800.929 554.405 797.104 560.935 C 793.352 567.374 789.142 573.538 784.501 579.372 C 779.896 585.169 774.778 590.544 769.201 595.414 C 765.954 598.23 762.551 600.872 759.02 603.33 C 755.461 605.816 751.783 608.127 748.022 610.274 C 744.188 612.466 740.271 614.502 736.281 616.392 C 732.209 618.327 728.063 620.116 723.871 621.785 C 715.231 625.188 706.416 628.151 697.473 630.655 C 688.227 633.251 678.88 635.489 669.46 637.378 C 659.848 639.314 650.171 640.974 640.457 642.359 C 630.707 643.744 620.929 644.918 611.124 645.881 C 601.484 646.826 591.834 647.615 582.166 648.238 C 572.884 648.835 563.592 649.312 554.301 649.678 C 548.549 649.899 542.789 650.009 537.038 649.999 C 527.728 649.99 518.427 649.752 509.136 649.284 C 499.477 648.798 489.828 648.119 480.197 647.239 C 460.696 645.468 441.26 643.001 421.933 639.855 C 412.596 638.341 403.286 636.663 394.013 634.81 C 385.253 633.076 376.521 631.159 367.834 629.059 C 359.854 627.151 351.92 625.032 344.05 622.721 C 337.033 620.675 330.081 618.382 323.22 615.841 C 316.607 613.392 310.112 610.604 303.783 607.494 C 297.968 604.642 292.327 601.45 286.888 597.946 C 281.834 594.681 276.991 591.103 272.386 587.233 C 268.057 583.582 263.975 579.647 260.159 575.464 C 256.536 571.484 253.17 567.273 250.079 562.871 C 247.116 558.633 244.401 554.239 241.943 549.699 C 239.577 545.315 237.412 540.811 235.467 536.216 C 233.578 531.749 231.844 527.208 230.285 522.613 C 229.092 519.082 228.074 515.495 227.24 511.872 C 226.387 508.176 225.689 504.452 225.167 500.7 C 224.093 493.023 223.571 485.272 223.598 477.512 C 223.607 469.761 224.066 462.02 224.983 454.324 C 225.891 446.564 227.221 438.869 228.973 431.265 C 230.688 423.753 232.835 416.36 235.412 409.095 C 237.907 402.041 240.879 395.162 244.328 388.512 C 246.034 385.247 247.923 382.082 249.996 379.037 C 252.014 376.065 254.17 373.194 256.463 370.433 C 258.719 367.727 261.077 365.104 263.544 362.582 C 265.975 360.087 268.488 357.674 271.075 355.345 C 273.634 353.033 276.248 350.786 278.908 348.594 C 281.559 346.411 284.246 344.283 286.97 342.191 C 292.345 338.082 297.776 334.046 303.251 330.075 C 306.627 327.607 309.993 325.131 313.35 322.636 C 316.643 320.187 319.899 317.692 323.119 315.151 C 324.348 314.179 325.568 313.197 326.779 312.207 Z  M 720.918 305.63 C 721.028 305.713 721.129 305.804 721.229 305.887 C 726.439 310.271 731.484 314.839 736.373 319.572 C 741.124 324.177 745.683 328.956 750.058 333.909 C 754.269 338.678 758.268 343.641 762.038 348.768 C 765.651 353.675 769.009 358.775 772.1 364.031 C 775.044 369.039 777.704 374.231 780.043 379.56 C 782.281 384.66 784.18 389.906 785.721 395.263 C 787.207 400.445 788.307 405.729 789.014 411.076 C 789.436 414.342 789.738 417.616 789.931 420.909 C 790.151 424.532 790.252 428.155 790.252 431.788 C 790.243 437.768 789.995 443.748 789.5 449.711 C 788.986 456.058 788.225 462.387 787.216 468.688 C 786.189 475.173 784.914 481.612 783.391 487.996 C 781.868 494.38 780.08 500.7 778.025 506.937 C 776.025 513.009 773.742 518.981 771.173 524.833 C 768.743 530.373 766 535.775 762.946 540.994 C 760.139 545.81 756.993 550.415 753.526 554.771 C 750.425 558.67 746.986 562.293 743.243 565.577 C 741.06 567.457 738.785 569.218 736.419 570.86 C 733.832 572.667 731.163 574.355 728.421 575.914 C 725.458 577.602 722.431 579.179 719.349 580.638 C 716.056 582.197 712.717 583.655 709.333 584.995 C 701.958 587.902 694.437 590.425 686.796 592.562 C 678.504 594.892 670.121 596.91 661.673 598.597 C 652.794 600.386 643.86 601.918 634.88 603.193 C 625.699 604.504 616.49 605.605 607.262 606.513 C 598.062 607.421 588.844 608.164 579.626 608.76 C 570.683 609.338 561.73 609.797 552.769 610.145 C 547.541 610.347 542.303 610.448 537.075 610.448 C 528.416 610.439 519.766 610.21 511.117 609.778 C 501.99 609.32 492.882 608.678 483.783 607.843 C 465.2 606.155 446.69 603.807 428.281 600.808 C 419.402 599.368 410.55 597.772 401.727 596.02 C 393.481 594.378 385.253 592.571 377.08 590.599 C 369.724 588.838 362.423 586.893 355.167 584.756 C 349.022 582.967 342.95 580.968 336.951 578.748 C 331.594 576.758 326.348 574.501 321.22 571.988 C 316.79 569.805 312.479 567.374 308.324 564.696 C 304.682 562.348 301.188 559.77 297.876 556.973 C 294.877 554.45 292.043 551.726 289.401 548.828 C 286.915 546.094 284.604 543.205 282.485 540.178 C 280.394 537.188 278.477 534.088 276.734 530.877 C 274.964 527.594 273.349 524.236 271.9 520.806 C 270.378 517.22 268.992 513.578 267.745 509.891 C 266.975 507.625 266.323 505.323 265.782 502.993 C 265.186 500.416 264.709 497.82 264.342 495.206 C 263.526 489.381 263.131 483.502 263.15 477.613 C 263.159 471.376 263.535 465.139 264.269 458.947 C 265.012 452.609 266.094 446.317 267.525 440.107 C 268.901 434.072 270.634 428.128 272.707 422.294 C 274.578 416.974 276.817 411.792 279.412 406.784 C 280.412 404.876 281.522 403.023 282.733 401.243 C 284.026 399.336 285.411 397.492 286.879 395.722 C 288.466 393.823 290.117 391.988 291.841 390.218 C 293.694 388.32 295.611 386.485 297.583 384.706 C 299.683 382.807 301.83 380.963 304.013 379.165 C 306.324 377.267 308.663 375.405 311.03 373.589 C 316.148 369.681 321.303 365.838 326.513 362.068 C 330.007 359.518 333.484 356.95 336.96 354.372 C 340.547 351.703 344.105 348.979 347.618 346.209 C 351.242 343.347 354.8 340.403 358.286 337.376 C 366.44 330.304 374.044 322.617 381.052 314.408 C 374.558 306.144 367.734 298.145 360.607 290.431 C 366.569 287.313 372.09 283.415 377.025 278.838 C 379.529 276.517 381.877 274.031 384.07 271.408 C 386.143 268.913 388.087 266.308 389.885 263.611 C 391.6 261.052 393.205 258.411 394.7 255.714 C 396.122 253.155 397.471 250.55 398.746 247.899 C 399.956 245.395 401.121 242.863 402.24 240.313 C 403.304 237.901 404.35 235.489 405.386 233.058 C 406.781 229.747 408.23 226.454 409.716 223.179 C 411.926 218.327 412.073 212.778 410.138 207.806 C 408.202 202.835 404.332 198.863 399.424 196.781 L 310.663 159.22 C 312.745 153.551 315.075 147.975 317.643 142.517 C 319.643 138.224 321.798 134.005 324.082 129.868 C 326.256 125.915 328.576 122.053 331.044 118.274 C 333.291 114.816 335.694 111.45 338.235 108.185 C 340.418 105.378 342.757 102.69 345.234 100.131 C 348.004 97.315 350.985 94.71 354.14 92.335 C 357.561 89.757 361.139 87.409 364.853 85.29 C 368.798 83.034 372.861 80.988 377.025 79.172 C 381.355 77.274 385.776 75.577 390.261 74.082 C 399.461 71.036 408.89 68.716 418.457 67.147 C 427.602 65.615 436.848 64.753 446.112 64.588 C 447.167 64.57 448.212 64.561 449.258 64.561 C 458.651 64.57 468.043 65.203 477.353 66.459 C 482.27 67.111 487.149 67.936 492.002 68.927 C 496.835 69.917 501.623 71.091 506.366 72.449 C 510.961 73.77 515.492 75.302 519.95 77.035 C 524.16 78.668 528.269 80.539 532.278 82.63 C 535.956 84.547 539.496 86.721 542.881 89.124 C 545.889 91.262 548.715 93.646 551.329 96.261 C 553.98 98.976 556.438 101.883 558.685 104.947 C 561.382 108.597 563.867 112.386 566.161 116.302 C 568.692 120.622 571.031 125.044 573.177 129.575 C 575.434 134.335 577.507 139.178 579.396 144.104 C 581.304 149.094 583.029 154.148 584.551 159.266 C 586.046 164.246 587.34 169.291 588.431 174.391 C 589.458 179.152 590.256 183.967 590.834 188.801 C 591.348 193.094 591.623 197.414 591.632 201.734 C 591.641 204.385 591.504 207.036 591.22 209.668 C 590.908 212.448 590.357 215.19 589.569 217.868 C 588.706 220.813 587.633 223.693 586.367 226.491 C 584.964 229.572 583.377 232.581 581.634 235.489 C 579.736 238.662 577.69 241.763 575.526 244.771 C 573.196 248 570.774 251.146 568.243 254.228 C 565.592 257.466 562.858 260.649 560.07 263.776 C 557.172 267.014 554.236 270.215 551.265 273.38 C 548.238 276.609 545.192 279.819 542.138 283.02 C 539.23 286.065 536.341 289.12 533.461 292.183 C 523.949 302.291 514.85 312.775 506.182 323.617 C 522.931 330.047 539.946 335.78 557.172 340.816 C 563.932 342.797 570.756 344.558 577.626 346.09 C 583.698 347.456 589.825 348.52 595.998 349.291 C 601.713 349.997 607.464 350.364 613.215 350.373 C 618.517 350.364 623.8 350.052 629.065 349.428 C 634.302 348.805 639.512 347.933 644.676 346.823 C 653.28 344.998 661.737 342.503 669.956 339.357 C 678.559 336.092 686.851 332.038 694.721 327.25 C 698.739 324.791 702.619 322.113 706.333 319.224 C 710.103 316.307 713.681 313.142 717.047 309.758 C 718.377 308.419 719.67 307.043 720.918 305.63 Z " fill-rule="evenodd" fill="rgb(102,143,255)"/><path d=" M 391.218 146.64 C 391.218 128.889 405.608 114.499 423.358 114.499 C 441.109 114.499 455.498 128.889 455.498 146.64 C 455.498 164.39 441.109 178.78 423.358 178.78 C 405.608 178.78 391.218 164.39 391.218 146.64 Z " fill-rule="evenodd" fill="rgb(102,143,255)"/></g></g></svg>