<?xml version="1.0" encoding="UTF-8" standalone="no"?><!-- Generator: Gravit.io --><svg xmlns="http://www.w3.org/2000/svg" xmlns:xlink="http://www.w3.org/1999/xlink" style="isolation:isolate" viewBox="0 0 1000 1000" width="1000pt" height="1000pt"><defs><clipPath id="_clipPath_1ecodLjGMHgYvx3zXCmZkS59PFYr20YP"><rect width="1000" height="1000"/></clipPath></defs><g clip-path="url(#_clipPath_1ecodLjGMHgYvx3zXCmZkS59PFYr20YP)"><g clip-path="url(#_clipPath_d2sm0pgfzAjTiGt46l47V1IInL2sPYIZ)"><text transform="matrix(1.156,0,0,1,135.853,894.863)" style="font-family:'Chicle';font-weight:400;font-size:225px;font-style:normal;fill:#ff5297;stroke:none;">sleeping</text></g><defs><clipPath id="_clipPath_d2sm0pgfzAjTiGt46l47V1IInL2sPYIZ"><rect x="0" y="0" width="865" height="350" transform="matrix(1.156,0,0,1,0,650)"/></clipPath></defs><g><path d=" M 363.513 156.628 C 227.314 156.628 116.817 267.105 116.817 403.304 C 116.817 539.504 227.314 650 363.513 650 C 499.713 650 610.209 539.504 610.209 403.304 C 610.209 267.105 499.693 156.609 363.513 156.609 L 363.513 156.628 Z  M 363.513 195.135 C 478.264 195.135 571.702 288.534 571.702 403.304 C 571.702 518.055 478.284 611.493 363.513 611.493 C 248.762 611.493 155.325 518.055 155.325 403.304 C 155.344 288.553 248.762 195.116 363.513 195.116 L 363.513 195.135 Z  M 336.443 404.498 C 325.526 404.44 301.921 413.547 286.499 413.547 C 265.898 413.547 230.548 398.183 230.548 408.118 C 230.548 418.053 265.898 440.002 286.499 440.002 C 307.1 440.002 342.45 419.323 342.45 408.118 C 342.45 405.326 340.043 404.498 336.443 404.498 Z  M 389.39 404.498 C 385.693 404.498 383.364 405.326 383.364 408.118 C 383.364 419.323 419.618 440.002 440.527 440.002 C 461.437 440.002 497.691 418.053 497.691 408.118 C 497.691 398.183 461.437 413.528 440.527 413.528 C 424.816 413.528 400.518 404.44 389.39 404.498 Z  M 363.513 500.766 C 328.318 500.766 308.159 519.442 308.159 519.442 C 308.159 519.442 324.563 535.672 363.513 535.672 C 402.54 535.672 418.867 519.422 418.867 519.422 C 418.867 519.422 398.709 500.785 363.513 500.785 L 363.513 500.766 Z " fill="rgb(102,143,255)"/><path d=" M 629.162 216.351 L 629.162 254.159 L 731.951 254.159 L 635.958 334.208 C 631.666 337.791 629.178 343.088 629.162 348.679 L 629.162 367.582 C 629.162 378.023 637.625 386.486 648.065 386.486 L 780.393 386.486 L 780.393 348.679 L 677.603 348.679 L 773.597 268.63 C 777.878 265.048 780.393 259.736 780.393 254.159 L 780.393 235.255 C 780.393 224.815 771.929 216.351 761.489 216.351 L 629.162 216.351 Z " fill="rgb(102,143,255)"/><path d=" M 731.951 25 L 731.951 62.808 L 834.741 62.808 L 738.747 142.856 C 734.456 146.439 731.968 151.736 731.951 157.327 L 731.951 176.231 C 731.951 186.671 740.415 195.135 750.855 195.135 L 883.183 195.135 L 883.183 157.327 L 780.393 157.327 L 876.387 77.279 C 880.668 73.696 883.183 68.384 883.183 62.808 L 883.183 43.904 C 883.183 33.464 874.719 25 864.279 25 L 731.951 25 Z " fill="rgb(102,143,255)"/></g></g></svg>