<?xml version="1.0" encoding="UTF-8" standalone="no"?><!-- Generator: Gravit.io --><svg xmlns="http://www.w3.org/2000/svg" xmlns:xlink="http://www.w3.org/1999/xlink" style="isolation:isolate" viewBox="0 0 1000 1000" width="1000pt" height="1000pt"><defs><clipPath id="_clipPath_0rYLS8GOcUpRyCfhhF3ORaiaGOZwxWQS"><rect width="1000" height="1000"/></clipPath></defs><g clip-path="url(#_clipPath_0rYLS8GOcUpRyCfhhF3ORaiaGOZwxWQS)"><g clip-path="url(#_clipPath_HkXIHF7oBC8EE91dOXbyc6lbMWcFoUwI)"><text transform="matrix(1.156,0,0,1,65.882,894.863)" style="font-family:'Chicle';font-weight:400;font-size:225px;font-style:normal;fill:#ff5297;stroke:none;">sonogram</text></g><defs><clipPath id="_clipPath_HkXIHF7oBC8EE91dOXbyc6lbMWcFoUwI"><rect x="0" y="0" width="865" height="350" transform="matrix(1.156,0,0,1,0,650)"/></clipPath></defs><path d=" M 500 142.961 C 383.223 142.961 288.394 237.791 288.394 354.567 C 288.394 471.345 383.223 566.173 500 566.173 C 616.777 566.173 711.606 471.345 711.606 354.567 C 711.606 237.791 616.777 142.961 500 142.961 Z  M 500 158.046 L 500 158.076 C 608.609 158.076 696.491 245.959 696.491 354.567 C 696.491 463.176 608.609 551.059 500 551.059 C 391.391 551.059 303.509 463.176 303.509 354.567 C 303.509 329.22 307.997 305.026 316.734 282.772 C 328.974 291.713 345.678 292.074 358.299 283.717 C 358.642 283.431 358.958 283.114 359.244 282.772 C 359.362 282.621 359.597 282.924 359.716 282.772 C 360.223 282.512 360.698 282.195 361.133 281.828 C 370.423 276.323 382.414 278.632 389.001 287.496 C 394.76 295.244 394.558 305.463 388.529 313.002 C 388.365 313.152 388.207 313.31 388.057 313.474 C 388.052 313.632 388.052 313.789 388.057 313.946 C 387.892 314.097 387.735 314.255 387.584 314.419 C 387.504 314.57 387.663 314.785 387.584 314.891 C 387.406 315.185 387.248 315.491 387.112 315.806 C 383.055 322.148 380.564 329.555 380.972 337.091 C 382.048 357.009 399.312 372.618 419.231 371.542 C 424.324 371.542 429.084 373.39 432.928 376.767 C 441.227 384.052 442.51 395.866 436.235 404.605 C 434.813 404.394 432.899 403.591 429.622 402.273 C 420.631 398.659 412.836 393.135 404.116 389.992 C 399.756 388.421 394.629 387.368 389.474 388.546 C 384.319 389.725 379.598 393.151 375.776 397.993 C 375.612 398.143 375.454 398.301 375.304 398.465 C 370.762 405.357 371.16 413.612 372.942 422.554 C 374.724 431.496 378.364 441.621 383.806 451.839 C 394.688 472.274 412.306 493.876 434.345 508.519 C 477.791 537.387 538.001 545.298 585.965 504.268 C 632.185 464.731 641.224 395.552 607.692 348.87 C 620.975 338.462 630.583 322.899 633.199 304.943 C 638.6 267.859 612.657 233.354 575.574 227.952 C 538.49 222.55 503.985 248.493 498.583 285.577 C 495.328 307.919 503.846 328.969 518.893 343.674 C 517.145 344.505 517.219 344.657 515.115 345.563 C 508.064 348.62 499.508 350.707 496.221 350.287 C 494.34 350.045 494.525 350.287 492.915 348.397 C 491.305 346.57 488.661 343.069 484.413 338.006 C 480.752 333.642 474.994 331.925 470.243 332.338 C 465.492 332.746 461.491 334.725 457.962 337.534 C 454.433 340.342 451.173 343.986 449.932 348.87 C 448.692 353.753 450.318 360.068 454.183 364.457 C 459.197 370.154 464.453 375.156 467.409 379.099 C 468.246 380.218 468.444 380.76 468.826 381.461 C 463.125 386.568 458.732 390.354 454.656 393.742 C 455.101 383.266 451.346 372.862 442.847 365.401 C 435.874 359.28 427.087 355.607 417.814 355.955 C 417.649 356.105 417.492 356.263 417.341 356.427 C 406.014 356.578 396.705 348.028 396.086 336.589 C 395.844 332.103 396.958 327.15 399.393 323.364 C 399.557 323.213 399.714 323.056 399.865 322.891 C 400.029 322.741 400.187 322.583 400.337 322.419 C 410.363 309.588 410.541 291.586 400.81 278.492 C 388.91 262.482 366.28 259.036 350.27 270.934 C 349.568 271.314 348.93 271.802 348.38 272.381 C 341.015 276.447 331.993 275.924 325.236 270.492 C 324.687 269.913 324.049 269.425 323.347 269.045 C 355.231 203.431 422.164 158.046 500 158.046 Z  M 562.821 242.624 C 566.336 242.427 570.059 242.628 573.684 243.096 C 602.684 247.321 622.308 274.084 618.084 303.083 C 615.586 320.232 605.22 334.122 591.161 341.814 C 588.215 343.069 585.263 344.262 582.659 345.121 C 579.968 346.012 577.467 346.496 575.101 347.01 C 573.08 347.373 571.043 347.849 568.961 347.955 C 565.446 348.151 561.722 347.951 558.097 347.482 C 555.291 347.074 552.69 346.409 550.068 345.593 C 546.629 344.354 542.923 342.614 539.204 340.87 C 538.882 340.718 538.585 340.548 538.259 340.397 C 520.612 329.732 510.529 309.246 513.698 287.496 C 517.394 262.12 538.215 244.007 562.821 242.624 Z  M 471.66 347.482 C 472.728 347.331 472.764 347.104 473.077 347.482 C 476.777 351.891 478.733 355.588 481.579 358.818 C 484.425 362.05 489.146 364.767 494.332 365.431 C 504.02 366.67 513.262 362.755 521.255 359.291 C 527.33 356.658 530.035 355.266 532.119 354.095 C 535.518 356.057 538.746 357.929 542.51 359.291 C 542.974 359.487 543.456 359.582 543.927 359.763 C 547.662 361.229 551.804 361.912 556.208 362.597 C 556.711 362.748 557.11 363.009 557.625 363.069 C 560.03 363.357 562.463 363.326 565.182 363.069 C 565.497 363.072 565.813 363.071 566.127 363.069 C 575.97 363.069 585.394 360.856 593.995 356.929 C 623.474 396.82 616.703 457.71 576.046 492.489 C 533.491 528.892 481.664 521.9 442.375 495.796 C 423.047 482.953 406.82 463.164 397.031 444.783 C 392.137 435.592 388.966 426.683 387.584 419.75 C 386.202 412.816 387.259 408.206 388.057 406.997 C 390.034 404.695 391.593 403.49 392.78 403.218 C 394.097 402.916 396.085 403.074 398.92 404.162 C 404.59 406.208 413.115 411.584 423.954 415.941 C 427.254 417.271 430.439 418.713 434.345 419.277 C 434.946 419.428 435.625 419.277 436.235 419.277 C 436.387 419.285 436.554 419.271 436.707 419.277 C 439.212 420.347 442.1 419.986 444.264 418.333 C 444.458 418.333 444.543 417.921 444.737 417.86 C 445.376 417.634 445.978 417.675 446.626 417.388 C 455.186 413.759 464.547 406.43 481.107 391.409 C 484.507 388.326 484.918 382.655 483.941 379.129 C 482.963 375.602 481.23 372.84 479.217 370.154 C 475.191 364.786 470.137 359.338 465.52 354.095 C 464.569 353.007 464.391 353.403 464.575 352.678 C 464.759 351.952 465.969 350.519 467.409 349.372 C 468.849 348.223 470.592 347.576 471.66 347.482 Z  M 74.982 566.73 L 278.653 34.205 L 280.749 25 L 290.652 27.255 C 304.963 30.515 319.315 33.623 333.698 36.589 C 345.907 39.108 358.146 41.475 370.416 43.699 C 374.164 44.38 377.912 45.04 381.66 45.69 C 385.215 46.299 388.76 46.899 392.314 47.478 C 397.281 48.29 402.248 49.072 407.225 49.824 C 411.796 50.515 416.387 51.165 420.968 51.794 C 427.387 52.668 433.806 53.47 440.236 54.202 C 445.903 54.842 451.571 55.421 457.249 55.918 C 465.08 56.619 472.921 57.157 480.773 57.543 C 487.182 57.848 493.591 58.011 500 58.011 C 506.216 58.011 512.432 57.858 518.648 57.564 C 526.215 57.208 533.783 56.7 541.339 56.05 C 550.532 55.248 559.703 54.273 568.855 53.115 C 580.038 51.703 591.201 50.118 602.343 48.341 C 618.208 45.822 634.033 43.009 649.807 39.9 C 669.715 35.97 689.562 31.754 709.348 27.255 L 719.251 25 L 721.347 34.205 L 925.018 566.73 L 927.472 566.173 L 931.981 585.98 L 922.078 588.235 C 882.537 597.234 842.863 605.654 803.067 613.495 C 771.418 619.732 739.657 625.389 707.804 630.448 C 685.387 634.013 662.92 637.222 640.402 640.066 C 621.855 642.403 603.257 644.383 584.629 645.998 C 569.251 647.329 553.853 648.365 538.434 649.086 C 525.626 649.695 512.818 650 500 650 C 496.973 650 493.946 649.98 490.909 649.949 C 487.74 649.909 484.571 649.848 481.402 649.777 C 470.727 649.523 460.062 649.086 449.418 648.466 C 437.097 647.745 424.787 646.841 412.497 645.744 C 400.989 644.718 389.491 643.55 378.003 642.25 C 365.022 640.767 352.062 639.152 339.122 637.395 C 329.879 636.136 320.646 634.815 311.423 633.424 C 301.429 631.92 291.444 630.356 281.46 628.721 C 274.33 627.553 267.189 626.354 260.059 625.125 C 252.532 623.825 245.016 622.495 237.5 621.134 C 212.92 616.675 188.39 611.931 163.922 606.883 C 135.198 600.962 106.524 594.745 77.922 588.235 L 68.019 585.98 L 72.528 566.173 L 74.982 566.73 Z  M 94.996 571.262 L 294.741 49.001 C 306.335 51.591 317.958 54.085 329.594 56.487 C 341.966 59.036 354.368 61.434 366.79 63.688 C 370.599 64.379 374.397 65.049 378.206 65.71 C 381.812 66.329 385.428 66.939 389.034 67.528 C 394.082 68.361 399.14 69.153 404.198 69.915 C 408.871 70.616 413.553 71.286 418.235 71.916 C 424.797 72.809 431.358 73.632 437.94 74.384 C 443.77 75.044 449.611 75.633 455.451 76.151 C 463.546 76.872 471.662 77.431 479.787 77.827 C 486.522 78.162 493.256 78.325 500 78.325 C 506.541 78.325 513.072 78.162 519.613 77.858 C 527.445 77.482 535.276 76.964 543.086 76.283 C 552.543 75.46 561.979 74.465 571.394 73.277 C 582.801 71.834 594.177 70.209 605.532 68.401 C 621.652 65.842 637.72 62.988 653.728 59.829 C 670.955 56.435 688.13 52.826 705.259 49.001 L 905.004 571.261 C 869.817 579.164 834.526 586.597 799.147 593.567 C 767.741 599.753 736.224 605.36 704.615 610.387 C 682.411 613.922 660.157 617.091 637.852 619.905 C 619.569 622.22 601.236 624.171 582.872 625.755 C 567.758 627.065 552.624 628.081 537.47 628.802 C 524.986 629.391 512.493 629.686 500 629.686 C 497.054 629.686 494.109 629.665 491.163 629.635 C 488.065 629.594 484.968 629.544 481.88 629.472 C 471.448 629.219 461.017 628.792 450.596 628.183 C 438.489 627.472 426.381 626.588 414.294 625.511 C 402.949 624.506 391.614 623.348 380.299 622.068 C 367.47 620.605 354.652 619.001 341.864 617.264 C 332.713 616.014 323.571 614.714 314.44 613.333 C 304.537 611.85 294.634 610.296 284.751 608.671 C 277.661 607.513 270.592 606.324 263.522 605.106 C 256.047 603.816 248.581 602.495 241.126 601.144 C 216.698 596.716 192.331 592.003 168.025 586.985 C 143.638 581.961 119.295 576.722 94.996 571.262 Z " fill-rule="evenodd" fill="rgb(102,143,255)"/></g></svg>