<?xml version="1.0" encoding="UTF-8" standalone="no"?><!-- Generator: Gravit.io --><svg xmlns="http://www.w3.org/2000/svg" xmlns:xlink="http://www.w3.org/1999/xlink" style="isolation:isolate" viewBox="0 0 1000 1000" width="1000pt" height="1000pt"><defs><clipPath id="_clipPath_2oOODm3Nmtg79rREfkPcStCLTRMM8ZqJ"><rect width="1000" height="1000"/></clipPath></defs><g clip-path="url(#_clipPath_2oOODm3Nmtg79rREfkPcStCLTRMM8ZqJ)"><g clip-path="url(#_clipPath_ydrs6LLL5kuBNHgJvrZOqKLLUvoRCWcr)"><text transform="matrix(1.156,0,0,1,181.243,894.863)" style="font-family:'Chicle';font-weight:400;font-size:225px;font-style:normal;fill:#ff5297;stroke:none;">stroller</text></g><defs><clipPath id="_clipPath_ydrs6LLL5kuBNHgJvrZOqKLLUvoRCWcr"><rect x="0" y="0" width="865" height="350" transform="matrix(1.156,0,0,1,0,650)"/></clipPath></defs><path d=" M 552.037 25 L 552.037 259.375 L 335.553 259.375 C 327.268 239.96 316.615 221.644 303.834 204.844 C 276.36 168.333 229.251 129.167 161.412 129.167 L 161.412 181.25 C 209.719 181.25 240.761 207.188 262.323 235.781 C 282.896 263.047 290.813 288.672 291.62 291.12 C 293.756 379.401 345.839 455.703 420.214 493.75 C 377.793 494.847 343.915 529.441 343.704 571.875 C 343.704 614.714 378.99 650 421.829 650 C 464.667 650 499.954 614.714 499.954 571.875 C 499.954 548.776 489.98 527.604 473.912 513.281 C 490.971 517.417 508.444 519.601 525.995 519.792 L 604.12 519.792 C 621.672 519.601 639.145 517.417 656.204 513.281 C 640.136 527.604 630.162 548.776 630.162 571.875 C 630.162 614.714 665.448 650 708.287 650 C 751.126 650 786.412 614.714 786.412 571.875 C 786.201 529.441 752.322 494.847 709.902 493.75 C 778.469 458.646 827.818 391.016 836.855 311.458 C 837.688 303.906 838.417 296.406 838.495 288.672 L 838.495 287.031 C 838.495 287.031 838.704 282.76 838.495 275.651 L 838.495 259.375 L 836.855 259.375 C 834.928 234.453 829.745 196.719 810.813 156.823 C 779.823 91.563 709.511 25 578.079 25 L 552.037 25 Z  M 604.12 80.339 C 698.209 88.073 741.959 132.318 764.433 179.635 C 779.797 212.083 783.261 239.323 784.797 259.375 L 604.12 259.375 L 604.12 80.339 Z  M 349.407 311.458 L 780.683 311.458 C 767.454 399.036 695.24 467.708 604.094 467.708 L 525.969 467.708 C 434.823 467.708 362.61 399.036 349.381 311.458 L 349.407 311.458 Z  M 421.829 545.833 C 436.49 545.833 447.87 557.24 447.87 571.875 C 447.87 586.536 436.464 597.917 421.829 597.917 C 407.167 597.917 395.787 586.51 395.787 571.875 C 395.787 557.214 407.193 545.833 421.829 545.833 Z  M 708.287 545.833 C 722.948 545.833 734.329 557.24 734.329 571.875 C 734.329 586.536 722.922 597.917 708.287 597.917 C 693.626 597.917 682.245 586.51 682.245 571.875 C 682.245 557.214 693.652 545.833 708.287 545.833 Z " fill="rgb(102,143,255)"/></g></svg>