<?xml version="1.0" encoding="UTF-8" standalone="no"?><!-- Generator: Gravit.io --><svg xmlns="http://www.w3.org/2000/svg" xmlns:xlink="http://www.w3.org/1999/xlink" style="isolation:isolate" viewBox="0 0 1000 1000" width="1000pt" height="1000pt"><defs><clipPath id="_clipPath_AHEeyETo4tJt9AXal6LfIz5ssyhHKk4k"><rect width="1000" height="1000"/></clipPath></defs><g clip-path="url(#_clipPath_AHEeyETo4tJt9AXal6LfIz5ssyhHKk4k)"><g clip-path="url(#_clipPath_UHPoG6RIZ0i2ldmiNJaz3gnjRbraaDxQ)"><text transform="matrix(1.156,0,0,1,258.601,804.723)" style="font-family:'Chicle';font-weight:400;font-size:180px;font-style:normal;fill:#668fff;stroke:none;">stuffed </text><text transform="matrix(1.156,0,0,1,224.578,957.057)" style="font-family:'Chicle';font-weight:400;font-size:180px;font-style:normal;fill:#668fff;stroke:none;">animals</text></g><defs><clipPath id="_clipPath_UHPoG6RIZ0i2ldmiNJaz3gnjRbraaDxQ"><rect x="0" y="0" width="865" height="350" transform="matrix(1.156,0,0,1,0,650)"/></clipPath></defs><path d=" M 391.406 25 C 381.881 25 374.255 28.75 366.005 33.601 C 357.491 38.595 349.73 44.774 342.954 51.952 C 327.29 68.753 322.202 81.791 319.127 94.529 C 315.327 110.305 321.127 125.743 330.065 137.907 C 336.845 147.155 345.496 154.873 355.454 160.558 C 351.868 173.403 350.03 186.674 349.991 200.01 C 349.991 222.961 355.167 244.588 364.442 264.076 C 352.779 270.227 257.849 320.179 235.535 331.655 C 223.659 337.768 212.234 346.118 205.058 358.619 C 197.883 371.12 196.608 387.871 204.283 404.709 C 212.196 422.148 226.934 431.523 240.61 433.623 C 254.286 435.711 266.587 432.198 275.375 428.923 C 292.963 422.335 326.215 408.084 345.304 400.021 L 339.828 445.724 C 299.651 465.213 278.85 515.853 290.613 565.656 C 303.939 621.959 354.929 659.949 405.857 647.698 C 429.346 642.023 448.147 626.947 460.148 606.671 C 472.948 608.583 486.224 609.796 500 609.796 C 513.343 609.743 526.664 608.698 539.852 606.671 C 551.853 626.934 570.654 642.023 594.143 647.698 C 645.071 659.949 696.061 621.947 709.387 565.656 C 721.2 515.703 700.161 465.113 659.772 445.724 L 654.309 400.021 C 673.247 407.984 706.937 422.335 724.625 428.936 C 733.413 432.198 745.714 435.711 759.39 433.611 C 773.066 431.523 787.804 422.148 795.717 404.709 C 803.392 387.858 802.117 371.107 794.942 358.607 C 787.766 346.106 776.328 337.768 764.465 331.655 C 742.101 320.179 646.346 268.864 635.945 263.301 C 645.239 243.498 650.041 221.886 650.009 200.01 C 650.009 186.334 648.008 173.159 644.533 160.558 C 654.498 154.871 663.153 147.148 669.935 137.894 C 678.873 125.743 684.685 110.305 680.873 94.529 C 677.798 81.791 672.71 68.753 657.034 51.952 C 650.266 44.771 642.514 38.588 634.008 33.588 C 625.745 28.763 618.119 25 608.594 25 C 584.045 24.945 561.128 37.287 547.665 57.815 C 532.312 52.618 516.209 49.978 500 50.002 C 483.299 50.002 467.336 52.739 452.335 57.815 C 438.872 37.287 415.955 24.945 391.406 25 Z  M 391.406 50.002 C 405.865 50.035 419.521 56.651 428.508 67.978 C 400.263 83.463 377.686 107.546 364.055 136.732 C 358.805 133.074 354.186 128.586 350.379 123.443 C 344.429 115.343 341.841 106.742 343.354 100.392 C 346.129 88.766 347.854 83.203 361.317 68.753 C 366.396 63.431 372.179 58.83 378.506 55.077 C 384.656 51.464 390.869 50.002 391.394 50.002 L 391.406 50.002 Z  M 608.606 50.002 C 609.131 50.002 615.344 51.464 621.482 55.077 C 627.645 58.702 634.095 63.827 638.683 68.753 C 652.159 83.203 653.871 88.779 656.646 100.392 C 658.159 106.742 655.571 115.343 649.621 123.443 C 645.996 128.419 641.121 133.106 635.945 136.732 C 622.314 107.546 599.737 83.463 571.492 67.978 C 580.479 56.651 594.135 50.035 608.594 50.002 L 608.606 50.002 Z  M 500 75.003 C 551.007 74.886 596.949 105.825 616.019 153.132 C 615.722 156.744 617.008 160.307 619.544 162.896 C 623.194 174.671 625.007 187.022 625.007 200.01 C 625.015 230.007 614.192 258.998 594.53 281.652 C 597.906 271.689 600.006 261.101 600.006 250.013 C 599.978 213.336 579.891 179.612 547.653 162.12 C 556.339 160.308 562.548 152.63 562.504 143.757 C 562.504 133.401 554.108 125.006 543.752 125.006 C 533.397 125.006 525.001 133.401 525.001 143.757 C 525.001 147.62 526.126 151.32 528.127 154.308 C 519.006 151.531 509.533 150.083 500 150.007 C 490.237 150.007 480.811 151.67 471.873 154.308 C 473.874 151.32 474.999 147.62 474.999 143.757 C 474.999 133.401 466.603 125.006 456.248 125.006 C 445.892 125.006 437.496 133.401 437.496 143.757 C 437.496 152.795 443.797 160.358 452.347 162.12 C 420.109 179.612 400.022 213.336 399.994 250.013 C 399.994 261.101 402.094 271.689 405.47 281.652 C 385.811 258.996 374.989 230.006 374.993 200.01 C 374.993 187.009 376.806 174.671 380.468 162.896 C 382.995 160.302 384.272 156.74 383.968 153.132 C 403.04 105.82 448.989 74.881 500 75.003 Z  M 500 175.009 C 541.552 175.009 575.004 208.461 575.004 250.013 C 575.167 288.196 546.532 320.366 508.588 324.63 C 503.134 325.171 497.641 325.171 492.187 324.63 L 491.4 324.63 C 453.46 320.36 424.833 288.191 424.996 250.013 C 424.996 208.461 458.448 175.009 500 175.009 Z  M 500 187.509 C 486.597 187.514 474.215 194.668 467.518 206.278 C 460.82 217.887 460.825 232.187 467.53 243.792 C 474.235 255.397 486.622 262.543 500.025 262.539 C 520.744 262.532 537.534 245.73 537.527 225.012 C 537.52 204.293 520.719 187.503 500 187.509 L 500 187.509 Z  M 623.445 285.177 C 632.72 290.103 729.651 341.868 753.139 353.931 C 762.465 358.707 769.94 364.957 773.453 371.12 C 776.966 377.27 777.753 383.371 772.665 394.559 C 767.69 405.497 762.415 407.547 755.49 408.622 C 748.552 409.685 739.714 407.934 733.213 405.497 C 712.662 397.821 644.146 368.77 644.146 368.77 C 640.07 367.109 635.423 367.702 631.895 370.332 C 628.36 372.967 626.482 377.275 626.957 381.658 L 633.608 438.311 C 624.232 437.186 614.857 437.436 605.856 439.474 C 598.981 441.036 592.343 443.724 585.942 446.899 C 578.517 406.172 542.815 375.02 500 375.02 C 457.173 375.02 421.483 406.172 414.058 446.899 C 407.732 443.645 401.044 441.152 394.131 439.474 C 388.11 438.116 381.952 437.462 375.78 437.524 C 372.655 437.574 369.618 437.911 366.405 438.311 L 373.03 381.658 C 373.509 377.277 371.635 372.97 368.105 370.332 C 364.577 367.702 359.93 367.109 355.854 368.77 C 355.854 368.77 287.35 397.821 266.787 405.497 C 260.286 407.934 251.448 409.685 244.51 408.622 C 237.585 407.547 232.31 405.097 227.322 394.159 C 222.247 382.983 223.034 377.27 226.547 371.12 C 230.06 364.957 237.923 358.707 247.248 353.931 C 270.499 342.006 366.592 291.028 376.943 285.552 C 402.044 321.555 442.472 346.118 488.674 349.631 C 489.062 349.681 489.449 349.581 489.837 349.631 C 493.212 349.969 496.537 350.019 500 350.019 C 503.863 350.019 507.625 350.069 511.326 349.631 C 556.505 346.14 597.698 322.454 623.445 285.165 L 623.445 285.177 Z  M 500 400.021 C 534.664 400.021 562.504 427.948 562.504 462.525 L 562.504 462.913 C 545.4 478.693 533.424 499.243 528.127 521.903 C 522.701 544.905 524.076 568.156 531.252 588.32 C 521.189 589.482 510.788 590.27 500 590.27 C 489.162 590.27 478.861 589.482 468.748 588.307 C 475.924 568.144 477.299 544.905 471.873 521.903 C 466.576 499.243 454.6 478.693 437.496 462.913 L 437.496 462.525 C 437.496 427.948 465.336 400.021 500 400.021 Z  M 375.768 462.525 C 389.306 462.575 402.769 467.55 414.445 476.201 C 415.87 478.688 418.07 480.589 420.695 481.664 C 420.745 481.714 421.046 481.614 421.096 481.664 C 433.296 493.002 442.772 508.665 447.26 527.766 C 457.91 572.894 435.546 614.921 399.994 623.472 C 364.442 632.022 325.865 604.921 315.227 559.793 C 304.576 514.666 326.94 472.638 362.492 464.088 C 366.843 463.035 371.304 462.511 375.78 462.525 L 375.768 462.525 Z  M 624.232 462.525 C 628.67 462.525 633.07 463.025 637.508 464.088 C 673.06 472.638 695.424 514.678 684.773 559.793 C 674.135 604.921 635.558 632.022 600.006 623.472 C 564.454 614.921 542.09 572.881 552.74 527.766 C 557.616 507.153 568.416 490.364 582.03 478.926 C 582.43 478.688 582.817 478.438 583.205 478.151 C 583.505 477.901 583.705 477.613 583.992 477.363 C 591.899 471.023 601.098 466.491 610.944 464.088 C 615.299 463.059 619.757 462.535 624.232 462.525 Z " fill="rgb(255,82,151)"/></g></svg>