<?xml version="1.0" encoding="UTF-8" standalone="no"?><!-- Generator: Gravit.io --><svg xmlns="http://www.w3.org/2000/svg" xmlns:xlink="http://www.w3.org/1999/xlink" style="isolation:isolate" viewBox="0 0 1000 1000" width="1000pt" height="1000pt"><defs><clipPath id="_clipPath_uGYSwtKcENQlMGTZhYBcRq4YWxlWClbo"><rect width="1000" height="1000"/></clipPath></defs><g clip-path="url(#_clipPath_uGYSwtKcENQlMGTZhYBcRq4YWxlWClbo)"><g clip-path="url(#_clipPath_1Cp5MRgDf08DVkQThUOL6oGRzYVvllMv)"><text transform="matrix(1.156,0,0,1,139.624,894.863)" style="font-family:'Chicle';font-weight:400;font-size:225px;font-style:normal;fill:#668fff;stroke:none;">swaddle</text></g><defs><clipPath id="_clipPath_1Cp5MRgDf08DVkQThUOL6oGRzYVvllMv"><rect x="0" y="0" width="865" height="350" transform="matrix(1.156,0,0,1,0,650)"/></clipPath></defs><g><path d=" M 500 650 C 403.353 649.886 325.034 571.567 324.92 474.92 L 324.92 200.08 C 324.92 103.386 403.306 25 500 25 C 596.694 25 675.08 103.386 675.08 200.08 L 675.08 474.92 C 674.966 571.567 596.647 649.886 500 650 L 500 650 Z  M 500 50.818 C 417.604 50.913 350.833 117.684 350.738 200.08 L 350.738 474.92 C 350.738 528.246 379.187 577.522 425.369 604.185 C 471.551 630.848 528.449 630.848 574.631 604.185 C 620.813 577.522 649.262 528.246 649.262 474.92 L 649.262 200.08 C 649.167 117.684 582.396 50.913 500 50.818 L 500 50.818 Z " fill="rgb(255,82,151)"/><path d=" M 500 321.011 C 433.323 320.933 378.379 268.666 374.972 202.076 C 374.92 201.412 374.92 200.744 374.972 200.08 L 374.972 195.846 C 374.921 195.181 374.921 194.514 374.972 193.849 C 378.463 127.345 433.405 75.212 500 75.212 C 566.595 75.212 621.537 127.345 625.028 193.849 C 625.079 194.514 625.079 195.181 625.028 195.846 L 625.028 200.08 C 625.08 200.744 625.08 201.412 625.028 202.076 C 621.621 268.666 566.677 320.933 500 321.011 Z  M 400.653 197.98 C 402.07 251.83 446.132 294.746 500 294.746 C 553.868 294.746 597.93 251.83 599.347 197.98 C 597.93 144.13 553.868 101.214 500 101.214 C 446.132 101.214 402.07 144.13 400.653 197.98 Z  M 659.761 514.37 C 657.71 514.383 655.687 513.886 653.875 512.924 L 332.011 347.173 C 325.671 343.913 323.174 336.129 326.435 329.789 C 329.695 323.449 337.478 320.952 343.819 324.212 L 665.682 489.963 C 671.005 492.681 673.767 498.696 672.358 504.504 C 670.949 510.312 665.738 514.394 659.761 514.37 Z " fill="rgb(255,82,151)"/><path d=" M 500 432.166 C 494.06 432.125 488.911 428.046 487.511 422.274 C 486.11 416.502 488.818 410.517 494.079 407.759 L 656.181 324.212 C 662.522 320.952 670.305 323.449 673.565 329.789 C 676.826 336.129 674.329 343.913 667.989 347.173 L 505.921 430.72 C 504.089 431.661 502.06 432.157 500 432.166 Z  M 502.169 167.928 C 495.309 167.913 488.618 165.799 482.995 161.869 C 468.928 151.928 465.115 132.71 474.32 118.151 L 496.936 81.49 C 499.312 77.466 503.677 75.041 508.349 75.148 C 513.021 75.256 517.269 77.88 519.458 82.008 C 521.646 86.137 521.432 91.126 518.899 95.053 L 496.179 131.886 C 495.222 133.29 494.865 135.018 495.188 136.686 C 495.512 138.353 496.488 139.823 497.9 140.768 C 501.092 142.995 505.475 142.295 507.814 139.184 C 512.016 133.423 520.092 132.16 525.852 136.361 C 531.613 140.563 532.877 148.639 528.675 154.399 C 522.526 162.905 512.664 167.938 502.169 167.928 Z " fill="rgb(255,82,151)"/></g></g></svg>