<?xml version="1.0" encoding="UTF-8" standalone="no"?><!-- Generator: Gravit.io --><svg xmlns="http://www.w3.org/2000/svg" xmlns:xlink="http://www.w3.org/1999/xlink" style="isolation:isolate" viewBox="0 0 1000 1000" width="1000pt" height="1000pt"><defs><clipPath id="_clipPath_RC8SVpK9BCda4c99QDw0IkIlGktAV9hy"><rect width="1000" height="1000"/></clipPath></defs><g clip-path="url(#_clipPath_RC8SVpK9BCda4c99QDw0IkIlGktAV9hy)"><g clip-path="url(#_clipPath_72P91nNnRrvQFgrSQfkROau3NRehagXn)"><text transform="matrix(1.156,0,0,1,197.63,894.863)" style="font-family:'Chicle';font-weight:400;font-size:225px;font-style:normal;fill:#ff5297;stroke:none;">teether</text></g><defs><clipPath id="_clipPath_72P91nNnRrvQFgrSQfkROau3NRehagXn"><rect x="0" y="0" width="865" height="350" transform="matrix(1.156,0,0,1,0,650)"/></clipPath></defs><path d=" M 687.402 479.328 C 694.939 482.403 703.015 484.51 711.496 485.474 C 761.259 491.133 806.253 455.326 811.912 405.564 C 817.54 356.067 782.145 311.288 732.797 305.245 C 762.057 292.93 784.003 265.593 787.842 231.831 C 793.5 182.069 757.694 137.074 707.931 131.415 C 683.339 128.619 659.91 135.95 641.828 150.098 C 644.903 142.561 647.01 134.485 647.974 126.004 C 653.633 76.241 617.826 31.247 568.064 25.588 C 518.567 19.96 473.788 55.355 467.745 104.703 C 455.43 75.443 428.093 53.497 394.331 49.658 C 344.569 44 299.574 79.806 293.915 129.569 C 291.119 154.161 298.45 177.59 312.598 195.672 C 305.061 192.597 296.985 190.49 288.504 189.526 C 238.741 183.867 193.747 219.674 188.088 269.436 C 182.46 318.933 217.855 363.712 267.203 369.755 C 237.943 382.069 215.997 409.407 212.158 443.169 C 206.5 492.931 242.306 537.926 292.069 543.584 C 316.661 546.381 340.09 539.05 358.172 524.902 C 355.097 532.439 352.99 540.515 352.026 548.996 C 346.367 598.759 382.174 643.753 431.936 649.412 C 481.433 655.04 526.213 619.645 532.255 570.297 C 544.57 599.557 571.907 621.503 605.669 625.342 C 655.431 631 700.426 595.194 706.084 545.431 C 708.881 520.839 701.55 497.41 687.402 479.328 Z  M 650.268 451.162 C 636.12 433.079 628.789 409.651 631.586 385.059 C 635.425 351.297 657.37 323.959 686.631 311.644 C 637.282 305.602 601.887 260.823 607.516 211.326 C 608.48 202.844 610.587 194.768 613.662 187.232 C 595.579 201.38 572.151 208.711 547.559 205.914 C 513.797 202.075 486.459 180.13 474.144 150.869 C 468.102 200.218 423.323 235.613 373.826 229.984 C 365.344 229.02 357.268 226.913 349.732 223.838 C 363.88 241.921 371.211 265.349 368.414 289.941 C 364.575 323.703 342.63 351.041 313.369 363.356 C 362.718 369.398 398.113 414.177 392.484 463.674 C 391.52 472.156 389.413 480.232 386.338 487.768 C 404.421 473.62 427.849 466.289 452.441 469.086 C 486.203 472.925 513.541 494.87 525.856 524.131 C 531.898 474.782 576.677 439.387 626.174 445.016 C 634.656 445.98 642.732 448.087 650.268 451.162 Z " fill-rule="evenodd" fill="rgb(102,143,255)"/></g></svg>