<?xml version="1.0" encoding="UTF-8" standalone="no"?><!-- Generator: Gravit.io --><svg xmlns="http://www.w3.org/2000/svg" xmlns:xlink="http://www.w3.org/1999/xlink" style="isolation:isolate" viewBox="0 0 1000 1000" width="1000pt" height="1000pt"><defs><clipPath id="_clipPath_ta9JNkKqlTk2VfiPvp19UBm9xT5827FZ"><rect width="1000" height="1000"/></clipPath></defs><g clip-path="url(#_clipPath_ta9JNkKqlTk2VfiPvp19UBm9xT5827FZ)"><g clip-path="url(#_clipPath_0SxTM6kedW6ttaZebS0AUPEISkkxbl7e)"><text transform="matrix(1.156,0,0,1,179.526,804.723)" style="font-family:'Chicle';font-weight:400;font-size:180px;font-style:normal;fill:#ff5297;stroke:none;">umbilical </text><text transform="matrix(1.156,0,0,1,339.653,957.057)" style="font-family:'Chicle';font-weight:400;font-size:180px;font-style:normal;fill:#ff5297;stroke:none;">cord</text></g><defs><clipPath id="_clipPath_0SxTM6kedW6ttaZebS0AUPEISkkxbl7e"><rect x="0" y="0" width="865" height="350" transform="matrix(1.156,0,0,1,0,650)"/></clipPath></defs><g><g><path d=" M 569.904 302.808 C 571.126 304.239 572.353 305.665 573.584 307.089 C 575.813 309.679 578.098 312.236 580.418 314.748 C 585.486 320.269 590.883 325.473 596.596 330.327 C 603 335.746 609.879 340.566 617.165 344.729 C 625.378 349.402 634.056 353.192 643.062 356.054 C 649.793 358.204 656.559 360.218 663.358 362.107 C 671.267 364.302 679.209 366.395 687.185 368.364 C 705.332 372.866 723.604 376.86 741.977 380.356 C 751.685 382.2 761.426 383.897 771.189 385.447 C 780.908 386.986 790.66 388.332 800.424 389.498 C 809.882 390.629 819.352 391.534 828.844 392.19 C 837.759 392.824 846.697 393.152 855.635 393.175 C 860.115 393.186 864.584 393.084 869.064 392.869 C 873.284 392.665 877.493 392.337 881.702 391.873 C 885.661 391.444 889.598 390.855 893.513 390.109 C 897.213 389.407 900.867 388.513 904.465 387.416 L 895.685 358.543 C 893.117 359.335 890.504 359.969 887.868 360.478 C 884.745 361.066 881.588 361.541 878.432 361.881 C 874.834 362.277 871.236 362.56 867.627 362.729 C 863.656 362.922 859.674 363.012 855.691 363.012 C 847.444 362.99 839.196 362.684 830.96 362.096 C 821.954 361.474 812.971 360.614 804.01 359.539 C 794.62 358.419 785.241 357.118 775.896 355.647 C 766.449 354.154 757.025 352.502 747.623 350.714 C 729.792 347.331 712.053 343.451 694.426 339.084 C 686.744 337.183 679.073 335.169 671.448 333.042 C 664.999 331.243 658.584 329.331 652.203 327.306 C 645.223 325.089 638.48 322.147 632.11 318.527 C 626.442 315.28 621.09 311.524 616.112 307.315 C 611.349 303.265 606.847 298.92 602.615 294.316 C 600.511 292.03 598.44 289.722 596.415 287.369 C 594.401 285.038 592.399 282.696 590.408 280.332 C 588.806 278.42 587.19 276.52 585.568 274.627 C 580.47 284.307 575.19 293.8 569.904 302.808 L 569.904 302.808 Z  M 505.33 266.471 C 504.941 266.466 504.553 266.462 504.163 266.461 C 499.932 266.472 495.701 266.767 491.492 267.332 C 487.001 267.943 482.543 268.792 478.153 269.901 C 473.3 271.111 468.491 272.525 463.751 274.132 C 458.467 275.919 453.24 277.854 448.059 279.936 C 444.88 281.214 441.814 282.764 438.883 284.552 C 435.512 286.611 432.265 288.84 429.131 291.249 C 425.601 293.953 422.162 296.771 418.79 299.678 C 415.091 302.88 411.425 306.116 407.782 309.385 C 402.25 314.363 396.638 319.262 390.947 324.059 C 384.781 329.263 378.378 334.174 371.748 338.778 C 364.643 343.711 357.187 348.112 349.437 351.947 C 341.065 356.077 332.331 359.403 323.337 361.892 C 312.147 364.936 300.822 367.47 289.407 369.495 C 276.962 371.712 264.438 373.5 251.868 374.846 C 238.461 376.306 225.009 377.369 211.546 378.048 C 197.472 378.772 183.397 379.123 169.312 379.112 C 144.682 379.123 120.075 378.082 95.535 376.023 L 98.07 345.951 C 121.76 347.954 145.531 348.949 169.312 348.949 C 182.888 348.949 196.454 348.61 210.019 347.92 C 222.916 347.275 235.791 346.245 248.632 344.854 C 260.523 343.575 272.357 341.89 284.123 339.785 C 294.634 337.93 305.054 335.599 315.36 332.793 C 322.488 330.825 329.423 328.177 336.065 324.908 C 342.479 321.729 348.657 318.086 354.54 314.001 C 360.389 309.928 366.046 305.595 371.499 301.002 C 376.941 296.397 382.315 291.713 387.61 286.95 C 391.389 283.556 395.201 280.196 399.048 276.87 C 402.861 273.577 406.764 270.387 410.758 267.321 C 414.74 264.266 418.881 261.415 423.169 258.802 C 427.513 256.154 432.061 253.858 436.779 251.946 C 442.481 249.66 448.251 247.522 454.066 245.553 C 459.587 243.687 465.176 242.035 470.833 240.621 C 476.309 239.263 481.853 238.188 487.442 237.43 C 492.985 236.684 498.563 236.299 504.152 236.299 C 509.77 236.299 515.376 236.699 520.935 237.499 L 505.33 266.471 Z " fill-rule="evenodd" fill="rgb(102,143,255)"/><path d=" M 600.604 244.326 C 601.491 245.187 602.377 246.048 603.26 246.911 C 607.469 251.018 611.723 255.08 616.022 259.096 C 620.717 263.463 625.537 267.694 630.481 271.767 C 635.855 276.18 641.433 280.354 647.191 284.258 C 653.482 288.5 659.998 292.381 666.719 295.877 C 669.66 297.404 672.658 298.807 675.702 300.108 C 678.904 301.477 682.139 302.744 685.409 303.921 C 692.412 306.421 699.528 308.605 706.724 310.494 C 714.451 312.519 722.235 314.307 730.064 315.857 C 738.266 317.486 746.492 318.923 754.762 320.156 C 771.45 322.645 788.228 324.512 805.051 325.745 C 813.039 326.333 821.037 326.797 829.048 327.103 C 836.447 327.397 843.846 327.555 851.245 327.555 C 855.725 327.566 860.205 327.499 864.674 327.363 C 868.702 327.238 872.73 327.035 876.757 326.752 C 880.299 326.514 883.829 326.164 887.347 325.722 C 890.413 325.349 893.456 324.84 896.477 324.184 L 890.096 294.7 C 887.958 295.153 885.808 295.526 883.636 295.786 C 880.649 296.16 877.663 296.454 874.664 296.657 C 871.033 296.906 867.401 297.099 863.758 297.2 C 859.595 297.325 855.431 297.393 851.268 297.393 C 844.253 297.382 837.25 297.234 830.247 296.963 C 822.576 296.657 814.917 296.228 807.269 295.651 C 791.192 294.474 775.16 292.698 759.219 290.31 C 751.424 289.156 743.663 287.799 735.936 286.26 C 728.695 284.835 721.511 283.183 714.372 281.305 C 708.025 279.653 701.757 277.718 695.569 275.512 C 692.865 274.539 690.183 273.487 687.536 272.356 C 685.194 271.36 682.886 270.274 680.623 269.097 C 674.932 266.144 669.411 262.852 664.105 259.266 C 659.116 255.894 654.296 252.285 649.646 248.461 C 645.189 244.784 640.833 240.971 636.602 237.034 C 632.472 233.176 628.388 229.273 624.349 225.336 C 620.708 221.773 617.032 218.263 613.315 214.789 C 609.624 224.283 605.32 234.24 600.604 244.326 L 600.604 244.326 Z  M 536.653 208.319 C 536.213 208.25 535.773 208.182 535.333 208.116 C 528.001 207.03 520.591 206.487 513.18 206.499 C 507.275 206.51 501.369 206.815 495.497 207.415 C 489.342 208.049 483.222 208.954 477.146 210.119 C 470.731 211.352 464.362 212.823 458.049 214.531 C 451.374 216.33 444.744 218.333 438.182 220.528 C 433.17 222.236 428.282 224.284 423.553 226.66 C 418.191 229.341 412.941 232.249 407.827 235.382 C 402.227 238.799 396.706 242.352 391.275 246.029 C 385.494 249.943 379.735 253.903 374.011 257.897 C 367.358 262.547 360.649 267.14 353.918 271.665 C 347.039 276.293 340.036 280.739 332.919 284.993 C 325.769 289.281 318.426 293.218 310.903 296.816 C 303.357 300.425 295.573 303.502 287.608 306.014 C 281.465 307.903 275.253 309.544 268.974 310.935 C 262.378 312.417 255.726 313.696 249.051 314.793 C 242.15 315.925 235.226 316.909 228.279 317.746 C 221.253 318.595 214.216 319.33 207.179 319.941 C 193.569 321.106 179.936 321.944 166.291 322.441 C 154.548 322.883 142.804 323.109 131.06 323.109 C 122.858 323.131 114.644 322.996 106.453 322.702 L 107.517 292.551 C 115.346 292.833 123.186 292.958 131.015 292.935 C 142.408 292.935 153.79 292.72 165.171 292.29 C 178.329 291.815 191.464 291.012 204.577 289.881 C 211.286 289.292 217.983 288.602 224.67 287.799 C 231.187 287.007 237.692 286.079 244.175 285.016 C 250.284 284.02 256.371 282.843 262.424 281.486 C 267.877 280.275 273.285 278.85 278.625 277.209 C 285.221 275.127 291.647 272.582 297.881 269.606 C 304.556 266.416 311.084 262.909 317.431 259.107 C 324.083 255.125 330.634 250.973 337.071 246.64 C 343.667 242.205 350.229 237.702 356.746 233.154 C 362.584 229.081 368.467 225.042 374.373 221.048 C 380.188 217.111 386.094 213.309 392.079 209.644 C 397.928 206.069 403.913 202.742 410.045 199.676 C 416.018 196.678 422.207 194.099 428.531 191.949 C 435.693 189.539 442.911 187.367 450.197 185.399 C 457.223 183.509 464.317 181.869 471.456 180.5 C 478.391 179.165 485.383 178.135 492.42 177.411 C 499.299 176.698 506.211 176.336 513.135 176.336 C 522.05 176.314 530.954 176.97 539.768 178.271 C 543.753 178.864 547.717 179.6 551.649 180.477 L 536.653 208.319 Z " fill-rule="evenodd" fill="rgb(102,143,255)"/><path d=" M 380.776 452.386 C 326.386 452.386 281.969 496.802 281.969 551.193 C 281.969 605.584 326.386 650 380.776 650 C 435.167 650 479.583 605.584 479.583 551.193 C 479.583 496.802 435.167 452.386 380.776 452.386 Z  M 380.776 482.557 C 418.862 482.557 449.412 513.108 449.412 551.193 C 449.412 589.278 418.862 619.829 380.776 619.829 C 342.691 619.829 312.141 589.278 312.141 551.193 C 312.141 513.108 342.691 482.557 380.776 482.557 Z " fill-rule="evenodd" fill="rgb(102,143,255)"/><path d=" M 618.26 25 L 373.219 479.93 L 393.513 483.733 C 409.533 486.735 423.597 495.313 433.624 507.394 L 446.838 523.315 L 555.001 353.537 C 585.287 312.31 625.14 238.346 638.353 187.276 C 650.636 139.797 653.345 117.984 629.952 55.985 L 618.26 25 Z  M 612.809 98.742 C 622.371 130.739 618.691 142.819 609.145 179.719 C 597.938 223.038 557.536 299.354 530.239 336.323 L 529.929 336.741 L 442.427 474.087 C 435.153 468.265 427.052 463.452 418.301 459.853 L 612.809 98.742 Z " fill-rule="evenodd" fill="rgb(102,143,255)"/><path d=" M 485.428 350.375 C 485.428 343.502 491 337.93 497.873 337.93 C 504.746 337.93 510.318 343.502 510.318 350.375 C 510.318 357.248 504.746 362.82 497.873 362.82 C 491 362.82 485.428 357.248 485.428 350.375 Z " fill-rule="evenodd" fill="rgb(102,143,255)"/><path d=" M 612.707 451.255 C 558.372 451.255 513.9 495.362 513.9 549.496 C 513.9 603.63 558.372 647.737 612.707 647.737 C 667.042 647.737 711.514 603.63 711.514 549.496 C 711.514 495.362 667.042 451.255 612.707 451.255 Z  M 612.707 481.426 C 650.847 481.426 681.343 511.778 681.343 549.496 C 681.343 587.214 650.847 617.566 612.707 617.566 C 574.567 617.566 544.071 587.214 544.071 549.496 C 544.071 511.778 574.567 481.426 612.707 481.426 Z " fill-rule="evenodd" fill="rgb(102,143,255)"/></g><path d=" M 377.486 34.051 L 365.794 65.035 C 342.401 127.035 345.109 148.847 357.393 196.327 C 360.485 208.279 365.068 221.351 370.64 235.041 L 376.825 250.242 L 468.742 203.474 L 461.419 189.879 L 377.486 34.051 Z  M 382.937 107.791 L 431.703 200.314 L 394.861 217.303 C 392.382 210.336 388.125 194.652 386.603 188.77 C 377.056 151.869 373.375 139.789 382.937 107.791 Z  M 487.297 237.918 L 474.163 244.601 L 393.897 285.44 L 401.296 299.059 C 414.446 323.263 428.35 345.72 440.774 362.634 L 456.974 388.057 L 512.57 284.839 L 487.297 237.918 Z  M 464.294 258.727 L 478.302 284.839 L 454.39 329.232 C 448.304 319.976 437.81 299.502 431.45 288.406 L 464.294 258.727 Z  M 535.67 327.728 L 477.104 419.658 L 544.745 525.83 L 557.844 508.585 C 567.465 495.919 581.449 486.678 597.568 483.083 L 617.016 478.748 L 607.567 461.207 L 535.67 327.728 Z  M 533.491 387.301 L 572.535 459.788 C 563.657 463.724 555.501 468.932 548.239 475.164 L 512.877 419.658 L 533.491 387.301 Z " fill-rule="evenodd" fill="rgb(102,143,255)"/></g></g></svg>