<?xml version="1.0" encoding="UTF-8" standalone="no"?><!-- Generator: Gravit.io --><svg xmlns="http://www.w3.org/2000/svg" xmlns:xlink="http://www.w3.org/1999/xlink" style="isolation:isolate" viewBox="0 0 1000 1000" width="1000pt" height="1000pt"><defs><clipPath id="_clipPath_nSI0L9XdWYesmpnsCT70gblsS8tbD5ds"><rect width="1000" height="1000"/></clipPath></defs><g clip-path="url(#_clipPath_nSI0L9XdWYesmpnsCT70gblsS8tbD5ds)"><g clip-path="url(#_clipPath_FH4QUzOt7uOJPnyL44WzfonpRlFPQy0W)"><text transform="matrix(1.156,0,0,1,21.922,894.863)" style="font-family:'Chicle';font-weight:400;font-size:225px;font-style:normal;fill:#ff5297;stroke:none;">baby socks</text></g><defs><clipPath id="_clipPath_FH4QUzOt7uOJPnyL44WzfonpRlFPQy0W"><rect x="0" y="0" width="865" height="350" transform="matrix(1.156,0,0,1,0,650)"/></clipPath></defs><path d=" M 86.177 469.041 L 86.177 245.74 L 320.875 245.74 L 320.875 404.963 L 320.875 404.963 L 395.833 404.963 L 395.833 404.963 L 395.833 404.963 C 399.677 404.96 403.51 405.148 407.317 405.548 L 407.317 405.548 C 395.074 419.74 385.235 435.88 378.205 453.319 C 369.872 474.09 365.612 496.257 365.643 518.641 C 365.643 541.894 370.172 564.919 378.97 586.445 C 383.468 597.467 389.041 608.013 395.606 617.928 C 399.967 624.51 404.747 630.797 409.92 636.748 C 405.256 637.312 400.552 637.596 395.833 637.593 C 395.833 637.593 395.833 637.593 395.833 637.593 L 258.792 637.593 C 258.029 616.294 253.292 595.298 244.81 575.703 C 235.742 554.859 222.694 535.98 206.41 520.12 C 190.023 504.125 170.72 491.408 149.545 482.672 C 138.71 478.195 127.471 474.783 115.984 472.488 C 106.155 470.525 96.184 469.372 86.177 469.041 L 86.177 469.041 Z  M 395.833 392.556 L 395.833 392.556 L 395.833 392.556 L 395.833 392.556 L 395.833 392.556 L 395.833 392.556 L 395.833 392.556 Z  M 395.833 392.556 L 395.833 392.556 L 395.833 392.556 L 395.833 392.556 Z  M 395.833 392.556 C 413.038 392.545 430.066 395.988 445.916 402.678 C 461.208 409.16 475.103 418.528 486.838 430.273 C 498.584 442.008 507.951 455.904 514.433 471.195 C 521.123 487.035 524.566 504.074 524.555 521.278 C 524.566 538.482 521.123 555.521 514.433 571.361 C 507.951 586.652 498.584 600.548 486.838 612.283 C 475.103 624.028 461.208 633.395 445.916 639.878 C 430.066 646.567 413.038 650.01 395.833 650 L 202.492 650 C 185.287 650.01 168.259 646.567 152.409 639.878 C 137.117 633.395 123.222 624.028 111.487 612.283 C 99.742 600.548 90.374 586.652 83.892 571.361 C 77.202 555.511 73.759 538.482 73.77 521.278 L 73.77 233.333 L 333.282 233.333 L 333.282 392.556 L 395.833 392.556 L 395.833 392.556 L 395.833 392.556 L 395.833 392.556 Z  M 203.526 398.759 L 200.499 397.002 C 197.413 395.214 125.001 352.701 125.001 307.211 C 125.001 283.895 143.967 264.928 167.283 264.928 C 182.128 264.935 195.882 272.723 203.526 285.448 C 211.169 272.723 224.924 264.935 239.768 264.928 C 263.078 264.928 282.051 283.895 282.051 307.211 C 282.051 352.701 209.639 395.214 206.552 397.002 L 203.526 398.759 L 203.526 398.759 Z " fill-rule="evenodd" fill="rgb(102,143,255)"/><path d=" M 487.852 260.708 L 487.852 37.407 L 722.55 37.407 L 722.55 196.629 L 722.55 196.629 L 797.508 196.629 L 797.508 196.629 L 797.508 196.629 C 801.352 196.627 805.185 196.815 808.992 197.215 L 808.992 197.215 C 796.749 211.407 786.91 227.547 779.88 244.986 C 771.547 265.757 767.287 287.924 767.318 310.308 C 767.318 333.561 771.847 356.586 780.645 378.112 C 785.143 389.134 790.715 399.679 797.281 409.595 C 801.642 416.177 806.422 422.463 811.595 428.414 C 806.931 428.978 802.227 429.263 797.508 429.26 C 797.508 429.26 797.508 429.26 797.508 429.26 L 660.467 429.26 C 659.704 407.96 654.967 386.965 646.485 367.37 C 637.417 346.526 624.369 327.647 608.085 311.787 C 591.698 295.792 572.395 283.075 551.22 274.338 C 540.385 269.861 529.146 266.45 517.659 264.154 C 507.83 262.192 497.859 261.039 487.852 260.708 L 487.852 260.708 Z  M 797.508 184.222 L 797.508 184.222 L 797.508 184.222 L 797.508 184.222 L 797.508 184.222 L 797.508 184.222 L 797.508 184.222 Z  M 797.508 184.222 L 797.508 184.222 L 797.508 184.222 L 797.508 184.222 Z  M 797.508 184.222 C 814.713 184.212 831.741 187.655 847.591 194.344 C 862.883 200.827 876.778 210.194 888.513 221.94 C 900.258 233.674 909.626 247.57 916.108 262.862 C 922.798 278.701 926.241 295.74 926.23 312.945 C 926.241 330.149 922.798 347.188 916.108 363.027 C 909.626 378.319 900.258 392.215 888.513 403.95 C 876.778 415.695 862.883 425.062 847.591 431.545 C 831.741 438.234 814.713 441.677 797.508 441.667 L 604.167 441.667 C 586.962 441.677 569.934 438.234 554.084 431.545 C 538.792 425.062 524.897 415.695 513.162 403.95 C 501.416 392.215 492.049 378.319 485.567 363.027 C 478.877 347.177 475.434 330.149 475.445 312.945 L 475.445 25 L 734.957 25 L 734.957 184.222 L 797.508 184.222 L 797.508 184.222 L 797.508 184.222 L 797.508 184.222 Z  M 605.201 190.426 L 602.174 188.668 C 599.088 186.88 526.676 144.368 526.676 98.878 C 526.676 75.562 545.642 56.595 568.958 56.595 C 583.803 56.602 597.557 64.389 605.201 77.114 C 612.844 64.389 626.599 56.602 641.443 56.595 C 664.753 56.595 683.726 75.562 683.726 98.878 C 683.726 144.368 611.313 186.88 608.227 188.668 L 605.201 190.426 L 605.201 190.426 Z " fill-rule="evenodd" fill="rgb(102,143,255)"/></g></svg>