<?xml version="1.0" encoding="UTF-8" standalone="no"?><!-- Generator: Gravit.io --><svg xmlns="http://www.w3.org/2000/svg" xmlns:xlink="http://www.w3.org/1999/xlink" style="isolation:isolate" viewBox="0 0 1000 1000" width="1000pt" height="1000pt"><defs><clipPath id="_clipPath_og2jcLMOFwYDQjy8QoupDH4NGfrvnRqn"><rect width="1000" height="1000"/></clipPath></defs><g clip-path="url(#_clipPath_og2jcLMOFwYDQjy8QoupDH4NGfrvnRqn)"><g clip-path="url(#_clipPath_PV3jgwqlTdy3gOUQq5ctBdcpSTdWNalv)"><text transform="matrix(1.156,0,0,1,21.809,885.548)" style="font-family:'Chicle';font-weight:400;font-size:195px;font-style:normal;letter-spacing:-2;fill:#668fff;stroke:none;">baby powder</text></g><defs><clipPath id="_clipPath_PV3jgwqlTdy3gOUQq5ctBdcpSTdWNalv"><rect x="0" y="0" width="865" height="350" transform="matrix(1.156,0,0,1,0,650)"/></clipPath></defs><path d=" M 500 279.338 C 474.707 279.338 451.626 285.239 434.446 295.141 C 417.692 304.813 406.152 318.991 405.571 335.61 C 405.491 335.746 405.421 335.889 405.362 336.035 L 405.362 354.166 C 378.619 361.295 358.357 381.745 358.357 407.059 L 358.357 594.152 C 358.357 625.786 389.653 650 426.44 650 L 573.56 650 C 610.346 650 641.643 625.786 641.643 594.146 L 641.643 407.066 C 641.643 381.718 621.381 361.275 594.638 354.166 L 594.638 336.878 C 594.638 336.298 594.563 335.745 594.429 335.192 C 593.666 318.728 582.153 304.732 565.554 295.141 C 548.374 285.246 525.293 279.344 500 279.344 L 500 279.338 Z  M 500 293.246 C 523.162 293.246 544.051 298.756 558.6 307.16 C 572.852 315.376 580.44 325.709 580.723 336.244 C 580.697 336.525 580.697 336.807 580.723 337.087 C 580.622 347.785 573.061 358.246 558.6 366.596 C 544.044 375 523.162 380.518 500 380.518 C 476.838 380.518 455.949 375.007 441.4 366.603 C 426.858 358.199 419.277 347.636 419.277 336.885 L 419.277 336.676 C 419.378 326.006 426.939 315.517 441.4 307.167 C 455.956 298.756 476.838 293.239 500 293.239 L 500 293.246 Z  M 473.02 306.526 C 465.567 306.526 459.531 309.562 459.531 313.271 C 459.531 316.981 465.567 320.016 473.02 320.016 C 480.474 320.016 486.51 316.981 486.51 313.271 C 486.51 309.562 480.474 306.526 473.02 306.526 Z  M 526.98 306.526 C 519.526 306.526 513.49 309.562 513.49 313.271 C 513.49 316.981 519.526 320.016 526.98 320.016 C 534.433 320.016 540.469 316.981 540.469 313.271 C 540.469 309.562 534.433 306.526 526.98 306.526 Z  M 446.041 326.761 C 438.588 326.761 432.551 329.796 432.551 333.506 C 432.551 337.216 438.588 340.251 446.041 340.251 C 453.494 340.251 459.531 337.216 459.531 333.506 C 459.531 329.796 453.494 326.761 446.041 326.761 Z  M 500 326.761 C 492.547 326.761 486.51 329.796 486.51 333.506 C 486.51 337.216 492.547 340.251 500 340.251 C 507.453 340.251 513.49 337.216 513.49 333.506 C 513.49 329.796 507.453 326.761 500 326.761 Z  M 553.959 326.761 C 546.506 326.761 540.469 329.796 540.469 333.506 C 540.469 337.216 546.506 340.251 553.959 340.251 C 561.412 340.251 567.449 337.216 567.449 333.506 C 567.449 329.796 561.412 326.761 553.959 326.761 Z  M 473.02 346.996 C 465.567 346.996 459.531 350.031 459.531 353.741 C 459.531 357.45 465.567 360.485 473.02 360.485 C 480.474 360.485 486.51 357.45 486.51 353.741 C 486.51 350.031 480.474 346.996 473.02 346.996 Z  M 526.98 346.996 C 519.526 346.996 513.49 350.031 513.49 353.741 C 513.49 357.45 519.526 360.485 526.98 360.485 C 534.433 360.485 540.469 357.45 540.469 353.741 C 540.469 350.031 534.433 346.996 526.98 346.996 Z  M 419.27 367.021 C 423.621 371.338 428.646 375.264 434.446 378.616 C 451.626 388.511 474.707 394.412 500 394.412 C 525.293 394.412 548.374 388.511 565.554 378.609 C 571.094 375.416 576.195 371.516 580.73 367.008 L 580.73 377.348 C 580.73 388.099 573.142 398.662 558.593 407.066 C 544.051 415.47 523.162 420.98 500 420.98 C 476.838 420.98 455.949 415.47 441.4 407.066 C 426.858 398.662 419.277 388.099 419.277 377.348 L 419.27 367.021 Z  M 405.362 368.073 L 405.362 377.348 C 405.362 394.547 417.267 409.177 434.446 419.085 C 451.626 428.98 474.707 434.882 500 434.882 C 525.293 434.882 548.374 428.98 565.554 419.078 C 582.733 409.163 594.638 394.547 594.638 377.341 L 594.638 368.067 C 614.798 374.609 628.153 389.94 628.153 407.066 L 628.153 594.152 C 628.153 616.721 604.546 636.51 573.56 636.51 L 426.44 636.51 C 395.454 636.51 371.847 616.721 371.847 594.146 L 371.847 407.066 C 371.847 389.994 385.283 374.609 405.362 368.073 Z  M 350.407 197.746 C 321.282 184.575 301.377 159.649 301.377 130.629 C 301.377 87.941 344.012 53.168 396.371 53.168 C 406.017 53.168 414.894 55.175 423.625 57.351 C 440.897 37.957 468.393 25 500 25 L 500 25 C 531.607 25 559.103 37.957 576.375 57.351 C 585.106 55.175 593.983 53.168 603.629 53.168 C 655.979 53.168 698.623 87.934 698.623 130.629 C 698.623 156.205 683.169 178.594 659.57 192.565 C 656.387 194.449 672.251 186.228 649.594 197.746 Q 626.936 209.263 620.901 197.746 C 620.901 197.746 620.856 200.753 620.901 197.746 C 620.945 194.738 623.33 192.086 626.834 191.147 C 658.346 183.056 681.351 159.078 681.351 130.629 C 681.396 109.795 668.856 90.28 647.824 78.451 C 626.792 66.622 599.965 63.998 576.098 71.435 C 572.206 72.694 567.767 71.487 565.58 68.575 C 551.78 50.83 527.695 39.084 500 39.084 L 500 39.084 C 472.305 39.084 448.22 50.83 434.42 68.575 C 432.235 71.49 427.794 72.697 423.901 71.435 C 400.035 63.998 373.208 66.622 352.176 78.451 C 331.144 90.28 318.604 109.795 318.649 130.629 C 318.649 159.071 341.663 183.056 373.158 191.147 C 376.665 192.084 379.053 194.736 379.099 197.746 C 379.145 200.755 379.099 197.746 379.099 197.746 C 379.099 197.746 379.532 210.916 350.407 197.746 Z  M 447.25 272.66 C 447.6 274.21 447.33 275.84 446.48 277.19 C 445.64 278.53 444.29 279.49 442.74 279.85 C 441.19 280.2 439.56 279.93 438.21 279.08 C 436.87 278.24 435.91 276.89 435.55 275.34 L 412.15 173.34 C 411.79 171.79 412.06 170.16 412.91 168.81 C 413.75 167.47 415.1 166.51 416.65 166.15 C 418.2 165.8 419.83 166.07 421.18 166.92 C 422.53 167.76 423.49 169.11 423.84 170.66 L 447.25 272.66 Z  M 591.17 173.35 L 567.64 275.35 C 567.28 276.9 566.32 278.24 564.97 279.09 C 563.62 279.93 561.99 280.2 560.44 279.85 C 558.89 279.49 557.55 278.53 556.71 277.18 C 555.86 275.83 555.59 274.2 555.95 272.65 L 579.48 170.65 C 579.84 169.1 580.8 167.76 582.15 166.91 C 583.5 166.07 585.13 165.8 586.68 166.15 C 588.23 166.51 589.57 167.47 590.41 168.82 C 591.26 170.17 591.53 171.8 591.17 173.35 Z  M 506 172 L 506 252.45 C 506 254.04 505.37 255.57 504.24 256.69 C 503.12 257.82 501.59 258.45 500 258.45 C 498.41 258.45 496.88 257.82 495.76 256.69 C 494.63 255.57 494 254.04 494 252.45 L 494 172 C 494 170.41 494.63 168.88 495.76 167.76 C 496.88 166.63 498.41 166 500 166 C 501.59 166 503.12 166.63 504.24 167.76 C 505.37 168.88 506 170.41 506 172 Z " fill-rule="evenodd" fill="rgb(255,82,151)"/></g></svg>