<?xml version="1.0" encoding="UTF-8" standalone="no"?><!-- Generator: Gravit.io --><svg xmlns="http://www.w3.org/2000/svg" xmlns:xlink="http://www.w3.org/1999/xlink" style="isolation:isolate" viewBox="0 0 1000 1000" width="1000pt" height="1000pt"><defs><clipPath id="_clipPath_g8W8AjaIJX9jaBfc6qkPBcXFLYA43VYQ"><rect width="1000" height="1000"/></clipPath></defs><g clip-path="url(#_clipPath_g8W8AjaIJX9jaBfc6qkPBcXFLYA43VYQ)"><g clip-path="url(#_clipPath_UgCvbLgijFrs0kcYczde4K2qqkn1Nyra)"><text transform="matrix(1.156,0,0,1,21.734,887.1)" style="font-family:'Chicle';font-weight:400;font-size:200px;font-style:normal;letter-spacing:-2;fill:#ff5297;stroke:none;">baby shower</text></g><defs><clipPath id="_clipPath_UgCvbLgijFrs0kcYczde4K2qqkn1Nyra"><rect x="0" y="0" width="865" height="350" transform="matrix(1.156,0,0,1,0,650)"/></clipPath></defs><path d=" M 715.449 224.147 C 728.452 229.941 735.236 239.128 736.225 252.132 C 737.073 263.015 733.54 272.626 733.399 272.908 C 731.731 277.249 732.302 282.131 734.927 285.969 C 737.551 289.807 741.894 292.11 746.543 292.131 C 752.197 292.131 757.568 288.738 759.688 283.085 C 760.253 281.53 765.341 267.962 764.352 251.142 C 762.938 227.256 749.653 208.599 726.897 198.282 C 695.52 184.148 710.784 139.061 711.491 137.223 C 714.035 129.873 710.219 121.817 702.869 119.132 C 695.52 116.588 687.463 120.404 684.778 127.753 C 676.156 152.488 671.351 204.359 715.449 224.147 L 715.449 224.147 Z  M 533.263 487.744 C 509.094 497.779 467.399 528.873 482.239 574.95 C 492.557 606.751 460.049 621.168 456.374 622.722 C 452.907 624.128 450.139 626.853 448.681 630.299 C 447.224 633.745 447.195 637.629 448.601 641.096 C 451.514 648.332 459.716 651.865 466.975 649.011 C 468.529 648.446 482.239 642.651 494.395 630.355 C 511.638 612.829 516.867 590.073 509.235 566.328 C 498.776 533.679 542.45 514.739 544.287 513.891 C 551.495 510.923 554.888 502.584 551.919 495.376 C 548.669 488.168 540.471 484.776 533.263 487.744 L 533.263 487.744 Z  M 724.918 512.054 C 692.41 504.987 696.651 470.783 697.216 466.967 C 698.488 459.335 693.258 452.126 685.485 450.854 C 677.711 449.582 670.503 454.812 669.231 462.585 C 668.948 464.14 666.828 478.839 671.21 495.235 C 677.57 518.697 694.389 534.527 718.841 539.756 C 752.479 547.106 746.826 594.313 746.543 596.292 C 746.042 600.005 747.044 603.765 749.326 606.737 C 751.608 609.709 754.982 611.647 758.698 612.122 C 759.264 612.263 759.97 612.263 760.536 612.263 C 767.461 612.263 773.539 607.034 774.528 599.967 C 778.203 573.96 772.126 522.23 724.918 512.054 L 724.918 512.054 Z  M 731.42 25 C 744.678 25.45 755.193 36.327 755.193 49.593 C 755.193 62.859 744.678 73.736 731.42 74.186 C 718.162 73.736 707.647 62.859 707.647 49.593 C 707.647 36.327 718.162 25.45 731.42 25 Z  M 278.005 275.594 C 291.263 276.043 301.778 286.921 301.778 300.187 C 301.778 313.452 291.263 324.33 278.005 324.78 C 264.747 324.33 254.231 313.452 254.231 300.187 C 254.231 286.921 264.747 276.043 278.005 275.594 L 278.005 275.594 Z  M 639.267 559.685 C 652.525 560.135 663.04 571.013 663.04 584.278 C 663.04 597.544 652.525 608.422 639.267 608.871 C 626.009 608.422 615.494 597.544 615.494 584.278 C 615.494 571.013 626.009 560.135 639.267 559.685 Z  M 590.788 206.621 C 604.046 207.07 614.561 217.948 614.561 231.214 C 614.561 244.479 604.046 255.357 590.788 255.806 C 577.53 255.357 567.014 244.479 567.014 231.214 C 567.014 217.948 577.53 207.07 590.788 206.621 Z  M 312.35 515.305 C 325.608 515.754 336.123 526.632 336.123 539.898 C 336.123 553.163 325.608 564.041 312.35 564.491 C 299.092 564.041 288.577 553.163 288.577 539.898 C 288.577 526.632 299.092 515.754 312.35 515.305 Z  M 220.338 171.427 C 234.614 196.727 250.443 221.744 267.263 245.913 C 269.948 249.729 274.188 251.99 278.853 251.99 L 278.994 251.99 C 283.658 251.99 288.04 249.588 290.584 245.63 C 306.901 220.987 322.087 195.614 336.095 169.59 C 350.935 168.176 365.776 166.339 380.475 164.078 C 400.121 185.844 421.04 206.903 442.806 226.973 C 445.491 229.376 448.883 230.648 452.417 230.648 C 453.548 230.648 454.537 230.507 455.668 230.224 C 460.19 229.093 464.007 225.843 465.561 221.461 C 476.02 193.759 485.207 165.491 492.981 137.223 C 507.115 132.7 521.249 127.612 535.1 122.1 C 558.986 138.919 584.145 154.89 610.01 169.448 C 612.13 170.72 614.533 171.286 616.935 171.286 C 619.055 171.286 621.176 170.862 623.154 169.872 C 627.394 167.752 630.221 163.795 630.928 159.131 C 635.027 129.873 637.854 100.475 639.267 71.501 C 644.92 68.25 650.574 64.858 656.086 61.465 C 662.28 57.15 664.006 48.738 660.012 42.333 C 656.018 35.927 647.705 33.775 641.104 37.438 C 509.094 119.273 357.72 155.315 202.954 141.746 C 195.18 141.039 188.254 146.834 187.689 154.608 C 187.124 162.381 192.777 169.307 200.551 169.872 C 207.335 170.579 213.837 171.003 220.338 171.427 L 220.338 171.427 Z  M 446.622 191.639 C 435.504 180.992 424.664 170.058 414.114 158.848 C 429.803 155.597 445.35 151.922 460.756 147.682 C 456.516 162.381 451.71 177.081 446.622 191.639 Z  M 605.911 134.396 C 592.625 126.481 579.481 118.142 566.76 109.521 C 581.459 102.878 596.017 95.669 610.292 88.179 C 609.162 103.584 607.748 118.99 605.911 134.396 Z  M 278.711 212.274 C 270.09 199.412 261.892 186.268 253.977 172.982 C 270.09 173.265 286.344 173.123 302.456 172.417 C 294.824 185.985 286.909 199.271 278.711 212.274 L 278.711 212.274 Z  M 812.266 314.603 C 811.874 310.873 810.015 307.451 807.099 305.092 C 804.183 302.732 800.449 301.629 796.718 302.024 C 642.376 318.278 490.154 284.922 356.872 205.49 C 353.65 203.571 349.796 203.014 346.163 203.942 C 342.529 204.871 339.415 207.208 337.508 210.437 C 335.589 213.659 335.033 217.512 335.961 221.146 C 336.889 224.779 339.226 227.893 342.455 229.8 C 348.109 233.192 353.762 236.443 359.416 239.552 C 361.395 268.527 364.645 297.926 369.31 327.041 C 370.016 331.705 372.984 335.663 377.225 337.642 C 381.511 339.548 386.451 339.285 390.51 336.935 C 415.969 321.884 440.685 305.611 464.572 288.173 C 478.565 293.403 492.698 298.208 506.974 302.448 C 515.292 330.768 524.914 358.689 535.807 386.121 C 537.503 390.503 541.319 393.753 545.842 394.743 C 550.401 395.62 555.108 394.312 558.562 391.209 C 579.966 370.898 600.389 349.579 619.762 327.324 C 634.461 329.303 649.302 330.857 664.284 332.129 C 678.559 357.712 694.248 383.012 711.067 407.322 C 713.753 411.138 717.993 413.399 722.657 413.399 L 722.798 413.399 C 727.462 413.399 731.844 410.997 734.388 407.18 C 750.783 382.729 766.189 357.429 780.041 331.847 C 786.542 331.281 793.044 330.716 799.545 330.009 C 807.46 329.303 813.114 322.377 812.266 314.603 L 812.266 314.603 Z  M 394.044 301.742 C 391.924 286.336 390.228 270.93 388.956 255.665 C 403.372 263.015 418.071 269.799 432.771 276.301 C 420.192 285.064 407.188 293.544 394.044 301.742 Z  M 554.322 356.157 C 548.928 341.74 543.932 327.176 539.34 312.483 C 554.888 316.3 570.576 319.833 586.265 322.801 C 575.947 334.108 565.205 345.274 554.322 356.157 L 554.322 356.157 Z  M 722.516 373.824 C 714.035 360.821 705.838 347.677 698.064 334.391 C 714.177 334.815 730.431 334.674 746.543 334.108 C 738.911 347.535 730.996 360.821 722.516 373.824 L 722.516 373.824 Z  M 668.948 416.509 C 676.58 414.671 681.245 407.039 679.407 399.548 C 678.551 395.908 676.281 392.759 673.099 390.797 C 669.916 388.834 666.083 388.22 662.446 389.089 C 511.355 424.989 356.165 411.421 213.695 349.656 C 206.487 346.546 198.148 349.797 195.039 357.005 C 191.929 364.213 195.18 372.552 202.388 375.662 C 208.466 378.206 214.402 380.75 220.48 383.294 C 226.133 411.845 233.2 440.536 241.539 468.804 C 242.811 473.327 246.345 476.861 250.726 478.274 C 255.212 479.739 260.132 478.893 263.871 476.013 C 287.192 457.78 309.806 438.416 331.007 418.205 C 345.565 421.597 360.264 424.565 374.822 426.968 C 386.553 453.681 399.697 480.394 414.114 506.259 C 416.375 510.358 420.616 513.043 425.28 513.467 L 426.552 513.467 C 430.792 513.467 434.891 511.63 437.576 508.238 C 456.233 485.2 473.9 461.313 490.154 437.003 L 496.232 437.003 C 509.094 437.003 521.956 436.579 534.959 436.014 C 552.544 459.757 571.269 482.634 591.07 504.563 C 593.742 507.524 597.541 509.218 601.529 509.227 C 602.095 509.227 602.801 509.227 603.508 509.086 C 608.172 508.521 612.13 505.552 614.25 501.454 C 627.394 475.023 639.408 448.027 649.867 420.89 C 656.086 419.477 662.446 418.064 668.948 416.509 L 668.948 416.509 Z  M 263.023 440.395 C 258.948 425.467 255.272 410.432 251.998 395.308 C 267.263 400.679 282.669 405.626 298.075 410.149 C 286.768 420.466 275.036 430.501 263.023 440.395 Z  M 428.813 473.751 C 421.605 460.041 414.821 446.331 408.319 432.339 C 424.149 434.176 440.12 435.59 456.092 436.579 C 447.47 449.017 438.283 461.455 428.813 473.751 Z  M 597.996 469.652 C 587.82 457.921 578.067 445.907 568.739 433.752 C 584.851 432.056 600.823 429.795 616.794 427.251 C 610.858 441.526 604.639 455.66 597.996 469.652 Z " fill="rgb(102,143,255)"/></g></svg>