<?xml version="1.0" encoding="UTF-8" standalone="no"?><!-- Generator: Gravit.io --><svg xmlns="http://www.w3.org/2000/svg" xmlns:xlink="http://www.w3.org/1999/xlink" style="isolation:isolate" viewBox="0 0 1000 1000" width="1000pt" height="1000pt"><defs><clipPath id="_clipPath_YDJsw2kPjspfLC6H7MHgM7IpVY5B2gU9"><rect width="1000" height="1000"/></clipPath></defs><g clip-path="url(#_clipPath_YDJsw2kPjspfLC6H7MHgM7IpVY5B2gU9)"><g clip-path="url(#_clipPath_SxalY4RAQyFPFFQ3knJD0hJoz2FRoIdR)"><text transform="matrix(1.156,0,0,1,199.399,804.723)" style="font-family:'Chicle';font-weight:400;font-size:180px;font-style:normal;fill:#ff5297;stroke:none;">“baby on </text><text transform="matrix(1.156,0,0,1,268.173,957.057)" style="font-family:'Chicle';font-weight:400;font-size:180px;font-style:normal;fill:#ff5297;stroke:none;">board”</text></g><defs><clipPath id="_clipPath_SxalY4RAQyFPFFQ3knJD0hJoz2FRoIdR"><rect x="0" y="0" width="865" height="350" transform="matrix(1.156,0,0,1,0,650)"/></clipPath></defs><path d=" M 198.357 311.27 L 473.77 35.857 C 488.247 21.381 511.753 21.381 526.23 35.857 L 801.643 311.27 C 816.119 325.747 816.119 349.253 801.643 363.73 L 526.23 639.143 C 511.753 653.619 488.247 653.619 473.77 639.143 L 198.357 363.73 C 183.881 349.253 183.881 325.747 198.357 311.27 Z  M 212.5 325.41 L 487.91 50 C 487.92 50 487.92 49.99 487.92 49.99 C 489.53 48.38 491.45 47.11 493.55 46.25 C 495.6 45.42 497.79 45 500 45 C 502.21 45 504.4 45.42 506.45 46.25 C 508.55 47.11 510.47 48.38 512.08 49.99 C 512.08 49.99 512.08 50 512.09 50 L 787.5 325.41 C 787.5 325.42 787.51 325.42 787.51 325.42 C 789.12 327.03 790.39 328.95 791.25 331.05 C 792.08 333.1 792.5 335.29 792.5 337.5 C 792.5 339.71 792.08 341.9 791.25 343.95 C 790.39 346.05 789.12 347.97 787.51 349.58 C 787.51 349.58 787.5 349.58 787.5 349.59 L 512.09 625 C 512.08 625 512.08 625.01 512.08 625.01 C 510.47 626.62 508.55 627.89 506.45 628.75 C 504.4 629.58 502.21 630 500 630 C 497.79 630 495.6 629.58 493.55 628.75 C 491.45 627.89 489.53 626.62 487.92 625.01 C 487.92 625.01 487.92 625 487.91 625 L 212.5 349.59 C 212.5 349.58 212.49 349.58 212.49 349.58 C 210.88 347.97 209.61 346.05 208.75 343.95 C 207.92 341.9 207.5 339.71 207.5 337.5 C 207.5 335.29 207.92 333.1 208.75 331.05 C 209.61 328.95 210.88 327.03 212.49 325.42 C 212.49 325.42 212.5 325.42 212.5 325.41 Z  M 600 225 C 603.98 225 607.79 226.58 610.61 229.39 C 613.42 232.21 615 236.02 615 240 C 615 243.98 613.42 247.79 610.61 250.61 C 607.79 253.42 603.98 255 600 255 L 400 255 C 396.02 255 392.21 253.42 389.39 250.61 C 386.58 247.79 385 243.98 385 240 C 385 236.02 386.58 232.21 389.39 229.39 C 392.21 226.58 396.02 225 400 225 L 600 225 Z  M 550 322.5 C 553.98 322.5 557.79 324.08 560.61 326.89 C 563.42 329.71 565 333.52 565 337.5 C 565 341.48 563.42 345.29 560.61 348.11 C 557.79 350.92 553.98 352.5 550 352.5 L 450 352.5 C 446.02 352.5 442.21 350.92 439.39 348.11 C 436.58 345.29 435 341.48 435 337.5 C 435 333.52 436.58 329.71 439.39 326.89 C 442.21 324.08 446.02 322.5 450 322.5 L 550 322.5 Z  M 625 420 C 628.98 420 632.79 421.58 635.61 424.39 C 638.42 427.21 640 431.02 640 435 C 640 438.98 638.42 442.79 635.61 445.61 C 632.79 448.42 628.98 450 625 450 L 375 450 C 371.02 450 367.21 448.42 364.39 445.61 C 361.58 442.79 360 438.98 360 435 C 360 431.02 361.58 427.21 364.39 424.39 C 367.21 421.58 371.02 420 375 420 L 625 420 Z " fill-rule="evenodd" fill="rgb(102,143,255)"/></g></svg>