<?xml version="1.0" encoding="UTF-8" standalone="no"?><!-- Generator: Gravit.io --><svg xmlns="http://www.w3.org/2000/svg" xmlns:xlink="http://www.w3.org/1999/xlink" style="isolation:isolate" viewBox="0 0 1000 1000" width="1000pt" height="1000pt"><defs><clipPath id="_clipPath_D59OYN9B3b508qjX9Ygdza0zOvbBOcJ0"><rect width="1000" height="1000"/></clipPath></defs><g clip-path="url(#_clipPath_D59OYN9B3b508qjX9Ygdza0zOvbBOcJ0)"><g clip-path="url(#_clipPath_J4uTeQmR5hyzLsM4GUm0xxVPF66mhpgx)"><text transform="matrix(1.156,0,0,1,318.064,894.863)" style="font-family:'Chicle';font-weight:400;font-size:225px;font-style:normal;fill:#668fff;stroke:none;">blue</text></g><defs><clipPath id="_clipPath_J4uTeQmR5hyzLsM4GUm0xxVPF66mhpgx"><rect x="0" y="0" width="865" height="350" transform="matrix(1.156,0,0,1,0,650)"/></clipPath></defs><path d=" M 329.906 40.211 C 418.581 17.746 531.656 16.533 566.72 61.535 C 601.785 106.537 609.865 155.406 658.752 181.626 C 707.639 207.846 811.945 194.137 839.449 246.722 C 866.954 299.307 778.813 302.412 748.54 374.669 C 718.267 446.926 871.844 438.186 803.534 559.856 C 735.224 681.525 626.654 654.383 574.576 624.951 C 522.499 595.52 497.141 509.078 432.039 502.616 C 366.936 496.154 292.046 626.907 216.549 573.324 C 141.052 519.74 138.413 427.136 191.857 365.69 C 245.302 304.244 277.669 306.535 301.847 237.743 C 326.025 168.951 241.231 62.676 329.906 40.211 Z " fill="rgb(102,143,255)"/></g></svg>