<?xml version="1.0" encoding="UTF-8" standalone="no"?><!-- Generator: Gravit.io --><svg xmlns="http://www.w3.org/2000/svg" xmlns:xlink="http://www.w3.org/1999/xlink" style="isolation:isolate" viewBox="0 0 1000 1000" width="1000pt" height="1000pt"><defs><clipPath id="_clipPath_rlpfkNsxJLIX0sAsQWgu3wfUn4Mn85OM"><rect width="1000" height="1000"/></clipPath></defs><g clip-path="url(#_clipPath_rlpfkNsxJLIX0sAsQWgu3wfUn4Mn85OM)"><g clip-path="url(#_clipPath_REzrnZJlCeJ0E3g6oZhC6x8v9oRq1EiH)"><text transform="matrix(1.156,0,0,1,259.017,894.863)" style="font-family:'Chicle';font-weight:400;font-size:225px;font-style:normal;fill:#668fff;stroke:none;">bottle</text></g><defs><clipPath id="_clipPath_REzrnZJlCeJ0E3g6oZhC6x8v9oRq1EiH"><rect x="0" y="0" width="865" height="350" transform="matrix(1.156,0,0,1,0,650)"/></clipPath></defs><path d=" M 740.283 25.091 C 731.941 25.892 723.397 30.022 716.917 36.557 L 689.339 64.148 C 688.904 64.569 685.943 65.791 682.112 65.846 C 678.295 65.9 673.621 64.202 674.898 64.99 C 657.238 54.271 638.491 49.082 620.138 51.84 C 601.771 54.597 584.586 64.881 568.76 80.708 L 539.484 109.997 C 533.806 115.729 531.904 124.478 532.692 132.072 C 484.762 118.625 433.307 132.099 398.12 167.311 L 227.874 337.544 C 174.118 391.299 174.118 479.071 227.874 532.827 L 304.71 609.663 C 358.465 663.473 445.816 663.418 499.572 609.663 L 669.804 439.431 C 706.212 402.969 717.99 350.911 705.043 304.424 C 712.624 305.592 721.644 304.016 727.54 298.066 L 756.829 268.763 C 772.805 252.801 783.048 235.494 785.697 216.978 C 788.305 198.611 783.306 179.837 772.547 162.217 C 772.547 161.524 771.596 158.128 771.691 155.425 C 771.8 151.811 772.696 149.311 773.389 148.632 L 773.389 148.211 C 781.676 139.87 801.415 120.606 801.415 120.606 C 810.109 111.966 813.777 99.917 812.011 89.198 C 810.272 78.466 804.227 69.5 796.741 62.028 L 775.495 40.795 C 768.023 33.323 759.057 27.265 748.325 25.512 C 745.673 25.028 742.97 24.886 740.283 25.091 Z  M 740.283 52.682 C 741.531 52.366 742.838 52.366 744.086 52.682 C 747.075 53.157 751.694 55.182 756.408 59.909 L 777.641 81.129 C 782.301 85.802 784.8 90.475 785.276 93.437 C 785.751 96.412 785.751 98.055 782.301 101.506 L 781.88 101.506 C 781.88 101.506 762.616 120.715 754.289 129.097 C 746.586 136.8 744.779 146.499 744.521 154.569 C 744.249 162.638 744.833 169.159 749.194 176.223 C 757.794 190.175 760.551 201.858 758.948 213.16 C 757.359 224.463 750.892 236.513 737.729 249.663 L 709.282 277.689 C 706.837 276.887 701.593 273.749 695.276 268.763 C 689.717 264.31 684.333 259.643 679.137 254.771 C 676.214 251.069 673.099 247.523 669.804 244.148 L 593.389 167.311 C 589.314 163.222 584.695 159.717 580.225 156.267 C 576.098 151.885 572.133 147.354 568.338 142.682 C 563.312 136.474 560.174 131.379 559.427 129.097 L 588.295 99.808 C 601.336 86.766 613.237 80.273 624.376 78.575 C 635.516 76.877 646.655 79.526 660.471 87.921 C 667.413 92.173 674.314 93.07 682.533 93.015 C 690.766 92.961 700.533 91.154 708.44 83.248 L 736.03 55.657 C 737.783 53.905 739.06 53.062 740.283 52.682 Z  M 495.754 154.148 C 518.713 154.148 541.644 161.524 561.125 175.802 C 571.259 186.466 583.037 197.714 595.508 210.185 L 627.351 242.028 C 639.292 253.969 650.446 265.326 660.892 275.135 C 691.843 316.053 690.434 372.924 657.496 412.261 C 656.755 411.306 655.897 410.448 654.942 409.707 L 607.395 361.752 C 604.857 359.067 601.335 357.532 597.641 357.5 C 592.062 357.393 586.983 360.702 584.826 365.848 C 582.669 370.995 583.872 376.936 587.86 380.839 L 635.842 428.834 C 636.693 429.833 637.697 430.691 638.817 431.375 L 581.081 489.545 C 580.4 488.295 579.54 487.15 578.527 486.149 L 530.559 438.167 C 527.362 434.902 522.735 433.467 518.251 434.35 C 513.178 435.246 509.057 438.951 507.627 443.9 C 506.201 448.886 507.682 454.197 511.458 457.702 L 559.006 505.249 C 560.011 506.255 561.125 507.097 562.402 507.79 L 504.666 565.96 C 503.865 564.674 502.86 563.527 501.691 562.564 L 454.144 515.017 C 451.301 511.993 447.236 510.428 443.099 510.765 C 437.804 511.27 433.292 514.821 431.558 519.849 C 429.823 524.877 431.186 530.455 435.043 534.117 L 482.59 581.665 C 483.541 582.833 484.71 583.838 485.987 584.626 L 480.458 590.155 C 459.72 610.989 431.536 622.702 402.141 622.702 C 372.745 622.702 344.561 610.989 323.824 590.155 L 246.974 513.74 C 226.131 493.002 214.413 464.812 214.413 435.409 C 214.413 406.007 226.131 377.817 246.974 357.079 L 417.206 186.86 C 438.006 165.959 466.268 154.194 495.754 154.161 L 495.754 154.148 Z " fill="rgb(255,82,151)"/></g></svg>