<?xml version="1.0" encoding="UTF-8" standalone="no"?><!-- Generator: Gravit.io --><svg xmlns="http://www.w3.org/2000/svg" xmlns:xlink="http://www.w3.org/1999/xlink" style="isolation:isolate" viewBox="0 0 1000 1000" width="1000pt" height="1000pt"><defs><clipPath id="_clipPath_SQBliMTx9ho31Mj5aZpekvJcvVgYVm39"><rect width="1000" height="1000"/></clipPath></defs><g clip-path="url(#_clipPath_SQBliMTx9ho31Mj5aZpekvJcvVgYVm39)"><g clip-path="url(#_clipPath_LYhErTVRPlb8sr28iuov700SR4LlTGL8)"><text transform="matrix(1.156,0,0,1,169.798,894.863)" style="font-family:'Chicle';font-weight:400;font-size:225px;font-style:normal;fill:#ff5297;stroke:none;">bubbles</text></g><defs><clipPath id="_clipPath_LYhErTVRPlb8sr28iuov700SR4LlTGL8"><rect x="0" y="0" width="865" height="350" transform="matrix(1.156,0,0,1,0,650)"/></clipPath></defs><path d=" M 597.656 25 C 487.207 25 396.094 108.623 384.17 215.918 C 370.989 212.37 357.4 210.564 343.75 210.547 C 257.578 210.547 187.5 280.625 187.5 366.797 C 187.5 452.969 257.578 523.047 343.75 523.047 C 409.375 523.047 465.654 482.471 488.75 424.971 C 521.73 444.464 559.346 454.728 597.656 454.688 C 716.191 454.688 812.5 358.379 812.5 239.844 C 812.5 121.309 716.191 25 597.656 25 Z  M 597.656 44.531 C 705.645 44.531 792.969 131.855 792.969 239.844 C 792.969 347.832 705.645 435.156 597.656 435.156 C 489.668 435.156 402.344 347.832 402.344 239.844 C 402.344 131.855 489.668 44.531 597.656 44.531 Z  M 597.656 83.594 C 592.263 83.594 587.891 87.966 587.891 93.359 C 587.891 98.753 592.263 103.125 597.656 103.125 C 603.05 103.125 607.422 98.753 607.422 93.359 C 607.422 87.966 603.05 83.594 597.656 83.594 Z  M 560.117 88.594 C 559.14 88.555 558.162 88.664 557.217 88.916 C 554.713 89.586 552.578 91.225 551.282 93.471 C 549.987 95.717 549.638 98.385 550.313 100.889 C 550.981 103.393 552.617 105.528 554.861 106.825 C 557.105 108.122 559.772 108.474 562.275 107.803 C 564.778 107.132 566.911 105.495 568.206 103.251 C 569.5 101.008 569.851 98.342 569.18 95.84 C 568.077 91.697 564.401 88.758 560.117 88.594 Z  M 524.18 103.223 C 522.544 103.266 520.946 103.719 519.531 104.541 C 514.863 107.234 513.259 113.2 515.947 117.871 C 517.244 120.115 519.379 121.751 521.883 122.42 C 524.387 123.089 527.054 122.734 529.297 121.436 C 533.958 118.736 535.553 112.771 532.861 108.105 C 531.079 105.017 527.755 103.145 524.189 103.223 L 524.18 103.223 Z  M 494.199 126.494 C 491.565 126.461 489.03 127.493 487.168 129.355 C 483.356 133.169 483.356 139.351 487.168 143.164 C 490.981 146.976 497.163 146.976 500.977 143.164 C 504.789 139.351 504.789 133.169 500.977 129.355 C 499.177 127.555 496.745 126.528 494.199 126.494 Z  M 470.342 156.855 C 467.018 157.007 464.001 158.839 462.334 161.719 C 461.037 163.964 460.686 166.633 461.358 169.137 C 462.03 171.641 463.671 173.775 465.918 175.068 C 470.589 177.757 476.555 176.153 479.248 171.484 C 481.94 166.818 480.345 160.854 475.684 158.154 C 474.064 157.219 472.21 156.768 470.342 156.855 Z  M 456.074 192.178 C 451.684 192.218 447.861 195.182 446.728 199.424 C 446.057 201.926 446.408 204.592 447.703 206.835 C 448.997 209.079 451.131 210.716 453.633 211.387 C 456.135 212.058 458.801 211.707 461.044 210.413 C 463.288 209.118 464.925 206.985 465.596 204.482 C 466.267 201.98 465.916 199.314 464.622 197.071 C 463.327 194.827 461.194 193.19 458.691 192.52 C 457.839 192.288 456.958 192.173 456.074 192.178 Z  M 343.75 230.078 C 357.393 230.078 370.508 232.168 382.91 235.879 C 382.881 237.197 382.813 238.516 382.813 239.844 C 382.813 311.475 418.008 374.932 472.002 413.984 C 452.783 466.191 402.734 503.516 343.75 503.516 C 268.125 503.516 207.031 442.422 207.031 366.797 C 207.031 291.172 268.125 230.078 343.75 230.078 Z  M 451.172 230.078 C 445.778 230.078 441.406 234.45 441.406 239.844 C 441.406 245.237 445.778 249.609 451.172 249.609 C 456.565 249.609 460.938 245.237 460.938 239.844 C 460.938 234.45 456.565 230.078 451.172 230.078 Z  M 343.75 269.141 C 338.357 269.141 333.984 273.513 333.984 278.906 C 333.984 284.3 338.357 288.672 343.75 288.672 C 349.143 288.672 353.516 284.3 353.516 278.906 C 353.516 273.513 349.143 269.141 343.75 269.141 Z  M 299.58 280.908 C 297.941 280.95 296.339 281.403 294.922 282.227 C 290.254 284.92 288.65 290.886 291.338 295.557 C 292.635 297.801 294.77 299.437 297.274 300.106 C 299.778 300.774 302.445 300.42 304.687 299.121 C 309.349 296.421 310.944 290.457 308.252 285.791 C 306.47 282.702 303.145 280.83 299.58 280.908 Z  M 267.168 313.105 C 263.852 313.263 260.843 315.095 259.18 317.969 C 257.881 320.211 257.527 322.878 258.195 325.382 C 258.864 327.886 260.5 330.022 262.744 331.318 C 267.415 334.007 273.381 332.403 276.074 327.734 C 278.766 323.068 277.171 317.104 272.51 314.404 C 270.89 313.469 269.036 313.018 267.168 313.105 Z  M 255.859 357.031 C 250.466 357.031 246.094 361.403 246.094 366.797 C 246.094 372.19 250.466 376.563 255.859 376.563 C 261.253 376.563 265.625 372.19 265.625 366.797 C 265.625 361.403 261.253 357.031 255.859 357.031 Z  M 543.945 483.984 C 498.213 483.984 460.938 521.26 460.938 566.992 C 460.938 612.725 498.213 650 543.945 650 C 589.678 650 626.953 612.725 626.953 566.992 C 626.953 521.26 589.678 483.984 543.945 483.984 Z  M 543.945 503.516 C 579.121 503.516 607.422 531.816 607.422 566.992 C 607.422 602.168 579.121 630.469 543.945 630.469 C 527.098 630.508 510.93 623.833 499.018 611.92 C 487.105 600.007 480.43 583.839 480.469 566.992 C 480.469 531.816 508.77 503.516 543.945 503.516 Z " fill="rgb(102,143,255)"/></g></svg>