<?xml version="1.0" encoding="UTF-8" standalone="no"?><!-- Generator: Gravit.io --><svg xmlns="http://www.w3.org/2000/svg" xmlns:xlink="http://www.w3.org/1999/xlink" style="isolation:isolate" viewBox="0 0 1000 1000" width="1000pt" height="1000pt"><defs><clipPath id="_clipPath_gRjCe3ihiSLra9BYDg4mdQg9izkKxhnT"><rect width="1000" height="1000"/></clipPath></defs><g clip-path="url(#_clipPath_gRjCe3ihiSLra9BYDg4mdQg9izkKxhnT)"><g clip-path="url(#_clipPath_q4jY6vsZ9UFi3AHOsXHzNejSIsh6cks2)"><text transform="matrix(1.156,0,0,1,16.069,880.89)" style="font-family:'Chicle';font-weight:400;font-size:180px;font-style:normal;letter-spacing:-2;fill:#668fff;stroke:none;">changing table</text></g><defs><clipPath id="_clipPath_q4jY6vsZ9UFi3AHOsXHzNejSIsh6cks2"><rect x="0" y="0" width="865" height="350" transform="matrix(1.156,0,0,1,0,650)"/></clipPath></defs><path d=" M 743.421 84.211 L 700.633 84.211 C 703.917 80.618 705.921 75.836 705.921 70.59 L 705.921 51.778 C 705.921 40.63 696.87 31.579 685.722 31.579 L 314.278 31.579 C 303.13 31.579 294.079 40.63 294.079 51.778 L 294.079 70.59 C 294.079 75.836 296.083 80.618 299.367 84.211 L 299.367 84.211 L 256.579 84.211 L 256.579 84.211 L 256.579 31.579 L 256.579 25 L 243.421 25 L 243.421 31.579 L 243.421 84.211 L 243.421 84.211 L 243.421 97.368 L 243.421 268.421 L 243.421 281.579 L 243.421 452.632 L 243.421 452.632 L 243.421 452.632 L 243.421 452.632 L 243.421 452.632 L 243.421 452.632 L 243.421 465.789 L 243.421 650 L 756.579 650 L 756.579 465.789 L 756.579 452.632 L 756.579 281.579 L 756.579 268.421 L 756.579 268.421 L 756.579 97.368 L 756.579 84.211 L 756.579 31.579 L 756.579 25 L 743.421 25 L 743.421 31.579 L 743.421 84.211 Z  M 553.947 176.316 L 560.526 176.316 L 560.526 189.474 L 553.947 189.474 L 446.053 189.474 L 439.474 189.474 L 439.474 176.316 L 446.053 176.316 L 553.947 176.316 L 553.947 176.316 L 553.947 176.316 L 553.947 176.316 L 553.947 176.316 L 553.947 176.316 Z  M 553.947 360.526 L 560.526 360.526 L 560.526 373.684 L 553.947 373.684 L 446.053 373.684 L 439.474 373.684 L 439.474 360.526 L 446.053 360.526 L 553.947 360.526 L 553.947 360.526 L 553.947 360.526 L 553.947 360.526 L 553.947 360.526 Z  M 553.947 544.737 L 560.526 544.737 L 560.526 557.895 L 553.947 557.895 L 446.053 557.895 L 439.474 557.895 L 439.474 544.737 L 446.053 544.737 L 553.947 544.737 L 553.947 544.737 L 553.947 544.737 L 553.947 544.737 Z  M 256.579 465.789 L 743.421 465.789 L 743.421 636.842 L 256.579 636.842 L 256.579 465.789 L 256.579 465.789 L 256.579 465.789 L 256.579 465.789 L 256.579 465.789 L 256.579 465.789 L 256.579 465.789 L 256.579 465.789 Z  M 256.579 452.632 L 256.579 281.579 L 256.579 281.579 L 743.421 281.579 L 743.421 281.579 L 743.421 452.632 L 256.579 452.632 L 256.579 452.632 L 256.579 452.632 L 256.579 452.632 L 256.579 452.632 L 256.579 452.632 L 256.579 452.632 Z  M 743.421 268.421 L 743.421 97.368 L 256.579 97.368 L 256.579 97.368 L 256.579 268.421 L 743.421 268.421 L 743.421 268.421 L 743.421 268.421 L 743.421 268.421 L 743.421 268.421 L 743.421 268.421 L 743.421 268.421 L 743.421 268.421 Z " fill-rule="evenodd" fill="rgb(255,82,151)"/></g></svg>