<?xml version="1.0" encoding="UTF-8" standalone="no"?><!-- Generator: Gravit.io --><svg xmlns="http://www.w3.org/2000/svg" xmlns:xlink="http://www.w3.org/1999/xlink" style="isolation:isolate" viewBox="0 0 1000 1000" width="1000pt" height="1000pt"><defs><clipPath id="_clipPath_BlqzoAV3KFS0hoXBLYw2rA6hvoYpQRtO"><rect width="1000" height="1000"/></clipPath></defs><g clip-path="url(#_clipPath_BlqzoAV3KFS0hoXBLYw2rA6hvoYpQRtO)"><g clip-path="url(#_clipPath_QNkL6jjKi430voiV4ABExtftXK1F95Z2)"><text transform="matrix(1.156,0,0,1,211.806,894.863)" style="font-family:'Chicle';font-weight:400;font-size:225px;font-style:normal;fill:#ff5297;stroke:none;">crying</text></g><defs><clipPath id="_clipPath_QNkL6jjKi430voiV4ABExtftXK1F95Z2"><rect x="0" y="0" width="865" height="350" transform="matrix(1.156,0,0,1,0,650)"/></clipPath></defs><path d=" M 344.333 25 L 344.333 77.083 C 398.135 77.083 420.531 97.656 433.864 117.786 C 437.822 123.776 440.661 129.479 442.796 134.87 C 325.713 159.089 250.348 256.927 243.421 373.307 C 212.9 383.984 188.083 407.682 188.083 441.667 C 188.083 476.953 214.333 502.083 246.676 511.667 C 251.468 522.943 263.473 548.385 294.697 577.552 C 333.864 614.219 399.541 650 500.583 650 C 601.598 650 667.301 614.193 706.468 577.578 C 737.718 548.385 749.697 522.943 754.489 511.641 C 786.833 502.083 813.083 476.953 813.083 441.667 C 813.083 407.682 788.265 383.984 757.744 373.307 C 750.531 251.641 668.317 150.651 542.093 132.422 C 554.202 117.266 571.156 103.125 604.749 103.125 L 604.749 51.042 C 564.618 50.543 526.492 68.554 501.39 99.87 C 497.223 105.078 493.864 110.339 490.817 115.339 C 487.183 105.919 482.547 96.918 476.989 88.49 C 455.791 56.51 412.9 25 344.333 25 Z  M 772.406 51.042 C 762.516 51.455 753.051 55.178 745.531 61.615 C 729.88 77.292 719.489 142.188 719.489 142.188 C 719.489 142.188 784.385 131.823 800.062 116.146 C 815.739 100.469 815.739 77.292 800.062 61.615 C 792.249 53.802 782.145 50.729 772.38 51.042 L 772.406 51.042 Z  M 219.02 104.766 C 211.286 106.172 204.567 110.234 198.656 116.146 C 183.005 131.823 183.005 155 198.656 170.677 C 214.333 186.328 281.676 196.719 281.676 196.719 C 281.676 196.719 271.286 131.823 255.635 116.146 C 246.035 106.576 232.357 102.315 219.02 104.74 L 219.02 104.766 Z  M 500.583 181.25 C 631.208 181.25 708.916 271.484 708.916 389.583 L 708.916 415.625 L 734.958 415.625 C 749.411 415.625 760.999 427.214 760.999 441.667 C 760.999 456.12 749.411 467.708 734.958 467.708 L 716.234 467.708 L 710.557 485.625 C 710.557 485.625 701.989 511.667 671.494 540.13 C 640.947 568.62 589.671 597.917 500.583 597.917 C 411.468 597.917 360.218 568.62 329.671 540.13 C 299.176 511.667 290.609 485.625 290.609 485.625 L 284.958 467.708 L 266.208 467.708 C 251.755 467.708 240.166 456.12 240.166 441.667 C 240.166 427.214 251.755 415.625 266.208 415.625 L 292.249 415.625 L 292.249 389.583 C 292.249 271.484 369.958 181.25 500.583 181.25 Z  M 474.541 259.375 C 427.145 259.375 380.739 285.625 353.291 325.286 L 387.458 349.714 C 406.885 321.615 443.812 300.885 474.541 300.885 L 474.541 259.375 Z  M 526.624 259.375 L 526.624 300.885 C 557.354 300.885 594.281 321.641 613.708 349.714 L 647.874 325.286 C 620.426 285.625 574.02 259.375 526.624 259.375 Z  M 500.583 337.5 C 409.437 337.5 357.354 428.646 357.354 480.729 C 357.354 480.729 409.437 457.135 500.583 457.135 C 591.729 457.135 643.812 480.729 643.812 480.729 C 643.812 428.646 591.729 337.5 500.583 337.5 Z " fill="rgb(102,143,255)"/></g></svg>