<?xml version="1.0" encoding="UTF-8" standalone="no"?><!-- Generator: Gravit.io --><svg xmlns="http://www.w3.org/2000/svg" xmlns:xlink="http://www.w3.org/1999/xlink" style="isolation:isolate" viewBox="0 0 1000 1000" width="1000pt" height="1000pt"><defs><clipPath id="_clipPath_PMSp09SYo3131lB9mRB4uaqO9DasIM4Q"><rect width="1000" height="1000"/></clipPath></defs><g clip-path="url(#_clipPath_PMSp09SYo3131lB9mRB4uaqO9DasIM4Q)"><g clip-path="url(#_clipPath_fkOJITb6iOuixXc2COQ27RWgd2pOhuPT)"><text transform="matrix(1.156,0,0,1,150.549,894.863)" style="font-family:'Chicle';font-weight:400;font-size:225px;font-style:normal;fill:#668fff;stroke:none;">formula</text></g><defs><clipPath id="_clipPath_fkOJITb6iOuixXc2COQ27RWgd2pOhuPT"><rect x="0" y="0" width="865" height="350" transform="matrix(1.156,0,0,1,0,650)"/></clipPath></defs><path d=" M 694.213 152.886 C 691.557 155.184 688.788 157.337 685.905 159.346 C 682.315 161.851 678.599 164.175 674.786 166.318 C 670.695 168.614 666.52 170.743 662.248 172.706 C 657.697 174.793 653.063 176.741 648.373 178.522 C 638.089 182.391 627.611 185.689 616.965 188.389 C 605.192 191.409 593.28 193.872 581.27 195.778 C 568.258 197.866 555.163 199.411 542.027 200.426 C 528.041 201.512 514.027 202.055 500 202.041 C 485.973 202.055 471.959 201.512 457.973 200.426 C 444.837 199.411 431.742 197.866 418.73 195.778 C 406.72 193.872 394.808 191.409 383.035 188.389 C 372.389 185.689 361.91 182.391 351.627 178.522 C 346.937 176.741 342.303 174.793 337.752 172.706 C 333.48 170.743 329.305 168.614 325.214 166.318 C 321.401 164.175 317.685 161.851 314.095 159.346 C 311.212 157.337 308.443 155.184 305.787 152.886 L 305.787 152.886 L 305.787 561.577 C 305.787 563.358 306.023 565.126 306.483 566.837 C 306.998 568.744 307.735 570.581 308.681 572.306 C 309.809 574.366 311.117 576.314 312.606 578.123 C 314.387 580.28 316.321 582.284 318.395 584.149 C 320.816 586.306 323.363 588.324 326.035 590.175 C 329.069 592.29 332.2 594.266 335.428 596.075 C 339.032 598.093 342.706 599.972 346.464 601.697 C 350.583 603.59 354.772 605.343 359.016 606.958 C 368.562 610.548 378.304 613.609 388.184 616.128 C 399.345 618.981 410.645 621.305 422.014 623.128 C 434.469 625.118 447.008 626.607 459.588 627.567 C 473.031 628.611 486.515 629.126 500 629.126 L 500 629.126 L 500 629.126 L 500 629.126 C 500 629.126 500 629.126 500 629.126 C 513.485 629.126 526.969 628.611 540.412 627.567 C 552.993 626.607 565.531 625.118 577.986 623.128 C 589.355 621.305 600.655 618.981 611.816 616.128 C 621.696 613.609 631.438 610.548 640.984 606.958 C 645.228 605.343 649.417 603.59 653.536 601.697 C 657.294 599.972 660.968 598.093 664.572 596.075 C 667.8 594.266 670.932 592.29 673.965 590.175 C 676.637 588.324 679.184 586.306 681.605 584.149 C 683.679 582.284 685.613 580.28 687.394 578.123 C 688.883 576.314 690.191 574.366 691.319 572.306 C 692.265 570.581 693.002 568.744 693.517 566.837 C 693.977 565.126 694.213 563.358 694.213 561.577 C 694.213 561.577 694.213 561.577 694.213 561.577 L 694.213 561.591 L 694.213 561.591 L 694.213 561.577 L 694.213 152.886 Z  M 305.787 113.632 C 305.787 115.399 306.023 117.166 306.483 118.878 C 306.998 120.785 307.735 122.621 308.681 124.347 C 309.809 126.407 311.117 128.355 312.606 130.164 C 314.387 132.321 316.321 134.325 318.395 136.19 C 320.816 138.347 323.363 140.364 326.035 142.215 C 329.069 144.344 332.2 146.307 335.428 148.116 C 339.032 150.134 342.706 152.012 346.464 153.738 C 350.583 155.63 354.772 157.384 359.016 158.998 C 368.562 162.589 378.304 165.65 388.184 168.169 C 399.345 171.022 410.645 173.36 422.014 175.169 C 434.469 177.159 447.008 178.648 459.588 179.608 C 473.031 180.652 486.515 181.18 500 181.167 C 513.485 181.18 526.969 180.652 540.412 179.608 C 552.993 178.648 565.531 177.159 577.986 175.169 C 589.355 173.36 600.655 171.022 611.816 168.169 C 621.696 165.65 631.438 162.589 640.984 158.998 C 645.228 157.384 649.417 155.63 653.536 153.738 C 657.294 152.012 660.968 150.134 664.572 148.116 C 667.8 146.307 670.932 144.344 673.965 142.215 C 676.637 140.364 679.184 138.347 681.605 136.19 C 683.679 134.325 685.613 132.321 687.394 130.164 C 688.883 128.355 690.191 126.407 691.319 124.347 C 692.265 122.621 693.002 120.785 693.517 118.878 C 693.977 117.166 694.213 115.399 694.213 113.632 L 694.213 113.632 C 694.213 113.632 694.213 113.618 694.213 113.618 L 694.213 113.618 L 694.213 113.632 L 694.213 113.632 L 694.213 113.632 L 694.213 113.423 C 694.213 111.642 693.977 109.874 693.517 108.163 C 693.002 106.256 692.265 104.419 691.319 102.694 C 690.191 100.634 688.883 98.686 687.394 96.877 C 685.613 94.72 683.679 92.716 681.605 90.851 C 679.184 88.694 676.637 86.676 673.965 84.825 C 670.932 82.71 667.8 80.734 664.572 78.925 C 660.968 76.907 657.294 75.028 653.536 73.303 C 649.417 71.41 645.228 69.657 640.984 68.043 C 631.438 64.452 621.696 61.391 611.816 58.872 C 600.655 56.019 589.355 53.695 577.986 51.872 C 565.531 49.882 552.993 48.393 540.412 47.433 C 526.969 46.389 513.485 45.874 500 45.874 L 500 45.874 L 500 45.874 L 500 45.874 C 500 45.874 500 45.874 500 45.874 C 486.515 45.874 473.031 46.389 459.588 47.433 C 447.008 48.393 434.469 49.882 422.014 51.872 C 410.645 53.695 399.345 56.019 388.184 58.872 C 378.304 61.391 368.562 64.452 359.016 68.043 C 354.772 69.657 350.583 71.41 346.464 73.303 C 342.706 75.028 339.032 76.907 335.428 78.925 C 332.2 80.734 329.069 82.71 326.035 84.825 C 323.363 86.676 320.816 88.694 318.395 90.851 C 316.321 92.716 314.387 94.72 312.606 96.877 C 311.117 98.686 309.809 100.634 308.681 102.694 C 307.735 104.419 306.998 106.256 306.483 108.163 C 306.023 109.874 305.787 111.642 305.787 113.423 C 305.787 113.423 305.787 113.423 305.787 113.423 L 305.787 113.409 L 305.787 113.409 L 305.787 113.409 L 305.787 113.423 L 305.787 113.632 Z  M 284.925 112.568 C 284.93 112.466 284.933 112.365 284.929 112.263 C 285.031 109.04 285.497 105.836 286.332 102.721 C 287.278 99.242 288.628 95.889 290.34 92.716 C 292.107 89.487 294.167 86.426 296.505 83.587 C 298.954 80.623 301.626 77.853 304.493 75.293 C 307.54 72.565 310.741 70.033 314.095 67.695 C 317.685 65.19 321.401 62.866 325.214 60.723 C 329.305 58.426 333.48 56.297 337.752 54.335 C 342.303 52.248 346.937 50.299 351.627 48.518 C 361.91 44.65 372.389 41.351 383.035 38.652 C 394.808 35.646 406.72 33.183 418.73 31.262 C 431.742 29.175 444.837 27.63 457.973 26.614 C 471.959 25.529 485.973 25 500 25 C 514.027 25 528.041 25.529 542.027 26.614 C 555.163 27.63 568.258 29.175 581.27 31.262 C 593.28 33.183 605.192 35.646 616.965 38.652 C 627.611 41.351 638.089 44.65 648.373 48.518 C 653.063 50.299 657.697 52.248 662.248 54.335 C 666.52 56.297 670.695 58.426 674.786 60.723 C 678.599 62.866 682.315 65.19 685.905 67.695 C 689.259 70.033 692.46 72.565 695.507 75.293 C 698.374 77.853 701.046 80.623 703.495 83.587 C 705.833 86.426 707.893 89.487 709.66 92.716 C 711.372 95.889 712.721 99.242 713.668 102.721 C 714.6 106.2 715.073 109.791 715.087 113.395 C 715.087 113.395 715.087 113.409 715.087 113.409 L 715.087 113.409 C 715.087 113.409 715.087 113.395 715.087 113.395 L 715.087 113.409 L 715.087 113.409 L 715.087 113.646 L 715.087 561.591 L 715.087 561.591 L 715.087 561.605 C 715.073 565.209 714.6 568.799 713.668 572.279 C 712.721 575.758 711.372 579.111 709.66 582.284 C 707.893 585.513 705.833 588.574 703.495 591.413 C 701.046 594.377 698.374 597.147 695.507 599.707 C 692.46 602.435 689.259 604.968 685.905 607.305 C 682.315 609.81 678.599 612.134 674.786 614.277 C 670.695 616.574 666.52 618.703 662.248 620.665 C 657.697 622.752 653.063 624.701 648.373 626.482 C 638.089 630.35 627.611 633.649 616.965 636.348 C 605.192 639.354 593.28 641.817 581.27 643.738 C 568.258 645.825 555.163 647.37 542.027 648.386 C 528.041 649.471 514.027 650 500 650 C 485.973 650 471.959 649.471 457.973 648.386 C 444.837 647.37 431.742 645.825 418.73 643.738 C 406.72 641.817 394.808 639.354 383.035 636.348 C 372.389 633.649 361.91 630.35 351.627 626.482 C 346.937 624.701 342.303 622.752 337.752 620.665 C 333.48 618.703 329.305 616.574 325.214 614.277 C 321.401 612.134 317.685 609.81 314.095 607.305 C 310.741 604.968 307.54 602.435 304.493 599.707 C 301.626 597.147 298.954 594.377 296.505 591.413 C 294.167 588.574 292.107 585.513 290.34 582.284 C 288.628 579.111 287.278 575.758 286.332 572.279 C 285.4 568.799 284.927 565.209 284.913 561.605 C 284.913 561.605 284.913 561.591 284.913 561.591 L 284.913 561.591 L 284.913 113.632 L 284.913 113.409 L 284.913 113.409 L 284.913 113.409 L 284.913 113.395 C 284.914 113.119 284.918 112.844 284.925 112.568 Z  M 500 629.126 M 284.913 561.591 C 284.913 561.591 284.913 561.605 284.913 561.605 L 284.913 561.591 L 284.913 561.591 Z  M 392.943 248.437 C 401.469 248.416 409.653 251.786 415.692 257.804 C 421.676 263.788 425.766 271.228 429.405 276.206 L 431.75 274.194 C 444.356 261.734 464.64 261.734 477.247 274.194 L 495.649 292.596 C 497.648 292.381 499.656 292.271 501.666 292.264 C 518.717 292.222 535.085 298.962 547.163 310.998 L 620.429 384.265 C 645.39 409.327 645.39 449.854 620.429 474.916 L 587.307 508.038 C 562.245 532.999 521.718 532.999 496.656 508.038 L 423.389 434.772 C 409.865 421.214 403.114 402.317 404.987 383.258 L 401.636 379.908 L 386.253 364.856 C 373.792 352.395 374.124 331.82 386.585 319.359 L 389.603 316.351 C 384.572 313.086 376.639 309.746 370.195 303.301 C 357.735 290.695 357.735 270.411 370.195 257.804 C 376.235 251.788 384.418 248.418 392.943 248.437 Z  M 392.943 269.847 C 390.224 269.847 387.377 270.725 385.246 272.856 C 380.986 277.127 380.986 283.989 385.246 288.25 C 387.045 290.048 394.87 294.437 401.647 298.955 C 405.03 301.203 408.412 303.258 411.346 307.979 C 413.171 310.871 413.991 314.284 413.679 317.689 C 413.262 321.543 411.217 324.84 409.001 327.056 L 408.669 327.72 L 401.636 334.742 C 399.626 336.733 398.495 339.445 398.495 342.274 C 398.495 345.103 399.626 347.814 401.636 349.805 L 409.001 357.502 L 469.893 296.61 L 462.185 289.245 C 460.195 287.242 457.488 286.115 454.664 286.115 C 451.841 286.115 449.134 287.242 447.144 289.245 L 439.436 296.953 C 437.06 299.33 432.842 301.085 429.074 300.957 C 425.305 300.839 422.672 299.33 420.713 297.949 C 416.784 295.187 414.686 292.093 412.341 288.913 C 407.706 282.597 403.028 275.243 400.64 272.856 L 400.298 272.856 C 398.21 270.897 395.588 269.847 392.943 269.847 Z  M 501.666 313.675 C 490.746 313.675 479.966 317.978 471.563 326.382 L 438.772 359.172 C 423.303 374.641 422.468 398.567 435.432 415.374 L 460.172 390.602 L 475.588 406.018 L 450.163 431.443 L 466.884 448.164 L 492.309 422.739 L 507.703 438.133 L 482.278 463.558 L 498.668 479.948 L 524.767 454.855 L 539.476 470.249 L 514.062 494.999 C 530.967 509.755 556.416 508.88 572.266 492.998 L 605.378 459.865 C 613.448 451.857 617.986 440.959 617.986 429.591 C 617.986 418.222 613.448 407.324 605.378 399.316 L 532.111 326.371 C 524.043 318.275 513.095 313.706 501.666 313.664 L 501.666 313.675 Z " fill-rule="evenodd" fill="rgb(255,82,151)"/></g></svg>