<?xml version="1.0" encoding="UTF-8" standalone="no"?><!-- Generator: Gravit.io --><svg xmlns="http://www.w3.org/2000/svg" xmlns:xlink="http://www.w3.org/1999/xlink" style="isolation:isolate" viewBox="0 0 1000 1000" width="1000pt" height="1000pt"><defs><clipPath id="_clipPath_RWF4RvXK112wpEmFfdbKm1fECi0qmq0i"><rect width="1000" height="1000"/></clipPath></defs><g clip-path="url(#_clipPath_RWF4RvXK112wpEmFfdbKm1fECi0qmq0i)"><g clip-path="url(#_clipPath_S2Citj9PMQM4hhs01ZHXz2LPDv0ciWCG)"><text transform="matrix(1.156,0,0,1,90.853,894.863)" style="font-family:'Chicle';font-weight:400;font-size:225px;font-style:normal;fill:#ff5297;stroke:none;">heartbeat</text></g><defs><clipPath id="_clipPath_S2Citj9PMQM4hhs01ZHXz2LPDv0ciWCG"><rect x="0" y="0" width="865" height="350" transform="matrix(1.156,0,0,1,0,650)"/></clipPath></defs><g><path d=" M 140.076 25 C 132.958 26.354 127.85 32.637 127.977 39.881 L 127.977 635.119 C 127.977 643.304 134.674 650 142.858 650 L 857.144 650 C 865.329 650 872.025 643.304 872.025 635.119 L 872.025 39.881 C 872.025 31.696 865.329 25 857.144 25 L 140.061 25 L 140.076 25 Z  M 157.739 54.762 L 842.263 54.762 L 842.263 620.238 L 157.739 620.238 L 157.739 352.381 L 261.906 352.381 C 265.891 352.492 269.752 350.984 272.605 348.199 L 315.849 304.94 L 352.129 402.143 C 354.391 408.244 360.314 412.202 366.832 411.845 C 373.327 411.542 378.867 407.041 380.492 400.744 L 432.099 195.193 L 455.358 546.786 C 455.973 553.735 461.341 559.32 468.26 560.208 C 475.195 561.128 481.83 557.079 484.183 550.491 L 562.308 316.592 L 605.567 403.542 C 608.007 408.78 613.305 412.158 619.049 412.158 C 624.808 412.158 630.09 408.78 632.531 403.557 L 658.111 352.381 L 727.397 352.381 C 732.576 361.28 741.98 367.262 752.977 367.262 C 769.414 367.262 782.739 353.937 782.739 337.5 C 782.739 321.063 769.414 307.738 752.977 307.738 C 741.995 307.738 732.576 313.72 727.397 322.619 L 648.811 322.619 C 643.072 322.56 637.817 325.825 635.329 330.997 L 619.049 363.542 L 573.007 271.458 C 570.341 266.059 564.68 262.801 558.672 263.209 C 552.663 263.616 547.494 267.608 545.582 273.318 L 480.001 469.568 L 455.358 98.467 C 455.122 94.431 453.254 90.664 450.183 88.034 C 447.112 85.404 443.103 84.137 439.079 84.524 C 432.811 85.12 427.597 89.595 426.058 95.699 L 363.29 347.277 L 335.373 272.872 C 333.693 268.021 329.633 264.377 324.629 263.229 C 319.606 262.101 314.355 263.635 310.73 267.292 L 255.388 322.619 L 157.739 322.619 L 157.739 54.762 Z " fill="rgb(102,143,255)"/><path d=" M 764.565 87.74 C 788.511 87.74 807.692 106.921 807.692 130.867 C 807.692 154.813 761.021 207.471 711.907 248.156 C 662.793 206.25 616.122 153.592 616.122 130.867 C 616.122 106.921 635.303 87.74 659.249 87.74 C 687.961 87.74 711.907 123.659 711.907 123.659 C 711.907 123.659 734.632 87.74 764.565 87.74 Z  M 764.565 63.793 C 743.061 63.793 723.88 74.545 711.907 91.332 C 699.934 74.557 680.753 63.793 659.249 63.793 C 641.449 63.758 624.368 70.814 611.782 83.4 C 599.196 95.986 592.14 113.067 592.175 130.867 C 592.175 183.525 711.907 279.31 711.907 279.31 C 711.907 279.31 831.639 183.525 831.639 130.867 C 831.639 93.726 801.706 63.793 764.565 63.793 Z " fill="rgb(102,143,255)"/></g></g></svg>