<?xml version="1.0" encoding="UTF-8" standalone="no"?><!-- Generator: Gravit.io --><svg xmlns="http://www.w3.org/2000/svg" xmlns:xlink="http://www.w3.org/1999/xlink" style="isolation:isolate" viewBox="0 0 1000 1000" width="1000pt" height="1000pt"><defs><clipPath id="_clipPath_oS3jq9bvUVV4E8Hi0p7Wun49Eo1IB9dJ"><rect width="1000" height="1000"/></clipPath></defs><g clip-path="url(#_clipPath_oS3jq9bvUVV4E8Hi0p7Wun49Eo1IB9dJ)"><g clip-path="url(#_clipPath_VO9Kk3HwFTFXrYprnusspCw8QKA773H9)"><text transform="matrix(1.156,0,0,1,61.59,894.863)" style="font-family:'Chicle';font-weight:400;font-size:225px;font-style:normal;fill:#668fff;stroke:none;">high chair</text></g><defs><clipPath id="_clipPath_VO9Kk3HwFTFXrYprnusspCw8QKA773H9"><rect x="0" y="0" width="865" height="350" transform="matrix(1.156,0,0,1,0,650)"/></clipPath></defs><path d=" M 348.647 629.853 C 348.461 640.747 359.419 649.851 372.791 650 L 373.162 650 C 386.534 650 397.677 641.195 397.863 630.45 L 400.649 469.425 L 573.739 469.425 L 643.756 636.42 C 645.849 641.387 650.312 645.482 656.164 647.805 C 662.015 650.128 668.775 650.488 674.957 648.806 C 681.271 647.165 686.286 643.583 689.257 638.807 C 692.229 634.032 692.6 628.659 690.557 623.734 L 543.839 273.926 L 605.869 273.926 C 613.483 273.926 619.798 268.851 619.798 262.733 L 619.798 229.304 C 619.798 206.471 596.583 187.816 568.168 187.816 L 417.921 187.816 L 403.992 66.935 C 401.391 43.058 376.876 25 346.976 25 L 322.089 25 C 314.475 25 308.16 30.074 308.16 36.193 L 308.16 230.498 C 308.16 248.257 325.246 273.926 351.99 273.926 L 354.776 273.926 C 354.776 274.522 354.59 275.119 354.59 275.567 L 348.647 629.853 L 348.647 629.853 Z  M 557.025 429.728 L 401.391 429.728 L 403.992 276.313 C 403.992 275.567 403.992 274.821 403.806 274.075 L 493.88 274.075 Q 493.694 276.761 557.025 429.728 Z  M 336.204 230.498 L 336.204 47.385 L 347.161 47.385 C 362.576 47.385 375.019 56.638 376.319 69.025 L 391.363 200.203 C 392.036 205.973 398.079 210.376 405.292 210.351 L 568.168 210.351 C 581.354 210.351 591.94 218.857 591.94 229.453 L 591.94 232.886 L 396.934 232.886 C 391.734 232.886 387.648 236.169 387.648 240.347 C 387.648 244.526 391.734 247.809 396.934 247.809 L 591.754 247.809 L 591.754 251.689 L 352.176 251.689 C 346.047 251.54 336.204 239.75 336.204 230.498 L 336.204 230.498 Z " fill="rgb(255,82,151)"/></g></svg>