<?xml version="1.0" encoding="UTF-8" standalone="no"?><!-- Generator: Gravit.io --><svg xmlns="http://www.w3.org/2000/svg" xmlns:xlink="http://www.w3.org/1999/xlink" style="isolation:isolate" viewBox="0 0 1000 1000" width="1000pt" height="1000pt"><defs><clipPath id="_clipPath_lH15tFUnnIgk9cFiE9CIBv0QaONoTM6l"><rect width="1000" height="1000"/></clipPath></defs><g clip-path="url(#_clipPath_lH15tFUnnIgk9cFiE9CIBv0QaONoTM6l)"><g clip-path="url(#_clipPath_46aBBJGoIb6MwvyS7IIqDoxAa9B7C0SE)"><text transform="matrix(1.156,0,0,1,40.78,894.863)" style="font-family:'Chicle';font-weight:400;font-size:225px;font-style:normal;fill:#668fff;stroke:none;">humidifier</text></g><defs><clipPath id="_clipPath_46aBBJGoIb6MwvyS7IIqDoxAa9B7C0SE"><rect x="0" y="0" width="865" height="350" transform="matrix(1.156,0,0,1,0,650)"/></clipPath></defs><path d=" M 669.014 566.339 C 646.753 617.774 618.809 629.966 609.133 632.71 L 608.726 632.825 C 607.51 633.176 606.251 633.434 604.969 633.596 L 394.96 633.596 L 394.96 633.596 L 394.96 633.596 L 394.96 633.596 C 393.706 633.424 392.477 633.16 391.289 632.808 L 390.753 632.661 C 381.08 629.918 353.154 617.734 330.897 566.339 L 669.014 566.339 Z  M 675.416 549.934 C 679.07 539.541 682.478 527.86 685.512 514.731 C 688.157 503.331 690.006 491.832 691.05 480.282 L 691.05 480.282 C 699.981 383.776 648.396 310.433 610.722 256.89 C 608.232 253.346 605.785 249.885 603.423 246.506 Q 602.715 245.472 602.007 244.488 L 601.62 243.98 C 594.535 234.006 585.646 224.867 575.213 216.843 C 560.074 237.322 531.485 250.414 499.932 250.427 L 499.932 250.427 L 499.932 250.427 C 468.382 250.41 439.802 237.311 424.68 216.828 C 414.333 224.777 405.508 233.826 398.459 243.701 C 397.987 244.308 397.558 244.931 397.128 245.538 L 396.399 246.572 C 394.102 249.852 391.676 253.33 389.186 256.857 C 351.576 310.302 300.077 383.497 308.75 479.774 C 309.809 491.473 311.687 503.12 314.374 514.665 C 317.414 527.822 320.829 539.525 324.491 549.934 L 675.416 549.934 Z  M 500.533 136.877 C 504.64 136.877 508.343 134.986 509.914 132.087 C 511.486 129.187 510.617 125.85 507.713 123.631 C 504.809 121.412 500.442 120.748 496.648 121.949 C 492.854 123.15 490.38 125.979 490.38 129.117 C 490.403 133.395 494.935 136.859 500.533 136.877 L 500.533 136.877 L 500.533 136.877 L 500.533 136.877 L 500.533 136.877 Z  M 468.183 92.454 C 472.29 92.454 475.992 90.564 477.564 87.664 C 479.136 84.765 478.267 81.427 475.363 79.208 C 472.459 76.989 468.092 76.325 464.297 77.526 C 460.503 78.727 458.029 81.557 458.029 84.695 C 458.111 88.943 462.623 92.362 468.183 92.388 L 468.183 92.454 L 468.183 92.454 L 468.183 92.454 L 468.183 92.454 Z  M 532.884 92.454 C 538.492 92.454 543.037 88.98 543.037 84.695 C 543.037 80.41 538.492 76.936 532.884 76.936 C 527.276 76.936 522.73 80.41 522.73 84.695 C 522.812 88.943 527.324 92.362 532.884 92.388 L 532.884 92.454 L 532.884 92.454 L 532.884 92.454 L 532.884 92.454 Z  M 435.833 47.966 C 439.942 47.966 443.645 46.074 445.216 43.172 C 446.786 40.271 445.913 36.932 443.005 34.714 C 440.097 32.497 435.726 31.837 431.932 33.043 C 428.139 34.249 425.67 37.083 425.679 40.223 C 425.703 44.498 430.238 47.957 435.833 47.966 L 435.833 47.966 L 435.833 47.966 L 435.833 47.966 L 435.833 47.966 Z  M 500.533 47.966 C 504.642 47.966 508.346 46.074 509.916 43.172 C 511.487 40.271 510.614 36.932 507.706 34.714 C 504.797 32.497 500.426 31.837 496.633 33.043 C 492.839 34.249 490.371 37.083 490.38 40.223 C 490.415 44.495 494.944 47.948 500.533 47.966 L 500.533 47.966 L 500.533 47.966 L 500.533 47.966 L 500.533 47.966 Z  M 565.234 47.966 C 569.343 47.966 573.047 46.074 574.617 43.172 C 576.187 40.271 575.315 36.932 572.406 34.714 C 569.498 32.497 565.127 31.837 561.333 33.043 C 557.54 34.249 555.072 37.083 555.08 40.223 C 555.116 44.495 559.644 47.948 565.234 47.966 L 565.234 47.966 L 565.234 47.966 L 565.234 47.966 L 565.234 47.966 Z  M 475.63 422.277 C 475.63 422.556 475.63 422.835 475.63 423.097 C 475.63 423.36 475.63 423.95 475.63 424.344 C 475.63 436.253 486.473 445.932 499.809 445.932 C 513.146 445.932 523.989 436.253 523.989 424.344 C 523.989 423.95 523.989 423.556 523.989 423.146 C 523.989 422.736 523.989 422.589 523.989 422.31 C 523.382 406.841 514.77 398.327 506.42 390.075 C 504.173 387.861 501.893 385.613 499.859 383.235 C 497.792 385.613 495.511 387.861 493.297 390.075 C 484.865 398.31 476.253 406.824 475.63 422.277 L 475.63 422.277 L 475.63 422.277 L 475.63 422.277 Z  M 532.601 609.81 L 507.995 609.81 C 503.465 609.81 499.793 606.138 499.793 601.608 C 499.793 597.078 503.465 593.406 507.995 593.406 L 532.601 593.406 C 537.131 593.406 540.803 597.078 540.803 601.608 C 540.803 606.138 537.131 609.81 532.601 609.81 L 532.601 609.81 L 532.601 609.81 L 532.601 609.81 Z  M 455.926 600.787 C 455.926 595.808 461.216 591.765 467.732 591.765 C 474.249 591.765 479.539 595.808 479.539 600.787 C 479.539 605.767 474.249 609.81 467.732 609.81 C 461.216 609.81 455.926 605.767 455.926 600.787 L 455.926 600.787 Z  M 500.533 113.993 C 508.549 113.993 515.776 117.684 518.841 123.343 C 521.907 129.003 520.207 135.517 514.536 139.846 C 508.865 144.175 500.339 145.466 492.936 143.118 C 485.533 140.769 480.711 135.243 480.72 129.117 C 480.755 120.769 489.609 114.011 500.533 113.993 L 500.533 113.993 L 500.533 113.993 L 500.533 113.993 L 500.533 113.993 Z  M 468.183 69.488 C 479.126 69.488 487.997 76.267 487.997 84.629 C 487.997 92.991 479.126 99.77 468.183 99.77 C 457.24 99.77 448.369 92.991 448.369 84.629 C 448.416 76.282 457.26 69.524 468.183 69.488 L 468.183 69.488 L 468.183 69.488 L 468.183 69.488 L 468.183 69.488 Z  M 532.884 69.488 C 543.827 69.488 552.698 76.267 552.698 84.629 C 552.698 92.991 543.827 99.77 532.884 99.77 C 521.941 99.77 513.07 92.991 513.07 84.629 C 513.105 76.278 521.956 69.515 532.884 69.488 L 532.884 69.488 L 532.884 69.488 L 532.884 69.488 L 532.884 69.488 Z  M 435.833 25 C 443.849 24.993 451.08 28.678 454.154 34.335 C 457.227 39.993 455.537 46.508 449.872 50.842 C 444.207 55.175 435.683 56.474 428.277 54.131 C 420.87 51.789 416.041 46.267 416.041 40.141 C 416.076 31.796 424.913 25.036 435.833 25 L 435.833 25 L 435.833 25 L 435.833 25 L 435.833 25 Z  M 500.533 25 C 511.476 25 520.347 31.779 520.347 40.141 C 520.347 48.503 511.476 55.282 500.533 55.282 C 489.591 55.282 480.72 48.503 480.72 40.141 C 480.743 31.786 489.6 25.018 500.533 25 L 500.533 25 L 500.533 25 L 500.533 25 L 500.533 25 Z  M 565.234 25 C 576.177 25 585.048 31.779 585.048 40.141 C 585.048 48.503 576.177 55.282 565.234 55.282 C 554.291 55.282 545.42 48.503 545.42 40.141 C 545.444 31.786 554.301 25.018 565.234 25 L 565.234 25 L 565.234 25 L 565.234 25 L 565.234 25 Z  M 499.793 462.336 C 477.418 462.336 459.209 445.292 459.209 424.344 C 459.209 423.999 459.209 423.655 459.209 423.31 C 459.193 423.076 459.193 422.84 459.209 422.605 C 459.75 400.066 472.414 387.549 481.666 378.412 C 486.817 373.31 491.279 368.914 491.624 364.862 C 491.624 360.332 495.296 356.66 499.826 356.66 C 504.356 356.66 508.028 360.332 508.028 364.862 C 508.372 368.914 512.834 373.31 517.985 378.412 C 527.237 387.549 539.901 400.066 540.443 422.605 C 540.459 422.84 540.459 423.076 540.443 423.31 C 540.443 423.655 540.443 423.999 540.443 424.344 C 540.377 445.292 522.168 462.336 499.793 462.336 L 499.793 462.336 L 499.793 462.336 L 499.793 462.336 Z  M 605.484 650 L 394.08 650 C 390.637 649.832 387.245 649.279 384.012 648.36 L 383.261 648.146 C 359.411 641.404 315.877 615.436 293.273 517.667 C 290.46 505.513 288.504 493.253 287.412 480.938 C 278.289 379.954 331.505 304.347 370.338 249.131 C 372.807 245.62 375.232 242.192 377.572 238.829 L 378.281 237.812 C 378.796 237.106 379.29 236.401 379.805 235.712 C 390.473 220.819 404.701 207.588 421.751 196.703 C 460.391 172.474 498.408 172.195 499.997 172.195 C 501.585 172.195 539.71 172.474 578.286 196.703 C 595.456 207.686 609.766 221.042 620.468 236.073 L 620.833 236.598 C 621.37 237.336 621.928 238.091 622.443 238.845 Q 625.942 243.881 629.699 249.163 C 668.596 304.495 721.898 380.249 712.539 481.496 C 711.43 493.596 709.488 505.642 706.721 517.585 C 684.181 615.075 640.818 641.175 616.84 648.031 L 616.067 648.261 C 612.819 649.216 609.405 649.802 605.935 650 L 605.484 650 L 605.484 650 L 605.484 650 L 605.484 650 Z  M 441.522 206.135 C 452.421 223.194 475.09 234.014 499.932 234.014 C 524.774 234.014 547.444 223.194 558.343 206.135 C 527.968 189.255 500.233 189.042 499.932 189.042 C 499.632 189.042 471.639 189.452 441.522 206.135 L 441.522 206.135 Z " fill-rule="evenodd" fill="rgb(255,82,151)"/></g></svg>