<?xml version="1.0" encoding="UTF-8" standalone="no"?><!-- Generator: Gravit.io --><svg xmlns="http://www.w3.org/2000/svg" xmlns:xlink="http://www.w3.org/1999/xlink" style="isolation:isolate" viewBox="0 0 1000 1000" width="1000pt" height="1000pt"><defs><clipPath id="_clipPath_kcLulDGJ4ZjUm6Hp4kWh45FtRQGFdJoK"><rect width="1000" height="1000"/></clipPath></defs><g clip-path="url(#_clipPath_kcLulDGJ4ZjUm6Hp4kWh45FtRQGFdJoK)"><g clip-path="url(#_clipPath_DSOB5I64qIbU8W0ABhUsXjrfDS13UqME)"><text transform="matrix(1.156,0,0,1,250.434,894.863)" style="font-family:'Chicle';font-weight:400;font-size:225px;font-style:normal;fill:#ff5297;stroke:none;">kitten</text></g><defs><clipPath id="_clipPath_DSOB5I64qIbU8W0ABhUsXjrfDS13UqME"><rect x="0" y="0" width="865" height="350" transform="matrix(1.156,0,0,1,0,650)"/></clipPath></defs><g><path d=" M 492.405 429.899 C 468.925 465.101 413.257 513.288 395.921 519.326 L 384.868 523.174 L 384.868 598.865 L 395.789 602.714 C 403.306 605.411 409.408 610.559 413.273 617.105 L 384.868 617.105 C 366.743 617.105 351.974 602.336 351.974 584.211 L 351.974 507.451 C 346.19 511.309 340.628 514.773 335.526 517.718 L 335.526 584.211 C 335.526 611.316 357.763 633.553 384.868 633.553 L 434.211 633.553 C 434.173 612.702 420.991 594.141 401.316 587.237 L 401.316 534.868 C 417.843 529.122 460.216 494.51 489.327 460.678 L 492.405 429.899 Z " fill-rule="evenodd" fill="rgb(102,143,255)"/><path d=" M 645.003 438.383 L 615.132 498.125 L 615.132 598.865 L 626.053 602.714 C 633.569 605.411 639.671 610.559 643.536 617.105 L 615.132 617.105 C 597.007 617.105 582.237 602.336 582.237 584.211 L 582.237 460.854 L 565.789 482.782 L 565.789 584.211 C 565.789 611.316 588.026 633.553 615.132 633.553 L 664.474 633.553 C 664.436 612.702 651.254 594.141 631.579 587.237 L 631.579 501.974 L 664.474 436.184 L 664.474 426.35 C 658.479 431.365 651.964 435.406 645.003 438.383 Z " fill-rule="evenodd" fill="rgb(102,143,255)"/><path d=" M 615.484 238.625 L 614.803 242.023 L 614.622 243.059 L 614.309 244.013 C 610.313 255.921 602.664 271.711 582.237 271.711 L 360.197 271.711 C 345.467 271.696 331.073 276.108 318.882 284.375 L 313.289 288.224 L 306.612 286.941 C 275.622 281.04 253.223 253.915 253.289 222.368 C 253.289 198.405 278.668 173.026 302.632 173.026 L 307.714 173.026 C 310.789 173.026 314.26 173.092 317.993 173.158 C 322.352 173.224 327.171 173.289 332.319 173.289 C 364.687 173.289 405.049 170.066 430.296 144.951 C 443.01 132.237 450.658 112.188 450.658 91.365 C 450.658 81.793 443.47 74.342 434.211 74.342 L 434.211 74.342 C 424.836 74.342 417.763 81.414 417.763 90.789 C 417.817 101.337 413.654 111.468 406.201 118.931 C 386.99 138.01 349.013 140.263 322.105 140.263 C 318.487 140.263 315.23 140.197 312.401 140.197 L 307.829 140.132 L 302.632 140.132 C 260.362 140.132 220.395 180.099 220.395 222.368 C 220.395 261.694 250.082 299.26 279.375 316.036 L 289.326 321.826 L 287.336 333.125 C 286.562 337.697 286.184 341.809 286.184 345.724 C 286.208 367.786 296.082 388.685 313.109 402.714 L 319.079 407.664 L 319.079 420.888 L 318.882 422.007 C 316.447 439.737 299.293 459.523 277.056 483.618 C 274.359 486.579 271.859 489.276 269.737 491.645 L 269.737 600.674 C 269.737 618.799 284.507 633.569 302.632 633.569 L 331.036 633.569 C 327.171 627.023 321.069 621.875 313.553 619.178 L 302.632 615.329 L 302.632 523.191 L 313.684 519.375 C 336.234 511.48 406.464 463.289 418.799 430.395 L 422.845 419.737 L 501.743 419.737 L 499.934 437.862 L 483.553 601.431 C 483.973 619.296 498.578 633.558 516.447 633.553 L 544.967 633.553 C 541.382 627.385 535.789 622.434 528.849 619.605 L 516.645 614.605 L 518.832 601.628 L 533.141 515.724 L 533.799 511.743 L 536.184 508.52 L 585.526 442.73 L 590.461 436.184 L 615.132 436.184 C 658.635 436.184 690.872 396.743 697.5 335.773 L 705.893 260.135 C 711.862 258.512 717.62 256.336 723.128 253.688 L 713.816 337.5 C 705.592 414.079 662.418 452.632 615.132 452.632 L 598.684 452.632 L 549.342 518.421 L 535.016 604.326 C 553.607 611.877 565.773 629.934 565.789 650 L 516.447 650 C 489.342 650 467.105 627.763 467.105 600.658 L 483.553 436.184 L 434.211 436.184 C 419.309 475.757 342.73 526.645 319.079 534.868 L 319.079 603.684 C 338.754 610.588 351.936 629.149 351.974 650 L 302.632 650 C 275.526 650 253.289 627.763 253.289 600.658 L 253.289 485.526 C 264.589 471.645 300.066 438.24 302.632 419.737 L 302.632 415.362 C 282.582 398.734 269.737 373.684 269.737 345.724 C 269.749 340.571 270.223 335.43 271.151 330.362 C 235.23 309.688 203.947 265.789 203.947 222.368 C 203.947 170.724 250.987 123.684 302.632 123.684 L 307.895 123.684 C 311.497 123.684 316.447 123.816 322.105 123.816 C 344.72 123.816 379.605 122.204 394.572 107.237 C 397.336 104.539 401.316 99.145 401.316 90.789 C 401.316 72.286 415.707 57.895 434.211 57.895 L 434.211 57.895 C 452.714 57.895 467.105 72.862 467.105 91.365 C 467.105 115.789 458.372 140.132 441.859 156.579 C 411.924 186.382 365.658 189.737 332.319 189.737 C 322.862 189.737 314.457 189.474 307.714 189.474 L 302.632 189.474 C 287.911 189.474 269.737 207.648 269.737 222.368 C 269.595 246.054 286.422 266.448 309.704 270.806 C 324.586 260.658 342.185 255.24 360.197 255.263 L 582.237 255.263 C 589.178 255.263 594.062 252.697 598.684 238.816 L 601.49 224.789 C 605.75 229.745 610.432 234.391 615.484 238.625 Z " fill-rule="evenodd" fill="rgb(102,143,255)"/><path d=" M 779.605 71.908 L 779.605 156.579 C 779.605 201.299 735.592 255.263 680.921 255.263 C 626.25 255.263 582.237 201.299 582.237 156.579 L 582.237 71.908 L 596.431 89.704 L 606.003 101.579 L 618.602 92.977 C 636.464 80.757 657.977 74.342 680.921 74.342 C 703.865 74.342 725.378 80.757 743.257 92.977 L 755.905 101.579 L 765.411 89.704 L 779.605 71.908 Z  M 796.053 25 L 752.549 79.424 C 732.895 65.987 708.026 57.895 680.921 57.895 C 653.816 57.895 628.947 65.987 609.293 79.424 L 565.789 25 L 565.789 156.579 C 565.789 211.069 617.319 271.711 680.921 271.711 C 744.523 271.711 796.053 211.053 796.053 156.579 L 796.053 25 Z " fill="rgb(102,143,255)"/><path d=" M 680.921 205.921 L 666.464 197.122 L 669.803 189.474 L 691.908 189.474 L 695.444 197.039 L 680.921 205.921 Z " fill="rgb(102,143,255)"/><path d=" M 693.257 197.697 L 668.586 197.697 C 666.322 197.679 664.492 195.849 664.474 193.586 C 664.474 191.332 666.332 189.474 668.586 189.474 L 693.257 189.474 C 695.51 189.474 697.368 191.332 697.368 193.586 C 697.368 195.839 695.51 197.697 693.257 197.697 Z " fill="rgb(102,143,255)"/><path d=" M 654.909 148.355 C 654.909 156.724 648.172 163.462 639.803 163.462 C 635.791 163.478 631.939 161.892 629.103 159.055 C 626.266 156.218 624.68 152.367 624.696 148.355 C 624.696 140.012 631.46 133.249 639.803 133.249 C 648.146 133.249 654.909 140.012 654.909 148.355 Z " fill="rgb(102,143,255)"/><path d=" M 737.146 148.355 C 737.146 156.724 730.409 163.462 722.04 163.462 C 718.028 163.478 714.176 161.892 711.34 159.055 C 708.503 156.218 706.917 152.367 706.933 148.355 C 706.933 140.012 713.696 133.249 722.04 133.249 C 730.383 133.249 737.146 140.012 737.146 148.355 Z " fill="rgb(102,143,255)"/></g></g></svg>