<?xml version="1.0" encoding="UTF-8" standalone="no"?><!-- Generator: Gravit.io --><svg xmlns="http://www.w3.org/2000/svg" xmlns:xlink="http://www.w3.org/1999/xlink" style="isolation:isolate" viewBox="0 0 1000 1000" width="1000pt" height="1000pt"><defs><clipPath id="_clipPath_6sHgOWWyiHFE66rQOZ8xtHxPxWi4JJx8"><rect width="1000" height="1000"/></clipPath></defs><g clip-path="url(#_clipPath_6sHgOWWyiHFE66rQOZ8xtHxPxWi4JJx8)"><g clip-path="url(#_clipPath_kXVi0XBon4yDQffFmNUGJuxcIFnzjmYm)"><text transform="matrix(1.156,0,0,1,286.72,894.863)" style="font-family:'Chicle';font-weight:400;font-size:225px;font-style:normal;fill:#668fff;stroke:none;">lamb</text></g><defs><clipPath id="_clipPath_kXVi0XBon4yDQffFmNUGJuxcIFnzjmYm"><rect x="0" y="0" width="865" height="350" transform="matrix(1.156,0,0,1,0,650)"/></clipPath></defs><path d=" M 458.794 70 C 426.756 70 398.584 83.478 375.081 101.928 C 366.436 99.994 358.233 97.619 348.318 97.619 C 272.365 97.619 210.222 159.762 210.222 235.714 C 210.222 237.979 210.968 238.946 211.079 240.907 C 178.82 266.04 154.984 302.138 154.984 346.19 C 154.984 398.308 184.343 445.232 228.341 469.62 C 237.311 486.373 250.011 500.84 265.461 511.905 L 265.461 620 C 265.461 636.557 277.836 650 293.08 650 L 293.08 650 C 308.323 650 320.699 636.557 320.699 620 L 320.699 429.048 L 266.317 429.048 L 259.412 425.595 C 232.235 413.305 210.222 379.969 210.222 346.19 C 210.222 315.119 227.07 288.798 252.507 274.547 L 268.913 265.046 L 266.317 246.928 C 262.947 223.208 270.058 199.196 285.8 181.136 C 301.543 163.077 324.36 152.755 348.318 152.857 C 355.968 152.857 363.95 154.597 372.484 157.166 L 388.034 161.474 L 400.103 150.261 C 415.474 134.321 436.65 125.292 458.794 125.238 C 484.894 125.238 507.238 137.225 522.677 156.31 L 537.315 174.428 L 558.029 163.214 C 569.871 156.466 583.259 152.898 596.889 152.857 C 627.961 152.857 654.171 169.788 668.533 195.142 L 675.438 207.239 L 689.247 208.951 C 720.979 212.721 747.605 234.633 757.411 265.046 C 728.566 259.391 698.797 268.461 678.006 289.24 C 643.606 323.851 643.606 379.743 678.006 414.354 C 682.011 418.359 687.093 421.922 692.7 425.595 C 678.227 451.833 647.819 456.667 647.819 456.667 L 624.508 460.119 L 624.508 620 C 624.508 636.557 636.884 650 652.127 650 L 652.127 650 C 667.371 650 679.746 636.557 679.746 620 L 679.746 504.144 C 699.825 497.35 726.45 483.54 743.629 447.166 C 782.02 458.186 822.896 460.23 835.96 447.166 C 854.962 428.191 842.008 350.61 816.129 307.358 C 816.875 301.834 817.842 296.587 817.842 290.952 C 817.842 224.39 769.398 170.754 706.509 158.022 C 681.569 123.111 643.068 97.619 596.889 97.619 C 579.959 97.619 565.707 104.192 551.152 109.716 C 526.654 86.516 495.362 70 458.794 70 Z  M 624.508 235.714 C 608.765 235.714 569.27 269.796 569.27 309.07 C 569.27 334.646 581.699 346.19 596.889 346.19 C 612.08 346.19 624.508 327.63 624.508 304.762 L 624.508 235.714 Z  M 734.984 318.571 C 750.175 318.571 762.603 331 762.603 346.19 C 762.603 361.381 750.175 373.81 734.984 373.81 C 719.794 373.81 707.365 361.381 707.365 346.19 C 707.365 331 719.794 318.571 734.984 318.571 Z  M 541.651 429.048 L 541.651 461.859 C 526.985 475.669 508.094 484.286 486.413 484.286 C 466.886 484.286 449.182 477.05 434.627 465.284 L 413.913 448.906 L 396.651 468.736 C 388.559 477.823 368.176 485.142 368.176 485.142 L 348.318 491.19 L 348.318 620 C 348.318 636.557 360.693 650 375.937 650 L 375.937 650 C 391.18 650 403.556 636.557 403.556 620 L 403.556 530.879 C 408.306 528.614 413.692 522.483 419.105 518.81 C 439.157 530.575 461.28 539.524 486.413 539.524 C 506.022 539.524 524.803 535.85 541.651 528.31 L 541.651 620 C 541.651 636.557 554.027 650 569.27 650 L 569.27 650 C 584.513 650 596.889 636.557 596.889 620 L 596.889 429.048 L 541.651 429.048 Z " fill="rgb(255,82,151)"/></g></svg>