<?xml version="1.0" encoding="UTF-8" standalone="no"?><!-- Generator: Gravit.io --><svg xmlns="http://www.w3.org/2000/svg" xmlns:xlink="http://www.w3.org/1999/xlink" style="isolation:isolate" viewBox="0 0 1000 1000" width="1000pt" height="1000pt"><defs><clipPath id="_clipPath_TdS2vkPi9GSNSjamkuicbHvzQ0dC5erG"><rect width="1000" height="1000"/></clipPath></defs><g clip-path="url(#_clipPath_TdS2vkPi9GSNSjamkuicbHvzQ0dC5erG)"><g clip-path="url(#_clipPath_JN1d6Cr3kXsv2CosQ0D1uCWyrbPRsUy6)"><text transform="matrix(1.156,0,0,1,201.168,804.723)" style="font-family:'Chicle';font-weight:400;font-size:180px;font-style:normal;fill:#668fff;stroke:none;">morning </text><text transform="matrix(1.156,0,0,1,203.04,957.057)" style="font-family:'Chicle';font-weight:400;font-size:180px;font-style:normal;fill:#668fff;stroke:none;">sickness</text></g><defs><clipPath id="_clipPath_JN1d6Cr3kXsv2CosQ0D1uCWyrbPRsUy6"><rect x="0" y="0" width="865" height="350" transform="matrix(1.156,0,0,1,0,650)"/></clipPath></defs><path d=" M 500 25 C 327.509 25 187.5 165.009 187.5 337.5 C 187.5 509.991 327.509 650 500 650 C 672.491 650 812.5 509.991 812.5 337.5 C 812.5 165.009 672.491 25 500 25 Z  M 500 43.939 C 662.244 43.939 793.561 175.256 793.561 337.5 C 793.561 499.744 662.244 631.061 500 631.061 C 337.756 631.061 206.439 499.744 206.439 337.5 C 206.439 175.256 337.756 43.939 500 43.939 Z  M 354.811 311.496 L 342.159 325.625 C 342.159 325.625 365.133 346.97 395.833 346.97 C 426.534 346.97 449.508 325.625 449.508 325.625 L 436.856 311.496 C 436.856 311.496 417.396 328.03 395.833 328.03 C 374.271 328.03 354.811 311.496 354.811 311.496 Z  M 563.144 311.496 L 550.492 325.625 C 550.492 325.625 573.466 346.97 604.167 346.97 C 634.867 346.97 657.841 325.625 657.841 325.625 L 645.189 311.496 C 645.189 311.496 625.729 328.03 604.167 328.03 C 582.604 328.03 563.144 311.496 563.144 311.496 Z  M 481.061 394.318 C 418.4 394.318 367.424 445.294 367.424 507.955 L 367.424 517.424 L 405.303 517.424 L 405.303 498.485 L 388.286 498.485 C 390.464 477.028 399.792 456.926 414.773 441.411 L 414.773 507.955 C 414.773 528.788 431.818 545.833 452.652 545.833 C 455.985 545.833 459.053 544.839 462.121 544.025 L 462.121 574.242 C 462.121 595.076 479.167 612.121 500 612.121 C 520.833 612.121 537.879 595.076 537.879 574.242 L 537.879 572.434 C 540.947 573.248 544.015 574.242 547.348 574.242 C 568.182 574.242 585.227 557.197 585.227 536.364 L 585.227 441.411 C 600.208 456.926 609.536 477.028 611.714 498.485 L 594.697 498.485 L 594.697 517.424 L 632.576 517.424 L 632.576 507.955 C 632.576 445.294 581.6 394.318 518.939 394.318 L 481.061 394.318 Z  M 481.061 413.258 L 518.939 413.258 C 536.402 413.258 552.491 418.068 566.288 426.354 L 566.288 536.364 C 566.288 546.941 557.926 555.303 547.348 555.303 C 542.689 555.29 538.203 553.533 534.773 550.379 L 518.939 536.108 L 518.939 574.242 C 518.939 584.82 510.578 593.182 500 593.182 C 489.422 593.182 481.061 584.82 481.061 574.242 L 481.061 507.699 L 465.227 521.97 C 461.797 525.124 457.311 526.881 452.652 526.894 C 442.074 526.894 433.712 518.532 433.712 507.955 L 433.712 426.354 C 448.004 417.749 464.378 413.22 481.061 413.258 Z " fill="rgb(255,82,151)"/></g></svg>