<?xml version="1.0" encoding="UTF-8" standalone="no"?><!-- Generator: Gravit.io --><svg xmlns="http://www.w3.org/2000/svg" xmlns:xlink="http://www.w3.org/1999/xlink" style="isolation:isolate" viewBox="0 0 1000 1000" width="1000pt" height="1000pt"><defs><clipPath id="_clipPath_x440XtzOUEaI9QEYa354b4Paech60nVZ"><rect width="1000" height="1000"/></clipPath></defs><g clip-path="url(#_clipPath_x440XtzOUEaI9QEYa354b4Paech60nVZ)"><g clip-path="url(#_clipPath_UbVy30g4OHfxY61Jmo6Du0KzgJ08znAZ)"><text transform="matrix(1.156,0,0,1,41.734,887.1)" style="font-family:'Chicle';font-weight:400;font-size:200px;font-style:normal;fill:#668fff;stroke:none;">outlet cover</text></g><defs><clipPath id="_clipPath_UbVy30g4OHfxY61Jmo6Du0KzgJ08znAZ"><rect x="0" y="0" width="865" height="350" transform="matrix(1.156,0,0,1,0,650)"/></clipPath></defs><path d=" M 191.526 25 L 186.379 30.165 C 147.096 67.371 123.75 125.313 123.75 190.441 C 123.75 255.57 147.096 313.511 186.36 350.717 L 191.544 355.882 L 386.857 355.882 L 392.004 350.717 C 431.287 313.511 454.632 255.57 454.632 190.441 C 454.632 125.313 431.287 67.371 392.022 30.165 L 386.838 25 L 191.526 25 Z  M 208.199 61.765 L 370.184 61.765 C 398.493 91.066 417.868 136.801 417.868 190.441 C 417.868 244.081 398.474 289.816 370.184 319.118 L 208.199 319.118 C 179.89 289.816 160.515 244.081 160.515 190.441 C 160.515 136.801 179.908 91.066 208.199 61.765 Z  M 215.662 98.529 L 215.662 190.441 L 252.426 190.441 L 252.426 98.529 L 215.662 98.529 Z  M 325.956 98.529 L 325.956 190.441 L 362.721 190.441 L 362.721 98.529 L 325.956 98.529 Z  M 289.191 227.206 C 268.934 227.206 252.426 243.713 252.426 263.971 L 252.426 282.353 L 325.956 282.353 L 325.956 263.971 C 325.956 243.713 309.449 227.206 289.191 227.206 Z  M 613.143 319.118 L 607.996 324.283 C 568.713 361.489 545.368 419.43 545.368 484.559 C 545.368 549.687 568.713 607.629 607.978 644.835 L 613.162 650 L 808.474 650 L 813.621 644.835 C 852.904 607.629 876.25 549.687 876.25 484.559 C 876.25 419.43 852.904 361.489 813.64 324.283 L 808.456 319.118 L 613.143 319.118 Z  M 629.816 355.882 L 791.801 355.882 C 820.11 385.184 839.485 430.919 839.485 484.559 C 839.485 538.199 820.092 583.934 791.801 613.235 L 629.816 613.235 C 601.507 583.934 582.132 538.199 582.132 484.559 C 582.132 430.919 601.526 385.184 629.816 355.882 Z  M 451.186 301.988 L 447.914 351.561 L 458.417 352.139 L 460.5 320.551 L 529.635 399.446 L 537.5 392.554 L 468.362 313.655 L 499.953 315.741 L 500.763 305.257 L 451.186 301.988 Z " fill-rule="evenodd" fill="rgb(255,82,151)"/></g></svg>