<?xml version="1.0" encoding="UTF-8" standalone="no"?><!-- Generator: Gravit.io --><svg xmlns="http://www.w3.org/2000/svg" xmlns:xlink="http://www.w3.org/1999/xlink" style="isolation:isolate" viewBox="0 0 1000 1000" width="1000pt" height="1000pt"><defs><clipPath id="_clipPath_EfMnzQWRBi7ceICRpi7zkXNGCefrapXz"><rect width="1000" height="1000"/></clipPath></defs><g clip-path="url(#_clipPath_EfMnzQWRBi7ceICRpi7zkXNGCefrapXz)"><g clip-path="url(#_clipPath_Rgxpmo7x7yUdFHSbQPbFk5TQIjiK2VAz)"><text transform="matrix(1.156,0,0,1,32.092,880.89)" style="font-family:'Chicle';font-weight:400;font-size:180px;font-style:normal;fill:#ff5297;stroke:none;">rocking chair</text></g><defs><clipPath id="_clipPath_Rgxpmo7x7yUdFHSbQPbFk5TQIjiK2VAz"><rect x="0" y="0" width="865" height="350" transform="matrix(1.156,0,0,1,0,650)"/></clipPath></defs><path d=" M 853.045 523.949 C 850.768 520.076 847.043 517.269 842.693 516.149 C 838.342 515.028 833.725 515.685 829.86 517.975 C 783.001 545.85 733.232 568.512 681.442 585.556 L 639.561 397.164 L 686.158 397.164 C 695.505 397.164 703.082 389.587 703.082 380.241 C 703.082 370.894 695.505 363.317 686.158 363.317 L 584.618 363.317 L 584.618 346.394 C 584.563 299.684 546.711 261.832 500.001 261.777 L 324.336 261.777 L 279.666 38.451 C 277.759 29.363 268.886 23.51 259.782 25.332 C 250.677 27.155 244.741 35.974 246.48 45.095 L 314.173 383.563 C 314.856 386.24 316.128 388.731 317.896 390.854 C 318.369 391.484 318.886 392.079 319.443 392.636 C 320.464 393.52 321.588 394.277 322.791 394.891 C 323.367 395.268 323.967 395.607 324.586 395.907 C 326.548 396.714 328.645 397.14 330.767 397.164 L 360.437 397.164 L 318.389 586.244 C 266.584 569.204 216.888 546.323 170.258 518.043 C 162.249 513.224 151.85 515.81 147.031 523.819 C 142.212 531.828 144.798 542.227 152.807 547.046 C 206.988 580.117 265.159 606.155 325.916 624.532 C 326.336 624.661 326.654 624.957 327.089 625.053 C 327.568 625.158 328.04 625.146 328.519 625.211 C 383.67 641.509 440.864 649.856 498.373 650 C 557.243 649.846 615.785 641.219 672.198 624.385 C 672.381 624.351 672.555 624.415 672.738 624.376 C 673.2 624.273 673.537 623.963 673.978 623.826 C 734.59 605.417 792.72 579.657 847.071 547.121 C 855.118 542.371 857.792 531.998 853.045 523.949 Z  M 350.927 595.854 L 395.113 397.164 L 604.889 397.164 L 648.927 595.232 C 551.417 621.946 448.545 622.161 350.924 595.854 L 350.927 595.854 Z " fill="rgb(102,143,255)"/></g></svg>