<?xml version="1.0" encoding="UTF-8" standalone="no"?><!-- Generator: Gravit.io --><svg xmlns="http://www.w3.org/2000/svg" xmlns:xlink="http://www.w3.org/1999/xlink" style="isolation:isolate" viewBox="0 0 1000 1000" width="1000pt" height="1000pt"><defs><clipPath id="_clipPath_YX8xv30xiQk9gjRY7c9cwHuV9jN42nza"><rect width="1000" height="1000"/></clipPath></defs><g clip-path="url(#_clipPath_YX8xv30xiQk9gjRY7c9cwHuV9jN42nza)"><g clip-path="url(#_clipPath_VSk98yepOTORXjzF9GcRrYAoCGQRwM2i)"><text transform="matrix(1.156,0,0,1,204.133,894.863)" style="font-family:'Chicle';font-weight:400;font-size:225px;font-style:normal;fill:#ff5297;stroke:none;">sunhat</text></g><defs><clipPath id="_clipPath_VSk98yepOTORXjzF9GcRrYAoCGQRwM2i"><rect x="0" y="0" width="865" height="350" transform="matrix(1.156,0,0,1,0,650)"/></clipPath></defs><g><path d=" M 505 443.228 C 484.031 443.228 463.004 439.432 442.999 431.722 L 386.226 409.906 C 361.958 400.59 335.557 397.991 310.033 402.488 L 172.393 426.465 C 149.117 428.626 129.667 416.185 122.717 395.1 C 115.737 373.985 123.885 352.169 142.984 340.78 L 278.609 245.34 L 306.265 97.158 C 311.201 74.992 325.102 56.389 344.494 45.583 C 363.827 34.778 447.956 24.067 505 25.065 C 562.044 26.062 638.171 38.282 658.702 49.322 C 679.174 60.332 693.572 79.723 698.215 102.502 L 722.805 245.457 L 858.137 341.51 C 876.857 352.841 884.626 375.241 876.624 396.706 C 868.592 418.142 848.003 430.057 825.429 426.114 L 694.302 401.291 C 662.294 395.275 628.884 400.327 600.089 415.601 L 586.217 422.96 C 560.897 436.423 533.007 443.228 505 443.228 Z  M 334.652 371.152 C 355.796 371.152 376.793 375.007 396.682 382.659 L 453.455 404.474 C 492.296 419.368 535.694 416.711 572.462 397.231 L 586.334 389.872 C 620.911 371.473 661.184 365.34 699.646 372.671 L 830.51 397.465 C 840.556 399.1 846.777 392.968 849.172 386.543 C 851.566 380.118 850.982 371.386 842.046 365.954 L 700.931 265.842 C 697.777 263.593 695.616 260.205 694.973 256.409 L 669.449 107.964 C 666.645 94.121 657.65 82.001 644.83 75.109 C 632.009 68.217 554.946 53.18 505 52.195 C 455.054 51.211 370.836 64.42 358.687 71.166 C 346.596 77.913 337.893 89.565 334.885 103.116 L 306.236 256.613 C 305.564 260.351 303.403 263.681 300.308 265.871 L 158.901 365.311 C 149.263 371.094 148.387 379.65 150.461 385.959 C 152.534 392.238 158.112 398.692 168.421 397.553 L 305.039 373.722 C 314.822 371.999 324.752 371.152 334.652 371.152 Z  M 291.838 253.897 L 292.13 253.897 L 291.838 253.897 Z " fill="rgb(102,143,255)"/><path d=" M 704.348 268.499 L 295.489 268.499 C 287.429 268.499 280.887 261.957 280.887 253.897 C 280.887 245.837 287.429 239.295 295.489 239.295 L 704.348 239.295 C 712.408 239.295 718.95 245.837 718.95 253.897 C 718.95 261.957 712.408 268.499 704.348 268.499 Z  M 696.872 210.091 L 305.302 210.091 C 297.241 210.091 290.699 203.549 290.699 195.489 C 290.699 187.428 297.241 180.887 305.302 180.887 L 696.872 180.887 C 704.932 180.887 711.474 187.428 711.474 195.489 C 711.474 203.549 704.961 210.091 696.872 210.091 Z " fill="rgb(102,143,255)"/><path d=" M 772.683 410.439 Q 767.18 485.483 511.04 630.594 Q 240.536 493.028 239.406 400.459 C 223.252 402.352 241.609 400.748 220 404.474 Q 222.294 508.051 511.04 650 Q 786.819 504.774 791.42 410.439 C 770.724 409.275 796.58 409.275 772.683 410.439 Z " fill="rgb(102,143,255)"/></g><circle vector-effect="non-scaling-stroke" cx="505.0000000000001" cy="637" r="30.000000000000085" fill="rgb(102,143,255)"/></g></svg>