<?xml version="1.0" encoding="UTF-8" standalone="no"?><!-- Generator: Gravit.io --><svg xmlns="http://www.w3.org/2000/svg" xmlns:xlink="http://www.w3.org/1999/xlink" style="isolation:isolate" viewBox="0 0 1000 1000" width="1000pt" height="1000pt"><defs><clipPath id="_clipPath_3OHlYzcCMXxml4LLlCDh3UtYq87MhVnX"><rect width="1000" height="1000"/></clipPath></defs><g clip-path="url(#_clipPath_3OHlYzcCMXxml4LLlCDh3UtYq87MhVnX)"><g clip-path="url(#_clipPath_Cmsr5MQmrQ5P9f6rkdLTK9K7ocPzuM4r)"><text transform="matrix(1.156,0,0,1,363.844,894.863)" style="font-family:'Chicle';font-weight:400;font-size:225px;font-style:normal;fill:#668fff;stroke:none;">toy</text></g><defs><clipPath id="_clipPath_Cmsr5MQmrQ5P9f6rkdLTK9K7ocPzuM4r"><rect x="0" y="0" width="865" height="350" transform="matrix(1.156,0,0,1,0,650)"/></clipPath></defs><path d=" M 780.997 201.144 C 729.165 94.253 618.617 25 499.682 25 C 452.367 25 406.556 35.539 363.542 56.401 C 288.892 92.392 231.739 156.747 204.818 235.126 C 177.42 313.397 182.533 399.383 219.013 473.856 C 270.846 580.747 381.393 650 500.328 650 C 547.644 650 593.454 639.461 636.468 618.599 C 711.529 582.252 767.878 518.591 795.192 439.874 C 822.506 361.158 817.559 276.204 780.997 201.144 L 780.997 201.144 Z  M 750.457 215.984 C 778.201 272.978 784.438 334.704 772.824 392.343 C 765.942 389.332 759.49 386.106 753.038 382.45 L 759.705 374.277 C 765.727 366.965 764.652 356.211 757.339 350.404 C 753.875 347.515 749.396 346.138 744.907 346.582 C 740.418 347.027 736.295 349.257 733.466 352.77 L 724.218 364.169 C 714.325 356.857 704.861 348.899 696.043 340.081 L 704.216 333.414 C 711.529 327.607 712.604 316.853 706.797 309.541 C 700.902 302.264 690.238 301.111 682.924 306.96 L 673.461 314.702 C 665.718 304.594 658.406 294.055 652.169 282.872 L 663.998 277.065 C 672.385 272.978 676.042 262.87 671.955 254.267 C 667.831 245.804 657.653 242.251 649.158 246.309 L 637.329 252.116 C 631.952 238.997 627.866 225.662 624.639 212.113 L 635.823 209.532 C 645.071 207.381 650.663 198.348 648.512 189.1 C 646.362 179.852 637.329 174.26 628.081 176.411 L 619.048 178.562 C 617.972 166.302 617.542 154.043 618.187 141.784 L 631.092 141.569 C 640.555 141.354 647.867 133.612 647.652 124.148 C 647.437 114.9 639.91 107.588 630.661 107.588 L 630.231 107.588 L 621.843 107.803 C 622.919 101.566 624.209 95.544 625.93 89.522 C 678.192 115.976 722.927 158.99 750.457 215.984 L 750.457 215.984 Z  M 249.553 459.016 C 221.594 401.161 215.357 338.575 227.616 280.291 C 234.068 283.087 240.52 286.098 246.757 289.539 L 241.381 295.991 C 238.491 299.455 237.114 303.935 237.559 308.424 C 238.004 312.913 240.233 317.035 243.746 319.864 C 246.973 322.445 250.844 323.735 254.5 323.735 C 259.447 323.735 264.178 321.585 267.62 317.498 L 275.792 307.605 C 285.901 314.702 295.364 322.66 304.182 331.048 L 296.869 336.855 C 289.593 342.75 288.44 353.414 294.288 360.728 C 297.73 364.814 302.676 367.18 307.623 367.18 C 311.279 367.18 315.15 365.89 318.161 363.524 L 327.195 356.211 C 335.797 366.965 343.755 378.579 350.637 390.838 L 338.808 396.645 C 330.345 400.769 326.793 410.947 330.851 419.443 C 333.862 425.465 339.884 429.121 346.121 429.121 C 348.702 429.121 351.068 428.476 353.433 427.4 L 365.262 421.593 C 370.209 433.637 374.08 445.681 377.091 458.156 L 365.047 460.951 C 355.799 463.102 350.207 472.135 352.358 481.383 C 354.085 489.12 360.992 494.592 368.919 494.503 C 370.209 494.503 371.499 494.288 372.79 494.073 L 383.113 491.707 C 384.404 503.966 384.834 516.44 384.619 528.699 L 369.994 529.129 C 360.531 529.344 353.218 537.087 353.433 546.55 C 353.648 555.798 361.176 563.111 370.424 563.111 L 370.854 563.111 L 381.393 562.896 C 380.102 570.853 378.382 579.026 376.231 586.984 C 320.922 559.64 276.336 514.599 249.553 459.016 L 249.553 459.016 Z  M 621.413 588.059 C 582.27 606.986 540.761 616.019 500.113 616.019 C 468.497 616.019 437.312 610.642 407.847 600.318 C 411.503 587.629 414.084 574.94 416.019 562.035 L 438.602 561.605 C 448.065 561.39 455.378 553.648 455.162 544.184 C 454.947 534.936 447.42 527.624 438.172 527.624 L 437.742 527.624 L 419.03 528.054 C 419.461 513.429 418.815 498.589 416.88 484.179 L 434.516 480.093 C 443.764 477.942 449.356 468.909 447.205 459.661 C 445.054 450.413 436.021 444.821 426.773 446.972 L 410.427 450.628 C 406.771 435.788 402.04 421.163 396.018 406.753 L 408.922 400.516 C 417.31 396.43 420.966 386.321 416.88 377.718 C 412.755 369.255 402.577 365.703 394.082 369.761 L 381.393 375.998 C 373.22 361.373 363.972 347.608 353.648 334.919 L 367.198 323.95 C 374.51 318.144 375.586 307.39 369.779 300.077 C 363.972 292.765 353.218 291.475 345.906 297.497 L 330.851 309.541 C 320.527 299.217 309.344 289.754 297.515 281.151 L 310.634 265.451 C 316.656 258.138 315.581 247.385 308.268 241.578 C 304.802 238.694 300.324 237.32 295.837 237.765 C 291.349 238.21 287.228 240.435 284.395 243.944 L 268.695 262.87 C 258.371 257.063 247.618 251.901 236.434 247.17 C 259.662 179.422 308.698 120.707 378.167 86.941 C 417.31 68.014 458.819 58.981 499.467 58.981 C 531.728 58.981 563.774 64.573 593.884 75.542 C 590.873 86.511 588.507 97.264 586.787 108.448 L 562.269 109.093 C 552.805 109.308 545.493 117.051 545.708 126.514 C 545.923 135.762 553.451 143.075 562.699 143.075 L 563.129 143.075 L 583.561 142.645 C 582.915 157.269 583.561 171.894 585.066 186.304 L 566.14 190.606 C 556.892 192.756 551.3 201.789 553.451 211.038 C 555.178 218.774 562.085 224.246 570.011 224.157 C 571.302 224.157 572.592 223.942 573.882 223.727 L 590.873 219.855 C 594.529 235.771 599.691 251.686 606.143 266.956 L 593.454 273.193 C 584.991 277.318 581.438 287.496 585.496 295.991 C 588.507 302.013 594.529 305.669 600.766 305.669 C 603.347 305.669 605.713 305.024 608.079 303.949 L 620.983 297.712 C 628.511 311.261 637.114 323.95 646.577 335.994 L 633.672 346.533 C 626.396 352.428 625.243 363.092 631.092 370.406 C 634.533 374.492 639.479 376.858 644.426 376.858 C 648.082 376.858 651.954 375.568 654.965 373.202 L 669.159 361.803 C 679.483 372.342 690.667 381.805 702.496 390.623 L 690.452 405.033 C 687.562 408.497 686.185 412.976 686.63 417.465 C 687.074 421.954 689.304 426.076 692.817 428.906 C 696.043 431.487 699.915 432.777 703.571 432.777 C 708.518 432.777 713.249 430.626 716.69 426.54 L 731.1 409.119 C 741.639 415.141 752.607 420.733 764.006 425.465 C 741.209 494.288 691.742 554.078 621.413 588.059 L 621.413 588.059 Z " fill="rgb(255,82,151)"/></g></svg>